<?xml version="1.0" encoding="utf-8"?>
<!-- Generator: Adobe Illustrator 24.1.3, SVG Export Plug-In . SVG Version: 6.00 Build 0)  -->
<svg version="1.1" id="Слой_1" xmlns="http://www.w3.org/2000/svg" xmlns:xlink="http://www.w3.org/1999/xlink" x="0px" y="0px"
	 viewBox="0 0 500 500" style="enable-background:new 0 0 500 500;" xml:space="preserve">
<style type="text/css">
	.st0{fill:none;}
	.st1{fill:#FFE59C;}
	.st2{fill:#F5F5F5;}
	.st3{fill:#263238;}
	.st4{fill:#936754;}
	.st5{fill:#7C5142;}
	.st6{fill:#455A64;}
	.st7{opacity:0.3;}
	.st8{fill:#E0E0E0;}
	.st9{fill:#E8505B;}
	.st10{fill:#111142;}
	.st11{fill:#7877A7;}
	.st12{fill:#FAFAFA;}
	.st13{fill:none;stroke:#FFFFFF;stroke-miterlimit:10;}
	.st14{fill:#FFBE9D;}
	.st15{fill:#EB996E;}
	.st16{fill:#F3CE63;}
	.st17{fill:#547FB2;}
	.st18{fill:#8396A8;}
</style>
<g>
	<g>
		<path class="st0" d="M243.1,210.5L243.1,210.5L243.1,210.5z"/>
	</g>
	<g>
		<polygon class="st0" points="242.9,210.5 243.1,210.5 243.1,210.5 		"/>
	</g>
	<g>
		<polygon class="st0" points="242.9,210.4 242.8,210.5 242.9,210.5 		"/>
	</g>
	<g>
		<path class="st0" d="M242.8,210.4L242.8,210.4L242.8,210.4z"/>
	</g>
	<g>
		<path class="st0" d="M242.8,210.3L242.8,210.3L242.8,210.3z"/>
	</g>
	<g>
		<polygon class="st0" points="243.1,210.4 243.1,210.4 243.1,210.5 		"/>
	</g>
	<g>
		<polygon class="st0" points="242.7,210.5 242.7,210.4 242.4,210.3 		"/>
	</g>
	<g>
		<path class="st0" d="M242.8,210.4L242.8,210.4L242.8,210.4z"/>
	</g>
	<g>
		<path class="st0" d="M243.1,210.4L243.1,210.4L243.1,210.4z"/>
	</g>
	<g>
		<path class="st0" d="M242.9,210.5L242.9,210.5L242.9,210.5z"/>
	</g>
	<g>
		<path class="st1" d="M205,17l18.9,97.2c0.1,0,0.3,0,0.4-0.1l18.5,95.3l10.9-96.4c0.1,0,0.1,0,0.3,0l10.9-96.8
			c-11.8-1.3-24-1.7-36.2-1.3C220.6,15.3,212.8,16,205,17z"/>
	</g>
	<g>
		<path class="st1" d="M374.4,57.5c-15.7-11.1-33.1-20.4-51.7-27.5l-39.7,89.7c0.1,0,0.1,0.1,0.3,0.1L243,210.3L374.4,57.5z"/>
	</g>
	<path class="st1" d="M140.7,187L140.7,187l101.5,23.3l-0.4,0l0.9,0.2l0,0l0,0l0,0l0,0l0,0l0.1,0l0,0l0,0l0,0l0,0l0,0l0-0.1l0.1,0.1
		l-0.1,0l0.1,0l0,0l0,0l0,0l0,0l0,0l0,0l0,0l0,0l0,0l0,0l0.4,0.1l-0.4-0.2l102,23.4c0,0.1,0,0.1,0,0.2l113.2,26.1
		c3-14.7,4.2-30,3.6-45.6c-0.2-4.3-0.5-8.6-0.9-12.9L348.2,206c0,0.1,0,0.1,0,0.2l-105.2,4.2l0,0l0,0l0,0l0-0.1l0.5-0.1l-0.4,0.2
		l0.9-0.3l-0.4,0L446.4,146c-7.5-17.8-17.7-34.2-29.9-49.2L243.4,210.2l-0.3,0l0.1-0.1l-0.3,0.1l0,0l0,0l0,0l0.1-0.6l-0.1,0.4l0,0.1
		l-0.1,0.1l0-0.1l-0.1,0l0-0.1l-0.1-0.3l0.1,0.4l0,0l0,0l0,0l-0.3-0.1l0.1,0.1l-0.4,0L51.1,106.1c-12.2,16.4-21.9,34.4-28.6,53.7
		L140.7,187z M243.1,210.5L243.1,210.5L243.1,210.5L243.1,210.5z M242.9,210.5L242.9,210.5L242.9,210.5L242.9,210.5z M243.1,210.4
		L243.1,210.4L243.1,210.4L243.1,210.4z M243.1,210.4L243.1,210.4L243.1,210.4L243.1,210.4z M242.9,210.5L242.9,210.5L242.9,210.5
		L242.9,210.5z M242.8,210.4L242.8,210.4L242.8,210.4L242.8,210.4z M242.8,210.3L242.8,210.3L242.8,210.3L242.8,210.3z M242.8,210.4
		L242.8,210.4L242.8,210.4L242.8,210.4z M242.7,210.4L242.7,210.4L242.7,210.4l-0.4-0.1L242.7,210.4z"/>
	<g>
		<path class="st1" d="M170.9,139.3L170.9,139.3l71.7,70.9l-47.1-87l0,0l-49.2-90.4c-19.2,7.8-36.8,18.1-52.6,30.3L170.9,139.3z"/>
	</g>
	<g>
		<path class="st1" d="M333.7,260L333.7,260l-90.3-49l71.7,70.8l-0.1,0.1l85.3,84.5c15-14.7,27.6-31.3,37.7-49.5L333.7,260z"/>
	</g>
	<g>
		<path class="st2" d="M243.1,210.7L243.1,210.7L243.1,210.7z"/>
	</g>
	<g>
		<polygon class="st2" points="242.8,210.5 242.8,210.5 242.8,210.5 242.8,210.6 242.8,210.6 242.8,210.6 242.8,210.6 242.8,210.6 
			242.8,210.5 242.8,210.5 242.8,210.5 242.8,210.5 242.7,210.5 		"/>
	</g>
	<g>
		<polygon class="st2" points="242.7,210.6 242.7,210.5 242.7,210.5 242.3,210.8 		"/>
	</g>
	<path class="st1" d="M242.4,211l-85.8,56.2c-0.1-0.1-0.1-0.2-0.3-0.3L47.5,338c12.4,17.7,27.7,33.4,45.2,46.8l96.9-112.3L242.4,211
		z"/>
	<g>
		<path class="st1" d="M142.9,242.1l99.7-31.6l-231.2,9.2c-0.1,4.1-0.1,8.3,0.1,12.4c0.7,16.9,3.5,33.2,8.2,48.8L142.9,242.1
			L142.9,242.1z"/>
	</g>
	<g>
		<path class="st1" d="M242.7,211.3l-91.4,205.8c20.8,7.8,43.2,12.7,66.5,14.5L242.7,211.3z"/>
	</g>
	<g>
		<polygon class="st2" points="243.1,210.5 243.1,210.6 243.1,210.6 		"/>
	</g>
	<g>
		<path class="st1" d="M243.2,211.3L285,427.1c22.4-4.6,43.5-12.3,62.9-22.6L243.2,211.3z"/>
	</g>
	<g>
		<polygon class="st2" points="242.8,210.9 243,211.6 243.1,211 242.9,210.6 		"/>
	</g>
	<g>
		<path class="st2" d="M243.1,210.6L243.1,210.6L243.1,210.6z"/>
	</g>
</g>
<g>
	<g>
		<g>
			<path class="st3" d="M344.3,190.7c-0.8,5.9,1.4,12.2,5.6,15.9c4.3,3.7,10.4,4.7,15.5,2.6c6.5-2.8,10.8-10.1,17.5-12.4
				c2.9-1,6-1,8.9-2c3.4-1.3,6.4-4.4,7.2-8.2c0.8-3.9-1.1-8.4-4.4-9.8c-1.8-0.8-4-0.8-5.1-2.5c-1.6-2.4,0.4-5.6,0.9-8.6
				c0.7-4.2-2.3-8.5-6.1-9.7c-3.8-1.1-8,0.4-10.9,3.2c-2.5,2.4-5,4.7-8.4,5.3c-2.1,0.3-6.1-0.1-8.5-4.9"/>
		</g>
	</g>
	<g>
		<g>
			<g>
				<path class="st3" d="M371.4,156c0,0,0,0.1,0.1,0.4c0,0.3,0.1,0.7,0,1.2c-0.1,1-0.3,2.6-1.4,4.1c-0.5,0.8-1.2,1.5-2,2.1
					c-0.9,0.6-1.9,1-3.1,1.1c-1.1,0.1-2.4-0.1-3.5-0.6c-1.2-0.5-2.2-1.4-3-2.6c-0.8-1.1-1.4-2.4-1.9-3.6c-0.5-1.2-1.1-2.3-1.7-3.3
					c-1.3-1.9-3.2-3-4.7-3.5c-1.6-0.5-3-0.4-3.9-0.3c-0.9,0.2-1.4,0.4-1.4,0.3c0,0,0.1-0.1,0.4-0.2c0.2-0.1,0.6-0.2,1.1-0.3
					c0.9-0.2,2.3-0.3,4,0.2c1.6,0.5,3.6,1.5,5,3.5s2.2,4.6,3.7,6.8c0.7,1.1,1.7,2,2.8,2.5c1.1,0.5,2.3,0.7,3.3,0.6
					c1.1-0.1,2.1-0.4,2.9-1c0.8-0.5,1.5-1.3,2-2c1-1.5,1.3-3,1.4-4C371.5,156.6,371.4,156,371.4,156z"/>
			</g>
		</g>
	</g>
</g>
<g>
	<g>
		<g>
			<path class="st4" d="M388.4,150.2l-2.9,39.8l-24.9,17.6c0,0,3.6,23.9,3.8,24.4l30.6-25.5c3.8-3.1,6.2-8,6.3-13.2l-1.3-46"/>
		</g>
	</g>
	<g>
		<g>
			<g>
				<g>
					<path class="st4" d="M385.4,131.8c-0.2-0.1-3.3,8.8-3,10.2s3.3,5.5,4.6,6.3c2.4,1.5,0.8,7.1,1,8l12.3,0.7l-0.3-10.3l0.8-7
						c0.4-1.4,0.4-3,0-4.4c-0.4-1.6-1.1-3.3-2.2-3.1c-1.9,0.3-2.1,0.9-2.1,0.9s-1.3-2.1-2.3-0.3c0,0-1.8-2.3-3.3-0.3
						c0,0-2-2.2-3.5,1.2l-0.8,2.4C386.7,135.9,387.5,133.1,385.4,131.8z"/>
				</g>
			</g>
			<g>
				<g>
					<g>
						<path class="st5" d="M390.7,143.4c-0.1,0-0.3-0.6-1-1.5c-0.3-0.4-0.8-0.8-1.4-1.2c-0.6-0.3-1.3-0.5-2.1-0.6
							c-0.2,0-0.4,0-0.6,0h-0.3l0.1-0.3c0.4-1.5,0.7-2.9,1-3.9s0.4-1.6,0.5-1.5c0,0,0,0.6-0.2,1.6s-0.5,2.4-0.8,3.9l-0.2-0.3
							c0.2,0,0.4,0,0.7,0c0.8,0,1.6,0.3,2.3,0.7c0.6,0.4,1.1,0.9,1.5,1.3C390.6,142.6,390.8,143.4,390.7,143.4z"/>
					</g>
				</g>
			</g>
			<g>
				<g>
					<g>
						<path class="st5" d="M398.3,136c0,0-0.1,0.2-0.2,0.6c-0.1,0.4-0.4,0.9-0.3,1.5c0,0.2,0.1,0.3,0.2,0.5s0.2,0.4,0.2,0.6
							c0,0.5-0.2,1-0.6,1.3c-0.8,0.6-2.2,0.3-2.7-0.8c-0.2-0.6-0.2-1.2-0.2-1.7c0.1-0.5,0.2-1,0.3-1.5c0.2-0.9,0.5-1.7,0.8-2.4
							c0.2-0.7,0.5-1.2,0.8-1.5s0.5-0.3,0.5-0.3s-0.2,0.1-0.4,0.4c-0.2,0.3-0.5,0.8-0.7,1.5s-0.5,1.5-0.7,2.4s-0.5,2-0.1,2.9
							s1.5,1.1,2.1,0.7c0.3-0.2,0.5-0.6,0.5-1c0-0.3-0.3-0.7-0.4-1.1c-0.1-0.8,0.2-1.3,0.4-1.7C398.1,136.2,398.3,136,398.3,136z"/>
					</g>
				</g>
			</g>
			<g>
				<g>
					<g>
						<path class="st5" d="M395.2,139.8c0,0,0,0.2-0.2,0.4s-0.6,0.5-1.1,0.5s-1.1-0.4-1.5-1.1c-0.4-0.7-0.4-1.5-0.3-2.3
							c0.2-1.7,0.9-3,1.5-3.9s1.1-1.2,1.1-1.2s-0.4,0.5-0.9,1.4s-1.1,2.2-1.3,3.8c-0.1,0.8,0,1.5,0.3,2.1s0.7,0.9,1.2,1
							c0.4,0.1,0.8-0.1,1-0.3C395.1,139.9,395.1,139.8,395.2,139.8z"/>
					</g>
				</g>
			</g>
			<g>
				<g>
					<g>
						<path class="st5" d="M392.3,139.3c0,0,0,0.2-0.2,0.3c-0.2,0.2-0.6,0.4-1,0.4c-0.5,0-1.1-0.2-1.5-0.8c-0.4-0.5-0.6-1.3-0.6-2.1
							s0.3-1.5,0.5-2.1s0.5-1.1,0.7-1.5c0.4-0.8,0.7-1.4,0.8-1.3s-0.1,0.6-0.5,1.5c-0.3,0.9-1,2.1-1.1,3.4c0,0.7,0.2,1.3,0.5,1.8
							s0.8,0.7,1.2,0.7C391.9,139.8,392.3,139.2,392.3,139.3z"/>
					</g>
				</g>
			</g>
			<g>
				<g>
					<g>
						<path class="st5" d="M389.1,138.2c0,0,0,0.2-0.1,0.5s-0.3,0.7-0.7,1.1c-0.4,0.4-1.1,0.7-1.8,0.3c-0.7-0.4-0.9-1.4-0.7-2.3
							c0.3-1.6,0.9-3,1.3-3.9c0.4-1,0.8-1.5,0.9-1.5c0.1,0.1-1.1,2.4-1.8,5.5c-0.2,0.7,0,1.5,0.5,1.8s1.1,0.1,1.4-0.2
							c0.4-0.3,0.6-0.7,0.7-0.9C389,138.3,389.1,138.2,389.1,138.2z"/>
					</g>
				</g>
			</g>
		</g>
		<g>
			<g>
				<g>
					<path class="st5" d="M396.6,141.5c0,0.1-1.4-0.3-3,0.1c-1.6,0.4-2.6,1.5-2.7,1.4c0,0,0.2-0.4,0.6-0.8c0.4-0.4,1.1-0.8,2-1.1
						c0.9-0.2,1.7-0.2,2.2-0.1C396.3,141.3,396.6,141.4,396.6,141.5z"/>
				</g>
			</g>
		</g>
	</g>
</g>
<g>
	<g>
		<g>
			<path class="st3" d="M320,217.6c-7.4,0.7-13.8-5.1-14.9-8.7c-1.1-3.5,0.1-7.7,2.7-10c2.1-1.9,5.1-2.8,6.1-5.5
				c1.7-4.8-4.3-10.1-2.2-14.7c1.5-3.2,6-3.2,8.1-6c1.9-2.5,1.2-6.1,1.8-9.3c1-5.3,6-9.1,11-9.3s9.8,2.7,13.2,6.6
				c3.4,3.9,5.7,8.9,7.7,13.9c1.6,4,3.1,8.4,2.4,12.7c-1,6.4-6.4,10.8-11.6,14.1C336,207,329.7,218.5,320,217.6"/>
		</g>
	</g>
	<g>
		<g>
			<g>
				<path class="st3" d="M308.1,203.1c0,0,0,0-0.1,0s-0.2,0-0.4,0c-0.3,0-0.9-0.2-1.4-0.5c-0.6-0.3-1.2-0.9-1.7-1.9
					c-0.4-0.9-0.5-2.2-0.1-3.5c0.2-0.6,0.6-1.2,1.1-1.7s1.1-0.9,1.7-1.2c0.6-0.4,1.2-0.7,1.8-1.2c0.6-0.5,1.1-1.1,1.4-1.8
					c0.6-1.5,0.4-3.3,0-5s-1.2-3.5-1.5-5.4c-0.2-1-0.2-2-0.1-2.9c0.1-1,0.5-1.9,1.1-2.6c0.6-0.7,1.4-1.2,2.1-1.5
					c0.8-0.3,1.5-0.5,2.3-0.7c1.5-0.4,2.9-0.9,3.9-1.9s1.6-2.2,2-3.4c0.8-2.4,0.8-4.5,0.8-5.9c0-0.7,0-1.2,0-1.6c0-0.4,0-0.6,0-0.6
					s0,0.2,0.1,0.6c0,0.4,0.1,0.9,0.1,1.6c0,1.4,0.1,3.5-0.7,6c-0.4,1.2-1,2.5-2.1,3.5c-1,1.1-2.5,1.6-4,2s-3.1,0.8-4.2,2.1
					c-0.6,0.6-0.9,1.5-1,2.4s-0.1,1.9,0.1,2.8c0.3,1.9,1,3.6,1.5,5.4c0.4,1.8,0.6,3.7-0.1,5.3c-0.3,0.8-0.9,1.5-1.5,1.9
					c-0.6,0.5-1.3,0.8-1.9,1.2s-1.2,0.7-1.6,1.2c-0.5,0.4-0.8,1-1,1.6c-0.4,1.2-0.3,2.4,0,3.2c0.4,0.9,1,1.5,1.5,1.8
					C307.4,203.1,308.1,203,308.1,203.1z"/>
			</g>
		</g>
	</g>
</g>
<g>
	<g>
		<g>
			<g>
				<g>
					<g>
						<g>
							<g>
								<path class="st6" d="M375,354.9l14.5-7.3c0,0,11.7,13.6,14.5,12.5L392,329l-23,10.4L375,354.9z"/>
							</g>
						</g>
					</g>
				</g>
				<g class="st7">
					<g>
						<g>
							<g>
								<path d="M375,354.9l14.5-7.3c0,0,11.7,13.6,14.5,12.5L392,329l-23,10.4L375,354.9z"/>
							</g>
						</g>
					</g>
				</g>
				<g>
					<g>
						<g>
							<g>
								<g>
									<path class="st8" d="M384.6,338.5c-0.1-0.7,0.4-1.4,1-1.5s1.3,0.4,1.4,1.1s-0.4,1.5-1.1,1.6
										C385.3,339.7,384.5,339.1,384.6,338.5"/>
								</g>
							</g>
						</g>
					</g>
				</g>
				<g>
					<g>
						<g>
							<g>
								<path class="st8" d="M392,329l-2.3,1.1l12.4,29.4c0,0,1.1,1.1,1.9,0.6L392,329z"/>
							</g>
						</g>
					</g>
				</g>
				<g>
					<g>
						<g>
							<g>
								<g>
									<path class="st3" d="M389.6,348.1c0.1-0.1-0.1-0.9,0.1-1.8c0.1-1,0.6-1.6,0.5-1.7s-0.8,0.5-1,1.6
										C388.9,347.4,389.5,348.2,389.6,348.1z"/>
								</g>
							</g>
						</g>
					</g>
				</g>
				<g>
					<g>
						<g>
							<g>
								<g>
									<path class="st3" d="M392.1,350.8c0.1,0,0.1-0.8,0.5-1.6c0.4-0.8,1-1.2,0.9-1.4c0-0.2-0.9,0.1-1.4,1.1
										C391.6,350,391.9,350.9,392.1,350.8z"/>
								</g>
							</g>
						</g>
					</g>
				</g>
				<g>
					<g>
						<g>
							<g>
								<g>
									<path class="st3" d="M396.4,351c0-0.2-0.8,0-1.4,0.7s-0.6,1.6-0.5,1.6s0.4-0.6,0.9-1.2C395.8,351.5,396.4,351.2,396.4,351z
										"/>
								</g>
							</g>
						</g>
					</g>
				</g>
				<g>
					<g>
						<g>
							<g>
								<g>
									<path class="st3" d="M386.1,349.4c0.1-0.1-0.4-0.7-0.6-1.6c-0.3-0.9-0.3-1.7-0.4-1.7s-0.4,0.8-0.1,1.9
										C385.3,349,386,349.5,386.1,349.4z"/>
								</g>
							</g>
						</g>
					</g>
				</g>
			</g>
			<g>
				<g>
					<g>
						<g>
							<g>
								<path class="st3" d="M383.2,350.8c0.1,0-0.1-0.7-0.6-1.6c-0.3-0.4-0.6-0.9-1.1-1.4c-0.2-0.2-0.5-0.5-0.8-0.7
									c-0.1-0.1-0.3-0.2-0.5-0.3c-0.2-0.1-0.6,0-0.8,0.3c-0.2,0.3-0.1,0.6-0.1,0.8c0.1,0.2,0.2,0.4,0.3,0.6
									c0.2,0.3,0.4,0.6,0.7,0.8c0.5,0.5,1,0.8,1.4,1c0.9,0.4,1.5,0.4,1.5,0.4c0-0.1-0.6-0.2-1.3-0.7c-0.4-0.3-0.8-0.6-1.3-1.1
									c-0.2-0.2-0.4-0.5-0.6-0.8s-0.3-0.6-0.2-0.7c0-0.1,0.1-0.1,0.2,0c0.1,0,0.2,0.1,0.4,0.2c0.3,0.2,0.5,0.4,0.7,0.6
									c0.5,0.4,0.8,0.9,1.1,1.3C382.8,350.3,383.1,350.9,383.2,350.8z"/>
							</g>
						</g>
					</g>
				</g>
			</g>
			<g>
				<g>
					<g>
						<g>
							<g>
								<path class="st3" d="M383.3,350.5c0-0.1-0.6-0.1-1.5,0.2c-0.5,0.2-1,0.5-1.5,0.9c-0.2,0.2-0.5,0.5-0.7,0.8s-0.5,0.7-0.3,1.3
									c0.1,0.3,0.4,0.5,0.6,0.5s0.4,0,0.6-0.1c0.4-0.1,0.7-0.3,1-0.4c0.6-0.4,1-0.9,1.2-1.3c0.5-0.9,0.4-1.7,0.4-1.6
									c-0.1,0-0.2,0.6-0.7,1.4c-0.3,0.4-0.6,0.8-1.2,1.1c-0.3,0.2-0.5,0.3-0.8,0.3c-0.3,0.1-0.6,0.1-0.6-0.1
									c-0.1-0.2,0.1-0.5,0.3-0.8c0.2-0.3,0.4-0.5,0.6-0.7c0.4-0.4,0.9-0.7,1.3-1C382.7,350.7,383.3,350.6,383.3,350.5z"/>
							</g>
						</g>
					</g>
				</g>
			</g>
		</g>
	</g>
	<g>
		<g>
			<polygon class="st3" points="376.7,348.1 372.1,336.9 362.4,341.8 353.4,361.3 			"/>
		</g>
	</g>
</g>
<g>
	<g>
		<g>
			<g>
				<g>
					<g>
						<g>
							<path class="st6" d="M391.1,361.4l14.7-6.8c0,0,11.3,14,14.1,13l-11.1-31.5l-23.3,9.6L391.1,361.4z"/>
						</g>
					</g>
				</g>
			</g>
			<g>
				<g>
					<g>
						<g>
							<g>
								<path class="st8" d="M401.1,345.4c-0.1-0.7,0.4-1.4,1-1.5s1.3,0.4,1.3,1.1c0.1,0.7-0.5,1.5-1.1,1.5s-1.3-0.6-1.3-1.3"/>
							</g>
						</g>
					</g>
				</g>
			</g>
			<g>
				<g>
					<g>
						<g>
							<path class="st8" d="M408.8,336.1l-2.3,1.1L418,367c0,0,1.1,1.2,1.9,0.6L408.8,336.1z"/>
						</g>
					</g>
				</g>
			</g>
			<g>
				<g>
					<g>
						<g>
							<g>
								<path class="st3" d="M405.9,355.2c0.1-0.1-0.1-0.9,0.1-1.8c0.2-1,0.6-1.6,0.5-1.7s-0.8,0.5-1,1.6
									C405.2,354.4,405.7,355.3,405.9,355.2z"/>
							</g>
						</g>
					</g>
				</g>
			</g>
			<g>
				<g>
					<g>
						<g>
							<g>
								<path class="st3" d="M408.3,358c0.1,0,0.2-0.8,0.6-1.6c0.4-0.8,1-1.2,0.9-1.3c0-0.2-0.9,0.1-1.4,1.1
									C407.9,357.1,408.1,358,408.3,358z"/>
							</g>
						</g>
					</g>
				</g>
			</g>
			<g>
				<g>
					<g>
						<g>
							<g>
								<path class="st3" d="M412.6,358.3c0-0.2-0.8-0.1-1.4,0.6s-0.7,1.6-0.5,1.6c0.1,0,0.4-0.6,0.9-1.2
									C412,358.8,412.6,358.5,412.6,358.3z"/>
							</g>
						</g>
					</g>
				</g>
			</g>
			<g>
				<g>
					<g>
						<g>
							<g>
								<path class="st3" d="M402.4,356.3c0.1-0.1-0.3-0.7-0.6-1.6c-0.3-0.9-0.2-1.7-0.4-1.7c-0.1,0-0.4,0.8-0.1,1.9
									C401.6,355.9,402.3,356.5,402.4,356.3z"/>
							</g>
						</g>
					</g>
				</g>
			</g>
		</g>
		<g>
			<g>
				<g>
					<g>
						<g>
							<path class="st3" d="M399.4,357.7c0.1,0-0.1-0.7-0.6-1.6c-0.2-0.5-0.6-1-1-1.5c-0.2-0.2-0.5-0.5-0.8-0.7
								c-0.1-0.1-0.3-0.2-0.5-0.3c-0.2-0.1-0.6,0-0.8,0.2c-0.2,0.3-0.2,0.6-0.1,0.8c0.1,0.2,0.2,0.4,0.3,0.6
								c0.2,0.3,0.4,0.6,0.7,0.9c0.5,0.5,1,0.9,1.4,1.1C398.8,357.6,399.4,357.6,399.4,357.7c0.1-0.2-0.5-0.4-1.2-0.9
								c-0.4-0.3-0.8-0.6-1.2-1.1c-0.2-0.2-0.4-0.5-0.6-0.8s-0.3-0.6-0.2-0.7c0-0.1,0.1-0.1,0.2,0c0.1,0,0.2,0.1,0.4,0.2
								c0.3,0.2,0.5,0.4,0.7,0.7c0.4,0.4,0.8,0.9,1.1,1.3C399,357.1,399.3,357.7,399.4,357.7z"/>
						</g>
					</g>
				</g>
			</g>
		</g>
		<g>
			<g>
				<g>
					<g>
						<g>
							<path class="st3" d="M399.5,357.4c0-0.1-0.6-0.2-1.5,0.2c-0.5,0.2-1,0.4-1.5,0.9c-0.3,0.2-0.5,0.5-0.7,0.8s-0.5,0.7-0.4,1.3
								c0.1,0.3,0.4,0.5,0.6,0.5s0.4,0,0.6-0.1c0.4-0.1,0.7-0.2,1-0.4c0.6-0.4,1-0.8,1.3-1.3c0.5-0.9,0.5-1.6,0.4-1.6
								s-0.2,0.6-0.7,1.4c-0.3,0.4-0.7,0.8-1.2,1.1c-0.3,0.1-0.5,0.3-0.8,0.3c-0.3,0.1-0.6,0.1-0.6-0.1c-0.1-0.2,0.1-0.5,0.3-0.8
								c0.2-0.3,0.4-0.5,0.6-0.7c0.5-0.4,0.9-0.7,1.3-0.9C398.9,357.5,399.5,357.5,399.5,357.4z"/>
						</g>
					</g>
				</g>
			</g>
		</g>
	</g>
</g>
<g>
	<g>
		<path class="st9" d="M317.8,300.4c0,0,36.3-5.5,43.8-11.5c7.4-6,7.1-7.8,7.1-7.8s1.2-6.2-3.4-7c-4.5-0.8-26,5.6-26,5.6l-12.6-3.5
			l-10.4,6.7l-7,9.4c0,0,1.9,5.5,4.6,6.4s3.9,1.1,3.9,1.1"/>
	</g>
</g>
<g>
	<path class="st10" d="M317.8,300.4c0,0,36.3-5.5,43.8-11.5c7.4-6,7.1-7.8,7.1-7.8s1.2-6.2-3.4-7c-4.5-0.8-26,5.6-26,5.6l-12.6-3.5
		l-10.4,6.7l-7,9.4c0,0,1.9,5.5,4.6,6.4s3.9,1.1,3.9,1.1"/>
</g>
<g>
	<g>
		<path class="st4" d="M319.5,293.1c-0.3-0.8-0.6-11-0.6-11s2.6-4.6,7.6-4.6c5-0.1,12.2,2.4,12.2,2.4l21.2-7.6l1.7,8.8
			c0,0-16,14.8-24.5,14.7C327.2,295.7,319.5,293.1,319.5,293.1z"/>
	</g>
</g>
<g>
	<g>
		<g>
			<path class="st4" d="M299.3,269.3L299.3,269.3c-2.4,0.9-4.7,0.8-7.1-0.1c-2.9-1.1-5.4-3.2-7.2-5.9l-1.9-2.6
				c-2.2-2.3-15.7-22.5-15.7-22.5l7.2-12.7l16.2,20.7l4.6-14l13.8,10.5l-3.7,16.8C304.6,263.8,303.1,267.8,299.3,269.3z"/>
		</g>
	</g>
	<g>
		<g>
			<path class="st4" d="M266.2,206.6c0,0,3.9,6.3,4.9,8.3c0.8,1.7,3.8,7.1,3.6,12.8l-7.3,10.3c0,0-3.5-2.9-4.1-4s0-2.7,0-2.7
				s-1.1-1-1.6-1.2c0,0,0.3,2-1,2.3c-1.3,0.4-5.8-4.8-5.8-4.8s-0.3-2.2,0.9-2.3c0,0-0.9-3,0-3.9c0,0-1-2.4,0.2-3.5
				c0,0,0.6-2.8,1.5-3.8s10,2,10,2s-2.2-5.2-2.4-6.7C264.8,208,266.2,206.6,266.2,206.6z"/>
		</g>
	</g>
	<g>
		<g>
			<g>
				<path class="st5" d="M260.6,225.8c0,0,0.1,0.1,0.4,0.3c0.2,0.2,0.6,0.5,0.8,1c0.1,0.2,0.3,0.5,0.3,0.9s0,0.7-0.2,1.1
					c-0.1,0.4-0.5,0.7-0.9,0.8s-0.9-0.1-1.2-0.3c-0.7-0.5-1.2-1.1-1.7-1.6s-0.9-0.9-1.3-1.3c-0.7-0.8-1.2-1.3-1.1-1.3
					c0,0,0.5,0.4,1.3,1.1c0.4,0.4,0.9,0.8,1.3,1.3c0.5,0.5,1,1.1,1.6,1.5s1.4,0.3,1.6-0.3c0.1-0.3,0.2-0.6,0.2-0.9
					c0-0.3-0.1-0.5-0.2-0.8c-0.2-0.5-0.5-0.8-0.7-1C260.7,226,260.6,225.9,260.6,225.8z"/>
			</g>
		</g>
	</g>
	<g>
		<g>
			<g>
				<path class="st5" d="M260.1,217.1c0,0,0.7,0.6,1.7,1.6c0.2,0.3,0.5,0.5,0.8,0.8s0.6,0.7,0.8,1.2c0.2,0.5,0.1,1.2-0.2,1.6
					c-0.3,0.5-0.8,0.9-1.4,0.8c-0.6-0.1-1-0.5-1.4-0.8c-0.4-0.4-0.7-0.7-1-1c-0.6-0.6-1.2-1.2-1.7-1.8c-1-1-1.6-1.7-1.5-1.7
					c0,0,0.7,0.5,1.7,1.5c0.5,0.5,1.1,1.1,1.8,1.7c0.3,0.3,0.7,0.7,1,1c0.4,0.3,0.7,0.7,1.2,0.7c0.9,0.1,1.6-1.1,1.3-1.9
					c-0.3-0.8-1-1.4-1.4-1.9C260.6,217.8,260.1,217.1,260.1,217.1z"/>
			</g>
		</g>
	</g>
	<g>
		<g>
			<g>
				<path class="st5" d="M261.6,223.1c0,0,0.2,0,0.5,0.1s0.7,0.5,0.8,1.1c0.2,0.6-0.1,1.5-0.8,1.9c-0.3,0.2-0.8,0.3-1.2,0.1
					c-0.4-0.1-0.8-0.4-1.1-0.7c-1.3-1.1-2.3-2.2-3-3.1c-0.7-0.9-1.1-1.4-1-1.5s1.8,2.1,4.3,4.2c0.3,0.3,0.6,0.5,0.9,0.6
					s0.6,0.1,0.9-0.1c0.6-0.3,0.8-1,0.7-1.5c-0.1-0.5-0.4-0.9-0.6-1C261.8,223.2,261.6,223.2,261.6,223.1z"/>
			</g>
		</g>
	</g>
	<g>
		<g>
			<g>
				<path class="st5" d="M263.1,233c0,0,0-0.1,0-0.4c0-0.2,0.1-0.6,0.2-1.1c0.3-0.9,1-2.1,2.3-2.7l0.1,0.4l0,0l0,0l0,0l0,0v-0.4l0,0
					l0,0l0,0l0,0l0,0l0,0l0,0v0.4l0,0l0,0l0,0l0,0l0,0h-0.1l-0.1-0.1c-0.4-0.8-0.7-1.7-0.9-2.6c-0.4-2.2,0-4.3,0.6-5.7
					c0.3-0.7,0.6-1.2,0.8-1.5c0.2-0.3,0.4-0.5,0.4-0.5c0.1,0.1-0.5,0.7-1,2.1c-0.5,1.3-0.8,3.3-0.5,5.5c0.2,0.9,0.5,1.8,0.8,2.5
					l-0.2-0.1l0,0l0,0l0,0l0,0l0,0v0.4l0,0l0,0l0,0l0,0l0,0l0,0l0,0v-0.4l0,0l0,0l0,0l0,0h0.9l-0.8,0.3c-1.2,0.5-2,1.6-2.2,2.4
					C263.2,232.5,263.2,233.1,263.1,233z"/>
			</g>
		</g>
	</g>
	<g>
		<g>
			<g>
				<path class="st5" d="M292.6,254.5c-0.1,0-0.8-1.8-1.3-4.2s-0.5-4.4-0.4-4.5c0.1,0,0.3,2,0.8,4.4
					C292.2,252.6,292.7,254.5,292.6,254.5z"/>
			</g>
		</g>
	</g>
</g>
<g>
	<g>
		<g>
			<path class="st3" d="M319.5,293.1c-0.2,0.7-2.2,19.1-2.2,19.1s-14.3,38.6-16.4,50.2c-2,11.6-0.7,23.7,10.9,27.1
				c11.5,3.4,20.9-6.2,20.9-6.2s4.1,6.2,15,4.8c11.1-1.5,50-27.5,50-27.5l-6.6-18.8l-30.3,12.5c0,0,15.3-32.8,15.9-41.3
				c0.5-6.6-8.4-27.7-15.1-31.9c0,0-19,15.8-25.5,14.7C329.6,294.6,319.5,293.1,319.5,293.1z"/>
		</g>
	</g>
	<g>
		<g>
			<g>
				<path class="st6" d="M341.2,312.2c0,0,0,0.1,0,0.2c0,0.2,0,0.4,0,0.6c0,0.5-0.1,1.3-0.3,2.3c-0.3,2-0.9,4.8-1.9,8.2
					c-1,3.4-2.5,7.3-4.2,11.6c-1.7,4.3-3.5,9.1-5,14.2c-0.8,2.6-1.4,5.1-1.9,7.6s-0.9,4.9-1,7.2c-0.3,4.7,0.4,8.9,1.7,12.1
					c1.2,3.3,2.9,5.6,4.1,7c0.6,0.7,1.1,1.3,1.5,1.6c0.2,0.2,0.3,0.3,0.4,0.4s0.1,0.1,0.1,0.2c0,0-0.1,0-0.2-0.1s-0.3-0.2-0.4-0.4
					c-0.4-0.3-0.9-0.9-1.5-1.6c-1.3-1.4-2.9-3.7-4.2-7c-1.3-3.3-2-7.6-1.8-12.3c0.1-2.4,0.5-4.8,1-7.3s1.1-5.1,1.9-7.7
					c1.5-5.2,3.3-9.9,5.1-14.2c1.7-4.3,3.2-8.2,4.2-11.6s1.7-6.2,2-8.1c0.2-1,0.3-1.7,0.3-2.3C341.1,312.6,341.2,312.4,341.2,312.2
					C341.2,312.3,341.2,312.2,341.2,312.2z"/>
			</g>
		</g>
	</g>
	<g>
		<g>
			<g>
				<path class="st6" d="M391,341.7c0,0-0.1,0.1-0.4,0.2s-0.7,0.3-1.2,0.5c-1.1,0.4-2.5,1-4.3,1.7c-3.6,1.5-8.6,3.4-14.1,5.8
					s-10.4,4.6-13.6,6.8c-0.4,0.3-0.8,0.6-1.1,0.9c-0.3,0.3-0.7,0.6-0.9,0.9c-0.5,0.6-0.9,1.2-1.2,1.7c-0.2,0.5-0.4,0.9-0.6,1.2
					c-0.1,0.3-0.2,0.4-0.2,0.4s0-0.2,0.2-0.4c0.1-0.3,0.3-0.7,0.5-1.2s0.6-1.2,1.1-1.8c0.3-0.3,0.6-0.6,0.9-0.9s0.7-0.6,1.1-0.9
					c3.3-2.3,8.2-4.6,13.6-7c5.5-2.4,10.5-4.3,14.1-5.7c1.8-0.7,3.2-1.2,4.3-1.6c0.5-0.2,0.9-0.3,1.2-0.4
					C390.8,341.8,391,341.7,391,341.7z"/>
			</g>
		</g>
	</g>
	<g>
		<g>
			<g>
				<path class="st6" d="M376.6,312.9c0,0,0,0.2,0,0.5c0,0.4-0.1,0.8-0.2,1.3c-0.2,1.1-0.6,2.8-1.2,4.7c-1.2,3.9-3.2,9.2-5.6,15
					c-2.4,5.7-4.7,10.9-6.5,14.5c-0.9,1.8-1.6,3.3-2.1,4.3c-0.2,0.5-0.4,0.9-0.6,1.2c-0.1,0.3-0.2,0.4-0.2,0.4s0-0.2,0.2-0.4
					c0.1-0.3,0.3-0.7,0.5-1.2c0.5-1.1,1.2-2.6,2-4.4c1.7-3.7,4-8.8,6.4-14.6c2.4-5.7,4.4-11,5.7-14.9c0.6-1.9,1-3.6,1.3-4.7
					c0.1-0.5,0.2-1,0.2-1.3C376.5,313.1,376.6,312.9,376.6,312.9z"/>
			</g>
		</g>
	</g>
	<g>
		<g>
			<g>
				<path class="st6" d="M338.9,314.1c-0.1,0-0.9-4.1-1.7-9.2c-0.8-5.1-1.4-9.3-1.3-9.3s0.9,4.1,1.7,9.2
					C338.4,310,339,314.1,338.9,314.1z"/>
			</g>
		</g>
	</g>
	<g>
		<g>
			<g>
				<path class="st6" d="M368.9,293c0,0-0.2,0.2-0.6,0.6c-0.4,0.3-1,0.8-1.8,1.2c-1.6,0.8-4.2,1.4-6.8,0.6c-2.7-0.8-4.5-2.8-5.5-4.5
					c-0.5-0.8-0.8-1.5-0.9-2c-0.2-0.5-0.2-0.8-0.2-0.8c0.1,0,0.4,1.1,1.4,2.7c1,1.5,2.8,3.4,5.4,4.2c2.5,0.8,5,0.3,6.6-0.5
					C368,293.7,368.8,292.9,368.9,293z"/>
			</g>
		</g>
	</g>
	<g>
		<g>
			<g>
				<path class="st6" d="M329.8,295.5c0,0,0,0.3,0,0.8s-0.1,1.3-0.3,2.2c-0.3,1.8-1.2,4.2-2.9,6.4c-1.7,2.2-3.7,3.5-5.3,4.2
					c-0.8,0.4-1.4,0.6-1.9,0.7s-0.7,0.1-0.7,0.1c0-0.1,1-0.3,2.5-1.1c1.5-0.7,3.5-2.1,5.1-4.2s2.5-4.5,2.9-6.2
					C329.7,296.7,329.8,295.5,329.8,295.5z"/>
			</g>
		</g>
	</g>
	<g>
		<g>
			<g>
				<path class="st6" d="M340.4,296.7c0,0.1-0.6,0.1-0.9,0.8c-0.2,0.3-0.3,0.9-0.1,1.3c0.2,0.5,0.7,0.8,1.2,0.8s1-0.5,1.2-0.9
					c0.2-0.5,0-1-0.2-1.3c-0.5-0.7-1-0.7-1-0.7s0.1-0.1,0.4,0c0.2,0,0.6,0.2,0.9,0.6c0.3,0.3,0.5,1,0.3,1.6s-0.7,1.2-1.5,1.2
					c-0.7,0-1.3-0.5-1.6-1.1c-0.3-0.6-0.1-1.3,0.2-1.6c0.3-0.4,0.6-0.6,0.8-0.7C340.3,296.7,340.4,296.7,340.4,296.7z"/>
			</g>
		</g>
	</g>
</g>
<g>
	<g>
		<path class="st11" d="M327.8,204.7l-15.6,0.5c0,0-5,22.1-4.6,36.7c0.2,9,5.3,21.7,6.6,26.3c0.9,3.3-2.2,7.7-3,10.9v0.1
			c-1.3,4.7-7.2,20.9,7.5,20.9c0,0-7.6-4.6-3.8-12.8c3.7-7.9,10.9-11.3,17-7.4s8.1,2.2,13.7-0.3s25.4-8.8,22.8,2.2c0,0,3-6.4-3-11.1
			c-4.6-3.6-8.5-13.3-8.7-23.3c-0.1-5.3,2-10.9,5.8-14.1l6.7-5.4c0,0-7,0.4-4.9-11.2c2-11.6,3.5-13.9,3.5-13.9l-13.2,4.8
			c-0.5,0.1-0.9,0.2-1.4,0.2l-6.7-0.4L327.8,204.7z"/>
	</g>
</g>
<g>
	<g>
		<path class="st11" d="M294.1,233.2c0,0,7.2-20.2,10.2-23.5c2.7-3,7.9-4.5,7.9-4.5l-4.1,38L294.1,233.2z"/>
	</g>
</g>
<g>
	<g>
		<g>
			<path class="st3" d="M312.8,264.5c0,0-0.1-0.1-0.2-0.4s-0.2-0.7-0.4-1.1c-0.3-1-0.9-2.4-1.4-4.2c-1.1-3.6-2.6-8.6-3.4-14.3
				c-0.4-2.9-0.4-5.7-0.2-8.2c0.2-2.5,0.6-4.7,1-6.6c0.3-1.9,0.6-3.4,0.7-4.4c0.1-0.5,0.1-0.9,0.2-1.2c0-0.3,0.1-0.4,0.1-0.4
				s0,0.1,0,0.4c0,0.3-0.1,0.7-0.1,1.2c-0.1,1.1-0.3,2.6-0.6,4.4c-0.3,1.9-0.7,4.1-0.9,6.6c-0.2,2.5-0.1,5.2,0.2,8.1
				c0.8,5.7,2.2,10.7,3.3,14.3c0.5,1.8,1,3.2,1.3,4.2c0.1,0.5,0.2,0.8,0.3,1.2C312.8,264.3,312.8,264.5,312.8,264.5z"/>
		</g>
	</g>
</g>
<g>
	<g>
		<g>
			<path class="st3" d="M354,253.2c0,0-0.1-0.3-0.2-1c-0.1-0.6-0.2-1.6-0.3-2.8c-0.2-2.3-0.1-5.6,0.5-9.1s1.6-6.6,2.6-8.7
				c0.5-1.1,0.9-1.9,1.2-2.5c0.3-0.6,0.5-0.9,0.5-0.9c0.1,0-0.6,1.3-1.4,3.4c-0.8,2.1-1.8,5.2-2.4,8.7s-0.7,6.7-0.6,9.1
				C353.9,251.8,354.1,253.2,354,253.2z"/>
		</g>
	</g>
</g>
<g class="st7">
	<g>
		<g>
			<path d="M354.1,250.1c0.5-3.3,1.1-6.5,2.2-9.6s2.9-5.9,5.5-7.7c0.6-0.4,1.2-0.7,1.6-1.2c0.5-0.5,0.8-1.3,0.5-2
				c-0.3-1.2-1.8-1.4-2.9-1c-2.2,0.6-3.9,2.5-5,4.7s-1.6,4.6-2,7.1c-0.5,2.9-0.8,5.9-0.4,8.8"/>
		</g>
	</g>
</g>
<g>
	<g>
		<g>
			<path class="st3" d="M368.5,276.8c0,0,0,0-0.1-0.1s-0.2-0.2-0.3-0.4c-0.3-0.4-0.8-0.9-1.4-1.5c-1.3-1.2-3.4-2.7-6.4-3.3
				c-1.5-0.3-3.2-0.4-4.9,0c-1.7,0.4-3.5,1.1-5.4,2c-1.8,0.9-3.7,2-5.7,2.9c-1,0.4-2.1,0.8-3.2,1.1c-1.1,0.2-2.3,0.3-3.5,0.2
				c-2.4-0.2-4.5-1.1-6.7-1.6c-2.1-0.5-4.2-0.6-6.2-0.2s-3.8,1.1-5.3,2.1s-2.8,2.2-3.8,3.4c-2,2.5-2.9,5.1-3.4,6.8
				c-0.2,0.9-0.3,1.6-0.4,2.1c0,0.2-0.1,0.4-0.1,0.6c0,0.1,0,0.2,0,0.2s0-1,0.4-2.9c0.4-1.8,1.3-4.4,3.3-7c1-1.3,2.3-2.5,3.8-3.5
				c1.6-1,3.4-1.8,5.4-2.2c2-0.4,4.2-0.3,6.4,0.2c2.2,0.5,4.3,1.3,6.6,1.6c1.1,0.1,2.3,0,3.4-0.2s2.2-0.6,3.2-1c2-0.9,3.9-2,5.7-2.9
				c1.8-0.9,3.7-1.7,5.4-2c1.8-0.3,3.5-0.3,5,0.1c3,0.7,5.2,2.2,6.5,3.5C368,276,368.5,276.8,368.5,276.8z"/>
		</g>
	</g>
</g>
<g>
	<g>
		<g>
			<path class="st3" d="M348.4,242.5c0,0,0,0.1,0,0.4c0,0.3,0,0.7,0,1.2c0,1-0.1,2.5-0.5,4.2c-0.6,3.5-2.3,8.3-5.6,12.5
				c-3.3,4.2-7.4,6.7-10.5,7.9c-1.5,0.6-2.8,1-3.8,1.1c-0.5,0.1-0.8,0.1-1,0.2c-0.2,0-0.4,0-0.4,0s0.5-0.1,1.4-0.4
				c0.9-0.2,2.2-0.6,3.7-1.3c3-1.3,7-3.8,10.3-7.9s4.9-8.8,5.6-12.3c0.4-1.7,0.5-3.2,0.6-4.2C348.4,243.1,348.4,242.5,348.4,242.5z"
				/>
		</g>
	</g>
</g>
<g class="st7">
	<g>
		<g>
			<path d="M347.1,251c-0.8-0.2-1.7,0.4-2.2,1.1c-0.5,0.7-0.8,1.6-1.2,2.5c-1.8,4.4-5.1,8-9.2,9.8c-1.1,0.5-2.2,0.9-3.2,1.6
				s-1.7,1.9-1.6,3.2c0,0,7.2-1.5,12-7.9C346.5,254.8,347.1,251,347.1,251z"/>
		</g>
	</g>
</g>
<g>
	<g>
		<path class="st12" d="M319.9,218.9c-0.5-0.8-1-1.6-1.8-2c-1.4-0.6-2.9,0.8-4.4,0.8c-1.8,0-3-1.8-4.5-3c-1.9-1.5-4.3-2-6.6-2.3
			l-0.8,1.6c2,1.5,5.2-0.6,7.3,0.9c0.9,0.7,1.4,1.8,1.9,2.9c0.5,1.1,1.3,2.2,2.4,2.3s2-0.7,3.1-0.9c3.3-0.6,5.6,4.7,8.9,4.1
			C323.2,222.5,321.2,220.9,319.9,218.9z"/>
	</g>
</g>
<g>
	<g>
		<path class="st12" d="M307.2,239.5c1-1.4,2.8-1.9,4.5-1.7c1.6,0.2,3.2,0.9,4.8,1.5c1.6,0.5,3.3,0.8,4.9,0.1
			c0.7-0.3,1.4-0.9,2.2-1.1c1.1-0.3,2.2,0.2,3.2,0.6c2.2,0.8,4.6,1.1,6.9,0.9c0.9-0.1,1.8-0.2,2.7-0.2c0.9,0.1,1.8,0.4,2.4,1.1
			c1.1-0.7,2.3-1.2,3.6-1.4c-1.5,1.1-3,2.3-4.8,2.5c-2,0.3-4-0.7-6-1.2c-5.5-1.3-11.2,1.4-16.6,0.2c-1.3-0.3-2.5-0.8-3.8-0.9
			c-1.3-0.1-2.7,0.3-3.5,1.5"/>
	</g>
</g>
<g>
	<g>
		<path class="st12" d="M311,256.5c2.2,0.5,4.1-1.5,6.2-2.2c1.9-0.6,3.9-0.2,5.8,0.4c1.9,0.6,3.7,1.3,5.7,1.4c1.2,0,2.4-0.2,3.6,0.1
			c0.9,0.3,1.7,0.9,2.5,1.3c2.8,1.4,6,0.7,9-0.1c-2.2,1.4-4.7,1.9-7.3,1.8c-2.5-0.1-5-0.7-7.5-1.3c-2-0.5-4-1-6-1.5
			c-1.5-0.4-3.1-0.7-4.6-0.4c-2.6,0.5-4.7,2.9-7.3,2.6"/>
	</g>
</g>
<g>
	<g>
		<path class="st12" d="M333.9,268c1.6,0.2,3.2,0.3,4.8,0.4c1.3,0.1,2.6,0.1,3.8-0.2c2.1-0.6,3.9-2.1,6-2.3c2.2-0.2,4.3,1.2,6.5,1.3
			c2,0.2,4.1-0.8,5.4-2.4c-3.2,1-6.6,1.1-9.8,0.3c-1.5-0.4-3-1-4.5-0.6c-1.2,0.3-2.2,1.2-3.3,1.8c-2.7,1.6-5.9,1.5-8.9,1.5"/>
	</g>
</g>
<g>
	<g>
		<path class="st12" d="M346.7,238c0.2-1.9,6.3-3.6,8.8-6c-0.2,1.9-1.6,3.7-3.3,4.2c-0.9,0.3-1.9,0.3-2.9,0.4S347.3,237.1,346.7,238
			"/>
	</g>
</g>
<g>
	<g>
		<path class="st12" d="M335.8,224.6c1,0.9,2.5,0.6,3.7,0.2c1.2-0.4,2.5-1,3.8-0.7c1.2,0.3,2.2,1.4,3.3,2c1.5,0.8,3.4,0.7,4.9-0.2
			c1.5-0.8,2.7-2.3,3.4-4c0.3-0.8,0.6-1.7,1.2-2.2c0.7-0.6,1.7-0.5,2.5-0.8c1.3-0.5,2.3-1.8,3-3.1s1.5-2.7,2.7-3.5
			c-1.1-0.4-2.2,0.4-2.9,1.3c-0.7,0.9-1.3,2-2.3,2.6s-2.2,0.6-3.1,1.2c-1.7,1-2.3,3.4-3.5,5.1c-1.4,1.9-4,3-5.9,1.8
			c-1.1-0.6-2-1.8-3.2-1.8c-0.8,0-1.5,0.5-2.2,0.9c-1.6,0.9-3.5,1.3-5.3,1.1c0.1,0,0.3,0.1,0.4,0.1"/>
	</g>
</g>
<g>
	<g>
		<path class="st12" d="M308.8,290.7c-0.1-1.1,0.3-2.2,0.9-3.2c0.6-0.9,1.3-1.8,1.8-2.8c0.7-1.4,0.9-3,1.5-4.4
			c0.5-1.5,1.4-2.9,2.8-3.4c0.9-0.3,1.9-0.1,2.9-0.3c1.6-0.4,2.9-1.8,4.5-2.2c1.3-0.3,2.7,0.3,4,0.2c1.2-0.1,2.4-0.6,3.2-1.6
			c-1.1,0.7-2.4,0.6-3.6,0.3c-1.2-0.2-2.5-0.6-3.6-0.3c-0.8,0.2-1.5,0.7-2.3,0.9c-1.5,0.4-3,0-4.5,0.4c-2.1,0.6-3.5,2.8-4.4,5
			s-1,4-2.4,5.8C309.5,285.2,308.4,289.9,308.8,290.7z"/>
	</g>
</g>
<g>
	<g>
		<path class="st12" d="M321.7,207.6c-0.6-0.3-1.2-0.5-1.8-1c-0.5-0.4-1-0.9-1.1-1.6l-2.3,0.1c0.7,1.9,2.6,3.7,4.5,3.9
			c0.5,0.1,1.1,0,1.6,0.2c0.6,0.2,1,0.8,1.6,1.1c0.5,0.3,1.3,0.4,1.7-0.2C324.7,209.1,323.2,208.3,321.7,207.6z"/>
	</g>
</g>
<g>
	<g>
		<path class="st12" d="M307.2,227.4c-0.9-0.4-1.9-0.3-2.9-0.1s-2,0.4-2.9,0.1c-0.8-0.3-1.5-0.9-2.2-1.4s-1.3-1-2.2-0.8l-0.4,1.1
			c0,0.5,0.4,0.2,0.8,0.4c0.4,0.1,0.9,0.2,1.2,0.6c0.2,0.3,0.3,0.8,0.5,1.1c0.3,0.8,1.2,1.1,2,1s1.5-0.4,2.2-0.8
			c0.7-0.4,1.4-0.7,2.2-0.7c1.2,0,2.3,0.8,2.7,2C308.7,229,308.1,227.8,307.2,227.4z"/>
	</g>
</g>
<g>
	<g>
		<g>
			<path class="st13" d="M300.4,229.8"/>
		</g>
	</g>
</g>
<g>
	<g>
		<path class="st3" d="M357.1,204.6c0.9,1.4,2.7,1.7,4.2,1.4s2.9-1.2,4.3-1.9s3-1.2,4.5-0.7c1.8,0.6,3,2.5,4.6,3.5
			c2.3,1.3,5.4,0.4,6.9-1.9c0.7-1.3,1-2.8,1.5-4.2c0.4-1.4,1.2-2.9,2.4-3.5c1.5-0.7,3.2-0.1,4.7-0.6c2.1-0.6,3.3-3.2,3.6-5.6
			c0.6-4.4,2.8-13.1-12.9-14.3"/>
	</g>
</g>
<g>
	<g>
		<g>
			<g>
				<g>
					<g>
						<g>
							<g>
								<g>
									<g>
										<g>
											<path class="st4" d="M351.7,170.5c1-9-5-17.3-13.4-18.2c-7.9-0.8-15,5.6-16.2,14.2c-1,7.5-1.9,15.1-1.9,17.9
												c0.1,8.3,4.6,11.6,6.4,12.5c0.4,0.2,1.6,0.5,2,0.5l0,0c0,0,0,0,0,0.1l-1.7,9.6c-0.8,6.3,2.4,11.8,8.2,12.8
												c5.7,0.9,10.2-3.9,11.1-10.2L351.7,170.5z"/>
										</g>
									</g>
									<g>
										<g>
											<g>
												<g>
													<g>
														<g>
															<g>
																<path class="st3" d="M323.5,171.5c0.1,0.2,1.1-0.4,2.4-0.2s2.1,1.1,2.3,0.9c0.1-0.1,0-0.4-0.4-0.8
																	c-0.4-0.4-1-0.8-1.8-0.9c-0.8-0.1-1.5,0.1-2,0.4C323.6,171.1,323.4,171.4,323.5,171.5z"/>
															</g>
														</g>
													</g>
												</g>
											</g>
										</g>
									</g>
									<g>
										<g>
											<g>
												<g>
													<g>
														<g>
															<g>
																<path class="st3" d="M335.4,173.6c0.1,0.2,1.1-0.4,2.4-0.2s2.1,1.1,2.3,0.9c0.1-0.1,0-0.4-0.4-0.8
																	c-0.4-0.4-1-0.8-1.8-0.9c-0.8-0.1-1.5,0.1-2,0.4C335.6,173.2,335.4,173.5,335.4,173.6z"/>
															</g>
														</g>
													</g>
												</g>
											</g>
										</g>
									</g>
									<g>
										<g>
											<g>
												<g>
													<g>
														<g>
															<path class="st3" d="M330.5,180.8c0-0.1-0.8-0.4-2-0.7c-0.3-0.1-0.6-0.2-0.6-0.5s0.1-0.6,0.4-1
																c0.4-0.8,0.9-1.7,1.3-2.6c1.9-3.7,3.3-6.7,3.1-6.8c-0.1-0.1-1.8,2.8-3.6,6.5c-0.5,0.9-0.9,1.8-1.3,2.6
																c-0.2,0.4-0.5,0.8-0.4,1.4c0.1,0.3,0.3,0.5,0.5,0.6s0.4,0.1,0.5,0.2C329.7,180.7,330.5,180.9,330.5,180.8z"/>
														</g>
													</g>
												</g>
											</g>
										</g>
									</g>
									<g>
										<g>
											<g>
												<g>
													<g>
														<path class="st5" d="M328.7,197.5c0,0,4.9,1.2,11.7-1.9c0,0-2.9,6.9-12.2,4.4L328.7,197.5z"/>
													</g>
												</g>
											</g>
										</g>
									</g>
									<g>
										<g>
											<g>
												<g>
													<g>
														<path class="st5" d="M330.6,184.3c0.6-0.6,1.4-0.8,2.2-0.6c0.6,0.2,1.1,0.5,1.4,1.1s0.3,1.3-0.1,1.7
															c-0.4,0.5-1.2,0.5-1.8,0.2c-0.6-0.3-1.1-0.8-1.5-1.3c-0.1-0.1-0.2-0.3-0.3-0.5C330.4,184.6,330.4,184.4,330.6,184.3"
															/>
													</g>
												</g>
											</g>
										</g>
									</g>
									<g>
										<g>
											<g>
												<g>
													<g>
														<g>
															<path class="st3" d="M334.2,182.4c-0.2,0-0.4,1.5-1.8,2.4c-1.3,0.9-2.8,0.5-2.9,0.7c0,0.1,0.3,0.3,0.9,0.5
																c0.6,0.1,1.5,0,2.4-0.5c0.8-0.5,1.3-1.4,1.4-2C334.4,182.8,334.3,182.4,334.2,182.4z"/>
														</g>
													</g>
												</g>
											</g>
										</g>
									</g>
								</g>
							</g>
						</g>
						<g>
							<g>
								<g>
									<g>
										<g>
											<path class="st3" d="M336.3,168.5c0.1,0.4,1.4,0.4,2.9,0.9c1.5,0.4,2.7,1.1,2.9,0.8c0.1-0.2-0.1-0.5-0.5-1
												c-0.4-0.4-1.2-0.9-2.1-1.2s-1.7-0.2-2.3-0.1C336.6,168.1,336.3,168.3,336.3,168.5z"/>
										</g>
									</g>
								</g>
							</g>
						</g>
						<g>
							<g>
								<g>
									<g>
										<g>
											<path class="st3" d="M324.8,166c0.2,0.4,1.1,0.2,2.2,0.3s1.9,0.5,2.2,0.2c0.1-0.1,0-0.5-0.3-0.9s-1-0.7-1.7-0.8
												s-1.4,0.1-1.8,0.4C324.9,165.5,324.7,165.8,324.8,166z"/>
										</g>
									</g>
								</g>
							</g>
						</g>
					</g>
				</g>
			</g>
		</g>
	</g>
	<g>
		<g>
			<path class="st3" d="M362.1,193.3c0.5-1.2,0.9-2.3,1.1-3c0.9-2.8,0.9-7.3-0.4-9.9c-1.1-2.5-4-4.9-4.9-7.3
				c-1.3-3.7-0.3-4.6-1.3-12.3c-0.6-4.3-5.9-10.4-11.5-9.4c-1.8-2.2-4.2-3.4-6.7-3.9c-6-1.2-12.6,1.3-16.2,7.3
				c-1.7,2.7-2.7,6.4-1.7,9.7c1.6,2.6,6.6,1,9.6-0.8c3.2,2.3,7.6,1.3,9.8-2.2c0.6,0.9,1.5,1.3,2.4,1.4c0.1,1,0.2,1.8,0.3,2.3
				c0.3,2.4,3.6,5.9,3.6,8.3c0.1,4.6-3.1,4.8-4,9.2c-0.7,3.4,1.7,5.3,2.1,8.7c0.1,0.5-5.5,11.6,1.7,16.2c0,0,0.2,0.2,0.5,0.5
				c2.6,2.8,2.8,7.2,0.8,10.5c-1.9,3.1-3.9,8.1,0.9,10.9c0,0,1.4-4.9,3.4-5.8c5-2.4,10.2-2.8,8.1-14.7
				C357.8,197,360.6,198.4,362.1,193.3z"/>
		</g>
	</g>
</g>
<g>
	<g>
		<g>
			<g>
				<g>
					<g>
						<g>
							<g>
								<g>
									<g>
										<g>
											<path class="st14" d="M143.6,150.6l3.5,44.6l20.5-1.8c0.1-2.6,0-12.7,0-12.7s8.5-1.4,8.6-10.7c0.1-4.5-0.5-13.8-1.2-22.3
												c-0.7-9.3-8.1-16.3-16.6-15.8l0,0C149.6,132.5,142.9,140.9,143.6,150.6z"/>
										</g>
									</g>
								</g>
							</g>
						</g>
					</g>
				</g>
			</g>
		</g>
	</g>
	<g>
		<g>
			<g>
				<g>
					<g>
						<g>
							<g>
								<g>
									<g>
										<g>
											<g>
												<g>
													<g>
														<g>
															<path class="st15" d="M167.6,180.6c0,0-5.4,0.5-11.1-3.4c0,0,2.6,6.7,11.1,5.9V180.6z"/>
														</g>
													</g>
												</g>
											</g>
										</g>
									</g>
								</g>
							</g>
						</g>
					</g>
				</g>
			</g>
		</g>
		<g>
			<g>
				<g>
					<g>
						<g>
							<g>
								<g>
									<g>
										<g>
											<g>
												<g>
													<g>
														<g>
															<g>
																<g>
																	<g>
																		<path class="st3" d="M172.1,153.9c0,0.7-0.5,1.3-1.2,1.3s-1.2-0.5-1.3-1.2c0-0.7,0.5-1.3,1.2-1.3
																			C171.5,152.6,172,153.2,172.1,153.9z"/>
																	</g>
																</g>
															</g>
														</g>
													</g>
												</g>
											</g>
										</g>
									</g>
								</g>
								<g>
									<g>
										<g>
											<g>
												<g>
													<g>
														<g>
															<g>
																<g>
																	<g>
																		<g>
																			<path class="st3" d="M173.2,152.4c-0.2,0.2-1.1-0.6-2.4-0.6c-1.3,0-2.3,0.7-2.4,0.5c-0.1-0.1,0.1-0.4,0.5-0.7
																				s1.1-0.7,1.9-0.6c0.8,0,1.5,0.3,1.9,0.7C173.2,152,173.3,152.3,173.2,152.4z"/>
																		</g>
																	</g>
																</g>
															</g>
														</g>
													</g>
												</g>
											</g>
										</g>
									</g>
								</g>
							</g>
							<g>
								<g>
									<g>
										<g>
											<g>
												<g>
													<g>
														<g>
															<g>
																<g>
																	<g>
																		<path class="st3" d="M158.9,154.2c0,0.7-0.5,1.3-1.2,1.3s-1.2-0.5-1.3-1.2c0-0.7,0.5-1.3,1.2-1.3
																			C158.3,153,158.9,153.5,158.9,154.2z"/>
																	</g>
																</g>
															</g>
														</g>
													</g>
												</g>
											</g>
										</g>
									</g>
								</g>
								<g>
									<g>
										<g>
											<g>
												<g>
													<g>
														<g>
															<g>
																<g>
																	<g>
																		<g>
																			<path class="st3" d="M160.4,152.6c-0.2,0.2-1.1-0.6-2.4-0.6c-1.3,0-2.3,0.7-2.4,0.5c-0.1-0.1,0.1-0.4,0.5-0.7
																				s1.1-0.7,1.9-0.6c0.8,0,1.5,0.3,1.9,0.7C160.3,152.3,160.4,152.6,160.4,152.6z"/>
																		</g>
																	</g>
																</g>
															</g>
														</g>
													</g>
												</g>
											</g>
										</g>
									</g>
								</g>
							</g>
							<g>
								<g>
									<g>
										<g>
											<g>
												<g>
													<g>
														<g>
															<g>
																<g>
																	<g>
																		<path class="st3" d="M165.1,163.2c0-0.1,0.8-0.2,2.1-0.4c0.3,0,0.7-0.1,0.7-0.4c0.1-0.3-0.1-0.7-0.2-1.1
																			c-0.3-0.9-0.6-1.8-1-2.8c-1.4-4-2.4-7.2-2.2-7.3c0.1-0.1,1.4,3.1,2.8,7.1c0.3,1,0.6,1.9,0.9,2.8
																			c0.1,0.4,0.3,0.9,0.2,1.4c-0.1,0.3-0.3,0.5-0.5,0.5c-0.2,0.1-0.4,0.1-0.6,0.1
																			C165.9,163.3,165.1,163.3,165.1,163.2z"/>
																	</g>
																</g>
															</g>
														</g>
													</g>
												</g>
											</g>
										</g>
									</g>
								</g>
							</g>
							<g>
								<g>
									<g>
										<g>
											<g>
												<g>
													<g>
														<g>
															<g>
																<g>
																	<g>
																		<path class="st3" d="M161.3,164.2c0.2,0,0.2,1.5,1.4,2.6s2.7,0.9,2.7,1.1c0,0.1-0.3,0.3-1,0.3
																			c-0.6,0-1.5-0.2-2.3-0.9c-0.7-0.7-1.1-1.6-1.1-2.2C161,164.6,161.2,164.2,161.3,164.2z"/>
																	</g>
																</g>
															</g>
														</g>
													</g>
												</g>
											</g>
										</g>
									</g>
								</g>
							</g>
						</g>
					</g>
				</g>
				<g>
					<g>
						<g>
							<g>
								<g>
									<g>
										<g>
											<g>
												<g>
													<g>
														<path class="st3" d="M160.7,147c-0.1,0.4-1.4,0.2-3,0.4c-1.5,0.2-2.8,0.7-3,0.3c-0.1-0.2,0.1-0.5,0.6-0.9
															s1.3-0.7,2.2-0.8s1.8,0,2.3,0.3C160.5,146.6,160.8,146.9,160.7,147z"/>
													</g>
												</g>
											</g>
										</g>
									</g>
								</g>
							</g>
						</g>
					</g>
				</g>
				<g>
					<g>
						<g>
							<g>
								<g>
									<g>
										<g>
											<g>
												<g>
													<g>
														<path class="st3" d="M172.8,148.2c-0.2,0.3-1.1,0-2.2,0c-1.1-0.1-2,0.2-2.2-0.1c-0.1-0.2,0.1-0.5,0.5-0.8
															s1.1-0.6,1.8-0.5c0.7,0,1.4,0.3,1.8,0.7C172.7,147.7,172.9,148.1,172.8,148.2z"/>
													</g>
												</g>
											</g>
										</g>
									</g>
								</g>
							</g>
						</g>
					</g>
				</g>
			</g>
		</g>
		<g>
			<g>
				<g>
					<g>
						<path class="st3" d="M152.9,140.4C152.9,140.4,152.8,140.4,152.9,140.4c-1.4,1.2-2.3,2.9-2.5,4.8c0,0.1,0,0.1,0,0.2
							c-0.3,2.7-0.3,5.4-0.6,8c-0.4,2.6-1.2,5.3-3,7.2c-0.7,0.8-2,1.3-2.7,0.4c-0.2-0.3-0.3-0.8-0.3-1.2c-0.5-6.4-2.1-12.1-2-18.8
							c0-1.8,0.8-3.5,2.1-4.6c1.3-1,2.9-2,4.3-1.3c1.4,0.7,3.3,3.7,4.4,4.9"/>
					</g>
				</g>
			</g>
		</g>
		<g>
			<g>
				<g>
					<g>
						<g>
							<g>
								<g>
									<g>
										<g>
											<g>
												<g>
													<path class="st14" d="M146.5,154.8c-0.1-0.1-5.9-1.9-5.7,4.5s6,4.8,6,4.7C146.8,163.7,146.5,154.8,146.5,154.8z"/>
												</g>
											</g>
										</g>
									</g>
								</g>
							</g>
						</g>
					</g>
				</g>
			</g>
			<g>
				<g>
					<g>
						<g>
							<g>
								<g>
									<g>
										<g>
											<g>
												<g>
													<g>
														<path class="st15" d="M145,161.5c0,0-0.1,0.1-0.3,0.2c-0.2,0.1-0.5,0.2-0.8,0c-0.6-0.2-1.2-1.3-1.2-2.4
															c0-0.6,0.1-1.1,0.2-1.6c0.2-0.5,0.4-0.8,0.7-0.9c0.3-0.1,0.5,0.1,0.6,0.3s0.1,0.3,0.1,0.3s0.1-0.1,0.1-0.4
															c0-0.1-0.1-0.3-0.2-0.4c-0.1-0.1-0.4-0.2-0.6-0.1c-0.4,0-0.8,0.5-1,1s-0.3,1.1-0.3,1.8c0.1,1.3,0.7,2.5,1.6,2.7
															c0.4,0.1,0.8,0,0.9-0.2C145,161.7,145,161.5,145,161.5z"/>
													</g>
												</g>
											</g>
										</g>
									</g>
								</g>
							</g>
						</g>
					</g>
				</g>
			</g>
		</g>
		<g>
			<g>
				<g>
					<g>
						<path class="st3" d="M147.3,137c-1.8-2.3,1.6-6.5,4.3-8s6.7-0.6,9.6-0.1c1.9,0.3,3.8,0.9,5.7,0.5c1.3-0.3,2.4-1,3.5-1.6
							c1.1-0.7,2.3-1.3,3.6-1.4s2.7,0.4,3.3,1.6c0.7,1.2,0.2,3.1-1,3.5c1.5-1.2,3.9-0.4,4.5,1.5c0.5,1.9-1.1,4.2-2.9,4
							c0.7-0.8,2.1,0.1,2.2,1.2c0.1,1.1-0.8,2.1-1.6,2.7c-2.2,1.6-5.1,1.7-7.7,1.2c-2.6-0.5-5.1-1.5-7.7-2.1c-2.6-0.6-7-1.6-9.3-0.2
							c-1.7,1-2.6,3.6-3.7,3.3c-1.1-0.3-1.9-1.4-2.2-2.5C147.4,139.4,147.3,138.2,147.3,137"/>
					</g>
				</g>
			</g>
		</g>
		<g>
			<g>
				<g>
					<g>
						<g>
							<path class="st6" d="M145,154.5c0,0,0.3-0.2,0.5-0.7s0.4-1.3,0.3-2.3c-0.1-2-1.8-4.2-2-7.1c-0.1-1.4,0.1-2.8,0.6-3.8
								s1.4-1.7,2.2-2c0.8-0.4,1.5-0.4,1.9-0.3c0.5,0.1,0.7,0.2,0.7,0.1c0,0-0.2-0.2-0.7-0.4c-0.5-0.1-1.3-0.2-2.1,0.1
								c-0.9,0.3-1.8,1-2.5,2.2c-0.6,1.1-0.9,2.6-0.8,4.1c0.1,1.5,0.6,2.9,1.1,4s0.9,2.2,1,3.1C145.7,153.4,144.9,154.5,145,154.5z"
								/>
						</g>
					</g>
				</g>
			</g>
		</g>
	</g>
	<g>
		<g>
			<g>
				<path class="st3" d="M170.3,121.8c0,0,0.1,0.1,0.2,0.3c0.1,0.2,0.3,0.5,0.4,0.9c0.3,0.8,0.3,2.3-0.5,3.6
					c-0.8,1.4-2.5,2.3-4.4,2.5s-4-0.5-6.1-1c-1.1-0.3-2.1-0.5-3.1-0.6s-2,0-2.9,0.3c-1.8,0.5-3.2,1.6-4.2,2.7s-1.5,2.2-1.9,3
					c-0.3,0.8-0.4,1.3-0.5,1.2c0,0,0-0.1,0.1-0.3c0-0.2,0.1-0.6,0.3-1c0.3-0.8,0.8-2,1.8-3.1c1-1.2,2.4-2.3,4.3-2.9
					c0.9-0.3,2-0.4,3-0.3s2.1,0.3,3.2,0.6c2.1,0.6,4.1,1.2,6,1.1c1.8-0.1,3.4-1,4.2-2.3s0.8-2.6,0.6-3.4
					C170.6,122.2,170.2,121.9,170.3,121.8z"/>
			</g>
		</g>
	</g>
</g>
<g>
	<g>
		<g>
			<g>
				<g>
					<g>
						<g>
							<path class="st6" d="M139.5,347L128,331c0,0-18.8,7.4-21.2,4.6l27.6-25.4l18.8,24.1L139.5,347z"/>
						</g>
					</g>
				</g>
			</g>
			<g>
				<g>
					<g>
						<g>
							<g>
								<path class="st8" d="M137.6,324.5c0.4-0.7,0.3-1.6-0.3-2.1s-1.5-0.3-1.9,0.3c-0.4,0.6-0.3,1.8,0.3,2.2
									c0.6,0.4,1.7,0.2,2-0.6"/>
							</g>
						</g>
					</g>
				</g>
			</g>
			<g>
				<g>
					<g>
						<g>
							<path class="st8" d="M134.5,310.2l1.8,2.5l-27.2,23.4c0,0-1.7,0.5-2.3-0.5L134.5,310.2z"/>
						</g>
					</g>
				</g>
			</g>
			<g>
				<g>
					<g>
						<g>
							<g>
								<path class="st3" d="M127.7,331.6c-0.1-0.2,0.5-0.8,0.8-1.9s0.2-2,0.3-2.1s0.6,1,0.2,2.3
									C128.7,331.2,127.8,331.7,127.7,331.6z"/>
							</g>
						</g>
					</g>
				</g>
			</g>
			<g>
				<g>
					<g>
						<g>
							<g>
								<path class="st3" d="M123.8,332.9c-0.1-0.1,0.2-0.9,0.2-1.9s-0.4-1.8-0.3-1.9s0.9,0.6,0.9,1.9S123.9,333.1,123.8,332.9z"/>
							</g>
						</g>
					</g>
				</g>
			</g>
			<g>
				<g>
					<g>
						<g>
							<g>
								<path class="st3" d="M119.2,330.7c0.1-0.1,0.9,0.4,1.1,1.5c0.3,1.1-0.1,2-0.3,2c-0.2-0.1-0.1-0.9-0.3-1.8
									C119.5,331.5,119.1,330.8,119.2,330.7z"/>
							</g>
						</g>
					</g>
				</g>
			</g>
			<g>
				<g>
					<g>
						<g>
							<g>
								<path class="st3" d="M130.7,334.9c0-0.2,0.7-0.6,1.4-1.3c0.7-0.7,1.1-1.6,1.3-1.5c0.2,0,0,1.1-0.9,2
									C131.7,335,130.7,335.1,130.7,334.9z"/>
							</g>
						</g>
					</g>
				</g>
			</g>
		</g>
		<g>
			<g>
				<g>
					<g>
						<g>
							<path class="st3" d="M133,338.1c0-0.1,0.4-0.6,1.4-1.3c0.5-0.3,1.1-0.6,1.8-0.8c0.4-0.1,0.7-0.2,1.2-0.3c0.2,0,0.4-0.1,0.7,0
								c0.3,0,0.7,0.3,0.7,0.7c0,0.4-0.1,0.7-0.3,0.9c-0.2,0.2-0.4,0.3-0.6,0.4c-0.4,0.2-0.7,0.4-1.1,0.5c-0.7,0.2-1.4,0.3-2,0.3
								C133.7,338.4,133,338.1,133,338.1c0-0.2,0.7,0,1.8-0.1c0.5,0,1.2-0.1,1.8-0.4c0.3-0.1,0.7-0.3,1-0.5c0.4-0.2,0.6-0.4,0.6-0.6
								c0-0.1,0-0.1-0.2-0.1c-0.1,0-0.3,0-0.5,0c-0.4,0.1-0.7,0.1-1.1,0.2c-0.7,0.2-1.3,0.4-1.8,0.7
								C133.7,337.7,133.1,338.2,133,338.1z"/>
						</g>
					</g>
				</g>
			</g>
		</g>
		<g>
			<g>
				<g>
					<g>
						<g>
							<path class="st3" d="M133.1,337.7c0-0.1,0.7,0.2,1.5,1.1c0.4,0.5,0.8,1.1,1.1,1.8c0.1,0.4,0.3,0.8,0.4,1.2
								c0.1,0.4,0.2,1-0.3,1.6c-0.3,0.3-0.7,0.2-0.9,0.1s-0.4-0.3-0.6-0.4c-0.3-0.3-0.6-0.7-0.8-1c-0.4-0.7-0.6-1.5-0.6-2.1
								c-0.1-1.3,0.4-2,0.4-1.9c0.1,0-0.1,0.7,0,1.9c0.1,0.6,0.3,1.2,0.7,1.8c0.2,0.3,0.4,0.6,0.7,0.8c0.3,0.3,0.6,0.4,0.7,0.3
								c0.1-0.1,0.2-0.6,0.1-0.9c-0.1-0.4-0.2-0.8-0.3-1.1c-0.2-0.7-0.6-1.3-0.9-1.8C133.6,338.2,133,337.8,133.1,337.7z"/>
						</g>
					</g>
				</g>
			</g>
		</g>
	</g>
</g>
<g>
	<g>
		<g>
			<g>
				<g>
					<g>
						<g>
							<path class="st6" d="M110.9,357.6l-11.5-16c0,0-18.8,7.4-21.2,4.6l27.6-25.4l18.8,24.1L110.9,357.6z"/>
						</g>
					</g>
				</g>
			</g>
			<g>
				<g>
					<g>
						<g>
							<g>
								<path class="st8" d="M109,335.1c0.4-0.7,0.3-1.6-0.3-2.1c-0.6-0.5-1.5-0.3-1.9,0.3c-0.4,0.6-0.3,1.8,0.3,2.2
									c0.6,0.4,1.7,0.2,2-0.6"/>
							</g>
						</g>
					</g>
				</g>
			</g>
			<g>
				<g>
					<g>
						<g>
							<path class="st8" d="M105.9,320.9l1.8,2.5l-27.2,23.4c0,0-1.7,0.5-2.3-0.5L105.9,320.9z"/>
						</g>
					</g>
				</g>
			</g>
			<g>
				<g>
					<g>
						<g>
							<g>
								<path class="st3" d="M99.1,342.2c-0.1-0.2,0.5-0.8,0.8-1.9s0.2-2,0.3-2.1c0.1-0.1,0.6,1,0.2,2.3
									C100.1,341.8,99.2,342.4,99.1,342.2z"/>
							</g>
						</g>
					</g>
				</g>
			</g>
			<g>
				<g>
					<g>
						<g>
							<g>
								<path class="st3" d="M95.2,343.6c-0.1-0.1,0.2-0.9,0.2-1.9s-0.4-1.8-0.3-1.9s0.9,0.6,0.9,1.9
									C96,342.9,95.3,343.7,95.2,343.6z"/>
							</g>
						</g>
					</g>
				</g>
			</g>
			<g>
				<g>
					<g>
						<g>
							<g>
								<path class="st3" d="M90.6,341.3c0.1-0.1,0.9,0.4,1.1,1.5c0.3,1.1-0.1,2-0.3,2c-0.2-0.1-0.1-0.9-0.3-1.8
									C90.9,342.1,90.5,341.4,90.6,341.3z"/>
							</g>
						</g>
					</g>
				</g>
			</g>
			<g>
				<g>
					<g>
						<g>
							<g>
								<path class="st3" d="M102.1,345.5c0-0.2,0.7-0.6,1.4-1.3c0.7-0.7,1.1-1.6,1.3-1.5c0.2,0,0,1.1-0.9,2
									C103.1,345.6,102.1,345.7,102.1,345.5z"/>
							</g>
						</g>
					</g>
				</g>
			</g>
		</g>
		<g>
			<g>
				<g>
					<g>
						<g>
							<path class="st3" d="M104.5,348.7c0-0.1,0.4-0.6,1.4-1.3c0.5-0.3,1.1-0.6,1.8-0.8c0.4-0.1,0.7-0.2,1.2-0.3
								c0.2,0,0.4-0.1,0.7,0c0.3,0,0.7,0.3,0.7,0.7c0,0.4-0.1,0.7-0.3,0.9c-0.2,0.2-0.4,0.3-0.6,0.4c-0.4,0.2-0.7,0.4-1.1,0.5
								c-0.7,0.2-1.4,0.3-2,0.3C105.2,349,104.5,348.7,104.5,348.7c0-0.2,0.7,0,1.8-0.1c0.5,0,1.2-0.1,1.8-0.4
								c0.3-0.1,0.7-0.3,1-0.5c0.4-0.2,0.6-0.4,0.6-0.6c0-0.1,0-0.1-0.2-0.1c-0.1,0-0.3,0-0.5,0c-0.4,0.1-0.7,0.1-1.1,0.2
								c-0.7,0.2-1.3,0.4-1.8,0.7C105.1,348.4,104.5,348.8,104.5,348.7z"/>
						</g>
					</g>
				</g>
			</g>
		</g>
		<g>
			<g>
				<g>
					<g>
						<g>
							<path class="st3" d="M104.5,348.3c0-0.1,0.7,0.2,1.5,1.1c0.4,0.5,0.8,1.1,1.1,1.8c0.1,0.4,0.3,0.8,0.4,1.2
								c0.1,0.4,0.2,1-0.3,1.6c-0.3,0.3-0.7,0.2-0.9,0.1c-0.2-0.1-0.4-0.3-0.6-0.4c-0.3-0.3-0.6-0.7-0.8-1c-0.4-0.7-0.6-1.5-0.6-2.1
								c-0.1-1.3,0.4-2,0.4-1.9c0.1,0-0.1,0.7,0,1.9c0.1,0.6,0.3,1.2,0.7,1.8c0.2,0.3,0.4,0.6,0.7,0.8c0.3,0.3,0.6,0.4,0.7,0.3
								s0.2-0.6,0.1-0.9c-0.1-0.4-0.2-0.8-0.3-1.1c-0.2-0.7-0.6-1.3-0.9-1.8C105,348.9,104.4,348.4,104.5,348.3z"/>
						</g>
					</g>
				</g>
			</g>
		</g>
	</g>
</g>
<g>
	<g>
		<g>
			<path class="st14" d="M123.9,91.8c0.3-0.1,1.5,11.1,0.9,12.5c-0.7,1.5-5.1,5.8-6.9,5.8s-4.1,2.7-4.5,3.7l-11.2-2.5l2.5-6.7
				l-0.3-8.5c-0.1-1.8,0.3-3.5,1.1-5.1c0.9-1.7,2.1-3.4,3.3-2.9c2.1,0.9,2.1,1.7,2.1,1.7s2-2,2.7,0.3c0,0,2.6-2.1,3.9,0.6
				c0,0,2.9-1.9,3.7,2.4l0.3,3C121.4,96.1,121.1,92.7,123.9,91.8z"/>
		</g>
	</g>
	<g>
		<g>
			<g>
				<path class="st15" d="M114.8,105.3c0,0,0.4-0.7,1.2-1.5c0.8-0.8,2.2-1.8,3.9-2.4c0.6-0.2,1.2-0.4,1.8-0.5l-0.2,0.2
					c0-1.4-0.1-2.6-0.2-3.5c0-0.9,0-1.4,0.1-1.4c0,0,0.1,0.5,0.2,1.4s0.3,2.1,0.3,3.5v0.2h-0.2c-0.5,0.1-1.1,0.2-1.7,0.5
					c-1.6,0.6-2.9,1.5-3.8,2.3C115.3,104.7,114.9,105.3,114.8,105.3z"/>
			</g>
		</g>
	</g>
	<g>
		<g>
			<g>
				<path class="st15" d="M108.1,92.7c0,0,0.1,0.2,0.3,0.7c0.1,0.4,0.4,1.2,0,2c-0.2,0.5-0.6,0.7-0.7,1.1s0,0.9,0.3,1.3
					c0.6,0.7,2,0.8,2.7-0.1c0.3-0.4,0.5-1.1,0.5-1.6c0-0.6,0.1-1.2,0.1-1.7c0-1.1-0.1-2.1-0.2-2.9s-0.2-1.5-0.4-1.9
					c-0.2-0.4-0.4-0.5-0.4-0.6c0,0,0.3,0.1,0.5,0.5c0.3,0.4,0.5,1.1,0.6,1.9s0.2,1.8,0.2,3c0,0.6,0,1.1,0,1.8
					c-0.1,0.6-0.2,1.3-0.6,1.9c-0.9,1.1-2.5,1.1-3.2,0.1c-0.4-0.5-0.5-1.1-0.4-1.7c0.1-0.3,0.3-0.5,0.4-0.6c0.1-0.2,0.3-0.3,0.3-0.5
					c0.3-0.7,0.1-1.4,0.1-1.9C108.1,93,108,92.7,108.1,92.7z"/>
			</g>
		</g>
	</g>
	<g>
		<g>
			<g>
				<path class="st15" d="M110.7,98c0,0,0.1,0.2,0.3,0.4c0.2,0.3,0.6,0.6,1.1,0.6c0.5,0.1,1.2-0.2,1.6-0.8c0.5-0.6,0.7-1.4,0.8-2.3
					c0.2-1.9-0.2-3.5-0.5-4.7c-0.4-1.2-0.8-1.8-0.7-1.8c0,0,0.5,0.6,1,1.7s0.9,2.9,0.7,4.9c-0.1,1-0.4,1.9-1,2.6
					c-0.5,0.6-1.3,1-1.9,0.8c-0.6-0.1-1-0.5-1.2-0.8C110.7,98.2,110.7,98,110.7,98z"/>
			</g>
		</g>
	</g>
	<g>
		<g>
			<g>
				<path class="st15" d="M114.1,98.3c0,0,0.1,0.1,0.3,0.3c0.2,0.2,0.5,0.4,1,0.5s1.1,0,1.6-0.5c0.5-0.4,0.9-1.1,1-1.9
					c0.3-1.6-0.2-3.2-0.4-4.3c-0.2-1.1-0.3-1.8-0.2-1.8c0.1,0,0.2,0.7,0.5,1.7c0.1,0.5,0.3,1.2,0.4,1.9c0.1,0.7,0.2,1.6,0,2.5
					s-0.6,1.7-1.2,2.2s-1.3,0.6-1.8,0.5s-0.9-0.4-1.1-0.7C114.1,98.5,114.1,98.3,114.1,98.3z"/>
			</g>
		</g>
	</g>
	<g>
		<g>
			<g>
				<path class="st15" d="M118,98c0,0,0.1,0.2,0.1,0.5c0.1,0.3,0.2,0.8,0.6,1.3c0.3,0.5,1,0.9,1.6,0.7c0.6-0.2,1.1-1.1,1-2
					c0-1.9-0.2-3.6-0.4-4.8c-0.2-1.2-0.4-2-0.3-2c0,0,0.3,0.7,0.6,1.9c0.3,1.2,0.5,3,0.5,4.9c0.1,1-0.4,2.1-1.3,2.3
					c-0.9,0.2-1.6-0.3-1.9-0.9s-0.4-1.1-0.5-1.4C118,98.2,118,98,118,98z"/>
			</g>
		</g>
	</g>
</g>
<g>
	<g>
		<path class="st14" d="M225.5,210.6c0,0-3.8,6.1-4.8,8.2c-0.8,1.7-3.9,8.6-4,13.1l7.6,9.6c0,0,3.4-2.9,4-3.9c0.5-1.1,0-2.6,0-2.6
			s1.1-1,1.6-1.2c0,0-0.3,1.9,1,2.3c1.3,0.4,5.7-4.7,5.7-4.7s0.3-2.2-0.9-2.3c0,0,0.9-3,0-3.8c0,0,1-2.4-0.2-3.5
			c0,0-0.5-2.8-1.4-3.7c-0.9-1-9.8,1.9-9.8,1.9s2.1-5.1,2.3-6.6S225.5,210.6,225.5,210.6z"/>
	</g>
</g>
<g>
	<g>
		<g>
			<path class="st15" d="M231,229.5c0,0-0.1,0.2-0.2,0.4c-0.2,0.2-0.4,0.5-0.6,1c-0.1,0.3-0.2,0.5-0.2,0.8s0,0.6,0.2,0.9
				c0.2,0.6,1,0.7,1.6,0.3s1.1-1,1.6-1.5c0.5-0.4,0.9-0.9,1.3-1.2c0.8-0.7,1.2-1.1,1.3-1.1c0,0-0.4,0.5-1.1,1.3
				c-0.4,0.4-0.8,0.9-1.3,1.3c-0.5,0.5-1,1.1-1.6,1.6c-0.3,0.2-0.8,0.4-1.2,0.3c-0.4,0-0.8-0.4-0.9-0.8c-0.1-0.4-0.2-0.7-0.2-1.1
				c0-0.4,0.2-0.7,0.3-0.9c0.2-0.5,0.6-0.8,0.8-1C230.8,229.6,230.9,229.5,231,229.5z"/>
		</g>
	</g>
</g>
<g>
	<g>
		<g>
			<path class="st15" d="M231.4,220.9c0,0-0.5,0.7-1.4,1.7c-0.4,0.5-1.1,1.1-1.4,1.9c-0.3,0.7,0.4,1.9,1.2,1.9
				c0.4,0,0.8-0.4,1.2-0.7s0.7-0.7,1-1c0.6-0.6,1.2-1.2,1.8-1.7c1-0.9,1.7-1.5,1.7-1.5s-0.5,0.7-1.5,1.7c-0.5,0.5-1.1,1.1-1.7,1.7
				c-0.3,0.3-0.7,0.7-1,1c-0.4,0.3-0.8,0.7-1.4,0.8c-0.6,0.1-1.1-0.3-1.4-0.8c-0.3-0.5-0.4-1.1-0.2-1.6s0.5-0.8,0.8-1.2
				c0.3-0.3,0.5-0.6,0.8-0.8C230.8,221.4,231.4,220.9,231.4,220.9z"/>
		</g>
	</g>
</g>
<g>
	<g>
		<g>
			<path class="st15" d="M230,226.8c0,0-0.2,0.1-0.4,0.2c-0.2,0.2-0.5,0.5-0.6,1s0.1,1.1,0.7,1.4c0.3,0.1,0.6,0.2,0.9,0.1
				c0.3-0.1,0.6-0.3,0.9-0.6c2.5-2.1,4.1-4.2,4.2-4.1c0,0-0.3,0.6-1,1.5c-0.7,0.8-1.7,1.9-3,3c-0.3,0.3-0.7,0.5-1.1,0.7
				c-0.4,0.1-0.8,0.1-1.2-0.1c-0.7-0.4-1-1.3-0.8-1.9c0.2-0.6,0.5-0.9,0.8-1.1C229.8,226.8,230,226.8,230,226.8z"/>
		</g>
	</g>
</g>
<g>
	<g>
		<g>
			<path class="st15" d="M228.5,236.5c-0.1,0-0.1-0.5-0.4-1.3c-0.3-0.8-1-1.9-2.2-2.4l-0.8-0.3h0.9l0,0l0,0l0,0l0,0v0.4l0,0l0,0l0,0
				l0,0l0,0l0,0l0,0v-0.4l0,0l0,0l0,0l0,0l0,0l-0.2,0.1c0.4-0.7,0.7-1.6,0.8-2.5c0.4-2.1,0-4.1-0.4-5.3c-0.5-1.3-1-2-0.9-2
				c0,0,0.2,0.1,0.4,0.5c0.2,0.3,0.5,0.8,0.8,1.5c0.6,1.3,1,3.4,0.6,5.6c-0.2,1-0.5,1.9-0.9,2.6l-0.1,0.1H226l0,0l0,0l0,0l0,0l0,0
				v-0.4l0,0l0,0l0,0l0,0l0,0l0,0l0,0v0.4l0,0l0,0l0,0l0,0l0.1-0.4c1.4,0.6,2,1.8,2.3,2.7c0.1,0.4,0.2,0.8,0.2,1
				C228.5,236.4,228.5,236.5,228.5,236.5z"/>
		</g>
	</g>
</g>
<g>
	<g>
		<g>
			<path class="st3" d="M132.7,289.1l-1.1,11.1c-0.5,5.3-0.5,10.6,0,15.9l4.4,41.2l-14.2-18.4c0,0-13.7,9-13.9,17.5
				c0,0,26.9,33.3,33.7,37.9c6.8,4.7,24.3,0,25-14.6c0,0,1.6,13.5,17.2,13.1s15.7-41,15.7-41l-6.8-61.1L132.7,289.1z"/>
		</g>
	</g>
	<g>
		<g>
			<g>
				<path class="st6" d="M166.7,380c0,0,0-0.2,0-0.6s0-0.9,0-1.6c0-1.5,0.1-3.5,0.2-5.9c0.2-5.1,0.5-12,0.8-19.6
					c0.2-3.8,0.3-7.5,0.5-10.8s0.2-6.3,0.7-8.8s1.7-4.3,2.7-5.1c0.5-0.4,1-0.7,1.3-0.8c0.2-0.1,0.3-0.1,0.4-0.1c0.1,0,0.1,0,0.1,0
					c0,0.1-0.7,0.2-1.7,1.1s-2.1,2.6-2.5,5.1c-0.5,2.4-0.4,5.4-0.6,8.8c-0.1,3.3-0.3,7-0.4,10.8c-0.3,7.6-0.6,14.5-0.9,19.6
					c-0.1,2.5-0.2,4.5-0.3,5.9c0,0.7-0.1,1.2-0.1,1.6C166.7,379.9,166.7,380,166.7,380z"/>
			</g>
		</g>
	</g>
	<g>
		<g>
			<g>
				<path class="st6" d="M170.9,290c0,0,0.1,0.4,0.2,1c0.1,0.6,0.2,1.6,0.4,2.7c0.3,2.3,0.6,5.5,0.9,9.1c0.2,3.6,0.3,6.8,0.3,9.2
					c0,1.2,0,2.1,0,2.8c0,0.7,0,1-0.1,1c0,0-0.1-0.4-0.1-1c0-0.7-0.1-1.7-0.1-2.8c-0.1-2.3-0.2-5.6-0.5-9.1
					c-0.2-3.6-0.5-6.8-0.8-9.1c-0.1-1.1-0.2-2-0.3-2.8C170.9,290.3,170.8,290,170.9,290z"/>
			</g>
		</g>
	</g>
	<g>
		<g>
			<g>
				<path class="st6" d="M165.4,292.7c0,0,0.1-0.1,0.4-0.2c0.3-0.1,0.7,0,1.2,0.3c0.2,0.2,0.4,0.4,0.6,0.7c0.1,0.3,0.2,0.7,0.1,1.1
					c-0.2,0.8-0.8,1.5-1.6,1.6c-0.9,0-1.6-0.6-1.8-1.3c-0.3-0.7-0.1-1.5,0.2-1.9c0.3-0.5,0.7-0.7,1-0.8c0.3-0.1,0.4-0.1,0.4,0
					s-0.7,0.1-1.2,1c-0.2,0.4-0.4,1-0.1,1.6c0.2,0.6,0.8,1.1,1.5,1c0.7,0,1.2-0.6,1.3-1.2c0.2-0.6-0.1-1.2-0.5-1.5s-0.7-0.4-1-0.4
					C165.6,292.7,165.4,292.8,165.4,292.7z"/>
			</g>
		</g>
	</g>
	<g>
		<g>
			<g>
				<path class="st6" d="M136.4,357.1c0.1,0-0.2,1.3-0.5,3.3s-0.4,4.9-0.2,8c0.3,3.1,1,5.9,1.6,7.8s1.1,3.1,1.1,3.1
					s-0.2-0.3-0.4-0.8c-0.3-0.5-0.6-1.3-0.9-2.2c-0.7-1.9-1.4-4.7-1.7-7.9c-0.3-3.2-0.1-6,0.3-8.1c0.2-1,0.3-1.8,0.5-2.4
					C136.2,357.4,136.3,357.1,136.4,357.1z"/>
			</g>
		</g>
	</g>
	<g>
		<g>
			<g>
				<path class="st6" d="M136.1,375.2c0,0,0.3-0.1,0.7-0.4s1-0.9,1.4-1.9s0.6-2.3,0.7-3.9c0.1-1.6,0.1-3.3,0.2-5.3
					c0-3.9-0.1-8.6-0.5-13.8c-0.4-5.2-1.1-10.8-2-16.8c-0.9-5.9-1.8-11.5-2.4-16.7c-0.6-5.2-0.9-9.9-0.8-13.8
					c0.1-3.9,0.4-7.1,0.8-9.3c0.2-1.1,0.4-1.9,0.5-2.5c0.1-0.3,0.1-0.5,0.1-0.6s0.1-0.2,0.1-0.2s0,0.1,0,0.2c0,0.2-0.1,0.4-0.1,0.6
					c-0.1,0.6-0.3,1.4-0.4,2.5c-0.3,2.2-0.7,5.3-0.7,9.3c0,3.9,0.2,8.6,0.9,13.7c0.6,5.2,1.6,10.8,2.5,16.7c0.9,5.9,1.6,11.6,2,16.8
					c0.4,5.2,0.5,9.9,0.4,13.8c0,2-0.1,3.7-0.2,5.3c-0.1,1.6-0.3,2.9-0.8,3.9c-0.4,1-1,1.7-1.5,1.9
					C136.4,375.2,136.1,375.2,136.1,375.2z"/>
			</g>
		</g>
	</g>
	<g>
		<g>
			<g>
				<path class="st6" d="M117.1,342.6c0,0,0.3,0.2,0.9,0.8c0.5,0.5,1.3,1.3,2.2,2.2c1.8,1.9,4.1,4.8,6.3,8.2c1.1,1.7,2.1,3.4,3,4.9
					s1.7,2.9,2.5,3.9s1.7,1.6,2.3,1.9s1,0.4,1,0.4s-0.1,0-0.3,0s-0.5-0.1-0.8-0.2c-0.7-0.3-1.6-0.9-2.5-1.9s-1.8-2.4-2.6-3.9
					c-0.9-1.5-1.9-3.2-3-4.9c-2.2-3.4-4.4-6.3-6.2-8.3c-0.9-1-1.6-1.8-2.1-2.3C117.4,342.9,117.1,342.6,117.1,342.6z"/>
			</g>
		</g>
	</g>
</g>
<g>
	<g>
		<path class="st16" d="M138.4,179.1c0,0-8.8-3.6-12.8-7.2c-4-3.6-15.5-23.6-15.5-23.6l5.8-36.1l-14.1-7.6c0,0-16.4,42.9-14.6,50.9
			s31.4,52.3,31.4,52.3l7.3,31.4l7.7,28.3c0,0-3.3,1.6-1.5,7.2s4.2,8,1.8,9.2c-3.8,1.9-1.3,5.2-1.3,5.2l61.6,1.6
			c0,0-7.9-54.6-6.5-64.5c1.4-10.2,0-27.5,0-27.5l-14-4.7L138.4,179.1z"/>
	</g>
</g>
<g>
	<g>
		<path class="st16" d="M187.8,198.7c6.4,3.2,13.2,48.7,13.2,48.7l14.9-17.3l9.1,12.5c0,0-12.9,24.7-15.8,27.2
			c-2.5,2.1-10,8.5-15.1,6.3s-8.2-41.5-8.2-41.5L187.8,198.7z"/>
	</g>
</g>
<g>
	<g>
		<path class="st16" d="M145,183c0,0-0.8-5.3,0.9-4.5c0.1,0,22.6,7.8,22.5,9.5c-0.1,1.5,0.2,6.1,0.2,6.1h-14.9L145,183z"/>
	</g>
</g>
<g>
	<g>
		<g>
			<path class="st3" d="M131,217.6c0,0,0-0.5,0-1.3c0-0.4,0-0.9,0-1.5s0-1.3,0-2c0-1.5-0.2-3.3-0.5-5.3s-0.7-4.1-1.3-6.3
				s-1.3-4.3-2.1-6.1c-0.8-1.8-1.5-3.4-2.3-4.7c-0.3-0.7-0.7-1.2-1-1.7s-0.6-0.9-0.8-1.3c-0.4-0.7-0.7-1.1-0.7-1.1s0.3,0.3,0.8,1
				c0.2,0.3,0.5,0.7,0.8,1.2s0.7,1.1,1,1.7c0.8,1.3,1.6,2.9,2.4,4.7s1.5,3.9,2.1,6.1c0.6,2.2,1,4.4,1.3,6.4c0.2,2,0.4,3.8,0.4,5.3
				c0,0.8,0,1.5,0,2.1s0,1.1-0.1,1.5C131,217.1,131,217.6,131,217.6z"/>
		</g>
	</g>
</g>
<g>
	<g>
		<g>
			<path class="st3" d="M142.7,276.3c0,0-0.7-0.2-1.7-0.8c-1-0.6-2.4-1.5-3.7-2.8s-2.4-2.6-3.1-3.6c-0.7-1-1-1.7-1-1.7
				c0.1-0.1,1.6,2.6,4.3,5.1C140.2,274.9,142.8,276.1,142.7,276.3z"/>
		</g>
	</g>
</g>
<g>
	<g>
		<g>
			<path class="st3" d="M161.6,284c0,0-0.3,0.2-1,0.4c-0.6,0.2-1.6,0.5-2.8,0.8s-2.6,0.5-4.2,0.7c-1.6,0.1-3.4,0.2-5.2,0
				c-1.8-0.1-3.6-0.4-5.2-0.8c-1.6-0.4-3-0.8-4.1-1.3c-1.1-0.4-2-0.8-2.7-1.2c-0.6-0.3-0.9-0.5-0.9-0.5s0.4,0.1,1,0.4s1.5,0.6,2.7,1
				c1.1,0.4,2.5,0.8,4.1,1.2c1.6,0.3,3.3,0.6,5.1,0.8c1.8,0.1,3.6,0.1,5.2,0c1.6-0.1,3-0.3,4.2-0.6c1.2-0.2,2.1-0.5,2.8-0.6
				C161.2,284.1,161.6,284,161.6,284z"/>
		</g>
	</g>
</g>
<g>
	<g>
		<g>
			<path class="st3" d="M182.1,242.6c0,0,0,0.1,0.1,0.4c0,0.3,0.1,0.7,0.1,1.2c0.1,1,0.1,2.5-0.1,4.3c-0.3,3.6-1.7,8.6-4.7,13.1
				s-7,7.4-10,8.8c-1.5,0.7-2.8,1.2-3.7,1.4c-0.4,0.1-0.8,0.2-1,0.3c-0.2,0-0.4,0.1-0.4,0.1s0.5-0.2,1.4-0.5s2.1-0.8,3.6-1.5
				c3-1.5,6.9-4.4,9.8-8.8c3-4.4,4.3-9.3,4.7-12.9c0.2-1.8,0.3-3.2,0.2-4.2C182.1,243.2,182.1,242.6,182.1,242.6z"/>
		</g>
	</g>
</g>
<g>
	<g>
		<g>
			<path class="st3" d="M187.9,213.6c0,0,0,0.3,0,0.7c0,0.5-0.1,1.2-0.1,2.1c-0.1,0.9-0.1,2-0.1,3.3s-0.1,2.7,0,4.3
				c0,3.2,0.2,7,0.4,11.3c0.3,4.2,0.7,8.9,1.2,13.8c1,9.7,2.2,18.5,3,24.9c0.4,3.2,0.7,5.8,0.9,7.6c0.1,0.9,0.2,1.5,0.2,2.1
				c0,0.5,0.1,0.7,0,0.7c0,0-0.1-0.2-0.1-0.7c-0.1-0.5-0.2-1.2-0.3-2c-0.2-1.8-0.6-4.4-1-7.5c-0.8-6.4-2.1-15.1-3.1-24.9
				c-0.5-4.9-0.9-9.5-1.1-13.8c-0.2-4.2-0.4-8.1-0.3-11.3c0-1.6,0-3.1,0.1-4.3c0-1.3,0.1-2.4,0.2-3.3c0.1-0.9,0.1-1.6,0.2-2.1
				C187.9,213.9,187.9,213.6,187.9,213.6z"/>
		</g>
	</g>
</g>
<g>
	<g>
		<g>
			<path class="st3" d="M168.3,191.8c0,0-0.3,0.2-0.9,0.3c-0.6,0.2-1.5,0.3-2.7,0.3c-1.1,0-2.5-0.1-4-0.5s-3.1-0.9-4.7-1.7
				c-3.2-1.5-5.9-3.4-7.7-4.8c-0.9-0.7-1.7-1.3-2.2-1.7s-0.8-0.7-0.8-0.7s0.3,0.2,0.9,0.5c0.6,0.4,1.4,1,2.3,1.6
				c1.9,1.3,4.6,3.2,7.7,4.6c1.6,0.7,3.1,1.3,4.6,1.7c1.4,0.4,2.8,0.5,3.9,0.5C166.9,192.1,168.3,191.7,168.3,191.8z"/>
		</g>
	</g>
</g>
<g>
	<g>
		<g>
			<path class="st3" d="M198.9,259.3c-0.1,0,0.3-2.8,0.9-6.2c0.6-3.4,1.2-6.2,1.3-6.2s-0.3,2.8-0.9,6.2
				C199.6,256.6,199,259.3,198.9,259.3z"/>
		</g>
	</g>
</g>
<g class="st7">
	<g>
		<g>
			<path d="M163.5,271.7c-2.1,0.7-4.2,1.2-6.4,1.5c-1,0.1-2,0.1-2.8-0.5c-0.8-0.7-1-2-0.6-3s1.2-1.8,2.2-2.3c3.3-1.7,7.6,0.1,10.7-2
				c1.6-1.1,2.5-2.9,3.6-4.6c1.9-2.8,4.5-5,7.4-6.2c0.4-0.2,0.9-0.3,1.3-0.2c0.9,0.4,0.7,1.9,0.3,2.9
				C176,264.5,170.7,270.1,163.5,271.7"/>
		</g>
	</g>
</g>
<g class="st7">
	<g>
		<g>
			<path d="M187.7,226.3c4.5,12.1,2.9,26.4,8.8,37.9c1.1,2.2,2.5,4.3,2.8,6.7c0.3,2.5-1.2,5.4-3.5,5.4c-1.4,0-2.9-1-3.5-2.3
				c-0.6-1.4-0.6-3.1-0.8-4.6c-1-9.3-2.4-18.7-3.2-28.1C187.9,236.3,188,231.3,187.7,226.3"/>
		</g>
	</g>
</g>
<g class="st7">
	<g>
		<g>
			<path d="M146.3,183.8c3.4,4.4,7.6,8.1,12.2,10.9c1.1,0.7,2.3,1.3,3.6,1.6s2.7,0.1,3.8-0.7c0.5-0.4,0.9-0.8,1-1.4
				c0.1-0.6,0-1.3-0.5-1.7c-0.3-0.2-0.8-0.3-1.2-0.3C158.4,191.9,151.8,188,146.3,183.8"/>
		</g>
	</g>
</g>
<g>
	<g>
		<g>
			<path class="st3" d="M152.3,187.8c-0.1,0.1-0.8-1.4-0.7-3.5c0.1-2,0.9-3.5,1-3.4s-0.5,1.5-0.6,3.4
				C151.9,186.3,152.4,187.8,152.3,187.8z"/>
		</g>
	</g>
</g>
<g>
	<g>
		<g>
			<path class="st3" d="M160,191.2c-0.1,0,0.2-1.7,0.2-3.7c0-2.1-0.5-3.7-0.3-3.7c0.1,0,0.7,1.6,0.7,3.7
				C160.6,189.6,160.1,191.3,160,191.2z"/>
		</g>
	</g>
</g>
<g>
	<g>
		<g>
			<path class="st3" d="M165.4,192.6c-0.1,0,0.4-1.3,0.4-2.9c0.1-1.6-0.2-2.9-0.1-3c0.1,0,0.6,1.3,0.5,3
				C166.2,191.5,165.5,192.7,165.4,192.6z"/>
		</g>
	</g>
</g>
<g>
	<g>
		<g>
			<path class="st3" d="M147.1,184.5c-0.1,0.1-0.8-1.1-0.6-2.8c0.1-0.8,0.3-1.6,0.6-2c0.2-0.2,0.4-0.3,0.5-0.3
				c0.2,0,0.2,0.1,0.2,0.1c0,0.1-0.3,0-0.5,0.4s-0.4,1.1-0.5,1.8C146.7,183.3,147.2,184.5,147.1,184.5z"/>
		</g>
	</g>
</g>
<g>
	<g>
		<g>
			<path class="st3" d="M103.9,151c-0.1-0.1,1.2-1.2,3.1-1.9c1.9-0.8,3.5-0.8,3.5-0.7s-1.5,0.4-3.4,1.1
				C105.3,150.2,104,151.1,103.9,151z"/>
		</g>
	</g>
</g>
<g>
	<g>
		<g>
			<path class="st12" d="M187,229.6c0,0-0.2,0-0.6-0.2c-0.5-0.1-1.1-0.3-1.8-0.5c-0.8-0.2-1.8-0.5-2.9-0.8c-1.1-0.3-2.4-0.6-3.8-0.9
				c-2.9-0.7-6.3-1.4-10.1-2s-8-1.2-12.5-1.7c-4.4-0.4-8.7-0.6-12.5-0.7c-3.9-0.1-7.3,0-10.3,0.1c-1.5,0-2.8,0.1-3.9,0.2
				c-1.2,0.1-2.2,0.1-3,0.2c-0.8,0.1-1.4,0.1-1.9,0.1c-0.4,0-0.7,0-0.7,0s3.6-0.4,9.4-0.7c2.9-0.1,6.4-0.2,10.3-0.1
				c3.9,0.1,8.1,0.3,12.6,0.7c4.4,0.4,8.7,1,12.5,1.7s7.2,1.4,10.1,2.1C183.6,228.5,187,229.6,187,229.6z"/>
		</g>
	</g>
</g>
<g>
	<g>
		<g>
			<path class="st12" d="M180.8,254.3c0,0-0.2,0-0.5-0.1c-0.4-0.1-0.9-0.1-1.5-0.2c-0.6-0.1-1.4-0.2-2.3-0.3
				c-0.9-0.1-1.9-0.2-3.1-0.3c-4.6-0.5-10.9-0.8-17.9-0.7c-7,0-13.3,0.4-17.9,0.7c-2.3,0.2-4.1,0.3-5.4,0.4
				c-0.6,0.1-1.1,0.1-1.5,0.1c-0.3,0-0.5,0-0.5,0s0.2,0,0.5-0.1c0.4,0,0.9-0.1,1.5-0.2c1.3-0.1,3.1-0.3,5.4-0.5
				c4.6-0.4,10.9-0.7,17.9-0.7s13.4,0.3,17.9,0.8C178,253.7,180.8,254.3,180.8,254.3z"/>
		</g>
	</g>
</g>
<g>
	<g>
		<g>
			<path class="st12" d="M189.9,259.2c0,0-0.2,0-0.4,0c-0.4,0-0.7-0.1-1.1-0.1c-1.1-0.1-2.4-0.2-3.8-0.3c-1.4-0.1-2.6-0.3-3.8-0.4
				c-0.4,0-0.8-0.1-1.1-0.1s-0.4-0.1-0.4-0.1s0.2,0,0.4,0c0.4,0,0.7,0.1,1.1,0.1c1.1,0.1,2.4,0.2,3.8,0.3c1.4,0.1,2.6,0.3,3.8,0.4
				c0.4,0,0.8,0.1,1.1,0.1C189.7,259.2,189.9,259.2,189.9,259.2z"/>
		</g>
	</g>
</g>
<g>
	<g>
		<g>
			<path class="st12" d="M193.3,287.2c0,0-0.2,0-0.6-0.1c-0.4-0.1-1-0.2-1.8-0.4c-1.5-0.3-3.8-0.6-6.5-0.6c-2.8-0.1-6.1,0.1-9.7,0.5
				c-3.7,0.3-7.7,0.8-11.9,1.1c-8.5,0.5-16.2,0.1-21.7-0.5s-8.9-1.3-8.9-1.3s0.2,0,0.6,0.1c0.4,0.1,1,0.2,1.8,0.3
				c1.5,0.2,3.8,0.5,6.5,0.8c5.5,0.6,13.2,1,21.7,0.5c4.2-0.2,8.3-0.7,11.9-1.1c3.7-0.3,7-0.5,9.8-0.4s5,0.4,6.6,0.7
				c0.8,0.1,1.4,0.3,1.8,0.4C193.1,287.1,193.3,287.2,193.3,287.2z"/>
		</g>
	</g>
</g>
<g>
	<g>
		<g>
			<path class="st12" d="M191.5,209.7c0,0-0.2-0.1-0.7-0.2c-0.5-0.2-1.1-0.4-1.9-0.6c-1.7-0.6-4.1-1.3-7.1-2.3
				c-6-1.9-14.2-4.5-23.4-7.2s-17.5-5-23.6-6.6c-3-0.8-5.4-1.4-7.2-1.9c-0.8-0.2-1.5-0.4-1.9-0.5s-0.7-0.2-0.7-0.2s0.2,0,0.7,0.2
				c0.5,0.1,1.1,0.3,2,0.5c1.7,0.4,4.2,1.1,7.2,1.9c6.1,1.6,14.4,3.9,23.6,6.6c9.2,2.7,17.4,5.3,23.4,7.3c3,1,5.4,1.8,7.1,2.3
				c0.8,0.3,1.4,0.5,1.9,0.7C191.3,209.6,191.5,209.7,191.5,209.7z"/>
		</g>
	</g>
</g>
<g>
	<g>
		<g>
			<path class="st12" d="M128.8,196.4c0,0,0,0-0.1,0.1c-0.1,0-0.3,0.1-0.4,0.1c-0.4,0.1-0.9,0.3-1.4,0.4c-1.3,0.4-3,0.8-4.8,1.3
				c-0.9,0.3-1.8,0.5-2.6,0.7c-0.8,0.3-1.5,0.6-2,1c-1,0.8-1.2,1.7-1.2,1.7s0-0.2,0.2-0.6c0.2-0.3,0.5-0.8,1-1.2s1.2-0.8,2-1.1
				s1.7-0.5,2.6-0.7c1.8-0.5,3.4-0.9,4.8-1.3c0.5-0.1,1-0.3,1.5-0.4c0.1,0,0.3-0.1,0.4-0.1C128.7,196.4,128.8,196.4,128.8,196.4z"/>
		</g>
	</g>
</g>
<g>
	<g>
		<g>
			<path class="st12" d="M121.9,168.3c0,0-0.1,0-0.2,0c-0.2,0-0.4,0-0.7,0.1c-0.6,0-1.5,0.1-2.6,0.3c-2.2,0.3-5.2,1-8.3,2.3
				c-3.1,1.3-5.8,2.9-7.6,4.2c-0.9,0.7-1.6,1.2-2.1,1.6c-0.2,0.2-0.4,0.3-0.6,0.5c-0.1,0.1-0.2,0.2-0.2,0.2s1-1,2.9-2.3
				c1.8-1.3,4.5-3,7.7-4.3s6.2-2,8.3-2.3C120.6,168.3,121.9,168.3,121.9,168.3z"/>
		</g>
	</g>
</g>
<g>
	<g>
		<g>
			<path class="st12" d="M111,144.2c0,0-0.1,0-0.2-0.1c-0.2-0.1-0.3-0.2-0.5-0.4c-0.5-0.3-1.1-0.8-2-1.4c-1.7-1.1-4.2-2.4-7.1-3.2
				s-5.7-1-7.6-0.9c-1,0-1.8,0.1-2.3,0.2c-0.2,0-0.4,0.1-0.6,0.1c-0.1,0-0.2,0-0.2,0s1.2-0.3,3.2-0.4c2-0.1,4.7,0,7.7,0.8
				c2.9,0.8,5.4,2.1,7.1,3.2C110,143.4,111,144.2,111,144.2z"/>
		</g>
	</g>
</g>
<g>
	<g>
		<g>
			<path class="st12" d="M113.6,119.5L113.6,119.5c-0.2-0.2-0.3-0.3-0.4-0.5c-0.3-0.3-0.7-0.8-1.2-1.3c-1.1-1.1-2.7-2.4-4.7-3.5
				s-3.9-1.7-5.4-2c-0.7-0.2-1.3-0.3-1.7-0.3c-0.2,0-0.3,0-0.5-0.1c-0.1,0-0.2,0-0.2,0s0.1,0,0.2,0s0.3,0,0.5,0c0.4,0,1,0.1,1.7,0.2
				c1.4,0.3,3.4,0.9,5.4,2s3.6,2.4,4.7,3.5c0.5,0.5,0.9,1,1.2,1.4c0.1,0.1,0.2,0.3,0.3,0.4C113.6,119.5,113.7,119.5,113.6,119.5z"/>
		</g>
	</g>
</g>
<g>
	<g>
		<g>
			<path class="st12" d="M199.4,239.3c0,0-0.2,0-0.4,0.1c-0.3,0-0.7,0.1-1.2,0.1c-1,0.2-2.4,0.5-3.9,1.1s-2.7,1.4-3.5,2.1
				c-0.4,0.3-0.8,0.6-1,0.8s-0.4,0.3-0.4,0.3s0.1-0.1,0.3-0.3s0.5-0.5,0.9-0.8c0.8-0.7,2.1-1.5,3.5-2.1c1.5-0.6,2.9-1,3.9-1.1
				c0.5-0.1,0.9-0.1,1.2-0.1C199.2,239.3,199.4,239.3,199.4,239.3z"/>
		</g>
	</g>
</g>
<g>
	<g>
		<g>
			<path class="st12" d="M216.2,257.8c0,0-1-0.4-2.5-1.4c-0.7-0.5-1.5-1.2-2.4-2c-0.8-0.9-1.6-1.9-2.4-3.1c-0.7-1.2-1.3-2.4-1.7-3.5
				c-0.4-1.2-0.7-2.2-0.8-3.1c-0.3-1.8-0.2-3-0.2-3s0,0.1,0,0.2c0,0.2,0,0.4,0,0.6c0,0.3,0,0.6,0.1,0.9c0.1,0.4,0.1,0.8,0.2,1.2
				c0.2,0.9,0.4,2,0.8,3.1c0.4,1.1,1,2.3,1.7,3.5s1.5,2.2,2.3,3s1.6,1.5,2.3,2c0.3,0.3,0.7,0.5,1,0.6c0.3,0.2,0.5,0.3,0.8,0.4
				c0.2,0.1,0.3,0.2,0.5,0.3C216.1,257.8,216.2,257.8,216.2,257.8z"/>
		</g>
	</g>
</g>
<g>
	<g>
		<path class="st16" d="M373.6,154.7l0.3,1.2c0.1,0.5,0.6,0.9,1,1l1.2,0.4l-1.2,0.4c-0.4,0.1-0.9,0.5-1,1l-0.4,1.2l-0.4-1.2
			c-0.1-0.4-0.6-0.8-1-0.9l-1.2-0.4l1-0.4c0.4-0.1,0.9-0.5,1-0.9L373.6,154.7z"/>
	</g>
	<g>
		<path class="st16" d="M336.9,103.9l0.3,1.2c0.1,0.5,0.6,0.9,1,1l1.2,0.4l-1.2,0.4c-0.4,0.1-0.9,0.5-1,1l-0.4,1.2l-0.4-1.2
			c-0.1-0.4-0.6-0.8-1-0.9l-1.2-0.4l1-0.4c0.4-0.1,0.9-0.5,1-0.9L336.9,103.9z"/>
	</g>
	<g>
		<path class="st16" d="M211.7,324l0.3,1.2c0.1,0.5,0.6,0.9,1,1l1.2,0.4L213,327c-0.4,0.1-0.9,0.5-1,1l-0.4,1.2l-0.4-1.2
			c-0.1-0.4-0.6-0.8-1-0.9l-1.2-0.4l1-0.4c0.4-0.1,0.9-0.5,1-0.9L211.7,324z"/>
	</g>
	<g>
		<path class="st16" d="M336.9,288.5l0.3,1.2c0.1,0.5,0.6,0.9,1,1l1.2,0.4l-1.2,0.4c-0.4,0.1-0.9,0.5-1,1l-0.4,1.2l-0.4-1.2
			c-0.1-0.4-0.6-0.8-1-0.9l-1.2-0.4l1-0.4c0.4-0.1,0.9-0.5,1-0.9L336.9,288.5z"/>
	</g>
	<g>
		<path class="st16" d="M363.2,110.9l1.5,4.6c0.6,2.1,2.3,3.6,4.4,4.3l4.6,1.4l-4.6,1.6c-1.9,0.7-3.5,2.1-4.1,4l-1.6,4.7l-1.9-5
			c-0.7-1.8-2.2-3.3-4.1-3.9l-4.5-1.4l4.5-1.4c1.9-0.7,3.3-2,4.1-3.8L363.2,110.9z"/>
	</g>
	<g>
		<path class="st16" d="M255.4,373.9l1.5,4.6c0.6,2.1,2.3,3.6,4.4,4.3l4.6,1.4l-4.6,1.6c-1.9,0.7-3.5,2.1-4.1,4l-1.6,4.7l-1.9-5
			c-0.7-1.8-2.2-3.3-4.1-3.9l-4.5-1.4l4.5-1.4c1.9-0.7,3.3-2,4.1-3.8L255.4,373.9z"/>
	</g>
	<g>
		<path class="st16" d="M236.1,152.9l0.6,1.8c0.3,0.8,0.9,1.4,1.7,1.7l1.9,0.7l-1.9,0.7c-0.7,0.3-1.5,0.9-1.7,1.7l-0.7,2l-0.7-2.1
			c-0.3-0.8-0.9-1.3-1.7-1.6l-1.9-0.7l1.9-0.7c0.7-0.3,1.3-0.8,1.6-1.6L236.1,152.9z"/>
	</g>
	<g>
		<path class="st16" d="M286.9,364.5l0.6,1.8c0.3,0.8,0.9,1.4,1.7,1.7l1.9,0.7l-1.9,0.7c-0.7,0.3-1.5,0.9-1.7,1.7l-0.7,2l-0.7-2.1
			c-0.3-0.8-0.9-1.3-1.7-1.6l-1.9-0.7l1.9-0.7c0.7-0.3,1.3-0.8,1.6-1.6L286.9,364.5z"/>
	</g>
</g>
<g>
	<g>
		<g>
			<g>
				<path class="st17" d="M399.6,422c0,0,0.1-0.2,0.5-0.8c0.4-0.5,0.9-1.2,1.5-2s1.5-2,2.6-3.4c0.5-0.8,1-1.4,1.7-2
					c0.5-0.8,1.1-1.7,1.8-2.7c1.3-1.8,2.7-3.9,4.2-6c1.5-2.3,3-4.7,4.8-7.5c1.8-2.7,3.4-5.7,5.2-8.8c1.9-3.2,3.7-6.5,5.5-10.3
					c2-3.5,3.8-7.6,5.7-11.6c1-2,1.9-4.3,2.9-6.3c0.9-2.3,1.9-4.4,2.8-6.7c0.9-2.5,1.9-4.6,2.8-7c0.5-1.1,0.9-2.5,1.4-3.8
					c0.5-1.3,0.9-2.6,1.4-3.8c0.9-2.6,1.9-4.9,2.8-7.7c0.9-2.6,1.7-5.4,2.6-8.1c0.9-2.8,1.7-5.5,2.6-8.4c0.7-2.9,1.7-5.7,2.4-8.6
					s1.5-5.8,2.2-8.9s1.3-6.1,2.1-9.2c2.6-12.6,4.8-25.7,6.3-39.4c1.4-13.7,2.1-27.2,2.2-40.5c0-3.2,0-6.6,0-9.8
					c-0.1-3.2-0.1-6.5-0.3-9.6c0-3.2-0.3-6.5-0.5-9.4s-0.2-6.1-0.7-9.3c-0.3-3-0.5-6-0.8-8.9s-0.6-5.8-1-8.6
					c-0.1-1.4-0.4-2.8-0.5-4.2c-0.1-1.4-0.4-2.8-0.6-4.2c-0.4-2.8-0.8-5.5-1.1-8.1c-0.4-2.7-0.9-5.3-1.4-7.8
					c-0.5-2.6-0.9-5.1-1.4-7.5c-1-5-2-9.6-3-14s-2-8.7-3.1-12.5c-1.1-4-1.9-7.7-3.1-11.1c-1-3.5-2-6.6-3-9.5c-1-2.9-1.9-5.5-2.7-8
					c-0.4-1.2-0.8-2.3-1.1-3.2c-0.4-1.1-0.8-2.1-1.1-2.9c-0.7-1.7-1.3-3.2-1.7-4.4c-0.4-1.2-0.8-2.1-0.9-2.8s-0.4-1.1-0.4-1.1
					s0.2,0.3,0.4,0.9c0.2,0.8,0.6,1.5,1.1,2.8c0.5,1.2,1.1,2.8,1.7,4.4c0.4,0.9,0.7,1.8,1.1,2.9c0.4,1.1,0.8,2.3,1.1,3.2
					c0.8,2.5,1.7,5.1,2.7,8s1.9,6,3,9.5c1.2,3.5,2,7.1,3.1,11.1c1.2,4,2.1,8.2,3.2,12.5s2.1,9.1,3,14c0.5,2.5,1,5,1.4,7.5
					c0.5,2.6,0.9,5.1,1.4,7.9c0.4,2.7,0.8,5.5,1.3,8.1c0.3,1.4,0.4,2.8,0.6,4.2c0.1,1.4,0.4,2.8,0.5,4.2c0.4,2.8,0.6,5.8,1,8.6
					c0.3,3,0.5,6,0.8,8.9c0.3,3,0.4,6,0.7,9.3c0.1,3.2,0.4,6.1,0.5,9.4c0.1,3.2,0.1,6.5,0.3,9.6c0,3.2,0,6.6,0,9.8
					c-0.2,13.1-0.8,26.8-2.2,40.5c-1.5,13.7-3.7,26.9-6.3,39.4c-0.7,3.1-1.3,6.1-2.1,9.2s-1.5,6-2.2,8.9c-0.7,2.9-1.6,5.8-2.4,8.6
					c-0.9,2.8-1.7,5.7-2.6,8.4c-0.9,2.8-1.8,5.4-2.6,8.1c-0.9,2.6-1.8,5.2-2.8,7.7c-0.5,1.3-0.9,2.6-1.4,3.8
					c-0.5,1.3-0.9,2.5-1.4,3.8c-0.9,2.5-1.9,4.7-2.8,7s-2,4.4-3,6.7c-0.9,2.3-1.9,4.3-2.9,6.3c-2.1,4.1-3.9,7.9-5.9,11.6
					c-2,3.5-3.7,7.1-5.7,10.3c-1.9,3.2-3.5,6.1-5.2,8.8c-1.8,2.7-3.3,5.3-4.8,7.5c-1.5,2.3-2.9,4.2-4.2,6c-0.6,1-1.3,1.7-1.8,2.5
					c-0.6,0.8-1.2,1.5-1.7,2c-1,1.4-1.9,2.5-2.6,3.4c-0.6,1-1.3,1.5-1.5,2C399.7,421.8,399.6,422,399.6,422z"/>
			</g>
		</g>
	</g>
	<g>
		<g>
			<g>
				<path class="st18" d="M446.8,333.2c-9.9-8.6-14.7-25.6-14.1-41.2c0.7-15.5,6-29.8,12.4-42.2c7.8,11,13.3,27.6,13,42.5
					C457.8,307.1,452.7,319.8,446.8,333.2"/>
			</g>
		</g>
		<g>
			<g>
				<path class="st17" d="M446.8,333.2c-2.9-15.2,2.5-31.3,11-40.9c8.6-9.7,19.9-14.2,31.2-16.4c0,15-4.6,31.4-12.5,40.9
					C468.6,326.3,458,329.9,446.8,333.2"/>
			</g>
		</g>
	</g>
	<g>
		<g>
			<g>
				<path class="st18" d="M464.3,253.2c-10.8-6.5-17.9-22.3-19.3-37.9c-1.5-15.5,1.8-30.7,6.3-44.5c9.2,9.3,16.8,24.6,18.6,39.3
					C471.6,225,468.3,238.8,464.3,253.2"/>
			</g>
		</g>
		<g>
			<g>
				<path class="st17" d="M464.3,253.2c-4.9-14.4-1.8-31.6,5.2-43c7-11.5,17.5-18.3,28.4-22.8c2,14.8-0.2,32.1-6.6,43.2
					C484.7,241.8,474.9,247.5,464.3,253.2"/>
			</g>
		</g>
	</g>
	<g>
		<g>
			<g>
				<path class="st18" d="M467.9,173.2c-11.7-1.8-22.5-14.4-27.8-28.6c-5.4-14.4-6.2-30.3-5.4-45.2c11,5.4,22.1,16.9,27.4,30.5
					C467.4,143.2,468,157.7,467.9,173.2"/>
			</g>
		</g>
		<g>
			<g>
				<path class="st17" d="M467.9,173.2c-8.3-11.9-9.8-29.7-6.1-43.4c3.7-13.9,11.7-24.4,20.7-33.2c5.7,13.4,8.1,30.9,4.9,44.2
					C484.1,154.1,476.5,163.6,467.9,173.2"/>
			</g>
		</g>
	</g>
	<g>
		<g>
			<path class="st17" d="M452.5,86.6c-12.2-4-21.7-17.6-25.2-31.7c-3.6-14.2-2.2-28.9,0.8-42.7c10.9,7.1,20.8,19.9,24.5,33.3
				C456.2,59,454.6,72.5,452.5,86.6"/>
		</g>
	</g>
	<g>
		<g>
			<g>
				<path class="st18" d="M408.1,415.7c-10-13.2-11.5-33-6.4-48.6c5.1-15.8,15.6-27.9,26.8-38c6.7,14.9,9.2,34.5,4.8,49.5
					C428.9,393.9,419.2,404.7,408.1,415.7"/>
			</g>
		</g>
		<g>
			<g>
				<path class="st17" d="M408.1,415.7c0.5-17,11.4-31.2,24.9-37.4c13.3-6.4,28.7-5.8,43.5-2.9c-4.1,15.4-14.2,30.3-26.7,36.6
					C437.2,418.4,423,417.4,408.1,415.7"/>
			</g>
		</g>
	</g>
</g>
<g>
	<g>
		<g>
			<g>
				<path class="st17" d="M126.9,469.5c0,0-0.1-0.1-0.6-0.5c-0.4-0.4-1-0.8-1.7-1.6c-0.7-0.7-1.7-1.6-2.9-2.6
					c-0.6-0.5-1.1-1-1.9-1.6c-0.6-0.7-1.3-1.3-2-2.1c-1.4-1.4-3-3-4.7-4.7c-1.7-1.8-3.4-3.6-5.4-5.9c-2-2.1-3.9-4.4-6-6.9
					c-2.1-2.5-4.3-5.2-6.4-8.1c-2.3-2.9-4.4-6-6.7-9.1c-1.1-1.6-2.3-3.4-3.4-4.9c-1.1-1.7-2.3-3.5-3.4-5.2c-1.1-1.9-2.3-3.6-3.4-5.6
					c-0.6-0.8-1.1-1.8-1.7-2.9c-0.6-0.9-1.1-1.9-1.7-2.9c-1.1-2.1-2.3-3.9-3.4-6.1c-1.1-1.9-2.1-4.2-3.3-6.4
					c-1.1-2.2-2.1-4.4-3.3-6.7c-1-2.3-2.1-4.5-3.1-6.9c-1-2.3-2-4.7-3-7.1c-1-2.5-1.8-4.9-2.8-7.4c-3.8-10-7.1-20.6-9.7-31.8
					c-2.7-11-4.5-22.1-5.7-32.9c-0.3-2.6-0.5-5.4-0.8-8c-0.1-2.6-0.4-5.3-0.5-7.9c-0.3-2.7-0.3-5.3-0.2-7.8c0-2.6-0.3-5.2-0.1-7.6
					c0-2.5,0-4.9,0-7.4c0-2.5,0.2-4.8,0.3-7.1c0-1.2,0.2-2.3,0.2-3.5c0-1.2,0.2-2.3,0.3-3.5c0.2-2.3,0.3-4.5,0.5-6.7
					s0.5-4.4,0.8-6.5c0.3-2.1,0.5-4.1,0.8-6.2c0.6-4,1.2-8,1.9-11.6c0.7-3.6,1.3-7.2,2.1-10.5c0.7-3.4,1.3-6.3,2.2-9.3
					c0.7-3,1.5-5.6,2.2-8c0.7-2.5,1.5-4.6,2.1-6.7c0.3-0.9,0.6-1.8,0.9-2.7c0.3-0.9,0.6-1.7,0.9-2.5c0.6-1.4,1-2.7,1.3-3.7
					s0.6-1.7,0.7-2.3c0.1-0.6,0.3-0.9,0.3-0.9s-0.1,0.4-0.3,0.8c-0.1,0.5-0.4,1.3-0.9,2.3c-0.4,1-0.9,2.3-1.3,3.7
					c-0.3,0.6-0.6,1.5-0.9,2.5c-0.3,0.8-0.6,1.8-0.9,2.7c-0.6,2.1-1.3,4.3-2.1,6.7c-0.7,2.5-1.5,5-2.2,8c-0.9,2.8-1.5,5.9-2.2,9.3
					c-0.9,3.4-1.5,6.8-2.2,10.5c-0.7,3.6-1.3,7.5-1.9,11.6c-0.3,1.9-0.6,4-0.8,6.2c-0.3,2.2-0.5,4.3-0.8,6.6
					c-0.2,2.2-0.3,4.5-0.6,6.7c-0.2,1.2-0.2,2.3-0.3,3.5c0,1.2-0.2,2.3-0.2,3.5c-0.2,2.3-0.2,4.8-0.3,7.1c0,2.5,0,4.9,0,7.4
					c0,2.6,0.1,5,0.1,7.6c0.1,2.7,0.1,5.2,0.2,7.8c0.1,2.6,0.4,5.3,0.5,7.9c0.3,2.6,0.5,5.4,0.8,8c1.4,10.7,3.2,21.8,5.7,32.9
					c2.8,11,6,21.6,9.7,31.8c1,2.5,1.8,4.9,2.8,7.4c1,2.5,2,4.8,3,7.1c1,2.3,2.1,4.7,3.1,6.9c1.1,2.2,2.1,4.7,3.3,6.7
					s2.3,4.2,3.3,6.4c1.1,2.1,2.3,4,3.4,6.1c0.6,0.9,1.1,1.9,1.7,2.9c0.6,0.9,1.1,1.8,1.7,2.9c1.1,1.9,2.3,3.9,3.4,5.6
					c1.1,1.7,2.4,3.5,3.6,5.2c1.1,1.7,2.3,3.4,3.4,4.9c2.4,3.2,4.6,6.4,6.8,9.1c2.3,2.9,4.3,5.6,6.6,8.1c2.1,2.5,4,4.8,6,6.9
					c2,2.1,3.7,4.2,5.4,5.9c1.7,1.8,3.3,3.3,4.7,4.7c0.7,0.8,1.4,1.4,2,2c0.7,0.5,1.3,1.2,1.9,1.6c1.1,1,2.1,1.8,2.9,2.6
					c0.7,0.7,1.4,1.2,1.7,1.6C126.7,469.3,126.9,469.5,126.9,469.5z"/>
			</g>
		</g>
	</g>
	<g>
		<g>
			<g>
				<path class="st18" d="M71.8,399.9c9.2-7.7,12.8-22,10.7-34.6c-2.1-12.7-8.6-24-16-33.7c-6.8,9.5-11.1,23.6-9.6,35.6
					C58.6,379.3,64.7,389.4,71.8,399.9"/>
			</g>
		</g>
		<g>
			<g>
				<path class="st17" d="M71.8,399.9c1.7-12.7-5-25.5-14.6-32.8c-9.4-7.4-21.2-10.2-32.8-11.3c1.4,12.3,7.3,25.4,16,32.7
					C49.3,395.8,60.2,398,71.8,399.9"/>
			</g>
		</g>
	</g>
	<g>
		<g>
			<g>
				<path class="st18" d="M47.5,335.6c10.4-6,16.2-19.4,16.4-32.2c0.2-12.9-4.4-25.1-10.1-36c-8.4,8.4-14.9,21.4-15.4,33.5
					S42.3,324,47.5,335.6"/>
			</g>
		</g>
		<g>
			<g>
				<path class="st17" d="M47.5,335.6c3.8-12.3-0.7-26-8.8-34.9c-8.1-9-19.2-13.8-30.5-16.9c-0.8,12.3,2.9,26.3,10.3,35
					C26,327.6,36.3,331.6,47.5,335.6"/>
			</g>
		</g>
	</g>
	<g>
		<g>
			<g>
				<path class="st18" d="M37.3,270.2c11.6-2.3,21.5-13.2,25.7-25.3c4.1-12.1,3.6-25.2,1.7-37.4c-10.7,5.1-20.9,15.4-25.2,26.8
					C35.3,245.7,35.9,257.5,37.3,270.2"/>
			</g>
		</g>
		<g>
			<g>
				<path class="st17" d="M37.3,270.2c7.4-10.3,7.5-24.8,2.7-35.9c-5-11-14-19.2-23.7-25.8c-4.7,11.4-5.5,25.8-1.2,36.5
					C19.4,255.7,28,262.9,37.3,270.2"/>
			</g>
		</g>
	</g>
	<g>
		<g>
			<path class="st17" d="M45.6,198.5c11.9-4.1,20.5-15.8,22.9-27.5c2.4-11.9-0.3-23.9-4.4-35c-10.4,6.5-19.4,17.7-22,28.8
				C39.4,176,42.2,187,45.6,198.5"/>
		</g>
	</g>
	<g>
		<g>
			<g>
				<path class="st18" d="M117.7,464.9c9.1-11.5,8.9-27.6,2.5-40.2c-6.4-12.6-18-21.8-30.1-29.3c-5.7,12.6-6.5,28.8-0.8,40.9
					C94.9,448.3,105.7,456.5,117.7,464.9"/>
			</g>
		</g>
		<g>
			<g>
				<path class="st17" d="M117.7,464.9c-1.9-13.9-14.1-24.8-28.1-29c-14.1-4.2-29.4-2.8-44.1,0.5c5.4,12.3,16.8,23.9,29.9,28.3
					C88.6,469,102.7,467.2,117.7,464.9"/>
			</g>
		</g>
	</g>
</g>
</svg>
