<?xml version="1.0" encoding="iso-8859-1"?>
<!-- Generator: Adobe Illustrator 24.1.2, SVG Export Plug-In . SVG Version: 6.00 Build 0)  -->
<svg version="1.1" id="&#x421;&#x43B;&#x43E;&#x439;_1"
	 xmlns="http://www.w3.org/2000/svg" xmlns:xlink="http://www.w3.org/1999/xlink" x="0px" y="0px" viewBox="0 0 700 500"
	 enable-background="new 0 0 700 500" xml:space="preserve">
<g id="&#x421;&#x43B;&#x43E;&#x439;_2_1_">
</g>
<g>
	<g>
		<g>
			<g>
				<g>
					<g>
						<g>
							<path fill="#7877A7" stroke="#000000" stroke-width="0.5" stroke-miterlimit="10" d="M23.2,471.8l-1.5,8.7l1.3,0.3
								c5.6,1.2,28.5,5.8,32.4,5.2c4.4-0.6-12.4-7.4-12.4-7.4l0.5-3.7L23.2,471.8z"/>
						</g>
					</g>
				</g>
				<g opacity="0.5">
					<g>
						<g>
							<path fill="#7877A7" stroke="#000000" stroke-width="0.5" stroke-miterlimit="10" d="M29.1,481.5c0-1.8-0.7-3.6-1.9-4.9
								s-2.8-2.2-4.5-2.3l-0.9,5.9L29.1,481.5z"/>
						</g>
					</g>
				</g>
			</g>
			<g>
				<g>
					<g opacity="0.5">
						<path fill="#7877A7" stroke="#000000" stroke-width="0.5" stroke-miterlimit="10" d="M51.2,482.2c0,0,5.8,2.8,4.9,3.7
							c-0.9,0.9-24.2-2.8-34.4-5.4l0.1-0.5l27.2,4.6C49,484.6,50,482,51.2,482.2z"/>
					</g>
				</g>
			</g>
			<g>
				<g>
					<g>
						<g>
							<path fill="#7877A7" stroke="#000000" stroke-width="0.5" stroke-miterlimit="10" d="M21.5,480c0,0,0.1,0,0.3,0.1
								c0.3,0.1,0.6,0.1,1,0.2c1,0.2,2.2,0.5,3.7,0.8c3.1,0.6,7.4,1.4,12.2,2.2c4.8,0.8,9.1,1.4,12.3,1.8c1.5,0.2,2.7,0.3,3.7,0.4
								c0.4,0,0.7,0.1,1,0.1c0.2,0,0.4,0,0.4,0s-0.1,0-0.4-0.1c-0.3,0-0.6-0.1-1-0.1c-1-0.1-2.3-0.3-3.7-0.5
								c-3.1-0.4-7.5-1.1-12.3-1.8c-4.8-0.8-9.1-1.5-12.2-2.1c-1.5-0.3-2.7-0.5-3.7-0.7c-0.4-0.1-0.7-0.1-1-0.2
								C21.6,480,21.5,480,21.5,480z"/>
						</g>
					</g>
				</g>
			</g>
			<g>
				<g>
					<g>
						<g>
							<path fill="#7877A7" stroke="#000000" stroke-width="0.5" stroke-miterlimit="10" d="M48.9,484.9c0.1,0,0.3-0.9,1-1.7
								c0.7-0.8,1.5-1.2,1.5-1.3c0-0.1-0.9,0.2-1.7,1.1S48.9,484.9,48.9,484.9z"/>
						</g>
					</g>
				</g>
			</g>
			<g>
				<g>
					<g>
						<g>
							<path fill="#7877A7" stroke="#000000" stroke-width="0.5" stroke-miterlimit="10" d="M43.4,480.8c0.1,0,0.4-0.3,0.8-0.7
								c0.4-0.4,0.6-0.8,0.6-0.9c-0.1,0-0.4,0.3-0.8,0.7C43.6,480.4,43.3,480.8,43.4,480.8z"/>
						</g>
					</g>
				</g>
			</g>
			<g>
				<g>
					<g>
						<g>
							<path fill="#7877A7" stroke="#000000" stroke-width="0.5" stroke-miterlimit="10" d="M41.8,479.7c0,0.1,0.4-0.1,0.8-0.4
								c0.4-0.3,0.7-0.5,0.7-0.6s-0.4,0.1-0.8,0.4C42.1,479.3,41.8,479.6,41.8,479.7z"/>
						</g>
					</g>
				</g>
			</g>
			<g>
				<g>
					<g>
						<g>
							<path fill="#7877A7" stroke="#000000" stroke-width="0.5" stroke-miterlimit="10" d="M41.1,477.5c0,0.1,0.5,0.2,1,0.3
								c0.6,0.1,1.1,0.1,1.1,0.1c0-0.1-0.5-0.2-1-0.3C41.6,477.5,41.1,477.4,41.1,477.5z"/>
						</g>
					</g>
				</g>
			</g>
			<g>
				<g>
					<g>
						<g>
							<path fill="#7877A7" stroke="#000000" stroke-width="0.5" stroke-miterlimit="10" d="M40.9,476c0,0.1,0.5,0.4,1.1,0.5
								c0.7,0.2,1.3,0.1,1.3,0s-0.5-0.1-1.2-0.3C41.5,476.2,41,476,40.9,476z"/>
						</g>
					</g>
				</g>
			</g>
			<g>
				<g>
					<g>
						<g>
							<path fill="#7877A7" stroke="#000000" stroke-width="0.5" stroke-miterlimit="10" d="M44.3,479.1c0,0,0.5,0.2,1.3,0.2
								c0.4,0,0.9,0,1.4-0.1c0.3-0.1,0.5-0.1,0.9-0.2c0.1-0.1,0.3-0.2,0.4-0.4c0.1-0.2,0-0.4-0.1-0.6c-1.2-0.9-2.5-0.3-3.1,0.3
								c-0.3,0.3-0.5,0.6-0.6,0.8c-0.1,0.2-0.1,0.4-0.1,0.4s0.2-0.5,0.8-1.1c0.3-0.3,0.7-0.5,1.2-0.6s1.2,0,1.5,0.4
								c0.2,0.2,0.1,0.4-0.2,0.5c-0.2,0.1-0.5,0.2-0.8,0.2c-0.5,0.1-1,0.1-1.4,0.1C44.8,479.1,44.3,479.1,44.3,479.1z"/>
						</g>
					</g>
				</g>
			</g>
			<g>
				<g>
					<g>
						<g>
							<path fill="#7877A7" stroke="#000000" stroke-width="0.5" stroke-miterlimit="10" d="M44.7,479.2c0,0,0.3-0.3,0.3-0.9
								c0-0.3,0-0.7-0.2-1s-0.4-0.8-1-0.9c-0.3,0-0.5,0.3-0.5,0.6c0,0.2,0.1,0.5,0.1,0.6c0.1,0.4,0.3,0.7,0.5,0.9
								c0.3,0.5,0.7,0.7,0.7,0.7s-0.2-0.3-0.5-0.8c-0.1-0.2-0.3-0.5-0.4-0.9c-0.1-0.3-0.2-0.8,0.2-0.9c0.3,0,0.6,0.4,0.8,0.7
								c0.2,0.3,0.2,0.7,0.2,0.9C44.8,478.9,44.6,479.2,44.7,479.2z"/>
						</g>
					</g>
				</g>
			</g>
			<g>
				<g>
					<g>
						<g>
							<path fill="#7877A7" stroke="#000000" stroke-width="0.5" stroke-miterlimit="10" d="M22.8,474.3c0,0,0.6,0,1.5,0.3
								s2.1,0.8,3.1,1.9s1.4,2.4,1.6,3.3c0.2,1,0.1,1.6,0.2,1.6c0,0,0-0.1,0.1-0.4c0-0.3,0-0.7-0.1-1.2c-0.1-1-0.6-2.3-1.6-3.5
								c-1-1.1-2.3-1.7-3.2-1.9c-0.5-0.1-0.9-0.1-1.1-0.1C22.9,474.2,22.8,474.3,22.8,474.3z"/>
						</g>
					</g>
				</g>
			</g>
			<g>
				<g>
					<g>
						<g>
							<path fill="#7877A7" stroke="#000000" stroke-width="0.5" stroke-miterlimit="10" d="M32,479.9c0,0.1,1.3,0.5,2.9,0.8
								c1.7,0.3,3,0.3,3,0.2c0-0.1-1.3-0.2-3-0.5C33.3,480.1,32,479.8,32,479.9z"/>
						</g>
					</g>
				</g>
			</g>
			<g>
				<g>
					<g>
						<g>
							<path fill="#7877A7" stroke="#000000" stroke-width="0.5" stroke-miterlimit="10" d="M28,479.2c-0.1,0,0.1,0.3,0.2,0.6
								c0.1,0.3,0.1,0.6,0.2,0.6s0.2-0.3,0-0.7C28.3,479.4,28.1,479.2,28,479.2z"/>
						</g>
					</g>
				</g>
			</g>
			<g>
				<g>
					<g>
						<g>
							<path fill="#7877A7" stroke="#000000" stroke-width="0.5" stroke-miterlimit="10" d="M26.8,477c-0.1,0,0,0.3,0.2,0.5
								c0.2,0.3,0.4,0.4,0.4,0.4c0.1,0,0-0.3-0.2-0.5C27,477.2,26.8,477,26.8,477z"/>
						</g>
					</g>
				</g>
			</g>
			<g>
				<g>
					<g>
						<g>
							<path fill="#7877A7" stroke="#000000" stroke-width="0.5" stroke-miterlimit="10" d="M24.8,475.8c0,0.1,0.3,0.1,0.6,0.3
								c0.3,0.1,0.5,0.4,0.5,0.3c0.1,0-0.1-0.4-0.4-0.5C25.1,475.7,24.8,475.7,24.8,475.8z"/>
						</g>
					</g>
				</g>
			</g>
			<g>
				<g>
					<g>
						<g>
							<path fill="#7877A7" stroke="#000000" stroke-width="0.5" stroke-miterlimit="10" d="M23.3,475.2c0,0.1,0.1,0.2,0.2,0.3
								c0.2,0.1,0.3,0.1,0.4,0.1c0-0.1-0.1-0.2-0.2-0.3C23.5,475.1,23.3,475.1,23.3,475.2z"/>
						</g>
					</g>
				</g>
			</g>
		</g>
	</g>
	<g>
		<g>
			<g>
				<g>
					<g>
						<g>
							<path fill="#7877A7" stroke="#000000" stroke-width="0.5" stroke-miterlimit="10" d="M130.7,479.2l0.8,8.8l1.3-0.1
								c5.7-0.3,29-2.1,32.6-3.7c4.1-1.8-13.8-3.8-13.8-3.8l-0.4-3.7L130.7,479.2z"/>
						</g>
					</g>
				</g>
				<g opacity="0.5">
					<g>
						<g>
							<path fill="#7877A7" stroke="#000000" stroke-width="0.5" stroke-miterlimit="10" d="M138.9,487c-0.5-1.7-1.6-3.3-3.1-4.2
								c-1.5-0.9-3.2-1.3-5-1l0.6,5.9L138.9,487z"/>
						</g>
					</g>
				</g>
			</g>
			<g>
				<g>
					<g opacity="0.5">
						<path fill="#7877A7" stroke="#000000" stroke-width="0.5" stroke-miterlimit="10" d="M160.3,481.7c0,0,6.3,1.1,5.7,2.2
							c-0.7,1.1-24.1,3.8-34.6,4.1v-0.5l27.4-2.9C158.8,484.6,159.2,481.9,160.3,481.7z"/>
					</g>
				</g>
			</g>
			<g>
				<g>
					<g>
						<g>
							<path fill="#7877A7" stroke="#000000" stroke-width="0.5" stroke-miterlimit="10" d="M131.1,487.6c0,0,0.1,0,0.4,0
								s0.6,0,1-0.1c1-0.1,2.3-0.2,3.8-0.3c3.2-0.2,7.5-0.6,12.4-1.2c4.8-0.5,9.2-1.1,12.3-1.6c1.5-0.2,2.7-0.4,3.7-0.6
								c0.4-0.1,0.7-0.1,1-0.2c0.2,0,0.4-0.1,0.3-0.1c0,0-0.1,0-0.4,0c-0.3,0-0.6,0.1-1,0.1c-1,0.1-2.3,0.3-3.7,0.5
								c-3.1,0.4-7.5,1-12.3,1.5s-9.2,1-12.3,1.3c-1.5,0.1-2.7,0.2-3.7,0.3c-0.4,0-0.7,0.1-1,0.1
								C131.2,487.5,131.1,487.5,131.1,487.6z"/>
						</g>
					</g>
				</g>
			</g>
			<g>
				<g>
					<g>
						<g>
							<path fill="#7877A7" stroke="#000000" stroke-width="0.5" stroke-miterlimit="10" d="M158.9,485c0.1,0,0-0.9,0.5-1.9
								c0.4-1,1.2-1.6,1.1-1.6c0-0.1-0.9,0.4-1.3,1.5C158.6,484,158.8,485,158.9,485z"/>
						</g>
					</g>
				</g>
			</g>
			<g>
				<g>
					<g>
						<g>
							<path fill="#7877A7" stroke="#000000" stroke-width="0.5" stroke-miterlimit="10" d="M152.4,482.5c0.1,0,0.3-0.4,0.6-0.9
								c0.2-0.5,0.4-1,0.3-1c-0.1,0-0.3,0.4-0.6,0.9C152.5,482,152.4,482.5,152.4,482.5z"/>
						</g>
					</g>
				</g>
			</g>
			<g>
				<g>
					<g>
						<g>
							<path fill="#7877A7" stroke="#000000" stroke-width="0.5" stroke-miterlimit="10" d="M150.7,481.8c0.1,0,0.4-0.2,0.7-0.6
								s0.5-0.7,0.5-0.8c-0.1,0-0.4,0.2-0.7,0.6C150.9,481.4,150.6,481.7,150.7,481.8z"/>
						</g>
					</g>
				</g>
			</g>
			<g>
				<g>
					<g>
						<g>
							<path fill="#7877A7" stroke="#000000" stroke-width="0.5" stroke-miterlimit="10" d="M149.4,479.9c0,0.1,0.5,0.1,1.1,0
								s1.1-0.2,1.1-0.2c0-0.1-0.5-0.1-1.1,0C149.9,479.7,149.4,479.8,149.4,479.9z"/>
						</g>
					</g>
				</g>
			</g>
			<g>
				<g>
					<g>
						<g>
							<path fill="#7877A7" stroke="#000000" stroke-width="0.5" stroke-miterlimit="10" d="M148.9,478.5c0,0.1,0.5,0.2,1.2,0.2
								s1.2-0.2,1.2-0.3c0-0.1-0.6,0-1.2,0.1C149.5,478.5,148.9,478.5,148.9,478.5z"/>
						</g>
					</g>
				</g>
			</g>
			<g>
				<g>
					<g>
						<g>
							<path fill="#7877A7" stroke="#000000" stroke-width="0.5" stroke-miterlimit="10" d="M152.9,480.6c0,0,0.5,0,1.3-0.2
								c0.4-0.1,0.9-0.3,1.4-0.5c0.2-0.1,0.5-0.2,0.8-0.4c0.1-0.1,0.3-0.2,0.3-0.5c0-0.2-0.1-0.4-0.3-0.5c-1.3-0.5-2.5,0.3-2.9,1.1
								c-0.2,0.4-0.3,0.7-0.3,1c0,0.2,0,0.4,0,0.4s0-0.5,0.5-1.2c0.2-0.3,0.6-0.7,1-0.9c0.5-0.2,1.1-0.3,1.6-0.1
								c0.2,0.1,0.2,0.4,0,0.6s-0.5,0.3-0.7,0.4c-0.5,0.2-0.9,0.4-1.3,0.5C153.4,480.5,152.9,480.5,152.9,480.6z"/>
						</g>
					</g>
				</g>
			</g>
			<g>
				<g>
					<g>
						<g>
							<path fill="#7877A7" stroke="#000000" stroke-width="0.5" stroke-miterlimit="10" d="M153.3,480.6c0,0,0.2-0.4,0.1-1
								c-0.1-0.3-0.2-0.6-0.5-1c-0.3-0.3-0.6-0.7-1.2-0.6c-0.3,0.1-0.4,0.5-0.3,0.7c0,0.2,0.2,0.4,0.3,0.6c0.2,0.3,0.5,0.6,0.7,0.8
								C152.9,480.5,153.2,480.6,153.3,480.6c-0.1,0-0.4-0.2-0.8-0.6c-0.2-0.2-0.4-0.4-0.6-0.8c-0.2-0.3-0.4-0.8-0.1-0.9
								c0.3-0.1,0.7,0.2,0.9,0.5s0.4,0.6,0.5,0.8C153.3,480.2,153.3,480.6,153.3,480.6z"/>
						</g>
					</g>
				</g>
			</g>
			<g>
				<g>
					<g>
						<g>
							<path fill="#7877A7" stroke="#000000" stroke-width="0.5" stroke-miterlimit="10" d="M130.9,481.7c0,0,0.6-0.1,1.5-0.1
								s2.3,0.2,3.5,1s2,1.9,2.4,2.8s0.5,1.5,0.6,1.5c0,0,0-0.2,0-0.4c-0.1-0.3-0.2-0.7-0.3-1.1c-0.4-0.9-1.2-2.1-2.4-2.9
								c-1.3-0.8-2.6-1-3.6-1c-0.5,0-0.9,0.1-1.1,0.2C131,481.6,130.9,481.7,130.9,481.7z"/>
						</g>
					</g>
				</g>
			</g>
			<g>
				<g>
					<g>
						<g>
							<path fill="#7877A7" stroke="#000000" stroke-width="0.5" stroke-miterlimit="10" d="M141.2,484.6c0,0.1,1.4,0.1,3,0
								c1.7-0.2,3-0.5,3-0.6s-1.3,0.2-3,0.3C142.6,484.5,141.2,484.6,141.2,484.6z"/>
						</g>
					</g>
				</g>
			</g>
			<g>
				<g>
					<g>
						<g>
							<path fill="#7877A7" stroke="#000000" stroke-width="0.5" stroke-miterlimit="10" d="M137.2,485.1c0,0.1,0.1,0.3,0.3,0.6
								c0.2,0.3,0.3,0.6,0.3,0.6c0.1,0,0.1-0.3-0.1-0.7C137.5,485.2,137.3,485,137.2,485.1z"/>
						</g>
					</g>
				</g>
			</g>
			<g>
				<g>
					<g>
						<g>
							<path fill="#7877A7" stroke="#000000" stroke-width="0.5" stroke-miterlimit="10" d="M135.5,483.3c0,0.1,0.1,0.3,0.3,0.5
								s0.5,0.3,0.5,0.3c0-0.1-0.1-0.3-0.3-0.5S135.5,483.3,135.5,483.3z"/>
						</g>
					</g>
				</g>
			</g>
			<g>
				<g>
					<g>
						<g>
							<path fill="#7877A7" stroke="#000000" stroke-width="0.5" stroke-miterlimit="10" d="M133.2,482.7c0,0.1,0.3,0,0.6,0.1
								s0.5,0.2,0.6,0.2s-0.2-0.3-0.5-0.4C133.5,482.4,133.2,482.6,133.2,482.7z"/>
						</g>
					</g>
				</g>
			</g>
			<g>
				<g>
					<g>
						<g>
							<path fill="#7877A7" stroke="#000000" stroke-width="0.5" stroke-miterlimit="10" d="M131.6,482.4c0,0.1,0.1,0.2,0.3,0.2
								s0.3,0,0.4,0c0-0.1-0.1-0.2-0.3-0.2C131.8,482.3,131.7,482.4,131.6,482.4z"/>
						</g>
					</g>
				</g>
			</g>
		</g>
	</g>
	<g>
		<path fill="#5B3512" d="M136.7,146.4c-1.6-9-11.3-14-15.1-22.4c-1.5-3.2-2-6.9-3.6-10c-3.5-6.8-12.2-10-19.1-7.1l-0.6,1
			c3.9,8.5,7.8,14.3,11.7,22.7c1.4,3,2.8,6,3.1,9.3c0.4,3.3-0.5,6.9-2.9,9c-2,1.7-4.6,2.2-6.8,3.6c-3.2,2.2-4.7,6.6-4.3,10.5
			c0.4,4,2.5,7.6,5.1,10.6c2.5,2.8,6.5,5.3,9.8,3.5c1.7-0.9,2.7-2.6,4-4.1c2.5-3,6.1-4.9,9.2-7.3C133.1,161.2,138,153.9,136.7,146.4
			z"/>
	</g>
	<g>
		<path fill="#FFBE9D" d="M221,188.3c-2.2,2.1-14.2,12.4-14.2,12.4l-11.9-11.1c0.3-0.9,3.2-6,3.6-7.3c0.3-1.1,0.4-2.3,0.3-3.4
			c-0.1-1.4-0.3-3.2-0.7-4.2c-0.5-1.2,0.6-2.4,1.7-1.8c1,0.6,2.5,3.9,2.5,8.1c0,4.2,16.1-5.5,18.4-3.1L221,188.3z"/>
	</g>
	<g>
		<path fill="#7877A7" d="M118.8,171.7l39.4,48.6l36.2-33.7l15.8,15.9c0,0-45.4,51.5-52.4,51.1c-6.9-0.4-30.5-16.4-30.5-16.4
			L118.8,171.7z"/>
	</g>
	<g>
		<g>
			<g>
				<path fill="#263238" d="M208.3,164.5c-0.3-0.1-0.7,0.1-0.8,0.4l-10.7,27.8c-0.2,0.5,0,1.1,0.5,1.4l12.7,6.2
					c0.5,0.3,1.2,0,1.4-0.5l12-28.8c0.2-0.6,0-1.2-0.6-1.4L208.3,164.5z"/>
			</g>
			<g>
				<polygon fill="#F5F5F5" points="207.9,166.5 198.1,191.3 211.4,197.5 221.5,171.2 				"/>
			</g>
		</g>
	</g>
	<g>
		<g>
			<path fill="#263238" d="M204.1,209.7c0,0.1-1.1-0.7-2.8-2c-1.7-1.4-3.9-3.3-6.2-5.6s-4.3-4.6-5.6-6.2c-1.4-1.7-2.1-2.8-2.1-2.8
				c0.1-0.1,0.9,0.9,2.4,2.5c1.4,1.6,3.4,3.8,5.7,6.1s4.5,4.3,6.1,5.7C203.1,208.7,204.1,209.6,204.1,209.7z"/>
		</g>
	</g>
	<g>
		<g>
			<path fill="#263238" d="M192.8,191.3c0.1,0.1-0.4,0.5-0.4,1.3c0,0.4,0.2,0.9,0.6,1.2c0.4,0.3,1,0.3,1.5,0s0.8-0.9,0.7-1.3
				c-0.1-0.5-0.4-0.9-0.7-1.1c-0.7-0.5-1.3-0.3-1.3-0.3s0.1-0.1,0.4-0.2c0.3-0.1,0.7-0.1,1.1,0.2c0.4,0.2,0.9,0.7,1.1,1.4
				c0.1,0.7-0.3,1.6-1,2s-1.6,0.4-2.1-0.1c-0.6-0.5-0.7-1.2-0.7-1.7s0.2-0.9,0.4-1.1C192.6,191.4,192.7,191.3,192.8,191.3z"/>
		</g>
	</g>
	<g>
		<g>
			<path fill="#263238" d="M156.7,234.5c-0.1,0-0.4-0.8-0.6-2.1c-0.2-1.3-0.4-3.2-0.1-5.3c0.2-2.1,0.8-3.9,1.3-5.1
				c0.5-1.2,1-2,1-1.9c0.2,0.1-1.3,3.1-1.7,7.1C156.1,231.2,156.8,234.4,156.7,234.5z"/>
		</g>
	</g>
	<g>
		<g>
			<path fill="#263238" d="M162.3,234.1c-0.1,0-0.6-0.6-1.3-1.8s-1.5-2.9-2.1-5c-0.6-2-0.8-4-0.9-5.3c0-1.4,0.1-2.2,0.1-2.2
				c0.2,0,0.2,3.4,1.3,7.4C160.6,231.1,162.4,234,162.3,234.1z"/>
		</g>
	</g>
	<g>
		<polygon fill="#EBEBEB" points="208.2,171.1 201.6,187.8 211.4,191.9 218.2,174.9 		"/>
	</g>
	<g>
		<path fill="#7877A7" d="M210.1,189.4l-5.8-2.5c-0.4-0.2-0.6-0.7-0.5-1.1l0.1-0.3c0.2-0.4,0.7-0.6,1.1-0.5l5.8,2.5
			c0.4,0.2,0.6,0.7,0.5,1.1l-0.1,0.3C211,189.4,210.6,189.6,210.1,189.4z"/>
	</g>
	<g>
		<polygon fill="#455A64" points="215.7,177.8 208.5,174.9 208.9,173.9 216.1,176.7 		"/>
	</g>
	<g>
		<polygon fill="#E0E0E0" points="214.3,182.6 206.3,179.4 207.1,177.3 215.1,180.4 		"/>
	</g>
	<g>
		<polygon fill="#E0E0E0" points="213,186 205,182.9 205.8,180.7 213.8,183.8 		"/>
	</g>
	<g>
		<path fill="#054FB2" d="M104.8,168.8c0,0,8.2-1,14,2.9c5.2,3.5,23.4,57.3,22.7,73.2c-0.7,16,1.3,44.1,4.5,55.7s5.6,112.1-19.5,160
			l-46.7-6.7l14.6-129.1l-1.5-117.1L104.8,168.8z"/>
	</g>
	<path d="M102.1,168.8c0,0,8.2-1,14,2.9c5.2,3.5,23.4,57.3,22.7,73.2c-0.7,16,1.3,44.1,4.5,55.7s5.6,112.1-19.5,160l-42.7-6.7
		l10.6-129.1l-1.5-117.1L102.1,168.8z"/>
	<g>
		<path fill="#F3CE63" d="M85,166.3c0,0-25.7-2.9-18.8,34.9l6.6,39.8l41.9,26.1c5.7,1.6,0.8-27.2,9.4-40.4c3.2-5,3.5-8.7,3.2-11
			c0.8-8.7-5.9-14.1-6.9-22.8c-1.1-12.7-1-19.7-6.4-21.1L85,166.3"/>
	</g>
	<g>
		<g>
			<path fill="#263238" d="M120.8,189.9c0.1,0-0.8,2.1,0,5.6c0.4,1.7,1.2,3.6,2.2,5.6c1.1,2,2.4,4.2,3.3,6.8
				c1.8,5.2,1.2,10.3,0.2,13.7c-0.5,1.7-1.1,3-1.6,3.8c-0.5,0.9-0.8,1.3-0.8,1.3c-0.1-0.1,1.1-1.9,2.1-5.2c0.9-3.3,1.4-8.3-0.3-13.4
				c-0.8-2.5-2.2-4.7-3.2-6.8c-1.1-2.1-1.8-4.1-2.2-5.8c-0.3-1.8-0.3-3.2-0.1-4.2c0.1-0.5,0.2-0.9,0.3-1.1
				C120.8,190,120.8,189.9,120.8,189.9z"/>
		</g>
	</g>
	<g>
		<g>
			<g>
				<g>
					<g>
						<g>
							<path fill="#FFBE9D" d="M108,169.1c-0.6-6.5-1.1-13.4-1.1-13.4s8-2.2,8.6-13.3c0.6-10.6-2.5-29-2.5-29v-0.9
								c-12.2-3.7-26.6-3.6-34,6.9l0,0l5.7,52.7c0.7,6.1,6.3,10.4,12.7,9.6l0,0C103.8,180.9,108.6,175.3,108,169.1z"/>
						</g>
					</g>
				</g>
				<g>
					<g>
						<g>
							<g>
								<path fill="#263238" d="M113,126.8c0.1,0.7-0.4,1.4-1.2,1.5c-0.7,0.1-1.4-0.4-1.5-1.1c-0.1-0.7,0.4-1.4,1.2-1.5
									C112.2,125.5,112.9,126,113,126.8z"/>
							</g>
						</g>
					</g>
					<g>
						<g>
							<g>
								<g>
									<path fill="#263238" d="M113,125.2c-0.2,0.2-1.3-0.5-2.7-0.3c-1.5,0.1-2.5,1-2.6,0.8c-0.1-0.1,0.1-0.4,0.5-0.8
										c0.4-0.4,1.2-0.8,2.1-0.9c0.9-0.1,1.7,0.2,2.2,0.5C112.9,124.8,113.1,125.1,113,125.2z"/>
								</g>
							</g>
						</g>
					</g>
				</g>
				<g>
					<g>
						<g>
							<g>
								<path fill="#263238" d="M97.8,128.8c0.1,0.7-0.4,1.4-1.2,1.5c-0.7,0.1-1.4-0.4-1.5-1.1c-0.1-0.7,0.4-1.4,1.2-1.5
									C97,127.6,97.7,128.1,97.8,128.8z"/>
							</g>
						</g>
					</g>
					<g>
						<g>
							<g>
								<g>
									<path fill="#263238" d="M97.8,127.3c-0.2,0.2-1.3-0.5-2.7-0.3c-1.5,0.1-2.5,1-2.6,0.8c-0.1-0.1,0.1-0.4,0.5-0.8
										c0.4-0.4,1.2-0.8,2.1-0.9c0.9-0.1,1.7,0.2,2.2,0.5C97.7,126.9,97.8,127.2,97.8,127.3z"/>
								</g>
							</g>
						</g>
					</g>
				</g>
				<g>
					<g>
						<g>
							<g>
								<path fill="#263238" d="M104.1,138c0-0.1,0.9-0.3,2.3-0.7c0.4-0.1,0.7-0.2,0.8-0.5c0.1-0.3-0.1-0.7-0.4-1.1
									c-0.4-0.9-0.9-1.8-1.4-2.8c-1.9-4-3.4-7.3-3.2-7.4c0.2-0.1,1.9,3.1,3.8,7.1c0.5,1,0.9,1.9,1.3,2.8c0.2,0.4,0.5,0.9,0.3,1.5
									c-0.1,0.3-0.3,0.5-0.6,0.6c-0.2,0.1-0.4,0.1-0.6,0.2C105.1,137.9,104.2,138,104.1,138z"/>
							</g>
						</g>
					</g>
				</g>
				<g>
					<g>
						<g>
							<path fill="#EB996E" d="M106.9,155.7c0,0-7.1,1.2-14.6-2.5c0,0,4.2,7.2,14.7,5.1L106.9,155.7z"/>
						</g>
					</g>
				</g>
				<g>
					<g>
						<g>
							<path fill="#E8505B" d="M103.9,141.7c-0.6-0.7-1.6-1-2.5-0.8c-0.6,0.1-1.2,0.5-1.6,1.1c-0.3,0.6-0.3,1.3,0.1,1.8
								c0.5,0.5,1.3,0.6,2,0.3s1.2-0.8,1.8-1.3c0.1-0.1,0.3-0.3,0.4-0.5C104.1,142.1,104.1,141.8,103.9,141.7"/>
						</g>
					</g>
				</g>
				<g>
					<g>
						<g>
							<g>
								<path fill="#263238" d="M99.9,139.4c0.2,0,0.4,1.6,1.9,2.6s3.1,0.7,3.2,0.9c0,0.1-0.3,0.4-1.1,0.4c-0.7,0.1-1.7,0-2.6-0.7
									c-0.9-0.6-1.3-1.5-1.5-2.2C99.7,139.9,99.8,139.4,99.9,139.4z"/>
							</g>
						</g>
					</g>
				</g>
			</g>
		</g>
	</g>
	<g>
		<path fill="#263238" d="M57.7,317.7l-16.3,69.1c0,0-19.4,82.7-20,84.9l-0.6,2.6l27.4,2.1l47.3-153.5L57.7,317.7z"/>
	</g>
	<g>
		<path fill="#263238" d="M107.1,366.1c4.8,21.9,22.8,114,22.8,114l27.7-3.5l-18-117.5c-0.3-3.1-1-6.1-2-9l-27.4-79.5l-49.4-31
			c-0.5,0-7.5,20.8-6.2,35.1c0.6,6.4,2.9,12.5,6.6,17.7c3.2,4.6,7.6,11,8.6,12.5C71.4,307.3,107.1,366.1,107.1,366.1z"/>
	</g>
	<g>
		<g>
			<path fill="#7877A7" stroke="#000000" stroke-width="0.5" stroke-miterlimit="10" d="M51.5,266.5c-1.3,5-2.4,10-3.3,15.1
				C45,300.1,37.1,345.2,32,357.1c-6.5,15.1-17.1,72.1-13.9,82.6c3.3,10.5,74.2,21,74.2,21s4.1-68.4,8.1-85.6
				c4.1-17.2,12.6-54.9,13.9-77.2c1.2-22.2,0.8-60.8-6.1-84.7s-22.9-49-22.9-49s-13.6,3.9-18.3,9.4c0,0-5.7,7.2-5.8,14
				s-3.1,39.2-5.2,58C55.5,251,53.2,260.1,51.5,266.5z"/>
		</g>
		<g>
			<g>
				<path fill="#7877A7" stroke="#000000" stroke-width="0.5" stroke-miterlimit="10" d="M114.3,296.8c0,0,0-0.1,0-0.3
					c0-0.3,0-0.6-0.1-1c0-0.9-0.1-2.2-0.2-3.9c-0.2-3.3-0.4-8.2-1.3-14.1c-0.5-2.9-1.2-6.1-2.5-9.4c-1.2-3.3-3.1-6.5-5.5-9.6
					c-2.4-3.1-5.1-6.1-7.8-9.4c-1.3-1.7-2.7-3.4-3.9-5.3c-1.2-1.9-2.2-3.9-3-6.1c-1.6-4.3-2.1-9.1-0.7-13.3c0.6-2.1,2-3.9,3-5.6
					c0.5-0.9,1-1.8,1.2-2.7c0.1-0.5,0.1-0.9,0.1-1.4c-0.1-0.4-0.2-0.9-0.5-1.3c-0.5-0.8-1.3-1.2-2.1-1.6c-0.9-0.3-1.8-0.6-2.6-1
					c-0.9-0.4-1.6-1.1-2.1-1.8c-0.5-0.8-0.8-1.7-0.9-2.6c-0.3-1.8-0.1-3.5,0.1-5.2c0.2-1.6,0.4-3.2,0.7-4.7c0.8-5.9,1.5-10.7,2-14
					c0.2-1.6,0.4-2.9,0.6-3.8c0.1-0.4,0.1-0.7,0.2-1c0-0.2,0.1-0.3,0.1-0.3s0,0.1,0,0.3c0,0.3-0.1,0.6-0.1,1
					c-0.1,0.9-0.3,2.2-0.5,3.8c-0.4,3.4-1.1,8.2-1.8,14.1c-0.2,1.5-0.4,3-0.6,4.7c-0.2,1.6-0.4,3.3-0.1,5c0.1,0.8,0.4,1.7,0.9,2.4
					s1.1,1.3,1.9,1.6c0.8,0.4,1.7,0.6,2.6,1c0.9,0.3,1.8,0.9,2.4,1.8c0.3,0.4,0.5,1,0.5,1.5s0,1.1-0.1,1.6c-0.2,1-0.7,2-1.2,2.9
					c-1,1.8-2.3,3.5-2.9,5.5c-1.3,4-0.8,8.7,0.7,12.9c1.5,4.3,4.1,7.9,6.8,11.2c2.7,3.3,5.5,6.3,7.8,9.5c2.4,3.1,4.3,6.4,5.5,9.8
					c1.2,3.3,2,6.5,2.4,9.5c0.9,5.9,1,10.8,1.1,14.2c0,1.6,0.1,2.9,0.1,3.9c0,0.4,0,0.7,0,1C114.3,296.7,114.3,296.8,114.3,296.8z"
					/>
			</g>
		</g>
		<g>
			<g>
				<path fill="#7877A7" stroke="#000000" stroke-width="0.5" stroke-miterlimit="10" d="M105.3,306.2c0,0,0.1-0.2,0.3-0.4
					c0.3-0.2,0.7-0.3,1.3-0.2c0.6,0.1,1.3,0.5,1.5,1.4c0.2,0.8,0,1.9-0.9,2.4s-1.9,0.3-2.5-0.3c-0.6-0.6-0.7-1.5-0.5-2
					c0.2-0.6,0.6-0.9,0.8-1.1c0.3-0.2,0.5-0.2,0.5-0.1c0.1,0.1-0.7,0.3-0.9,1.3c-0.1,0.5,0,1.1,0.5,1.5s1.2,0.6,1.8,0.2
					c0.6-0.4,0.8-1.2,0.6-1.8c-0.1-0.6-0.6-1-1.1-1.1C105.9,305.7,105.3,306.3,105.3,306.2z"/>
			</g>
		</g>
		<g>
			<g>
				<path fill="#7877A7" stroke="#000000" stroke-width="0.5" stroke-miterlimit="10" d="M97.7,346.8c0,0,0.1-0.2,0.3-0.4
					c0.3-0.2,0.7-0.3,1.3-0.2c0.6,0.1,1.3,0.5,1.5,1.4c0.2,0.8,0,1.9-0.9,2.4s-1.9,0.3-2.5-0.3c-0.6-0.6-0.7-1.5-0.5-2
					c0.2-0.6,0.6-0.9,0.8-1.1c0.3-0.2,0.5-0.2,0.5-0.1c0.1,0.1-0.7,0.3-0.9,1.3c-0.1,0.5,0,1.1,0.5,1.5s1.2,0.6,1.8,0.2
					c0.6-0.4,0.8-1.2,0.6-1.8c-0.1-0.6-0.6-1-1.1-1.1C98.3,346.4,97.7,346.9,97.7,346.8z"/>
			</g>
		</g>
		<g>
			<g>
				<g>
					<path fill="#7877A7" stroke="#000000" stroke-width="0.5" stroke-miterlimit="10" d="M97.5,296c0,0,0,0.1,0,0.4
						s-0.1,0.7-0.1,1.2c-0.1,1.1-0.3,2.5-0.5,4.4c-0.4,3.9-1.1,9.4-2.1,16.3c-0.5,3.4-1.1,7.2-1.9,11.2c-0.4,2-0.8,4.1-1.7,6.1
						c-0.1,0.3-0.2,0.5-0.4,0.8c-0.2,0.2-0.3,0.5-0.6,0.7c-0.4,0.4-0.9,0.7-1.4,0.9c-1,0.5-2.1,0.8-3.2,1.1
						c-4.4,1.1-9.1,1.4-13.9,1.6c-4.9,0.2-9.9,0.2-15-0.2c-0.2,0-0.4,0-0.6-0.1c-0.3,0-0.6-0.3-0.7-0.5c-0.2-0.5-0.3-0.9-0.4-1.3
						c-0.1-0.9-0.1-1.7-0.1-2.6c0.1-1.7,0.2-3.4,0.4-5c0.4-3.3,0.9-6.5,1.4-9.6c1-6.2,2.2-12,3.3-17.4v-0.2h0.2
						c11.4-1,20.7-3.1,27.1-4.9c3.2-0.9,5.7-1.7,7.4-2.2c0.8-0.3,1.5-0.5,2-0.6C97.2,296,97.5,295.9,97.5,296c0,0-0.1,0-0.2,0.1
						s-0.3,0.1-0.5,0.2c-0.4,0.2-1.1,0.4-1.9,0.7c-1.7,0.6-4.2,1.4-7.4,2.3c-6.4,1.8-15.8,4-27.2,5.1l0.2-0.3
						c-1.1,5.3-2.2,11.2-3.2,17.4c-0.5,3.1-1,6.3-1.4,9.6c-0.2,1.6-0.3,3.3-0.4,5c0,0.8,0,1.7,0.1,2.5c0,0.4,0.1,0.8,0.3,1.1
						c0.1,0.1,0.1,0.2,0.3,0.2s0.4,0.1,0.6,0.1c5.1,0.4,10.1,0.4,15,0.2c4.8-0.2,9.5-0.5,13.8-1.6c1.1-0.3,2.1-0.6,3.1-1.1
						s1.8-1.1,2.1-2.1c0.8-2,1.2-4,1.7-6c0.8-4,1.4-7.7,2-11.2c1.1-6.9,1.8-12.4,2.3-16.3c0.2-1.9,0.4-3.4,0.6-4.4
						c0.1-0.5,0.1-0.9,0.2-1.2C97.4,296.1,97.5,296,97.5,296z"/>
				</g>
			</g>
			<g>
				<g>
					<path fill="#7877A7" stroke="#000000" stroke-width="0.5" stroke-miterlimit="10" d="M96.7,304.6c0,0-0.5,0.3-1.4,0.7
						c-0.9,0.4-2.2,1-3.9,1.6c-3.3,1.3-8,2.7-13.4,3.7c-5.3,0.9-10.3,1.1-13.8,1c-1.8-0.1-3.2-0.1-4.2-0.3c-1-0.1-1.5-0.2-1.5-0.2
						s0.6,0,1.5,0c1,0,2.4,0.1,4.2,0.1c3.5,0,8.4-0.3,13.7-1.2c5.3-0.9,10-2.3,13.3-3.5c1.7-0.6,3-1.1,3.9-1.5
						C96.2,304.7,96.7,304.5,96.7,304.6z"/>
				</g>
			</g>
		</g>
	</g>
	<g>
		<g>
			<g>
				<path fill="#455A64" d="M32.4,271.3c0,0,0-0.2,0.1-0.6c0.1-0.4,0.2-0.9,0.3-1.6c0.3-1.4,0.8-3.5,1.4-6.2
					c1.3-5.4,3.2-13.1,5.7-22.7c1.3-4.8,2.6-10,4.1-15.6s3.1-11.6,4.9-17.9c1.9-6.2,4.1-12.8,7.1-19.2c1.5-3.2,3.2-6.4,5.1-9.5
					c1-1.6,1.9-3.1,3.2-4.5c1.2-1.4,2.6-2.7,4.3-3.6c1.7-0.9,3.7-1.1,5.5-0.4c1.8,0.6,3.3,1.9,4.4,3.3c2.3,3,2.9,6.9,3.2,10.4
					c0.6,7.1,1.2,13.9,1.7,20.5c1.1,13,2,24.8,2.8,34.6c0.8,9.8,1.4,17.8,1.8,23.4c0.2,2.7,0.4,4.9,0.5,6.4c0,0.7,0.1,1.3,0.1,1.7
					c0,0.4,0,0.6,0,0.6s0-0.2-0.1-0.6c0-0.4-0.1-0.9-0.2-1.6c-0.1-1.5-0.3-3.6-0.6-6.3c-0.5-5.5-1.2-13.5-2-23.3
					c-0.8-9.9-1.8-21.6-2.9-34.6c-0.5-6.5-1.1-13.4-1.7-20.5c-0.3-3.5-0.9-7.2-3.1-10.1c-1.1-1.4-2.5-2.6-4.2-3.1
					c-1.7-0.6-3.5-0.4-5.1,0.4c-1.6,0.8-3,2-4.1,3.4c-1.2,1.4-2.2,2.9-3.1,4.5c-1.9,3.1-3.6,6.3-5.1,9.5c-3,6.4-5.2,12.9-7.1,19.1
					c-1.9,6.2-3.5,12.2-5,17.8s-2.9,10.8-4.2,15.6c-2.5,9.5-4.5,17.3-5.8,22.7c-0.7,2.7-1.2,4.7-1.5,6.2c-0.2,0.7-0.3,1.2-0.4,1.6
					C32.5,271.1,32.4,271.3,32.4,271.3z"/>
			</g>
		</g>
		<g>
			<g>
				<path fill="#263238" d="M29.6,267.2c-0.4,1.8-8.8,50.7-8.8,50.7l62,2.1l8.5-50.6L29.6,267.2z"/>
			</g>
			<g>
				<g>
					<path fill="#455A64" d="M90.7,270.2c0,0-0.2,0.2-0.6,0.4c-0.4,0.3-0.9,0.7-1.7,1.1c-1.5,1-3.6,2.3-6.3,3.9
						c-2.7,1.6-6,3.4-9.7,5.2c-1.9,0.9-3.8,1.8-6,2.6c-2.2,0.7-4.5,1.1-6.9,1c-4.8-0.1-9.2-1.7-13-3.5c-3.7-1.9-6.8-4.1-9.2-6.1
						s-4.3-3.8-5.5-5.1c-0.6-0.6-1.1-1.1-1.4-1.5c-0.3-0.3-0.5-0.5-0.5-0.5s0.2,0.1,0.5,0.5c0.4,0.4,0.9,0.8,1.5,1.4
						c1.3,1.2,3.2,2.9,5.6,4.9s5.5,4.2,9.2,6c3.7,1.7,8,3.2,12.8,3.4c2.3,0.1,4.6-0.3,6.7-1c2.1-0.8,4-1.7,5.9-2.6
						c3.7-1.8,7-3.6,9.7-5.1s4.9-2.8,6.4-3.7c0.7-0.4,1.3-0.8,1.7-1C90.5,270.3,90.7,270.2,90.7,270.2z"/>
				</g>
			</g>
			<g>
				<g>
					<path fill="#455A64" d="M86.9,272.4c0.2,0-1.5,10.7-3.7,23.7c-2.2,13.1-4.1,23.7-4.3,23.6c-0.2,0,1.5-10.7,3.7-23.7
						C84.8,283,86.7,272.4,86.9,272.4z"/>
				</g>
			</g>
			<g>
				<path fill="#455A64" d="M57.7,282.7c-0.2,1.6-0.3,3.2-0.5,4.8c-0.1,0.5-0.1,1,0,1.5s0.5,0.9,1,1c0.6,0.1,1.1-0.3,1.4-0.8
					c0.3-0.5,0.3-1.1,0.3-1.7c0.1-1.7,0.2-3.4,0.3-5.1c-0.7,0-1.4,0-2,0"/>
			</g>
		</g>
	</g>
	<g>
		<g>
			<path fill="#7877A7" stroke="#000000" stroke-width="0.5" stroke-miterlimit="10" d="M70.5,170.6c5-1.7,9.2,5,9.8,10.4
				c0.5,4.2,0.8,10.4,0.3,18.8c-0.9,18.6-9.1,36.4-9.1,36.4l51.9,8l-1.9,20.5l-65.6-7.2c-9.7-1.1-16.1-11-13.2-20.6
				c5.9-19.6,15.4-47.9,17.6-52.6C63.3,178.1,63.6,173,70.5,170.6z"/>
		</g>
		<g>
			<g>
				<path fill="#7877A7" stroke="#000000" stroke-width="0.5" stroke-miterlimit="10" d="M53.5,257.1c0,0,0.1,0,0.3,0s0.6,0.1,1,0.1
					c0.9,0.1,2.2,0.3,3.8,0.6c3.3,0.5,8.1,1.2,14.2,1.9c12.1,1.5,29.2,3.2,48.7,4.8l-0.3,0.3c0.6-6.5,1.2-13.4,1.9-20.5l0,0l0.3,0.3
					c-19.5-3-37.5-5.8-51.8-8h-0.3l0.1-0.3c3.4-10.7,6-19.6,7.5-25.9c0.8-3.1,1.3-5.6,1.7-7.3c0.2-0.8,0.3-1.4,0.4-1.9
					c0.1-0.4,0.2-0.7,0.2-0.7s0,0.2-0.1,0.7c-0.1,0.4-0.2,1.1-0.3,1.9c-0.3,1.7-0.8,4.2-1.5,7.3c-1.5,6.3-4,15.2-7.3,26l-0.2-0.3
					c14.4,2.2,32.4,4.9,51.9,7.9h0.3v0.3l0,0c-0.7,7.1-1.3,14-1.9,20.5v0.3h-0.3c-19.6-1.6-36.6-3.4-48.7-5
					c-6.1-0.8-10.9-1.5-14.2-2.1c-1.6-0.3-2.9-0.5-3.8-0.7c-0.4-0.1-0.7-0.1-1-0.2C53.6,257.1,53.5,257.1,53.5,257.1z"/>
			</g>
		</g>
		<g>
			<g>
				<path fill="#7877A7" stroke="#000000" stroke-width="0.5" stroke-miterlimit="10" d="M111.3,263.9c-0.2,0,0.1-4.8,0.7-10.7
					c0.5-5.9,1.1-10.6,1.3-10.6c0.2,0-0.1,4.8-0.7,10.7C112.1,259.2,111.5,263.9,111.3,263.9z"/>
			</g>
		</g>
	</g>
	<g>
		<g>
			<path fill="#263238" d="M117.9,246.2c0,0,0.1-0.1,0.4,0c0.3,0,0.6,0.2,0.9,0.6c0.3,0.4,0.4,1.1,0.1,1.7s-1,1-1.8,0.9
				c-0.8-0.2-1.3-0.9-1.4-1.5c-0.1-0.7,0.2-1.3,0.5-1.6c0.7-0.6,1.4-0.4,1.4-0.4c0,0.1-0.6,0.1-1.1,0.7c-0.2,0.3-0.4,0.7-0.3,1.2
				c0.1,0.4,0.5,0.9,1,1s1-0.2,1.2-0.6c0.3-0.4,0.2-0.8,0-1.2C118.5,246.3,117.9,246.3,117.9,246.2z"/>
		</g>
	</g>
	<g>
		<g>
			<g>
				<g>
					<polygon fill="#EBEBEB" points="134.6,238.3 137,263.6 149,263.6 151.8,238.3 					"/>
				</g>
			</g>
			<g>
				<g>
					<path fill="#455A64" d="M134.6,235c0,0-1,1-1.1,3.3H153c0,0,0.4-2.1-1.1-3.3H134.6z"/>
				</g>
			</g>
			<g>
				<g>
					<polygon fill="#455A64" points="136.8,232.7 136.2,235.2 150.9,235.3 149.9,232.6 					"/>
				</g>
			</g>
			<g>
				<g>
					<path fill="#455A64" d="M134.4,244.6c0,0.2,1.4,12.7,1.4,12.7h14.6l1.4-12.7L134.4,244.6L134.4,244.6z"/>
				</g>
			</g>
		</g>
		<g>
			<path fill="#FFBE9D" d="M135.3,242.4l-0.4,4.2l14.2,0.3c0,0,0,4.9-1.4,6.4c0,0,1.4,3-0.2,4.6c-1.6,1.6-2.5,1.1-2.5,1.1
				s0.6,3.3-1,4.1c-1.6,0.8-22.2-0.4-22.2-0.4l1.3-13.7l4.6-0.4C127.8,244.1,132.3,241.8,135.3,242.4z"/>
		</g>
	</g>
	<g>
		<path fill="#5B3512" d="M117.4,113.5c-0.8-2.4-2.4-4.6-4.5-5.9c-1.4-0.8-3.2-1.2-4.8-1l0,0v-0.4c-1.5-2.8-4.6-3.5-7.7-2.9
			c-3.1,0.5-6.2,2.9-9,4.4c-3.8,2.1-7.4,4.5-11,6.8c-3,2-6.1,4-8.2,7c-2.2,3.1-3.1,7.2-2.4,11c0.7,4.1,3.2,8.3,1.8,12.3
			c-1,2.6-3.5,4.3-5.1,6.5c-2.6,3.5-2.8,8.7-0.2,12.2c1.7,2.3,4.2,3.7,6.6,5.3c3.7,2.5,7,5.7,11,7.7s9,2.7,12.7,0.1
			c3.8-2.6,5-8,4.3-12.6c-0.7-4.7-2.9-8.9-4.6-13.3c-2.3-5.7-3.9-11.6-4.7-17.7c-0.3-2.4-0.5-5,0.6-7.2c1-1.9,2.9-3.2,4.6-4.5
			c4-3.1,7.4-7.1,9.8-11.6c0.7,2.2,2.3,4.1,3.9,5.7c2.3,2.2,4.9,4.1,7.7,5.6C118.3,118.5,118.2,115.9,117.4,113.5z"/>
	</g>
</g>
<g>
	<g>
		<rect x="491.6" y="28.9" fill="#E0E0E0" width="176.4" height="452.6"/>
		<g>
			<g>
				<polyline fill="#455A64" points="607.3,32.3 607.3,461.3 691.7,481.5 692,32.3 607.3,32.3 				"/>
				<polyline display="none" opacity="0.6" enable-background="new    " points="607.3,32.3 607.3,461.3 691.7,481.5 692,32.3 
					607.3,32.3 				"/>
			</g>
			<g>
				<path fill="#FFFFFF" d="M617.7,240.3c0.2,3.4-1.4,6.1-3.5,6.2s-3.9-2.6-4.1-6c-0.2-3.4,1.4-6.1,3.5-6.2
					C615.8,234.2,617.6,236.9,617.7,240.3z"/>
			</g>
			<g>
				<path fill="#FFFFFF" d="M613.8,237.8l16.6,1.8c0.9,0.1,1.6,0.7,1.6,1.5l0,0c0,1-1,1.7-2.2,1.6l-15.9-2.2L613.8,237.8z"/>
			</g>
			<g>
				<g>
					<polygon fill="#263238" points="471,12.8 471,27.7 471,32.3 471,481.5 498.7,481.5 498.7,32.3 661.2,32.3 661.2,481.5 
						691.7,481.5 691.7,32.3 691.7,27.7 691.7,12.8 					"/>
					<polygon display="none" opacity="0.3" enable-background="new    " points="471,12.8 471,27.7 471,32.3 471,481.5 498.7,481.5 
						498.7,32.3 661.2,32.3 661.2,481.5 691.7,481.5 691.7,32.3 691.7,27.7 691.7,12.8 					"/>
				</g>
				<g>
					<rect x="484.8" y="32.3" fill="#263238" width="13.8" height="449.2"/>
					<rect x="484.8" y="32.3" opacity="0.5" enable-background="new    " width="13.8" height="449.2"/>
				</g>
				<g>
					<rect x="678.2" y="12.8" fill="#263238" width="13.8" height="468.7"/>
					<rect x="678.2" y="12.8" opacity="0.5" enable-background="new    " width="13.8" height="468.7"/>
				</g>
			</g>
		</g>
		<g>
			<rect x="554.9" y="-14.5" fill="#455A64" width="45.5" height="8.4"/>
			<rect x="554.9" y="-14.5" display="none" opacity="0.3" enable-background="new    " width="45.5" height="8.4"/>
		</g>
	</g>
</g>
<g>
	<g>
		<path fill="#7877A7" d="M364.9,101.6c0,0,9.4,53.3,14.7,69.2l64.2-14c0,0-14.5-51.6-14.6-66L364.9,101.6z"/>
	</g>
	<g>
		<g>
			<path fill="#FFFFFF" d="M423.2,115c0.1,0.3-9.5,2.8-21.4,5.5c-11.9,2.8-21.6,4.7-21.6,4.4c-0.1-0.3,9.5-2.8,21.4-5.5
				S423.1,114.7,423.2,115z"/>
		</g>
	</g>
	<g>
		<g>
			<path fill="#FFFFFF" d="M425.1,126.3c0.1,0.3-9.5,2.8-21.4,5.5c-11.9,2.8-21.6,4.7-21.6,4.4c-0.1-0.3,9.5-2.8,21.4-5.5
				S425,126,425.1,126.3z"/>
		</g>
	</g>
	<g>
		<g>
			<path fill="#FFFFFF" d="M416,139.2c0.1,0.3-5.4,1.8-12.1,3.4c-6.8,1.6-12.3,2.6-12.4,2.3s5.4-1.8,12.1-3.4
				C410.3,140,415.9,138.9,416,139.2z"/>
		</g>
	</g>
</g>
<g>
	<g>
		<path fill="#F3CE63" d="M440.8,180.5c0,0-4.2,49.4-7.9,59.4l61.2,5.6l9.2-7.6c0,0,6.5-43.6,5.6-56L440.8,180.5z"/>
	</g>
	<g>
		<polygon fill="#263238" points="495.5,237.5 494.1,245.5 503.3,237.9 		"/>
	</g>
	<g>
		<g>
			<path fill="#FFFFFF" d="M496.2,205.5c0,0.1-2.6-0.2-6.9-0.7c-4.5-0.6-10.2-1.2-16.5-2c-6.3-0.7-12-1.3-16.5-1.8
				c-4.2-0.4-6.8-0.7-6.8-0.9c0-0.1,2.7-0.1,6.9,0.2c4.3,0.3,10.1,0.8,16.6,1.5s12.3,1.6,16.5,2.3
				C493.6,204.8,496.2,205.4,496.2,205.5z"/>
		</g>
	</g>
	<g>
		<g>
			<path fill="#FFFFFF" d="M493.5,216.4c0,0.1-2.5,0.1-6.6-0.2s-9.7-0.7-15.9-1.4c-6.2-0.7-11.8-1.4-15.8-2.1
				c-4-0.6-6.5-1.1-6.5-1.2c0-0.1,2.5,0.1,6.6,0.6c4.4,0.5,9.8,1.1,15.8,1.8c6,0.6,11.4,1.2,15.8,1.7
				C491,215.9,493.5,216.2,493.5,216.4z"/>
		</g>
	</g>
	<g>
		<g>
			<path fill="#FFFFFF" d="M489.7,226.4c0,0.3-9.3-0.6-20.6-1.9c-11.3-1.3-20.5-2.6-20.4-2.9c0-0.3,9.3,0.6,20.6,1.9
				C480.6,224.9,489.7,226.1,489.7,226.4z"/>
		</g>
	</g>
</g>
<g>
	<g>
		<path fill="#F3CE63" d="M497.2,85.7c0,0,7.5,34.3,6,42.4l68-21.1l8.2-8.7c0,0-3.6-31.4-7.7-39.2L497.2,85.7z"/>
	</g>
	<g>
		<polygon fill="#263238" points="570.7,101.2 571.2,107 579.3,98.3 		"/>
	</g>
	<g>
		<g>
			<path fill="#FFFFFF" d="M563.6,79.8c0,0.1-2.9,1-7.6,2.3c-5.1,1.5-11.4,3.3-18.4,5.3c-7,2.1-13.3,4-18.4,5.5
				c-4.7,1.4-7.6,2.3-7.6,2.2c0-0.1,2.9-1.1,7.6-2.7c4.7-1.5,11.2-3.6,18.4-5.7s13.7-3.9,18.5-5.1C560.7,80.4,563.6,79.7,563.6,79.8
				z"/>
		</g>
	</g>
	<g>
		<g>
			<path fill="#FFFFFF" d="M563.4,88c0,0.1-2.8,1.1-7.2,2.5c-4.5,1.5-10.7,3.4-17.6,5.5c-6.9,2.1-13.2,3.8-17.7,5s-7.3,1.9-7.3,1.8
				s2.8-0.9,7.3-2.3c4.9-1.4,10.9-3.2,17.6-5.2c6.7-2,12.8-3.8,17.6-5.3C560.6,88.8,563.4,87.9,563.4,88z"/>
		</g>
	</g>
	<g>
		<g>
			<path fill="#FFFFFF" d="M561.7,96.2c0,0.2-10.2,3.3-22.9,7.1c-12.6,3.7-22.9,6.6-22.9,6.4s10.2-3.3,22.9-7.1
				C551.4,98.9,561.7,96,561.7,96.2z"/>
		</g>
	</g>
</g>
<g>
	<g>
		<path fill="#7877A7" d="M461.3,366.3c0,0,38.1-33.1,48.2-44.9l-40.8-43c0,0-34.3,36.2-45.7,43.3L461.3,366.3z"/>
	</g>
	<g>
		<g>
			<path fill="#FFFFFF" d="M445,314.6c0.2-0.2,6.6,6,14.2,13.9c7.7,7.9,13.7,14.4,13.5,14.6s-6.6-6-14.3-13.9
				C450.8,321.3,444.8,314.8,445,314.6z"/>
		</g>
	</g>
	<g>
		<g>
			<path fill="#FFFFFF" d="M453.1,307.6c0.2-0.2,6.6,6,14.3,13.9c7.7,7.9,13.7,14.4,13.5,14.6s-6.6-6-14.3-13.9
				C458.9,314.4,452.9,307.8,453.1,307.6z"/>
		</g>
	</g>
	<g>
		<g>
			<path fill="#FFFFFF" d="M467.6,308.5c0.2-0.2,3.9,3.3,8.3,7.8s7.7,8.3,7.5,8.5s-3.9-3.3-8.3-7.8
				C470.8,312.5,467.4,308.7,467.6,308.5z"/>
		</g>
	</g>
</g>
<g>
	<path fill="#7877A7" d="M303,225.5c0,0,0.3,17.1,2.4,22.3l51.7-1c0,0-4.5-16.8-2.8-21.2L303,225.5L303,225.5z"/>
	<g>
		<path fill="#FFFFFF" d="M348.7,232.6c0,0.1-8.7,0.4-19.4,0.7c-10.7,0.3-19.4,0.4-19.5,0.3c0-0.1,8.7-0.4,19.4-0.7
			S348.6,232.5,348.7,232.6z"/>
	</g>
	<g>
		<path fill="#FFFFFF" d="M346.6,236.3c0,0.1-7.7,0.4-17.3,0.6c-9.6,0.2-17.4,0.4-17.4,0.3c0-0.1,7.7-0.4,17.3-0.6
			C338.8,236.3,346.6,236.2,346.6,236.3z"/>
	</g>
	<g>
		<path fill="#FFFFFF" d="M337.8,239.8c0,0.1-4.4,0.3-9.9,0.4c-5.5,0.1-9.9,0.2-9.9,0.1c0-0.1,4.4-0.3,9.9-0.4
			C333.3,239.8,337.8,239.7,337.8,239.8z"/>
	</g>
</g>
<g>
	<g>
		<path fill="#F3CE63" d="M366.6,237.7c0,0-7.3,34.5-7.4,45.5l54.6,10c0,0,2.8-34.9,6.6-43.5L366.6,237.7z"/>
	</g>
	<g>
		<g>
			<path fill="#FFFFFF" d="M409,262.3c0,0.2-8.3-1.1-18.4-2.8c-10.1-1.8-18.3-3.3-18.3-3.5s8.3,1.1,18.4,2.8
				C400.8,260.6,409,262.2,409,262.3z"/>
		</g>
	</g>
	<g>
		<g>
			<path fill="#FFFFFF" d="M407.4,269.6c0,0.2-8.3-1.1-18.4-2.8c-10.1-1.8-18.3-3.3-18.3-3.5s8.3,1.1,18.4,2.8
				C399.2,267.9,407.4,269.4,407.4,269.6z"/>
		</g>
	</g>
	<g>
		<g>
			<path fill="#FFFFFF" d="M396.6,274.7c0,0.2-4.7-0.5-10.5-1.5s-10.4-2-10.4-2.2s4.7,0.5,10.5,1.5
				C392,273.6,396.6,274.5,396.6,274.7z"/>
		</g>
	</g>
</g>
<g>
	<path fill="#7877A7" d="M369.3,191.1c0,0-7.8,24.7-9,32.7l31.4,8.6c0,0,5.2-25.1,8.3-31.3L369.3,191.1z"/>
	<g>
		<path fill="#FFFFFF" d="M393.3,210.1c0,0.2-5.4-1.1-11.9-2.8s-11.8-3.2-11.8-3.4s5.4,1.1,11.9,2.8
			C388.1,208.5,393.3,210,393.3,210.1z"/>
	</g>
	<g>
		<path fill="#FFFFFF" d="M390.3,215.1c0,0.1-4.8-1-10.6-2.5c-5.8-1.5-10.6-2.9-10.5-3c0-0.1,4.8,1,10.6,2.5S390.4,215,390.3,215.1z
			"/>
	</g>
	<g>
		<path fill="#FFFFFF" d="M383.4,218.5c0,0.1-2.8-0.4-6.1-1.3c-3.3-0.9-6-1.7-6-1.8s2.8,0.4,6.1,1.3
			C380.8,217.6,383.4,218.4,383.4,218.5z"/>
	</g>
</g>
<g>
	<path fill="#7877A7" d="M292.6,188.7c0,0,4.7,25.5,7.4,33.1l31.8-7.2c0,0-7.3-24.6-7.4-31.5L292.6,188.7z"/>
	<g>
		<path fill="#FFFFFF" d="M322.7,194.3c0,0.2-5.3,1.6-11.8,3.1c-6.6,1.6-11.9,2.7-12,2.6c0-0.2,5.3-1.6,11.8-3.1
			C317.3,195.3,322.7,194.1,322.7,194.3z"/>
	</g>
	<g>
		<path fill="#FFFFFF" d="M322.4,200.1c0,0.1-4.7,1.4-10.6,2.8c-5.9,1.4-10.7,2.4-10.7,2.3c0-0.1,4.7-1.4,10.6-2.8
			C317.6,201,322.4,199.9,322.4,200.1z"/>
	</g>
	<g>
		<path fill="#FFFFFF" d="M317.9,206.4c0,0.1-2.7,0.9-6,1.7s-6.1,1.3-6.1,1.2s2.7-0.9,6-1.7C315.1,206.8,317.9,206.2,317.9,206.4z"
			/>
	</g>
</g>
<g>
	<g>
		<path fill="#F3CE63" d="M332.2,176.7c0,0,2.8,14.1,4.6,18.2l24.7-5.5c0,0-4.8-13.5-4.6-17.3L332.2,176.7z"/>
	</g>
	<g>
		<g>
			<path fill="#FFFFFF" d="M354.2,178.8c0,0.1-3.7,1-8.3,2c-4.6,1.1-8.3,1.8-8.3,1.8c0-0.1,3.7-1,8.3-2
				C350.5,179.5,354.2,178.7,354.2,178.8z"/>
		</g>
	</g>
	<g>
		<g>
			<path fill="#FFFFFF" d="M354.8,181.8c0,0.1-3.7,1-8.3,2c-4.6,1.1-8.3,1.8-8.3,1.8c0-0.1,3.7-1,8.3-2
				C351.1,182.5,354.8,181.7,354.8,181.8z"/>
		</g>
	</g>
	<g>
		<g>
			<path fill="#FFFFFF" d="M351.1,185.5c0,0.1-2.1,0.6-4.7,1.2c-2.6,0.6-4.7,1-4.8,0.9c0-0.1,2.1-0.6,4.7-1.2
				C349,185.8,351.1,185.4,351.1,185.5z"/>
		</g>
	</g>
</g>
<g>
	<path fill="#7877A7" d="M185.3,106.2c0,0-10,23.9-11.9,31.7l30.5,11.4c0,0,7.4-24.6,11.1-30.4L185.3,106.2z"/>
	<g>
		<path fill="#FFFFFF" d="M207.5,127.3c-0.1,0.2-5.3-1.6-11.6-3.8c-6.4-2.3-11.5-4.2-11.4-4.4s5.3,1.6,11.6,3.8
			C202.4,125.2,207.5,127.2,207.5,127.3z"/>
	</g>
	<g>
		<path fill="#FFFFFF" d="M204.1,132c0,0.1-4.7-1.4-10.4-3.4s-10.3-3.8-10.2-3.9c0-0.1,4.7,1.4,10.4,3.4
			C199.5,130.1,204.1,131.9,204.1,132z"/>
	</g>
	<g>
		<path fill="#FFFFFF" d="M196.9,134.8c0,0.1-2.7-0.7-6-1.9c-3.2-1.2-5.8-2.2-5.8-2.3s2.7,0.7,6,1.9
			C194.3,133.6,196.9,134.7,196.9,134.8z"/>
	</g>
</g>
<g>
	<path fill="#7877A7" d="M245.5,104.6c0,0-8.6,10.2-10.3,14.1l25,20.8c0,0,6.5-11.7,9.6-13.7L245.5,104.6z"/>
	<g>
		<path fill="#FFFFFF" d="M263.5,127.6c0,0.1-4.3-3.3-9.5-7.6s-9.4-7.8-9.4-7.9s4.3,3.3,9.5,7.6S263.5,127.5,263.5,127.6z"/>
	</g>
	<g>
		<path fill="#FFFFFF" d="M260.6,128.9c0,0.1-3.9-3-8.5-6.8c-4.7-3.8-8.4-7-8.4-7c0-0.1,3.9,3,8.5,6.8
			C256.9,125.7,260.6,128.9,260.6,128.9z"/>
	</g>
	<g>
		<path fill="#FFFFFF" d="M254.6,127.4c0,0.1-2.2-1.7-4.9-3.8c-2.7-2.2-4.8-4-4.7-4.1c0-0.1,2.2,1.7,4.9,3.8
			C252.5,125.5,254.6,127.3,254.6,127.4z"/>
	</g>
</g>
<g>
	<path fill="#7877A7" d="M173.6,65.9c0,0-5.7,25.3-6.2,33.3l32,5.9c0,0,3-25.5,5.6-31.9L173.6,65.9z"/>
	<g>
		<path fill="#FFFFFF" d="M199.2,82.8c0,0.2-5.5-0.6-12.1-1.8c-6.7-1.1-12-2.2-12-2.3c0-0.2,5.4,0.6,12.1,1.8
			C193.8,81.6,199.2,82.7,199.2,82.8z"/>
	</g>
	<g>
		<path fill="#FFFFFF" d="M196.6,88c0,0.1-4.9-0.6-10.8-1.6c-6-1-10.8-1.9-10.7-2.1c0-0.1,4.9,0.6,10.8,1.6
			C191.8,87,196.7,87.9,196.6,88z"/>
	</g>
	<g>
		<path fill="#FFFFFF" d="M190,92c0,0.1-2.8-0.2-6.2-0.8c-3.4-0.6-6.1-1.2-6.1-1.3c0-0.1,2.8,0.2,6.2,0.8
			C187.3,91.3,190,91.9,190,92z"/>
	</g>
</g>
<g>
	<g>
		<path fill="#F3CE63" d="M214.8,70.4c0,0-3,14-2.9,18.5l24.9,4.7c0,0,0.9-14.2,2.6-17.7L214.8,70.4z"/>
	</g>
	<g>
		<g>
			<path fill="#FFFFFF" d="M234.3,80.9c0,0.1-3.8-0.5-8.4-1.4c-4.6-0.8-8.4-1.6-8.4-1.6c0-0.1,3.8,0.5,8.4,1.4
				C230.5,80.1,234.3,80.9,234.3,80.9z"/>
		</g>
	</g>
	<g>
		<g>
			<path fill="#FFFFFF" d="M233.6,83.9c0,0.1-3.8-0.5-8.4-1.4c-4.6-0.8-8.4-1.6-8.4-1.6c0-0.1,3.8,0.5,8.4,1.4
				C229.9,83.1,233.6,83.8,233.6,83.9z"/>
		</g>
	</g>
	<g>
		<g>
			<path fill="#FFFFFF" d="M228.8,85.9c0,0.1-2.2-0.2-4.8-0.7s-4.8-0.9-4.8-1s2.2,0.2,4.8,0.7S228.8,85.8,228.8,85.9z"/>
		</g>
	</g>
</g>
<g>
	<g>
		<path fill="#F3CE63" d="M286.7,102.5c0,0-3.1,53.8-5.7,64.7l44.2,6.1l6.7-8.2c0,0,4.7-47.5,4-60.9L286.7,102.5z"/>
	</g>
	<g>
		<polygon fill="#263238" points="326.2,164.6 325.2,173.2 331.9,165 		"/>
	</g>
	<g>
		<g>
			<path fill="#FFFFFF" d="M326.7,129.7c0,0.1-1.9-0.2-5-0.8c-3.3-0.6-7.4-1.4-11.9-2.2c-4.5-0.7-8.7-1.4-11.9-1.9
				c-3.1-0.5-4.9-0.8-4.9-0.9c0-0.1,1.9-0.1,5,0.2s7.3,0.8,12,1.6s8.9,1.7,11.9,2.5C324.9,129,326.8,129.6,326.7,129.7z"/>
		</g>
	</g>
	<g>
		<g>
			<path fill="#FFFFFF" d="M324.8,141.5c0,0.1-1.8,0.1-4.8-0.2c-2.9-0.3-7-0.8-11.5-1.5s-8.5-1.6-11.4-2.2c-2.9-0.7-4.7-1.2-4.7-1.3
				s1.8,0.1,4.8,0.6c3.2,0.5,7.1,1.2,11.4,1.9s8.3,1.3,11.4,1.8C323,141.1,324.8,141.4,324.8,141.5z"/>
		</g>
	</g>
	<g>
		<g>
			<path fill="#FFFFFF" d="M322,152.5c0,0.3-6.7-0.7-14.9-2.1c-8.2-1.4-14.8-2.8-14.8-3.1s6.7,0.7,14.9,2.1
				C315.5,150.8,322.1,152.2,322,152.5z"/>
		</g>
	</g>
</g>
<g>
	<g>
		<path fill="#7877A7" d="M487.6,373.3c0,0,12,68.1,18.8,88.3l83.7-18.1c0,0-18.6-65.8-18.7-84.2L487.6,373.3z"/>
	</g>
	<g>
		<g>
			<path fill="#FFFFFF" d="M563.5,390c0.1,0.4-12.4,3.6-27.9,7.1c-15.5,3.6-28.1,6.2-28.2,5.8c-0.1-0.4,12.4-3.6,27.9-7.1
				C550.8,392.2,563.4,389.6,563.5,390z"/>
		</g>
	</g>
	<g>
		<g>
			<path fill="#FFFFFF" d="M565.9,404.5c0.1,0.4-12.4,3.6-27.9,7.1c-15.5,3.6-28.1,6.2-28.2,5.8c-0.1-0.4,12.4-3.6,27.9-7.1
				C553.2,406.7,565.8,404.1,565.9,404.5z"/>
		</g>
	</g>
	<g>
		<g>
			<path fill="#FFFFFF" d="M554,421c0.1,0.4-7,2.3-15.8,4.4c-8.8,2-16,3.4-16.1,3s7-2.3,15.8-4.4C546.6,422,553.9,420.7,554,421z"/>
		</g>
	</g>
</g>
<g>
	<path fill="#7877A7" d="M537.8,209.6c0,0-14.2,41.6-16.9,55.1l43.3,19.7c0,0,10.5-42.7,15.7-52.8L537.8,209.6z"/>
	<g>
		<path fill="#FFFFFF" d="M569.3,246.3c-0.1,0.3-7.5-2.7-16.5-6.7c-9-4-16.3-7.4-16.2-7.6c0.1-0.3,7.5,2.7,16.5,6.7
			C562.1,242.6,569.4,246.1,569.3,246.3z"/>
	</g>
	<g>
		<path fill="#FFFFFF" d="M564.5,254.5c-0.1,0.2-6.7-2.4-14.7-6c-8.1-3.5-14.6-6.6-14.5-6.8c0.1-0.2,6.7,2.4,14.7,6
			C558.1,251.2,564.5,254.2,564.5,254.5z"/>
	</g>
	<g>
		<path fill="#FFFFFF" d="M554.2,259.3c-0.1,0.2-3.9-1.2-8.5-3.2s-8.3-3.8-8.2-4.1c0.1-0.2,3.9,1.2,8.5,3.2
			C550.6,257.3,554.3,259.1,554.2,259.3z"/>
	</g>
</g>
<g>
	<path fill="#7877A7" d="M521.3,139.5c0,0-8,44-8.8,57.9l45.5,10.2c0,0,4.2-44.3,8-55.4L521.3,139.5z"/>
	<g>
		<path fill="#FFFFFF" d="M557.5,169c0,0.3-7.7-1.1-17.2-3.1s-17.1-3.8-17.1-4.1s7.7,1.1,17.2,3.1S557.6,168.7,557.5,169z"/>
	</g>
	<g>
		<path fill="#FFFFFF" d="M553.9,178c0,0.2-6.9-1-15.4-2.7c-8.5-1.8-15.3-3.4-15.2-3.6c0-0.2,6.9,1,15.4,2.7
			C547.1,176.1,554,177.8,553.9,178z"/>
	</g>
	<g>
		<path fill="#FFFFFF" d="M544.5,185c0,0.2-4-0.4-8.8-1.4s-8.7-2-8.7-2.3c0-0.2,4,0.4,8.8,1.4C540.7,183.7,544.6,184.7,544.5,185z"
			/>
	</g>
</g>
<g>
	<path fill="#7877A7" d="M194.7,235.4c0,0,10.4,30,15.1,38.6l40.5-16.2c0,0-13.5-28.3-14.8-36.7L194.7,235.4z"/>
	<g>
		<path fill="#FFFFFF" d="M235.2,235.1c0.1,0.2-6.7,3.1-15,6.6c-8.4,3.5-15.2,6.1-15.3,5.9s6.7-3.1,15-6.6
			C228.3,237.6,235.2,234.9,235.2,235.1z"/>
	</g>
	<g>
		<path fill="#FFFFFF" d="M235.8,242.2c0.1,0.2-5.9,2.8-13.4,5.9s-13.6,5.5-13.7,5.3c-0.1-0.2,5.9-2.8,13.4-5.9
			S235.7,242.1,235.8,242.2z"/>
	</g>
	<g>
		<path fill="#FFFFFF" d="M230.9,250.9c0.1,0.2-3.3,1.7-7.6,3.5s-7.8,3.1-7.8,2.9c-0.1-0.2,3.3-1.7,7.6-3.5
			C227.3,252.1,230.8,250.8,230.9,250.9z"/>
	</g>
</g>
<g>
	<g>
		<path fill="#F3CE63" d="M243.9,211.8c0,0,5.9,16.5,8.8,21.2l28.3-11.3c0,0-8.1-15.4-8.7-20.1L243.9,211.8z"/>
	</g>
	<g>
		<g>
			<path fill="#FFFFFF" d="M270.4,210c0,0.1-4.2,1.9-9.4,4.1c-5.2,2.1-9.5,3.8-9.5,3.7s4.2-1.9,9.4-4.1
				C266.1,211.6,270.4,209.9,270.4,210z"/>
		</g>
	</g>
	<g>
		<g>
			<path fill="#FFFFFF" d="M271.6,213.5c0,0.1-4.2,1.9-9.4,4.1c-5.2,2.1-9.5,3.8-9.5,3.7s4.2-1.9,9.4-4.1
				C267.3,215.1,271.6,213.5,271.6,213.5z"/>
		</g>
	</g>
	<g>
		<g>
			<path fill="#FFFFFF" d="M267.9,218.8c0,0.1-2.3,1.2-5.3,2.4s-5.4,2.1-5.5,2.1c0-0.1,2.3-1.2,5.3-2.4
				C265.5,219.6,267.9,218.7,267.9,218.8z"/>
		</g>
	</g>
</g>
<g>
	<g>
		<path fill="#263238" d="M458.8,487.9c0,0.1-101.6,0.1-226.8,0.1c-125.3,0-226.9-0.1-226.9-0.1c0-0.1,101.6-0.1,226.9-0.1
			C357.3,487.7,458.8,487.8,458.8,487.9z"/>
	</g>
</g>
</svg>
