<?xml version="1.0" encoding="utf-8"?>
<!-- Generator: Adobe Illustrator 24.1.3, SVG Export Plug-In . SVG Version: 6.00 Build 0)  -->
<svg version="1.1" id="Слой_1" xmlns="http://www.w3.org/2000/svg" xmlns:xlink="http://www.w3.org/1999/xlink" x="0px" y="0px"
	 viewBox="0 0 1100 500" style="enable-background:new 0 0 1100 500;" xml:space="preserve">
<style type="text/css">
	.st0{font-family:'Bauhaus93';}
	.st1{font-size:35px;}
	.st2{fill:#E0E0E0;}
	.st3{fill:#FAFAFA;}
	.st4{fill:#EBEBEB;}
	.st5{fill:#F5F5F5;}
	.st6{fill:#FFFFFF;}
	.st7{fill:none;stroke:#FBFBFB;stroke-width:0.25;stroke-miterlimit:10;}
	.st8{opacity:0.24;}
	.st9{fill:#263238;}
	.st10{fill:#7877A7;}
	.st11{fill-rule:evenodd;clip-rule:evenodd;fill:#350A3D;}
	.st12{fill-rule:evenodd;clip-rule:evenodd;fill:#351528;}
	.st13{fill-rule:evenodd;clip-rule:evenodd;fill:#CB6459;}
	.st14{fill-rule:evenodd;clip-rule:evenodd;fill:#B24949;}
	.st15{fill-rule:evenodd;clip-rule:evenodd;fill:#263238;}
	.st16{fill-rule:evenodd;clip-rule:evenodd;fill:#E6AD83;}
	.st17{fill-rule:evenodd;clip-rule:evenodd;fill:#7877A7;}
	.st18{fill-rule:evenodd;clip-rule:evenodd;fill:#ECD8DA;}
	.st19{fill-rule:evenodd;clip-rule:evenodd;fill:#847779;}
	.st20{fill-rule:evenodd;clip-rule:evenodd;}
	.st21{fill-rule:evenodd;clip-rule:evenodd;fill:#020101;}
	.st22{fill-rule:evenodd;clip-rule:evenodd;fill:#FFFFFF;}
	.st23{fill-rule:evenodd;clip-rule:evenodd;fill:#D4A037;}
	.st24{fill-rule:evenodd;clip-rule:evenodd;fill:#547FB2;}
	.st25{fill-rule:evenodd;clip-rule:evenodd;fill:#F3CE63;}
	.st26{fill-rule:evenodd;clip-rule:evenodd;fill:#3F1017;}
	.st27{fill-rule:evenodd;clip-rule:evenodd;fill:#878686;}
	.st28{fill-rule:evenodd;clip-rule:evenodd;fill:#160407;}
	.st29{fill-rule:evenodd;clip-rule:evenodd;fill:#472055;}
	.st30{fill:#E0E0E0;stroke:#E0E0E0;stroke-miterlimit:10;}
	.st31{fill:#F3CE63;}
	.st32{fill:#D4A037;}
	.st33{fill:none;stroke:#000000;stroke-width:0.25;stroke-miterlimit:10;}
	.st34{fill:none;stroke:#FFFFFF;stroke-width:0.75;stroke-miterlimit:10;}
	.st35{fill:#F3CE63;stroke:#F3CE63;stroke-width:6;stroke-miterlimit:10;}
	.st36{fill:none;stroke:#263238;stroke-width:0.25;stroke-miterlimit:10;}
	.st37{fill:#547FB2;}
	.st38{opacity:0.3;}
	.st39{fill:#455A64;}
	.st40{fill:#FFBE9D;}
	.st41{fill:#EB996E;}
	.st42{fill:#506287;}
</style>
<text transform="matrix(1 0 0 1 636.8578 338.7388)" class="st0 st1"> </text>
<g>
	<g>
		<g>
			<g>
				<g>
					<g>
						<g>
							<rect x="174.7" y="443.1" class="st2" width="60.8" height="8.2"/>
						</g>
					</g>
				</g>
			</g>
			<g>
				<g>
					<g>
						<g>
							<g>
								<path class="st3" d="M183,443.4c0.2,0,0.3,1.7,0.3,3.9c0,2.2-0.2,3.9-0.3,3.9c-0.2,0-0.3-1.7-0.3-3.9
									C182.6,445.2,182.8,443.4,183,443.4z"/>
							</g>
						</g>
					</g>
				</g>
			</g>
			<g>
				<g>
					<g>
						<g>
							<g>
								<path class="st3" d="M181.7,443.2c0.2,0,0.3,1.7,0.3,3.9c0,2.2-0.2,3.9-0.3,3.9c-0.2,0-0.3-1.7-0.3-3.9
									C181.3,444.9,181.4,443.2,181.7,443.2z"/>
							</g>
						</g>
					</g>
				</g>
			</g>
			<g>
				<g>
					<g>
						<g>
							<g>
								<path class="st3" d="M230.7,443.4c0.2,0,0.3,1.7,0.3,3.9c0,2.2-0.2,3.9-0.3,3.9c-0.2,0-0.3-1.7-0.3-3.9
									C230.4,445.2,230.5,443.4,230.7,443.4z"/>
							</g>
						</g>
					</g>
				</g>
			</g>
			<g>
				<g>
					<g>
						<g>
							<g>
								<path class="st3" d="M229.5,443.2c0.2,0,0.3,1.7,0.3,3.9c0,2.2-0.2,3.9-0.3,3.9c-0.2,0-0.3-1.7-0.3-3.9
									C229,444.9,229.3,443.2,229.5,443.2z"/>
							</g>
						</g>
					</g>
				</g>
			</g>
			<g>
				<g>
					<g>
						<g>
							<g>
								<path class="st3" d="M221.5,447.4c0,0.2-6.9,0.3-15.6,0.3c-8.6,0-15.6-0.2-15.6-0.3c0-0.2,6.9-0.3,15.6-0.3
									C214.5,447,221.5,447.2,221.5,447.4z"/>
							</g>
						</g>
					</g>
				</g>
			</g>
		</g>
		<g>
			<g>
				<g>
					<g>
						<g>
							<rect x="174.5" y="480" class="st2" width="60.8" height="16.5"/>
						</g>
					</g>
				</g>
			</g>
			<g>
				<g>
					<g>
						<g>
							<g>
								<path class="st3" d="M236,491.9c0,0-0.1,0.1-0.3,0.2s-0.6,0.2-1,0.5c-0.9,0.3-2.3,0.9-4.1,1.1s-4.3,0.3-6.7-0.9
									c-1.1-0.7-2.3-1.6-3.2-2.9c-0.8-1.3-1.4-3-1.1-4.7c0.1-0.9,0.5-1.7,1.1-2.4c0.6-0.7,1.6-1.3,2.6-1.1c1,0,1.9,0.7,2.6,1.4
									c0.7,0.8,1.1,1.7,1.1,2.9c0.2,2.1-0.7,4.2-2,5.8c-1.5,1.6-3.6,2.6-5.8,2.9c-2.3,0.2-4.5-0.1-6.8-0.8c-2.2-0.8-4.4-2.1-5.9-4
									c-0.8-1-1.2-2.3-1.4-3.5c-0.1-1.3,0.3-2.7,1.2-3.7c0.5-0.5,1.1-0.8,1.9-0.8c0.7,0,1.4,0.2,1.9,0.6c1.1,0.7,1.9,1.9,2.3,3.3
									c0.6,2.7-0.5,5.5-2.4,7.2s-4.4,2.5-6.8,2.9c-2.4,0.2-4.9,0.1-7-0.7c-2.3-0.8-4.2-2.3-5.3-4.2c-1.1-1.9-1.6-4.5-0.7-6.5
									c0.5-1,1.4-1.9,2.5-2.2c1.1-0.2,2.3,0.1,3.1,0.8c1.7,1.4,2,3.8,1.5,5.5c-0.6,1.8-1.8,3.3-3.1,4.3c-2.6,2.2-5.7,3.2-8.3,3.3
									c-2.7,0.1-5-0.7-6.6-1.5c-1.7-0.9-2.7-1.8-3.4-2.6c-0.3-0.3-0.6-0.7-0.7-0.8c-0.1-0.2-0.2-0.3-0.2-0.3
									c0.1-0.1,1.2,1.8,4.5,3.5c1.6,0.8,3.9,1.5,6.5,1.4s5.6-1.1,8-3.3c1.2-1,2.4-2.4,2.8-4.1c0.5-1.6,0.2-3.8-1.2-4.8
									c-0.7-0.6-1.7-0.8-2.5-0.6c-0.9,0.1-1.6,0.8-1.9,1.7c-0.8,1.8-0.5,4.1,0.7,5.9c1,1.8,3,3.2,5,3.9c2.2,0.7,4.4,0.9,6.8,0.7
									c2.3-0.2,4.7-1,6.4-2.6s2.7-4.1,2.2-6.5c-0.2-1.1-0.9-2.2-1.9-2.9c-0.9-0.7-2.2-0.6-3,0.2c-0.8,0.8-1.1,1.9-1,3.1
									s0.6,2.3,1.2,3.1c1.4,1.8,3.4,3.1,5.6,3.8c2.2,0.7,4.3,1.1,6.5,0.8c2.2-0.2,4.1-1.1,5.5-2.6s2.2-3.4,1.9-5.3
									c-0.1-1.8-1.5-3.5-3.2-3.7c-0.8,0-1.6,0.3-2.2,0.9c-0.6,0.6-0.9,1.4-1,2.2c-0.2,1.6,0.2,3.2,1,4.3c0.8,1.3,1.8,2.2,3,2.9
									c2.3,1.3,4.7,1.3,6.5,1c1.8-0.2,3.2-0.7,4.1-1C235.5,492,236,491.8,236,491.9z"/>
							</g>
						</g>
					</g>
				</g>
			</g>
		</g>
		<g>
			<g>
				<g>
					<g>
						<g>
							<rect x="179.9" y="451.6" class="st4" width="55.3" height="28.4"/>
						</g>
					</g>
				</g>
			</g>
			<g>
				<g>
					<g>
						<g>
							<g>
								<path class="st2" d="M189,452.5c0.2,0,0.3,6.2,0.3,13.8s-0.2,13.8-0.3,13.8c-0.2,0-0.3-6.2-0.3-13.8S188.8,452.5,189,452.5z
									"/>
							</g>
						</g>
					</g>
				</g>
			</g>
			<g>
				<g>
					<g>
						<g>
							<g>
								<path class="st2" d="M193.2,452.1c0.2,0,0.3,6.1,0.3,13.6s-0.2,13.6-0.3,13.6c-0.2,0-0.3-6.1-0.3-13.6
									S193,452.1,193.2,452.1z"/>
							</g>
						</g>
					</g>
				</g>
			</g>
			<g>
				<g>
					<g>
						<g>
							<g>
								<path class="st2" d="M228.9,451.2c0.2,0,0.3,6.4,0.3,14.4c0,7.9-0.2,14.4-0.3,14.4c-0.2,0-0.3-6.4-0.3-14.4
									C228.6,457.6,228.7,451.2,228.9,451.2z"/>
							</g>
						</g>
					</g>
				</g>
			</g>
			<g>
				<g>
					<g>
						<g>
							<g>
								<path class="st2" d="M224,451.6c0.2,0,0.3,6.3,0.3,13.9c0,7.8-0.2,13.9-0.3,13.9c-0.2,0-0.3-6.3-0.3-13.9
									C223.6,457.8,223.8,451.6,224,451.6z"/>
							</g>
						</g>
					</g>
				</g>
			</g>
		</g>
	</g>
	<g>
		<g>
			<g>
				<g>
					<g>
						<path class="st4" d="M80.6,367.1c6.5-3.1,14.1-3.5,21.2-2.4c3.9,0.6,7.8,1.7,10.6,4.3c2.6,2.7,3.1,7.4,0.1,9.7
							c-1.8,1.4-4.3,1.6-6.6,1.6c-5.7-0.1-11.8-1-16.4,2.2c-2.6,1.8-4.3,4.8-7.4,5.6c-3,0.9-6.4-0.8-8-3.3s-1.6-5.6-0.9-8.5
							C73.2,376.4,74,370.2,80.6,367.1z"/>
					</g>
				</g>
			</g>
			<g>
				<g>
					<g>
						<path class="st4" d="M65.7,340.5c4,5.3,11.7,3.5,15.2,0.3s5.1-7.9,6.5-12.2c3.2-10.2,6.2-20.7,4-31.1
							c-0.7-3.1-1.9-6.2-4.3-8.5s-5.9-3.7-9.2-2.9c-3.9,0.9-6.2,4.5-8.1,7.9c-5.1,9.8-7.8,20.8-7.8,31.8
							C61.9,330.9,62.6,336.3,65.7,340.5"/>
					</g>
				</g>
			</g>
			<g>
				<g>
					<g>
						<path class="st4" d="M54.9,348c4.3-4.7,5.1-11.7,3.2-17.6c-1.9-5.9-6.2-11-11.2-15.1c-5.8-4.8-12.7-8.6-20.1-11
							c-3-0.9-5.9-1.7-9-1.4c-3.1,0.2-6.1,1.6-7.6,4.2c-2.2,3.8-0.1,8.2,2.2,12c3.9,6.5,8.3,12.8,13.2,18.6c4,4.7,8.5,9.4,14.5,11.5
							c6,2.2,12.3,1.9,15.4-1.9"/>
					</g>
				</g>
			</g>
			<g>
				<g>
					<g>
						<g>
							<path class="st2" d="M65.5,419.7c0.1,0,0.2-0.8,0.3-2.4c0.2-1.7,0.5-3.9,0.7-6.5c0.3-2.7,0.8-5.9,1.6-9.6
								c0.8-3.5,2-7.4,3.7-11.3s3.7-7.4,6.2-10.2c2.4-2.9,5.2-4.9,7.8-6.1c2.6-1.3,5-1.7,6.6-1.9c1.6-0.1,2.6-0.2,2.6-0.3
								c0-0.1-0.9-0.1-2.6,0s-4.1,0.5-6.9,1.7c-2.7,1.1-5.8,3.2-8.3,6.1s-4.7,6.5-6.5,10.4c-1.7,4-3,7.9-3.7,11.4
								c-0.8,3.7-1.1,6.9-1.4,9.7c-0.2,2.7-0.3,5-0.3,6.5C65.3,418.9,65.3,419.7,65.5,419.7z"/>
						</g>
					</g>
				</g>
			</g>
			<g>
				<g>
					<g>
						<g>
							<path class="st2" d="M65.9,414.7c0,0,0.1-0.3,0.1-1.1s0-1.8,0-3.2c0-2.7,0-6.7,0.1-11.7c0.2-9.8,1.1-20.3,3-35.3
								c1.7-14.1,3.9-30.3,6.2-40.9c0.5-2.4,1-4.6,1.5-6.5s0.8-3.5,1.2-4.9c0.3-1.3,0.6-2.3,0.8-3.1c0.2-0.7,0.2-1,0.2-1.1
								c0,0-0.2,0.3-0.5,1c-0.2,0.8-0.6,1.8-1,3.1c-0.5,1.4-0.9,3-1.4,4.8c-0.6,1.9-1.1,4-1.7,6.5c-2.4,9.6-4.8,23-6.6,37.9
								s-2.5,28.6-2.6,38.4c-0.1,4.9,0,8.9,0.2,11.7c0.1,1.3,0.1,2.3,0.2,3.2C65.8,414.3,65.9,414.7,65.9,414.7z"/>
						</g>
					</g>
				</g>
			</g>
			<g>
				<g>
					<g>
						<g>
							<path class="st2" d="M66,388.5c0.1,0,0.1-1.1,0-3.3c-0.1-2.2-0.5-5.1-1.1-8.9c-0.7-3.8-1.6-8.2-3.2-13
								c-0.7-2.2-2.2-7.5-5.9-15.4c-4.9-10.7-11.5-19.5-17.3-24.9c-1.4-1.5-2.8-2.5-4.1-3.5c-0.6-0.5-1.1-1-1.7-1.4
								c-0.6-0.3-1.1-0.7-1.6-1c-1.9-1.3-3-1.8-3-1.8c-0.1,0.2,4.2,2.6,9.8,8.1s12,14.2,16.8,24.9c2.7,5.8,4.5,11,5.9,15.3
								c1.6,4.8,2.6,9.3,3.3,12.9c0.7,3.8,1.1,6.7,1.4,8.9C65.8,387.3,65.9,388.5,66,388.5z"/>
						</g>
					</g>
				</g>
			</g>
		</g>
		<g>
			<g>
				<g>
					<polygon class="st4" points="36.8,430.8 39.7,466.8 89.4,466.8 92.3,430.8 					"/>
				</g>
			</g>
		</g>
		<g>
			<g>
				<g>
					<rect x="32.1" y="416.6" class="st4" width="66.1" height="14.2"/>
				</g>
			</g>
		</g>
		<g>
			<g>
				<g>
					<polygon class="st2" points="32.1,465.4 32.1,469.3 35.1,469.3 97,469.3 97,465.4 					"/>
				</g>
			</g>
		</g>
		<g>
			<g>
				<g>
					<polygon class="st2" points="38.2,475.8 35.1,468.8 94.8,468.8 91.1,475.8 					"/>
				</g>
			</g>
		</g>
		<g>
			<g>
				<g>
					<g>
						<path class="st5" d="M91.4,442.5c0,0-0.1,0.1-0.2,0.3c-0.2,0.2-0.5,0.6-0.8,0.9c-0.7,0.8-1.7,1.9-3,3.4l-0.1,0.1l-0.1-0.1
							c-1.8-2.3-4.2-5.5-7.2-9.1h0.5c-2.2,2.7-4.4,5.9-7,9.3l-0.2,0.3l-0.2-0.2c-2.6-2.9-5.5-5.9-8.3-9.1h0.5
							c-0.1,0.1-0.3,0.3-0.5,0.6c-2.6,3-5.1,5.9-7.4,8.7l-0.2,0.3l-0.2-0.3c-2.5-3.3-4.9-6.4-7-9.3h0.5c-3.4,3.7-6.4,6.7-8.6,9.1
							l-0.1,0.1l-0.1-0.2c-1.1-1.8-2-3.2-2.7-4.2c-0.2-0.5-0.6-0.8-0.7-1.1c-0.1-0.2-0.2-0.3-0.2-0.5c0,0,0.1,0.1,0.3,0.3
							c0.2,0.2,0.5,0.7,0.8,1c0.7,1,1.6,2.4,2.8,4.1h-0.2c2.2-2.4,5.1-5.6,8.5-9.3l0.2-0.2l0.2,0.2c2.2,2.7,4.5,5.8,7,9.1H57
							c2.4-2.7,4.9-5.7,7.4-8.7c0.1-0.2,0.3-0.3,0.5-0.6l0.2-0.2l0.2,0.2c3,3.2,5.7,6.4,8.3,9.3h-0.5c2.6-3.3,5-6.4,7-9.1l0.2-0.2
							l0.2,0.2c2.8,3.8,5.2,6.9,6.9,9.3h-0.2c1.2-1.4,2.3-2.5,3.1-3.3c0.3-0.3,0.6-0.7,0.8-0.9C91.2,442.5,91.4,442.5,91.4,442.5z"
							/>
					</g>
				</g>
			</g>
		</g>
		<g>
			<g>
				<g>
					<g>
						<path class="st5" d="M92.9,430.5c0,0.1-12.5,0.3-27.8,0.3s-27.8-0.1-27.8-0.3c0-0.1,12.5-0.3,27.8-0.3S92.9,430.3,92.9,430.5z
							"/>
					</g>
				</g>
			</g>
		</g>
	</g>
	<g>
		<g>
			<g>
				<g>
					<g>
						<g>
							<rect x="467.7" y="328.2" class="st2" width="52.1" height="68.9"/>
						</g>
					</g>
				</g>
			</g>
		</g>
		<g>
			<g>
				<g>
					<g>
						<g>
							<rect x="465.1" y="328.2" class="st5" width="52.1" height="68.9"/>
						</g>
					</g>
				</g>
			</g>
		</g>
		<g>
			<g>
				<g>
					<g>
						<g>
							<g>
								<rect x="471.5" y="335.6" class="st6" width="39.2" height="53.9"/>
							</g>
						</g>
					</g>
				</g>
			</g>
			<g>
				<g>
					<g>
						<g>
							<g>
								<g>
									<path class="st2" d="M510.7,389.5c0,0,0-0.1,0-0.2c0-0.2,0-0.5,0-0.8c0-0.7,0-1.7,0-3c0-2.6,0-6.4,0-11.1
										c0-9.5,0-23-0.1-38.8l0.1,0.1c-11.9,0-25.2,0-39.2,0l0,0l0.1-0.1c0,20.3,0,39.1,0,53.9l-0.1-0.1c11.9,0,21.7,0,28.5,0
										c3.4,0,6,0,7.8,0c0.9,0,1.6,0,2,0C510.5,389.5,510.7,389.5,510.7,389.5s-0.2,0-0.7,0s-1.1,0-2,0c-1.8,0-4.4,0-7.8,0
										c-6.8,0-16.6,0-28.6,0h-0.1v-0.1c0-14.9,0-33.6,0-53.9v-0.1h0.1l0,0c14,0,27.1,0,39.2,0h0.1v0.1c0,15.9,0,29.4-0.1,39
										c0,4.8,0,8.5,0,11.1c0,1.3,0,2.3,0,3c0,0.3,0,0.6,0,0.8C510.7,389.4,510.7,389.5,510.7,389.5z"/>
								</g>
							</g>
						</g>
					</g>
				</g>
			</g>
		</g>
		<g>
			<g>
				<g>
					<g>
						<g>
							<g>
								<path class="st7" d="M508.9,335.9"/>
							</g>
						</g>
					</g>
				</g>
			</g>
		</g>
		<g>
			<g>
				<g>
					<g>
						<g>
							<g>
								<path class="st2" d="M517.4,328.2c0,0-0.3,0.5-0.9,1.3c-0.6,0.7-1.5,1.7-2.5,2.9s-1.9,2.1-2.6,2.7c-0.7,0.7-1.1,1.1-1.1,1
									c0,0,0.3-0.5,1-1.1c0.7-0.8,1.6-1.7,2.5-2.7s1.8-2.1,2.5-2.7C517,328.5,517.3,328,517.4,328.2z"/>
							</g>
						</g>
					</g>
				</g>
			</g>
		</g>
		<g>
			<g>
				<g>
					<g>
						<g>
							<g>
								<path class="st6" d="M511,389.4c1.9,2.9,4.2,5.5,6.8,7.8"/>
							</g>
						</g>
					</g>
				</g>
			</g>
			<g>
				<g>
					<g>
						<g>
							<g>
								<g>
									<path class="st2" d="M517.8,397.2c0,0-0.5-0.3-1.1-1c-0.7-0.7-1.6-1.6-2.6-2.6c-0.9-1-1.7-2.1-2.3-2.9
										c-0.6-0.8-0.8-1.3-0.8-1.3s0.3,0.5,0.9,1.1c0.6,0.7,1.4,1.7,2.3,2.9c0.9,1,1.8,2.1,2.5,2.7
										C517.4,396.7,517.8,397.1,517.8,397.2z"/>
								</g>
							</g>
						</g>
					</g>
				</g>
			</g>
		</g>
		<g>
			<g>
				<g>
					<g>
						<g>
							<g>
								<path class="st6" d="M465.1,396.9c2.3-2.5,4.5-5.1,6.8-7.7"/>
							</g>
						</g>
					</g>
				</g>
			</g>
			<g>
				<g>
					<g>
						<g>
							<g>
								<g>
									<path class="st2" d="M471.9,389.3c0.1,0-1.4,1.8-3.3,3.9c-1.9,2.2-3.4,3.8-3.5,3.8s1.4-1.8,3.3-3.9
										C470.3,390.9,471.9,389.2,471.9,389.3z"/>
								</g>
							</g>
						</g>
					</g>
				</g>
			</g>
		</g>
		<g>
			<g>
				<g>
					<g>
						<g>
							<g>
								<path class="st2" d="M465.1,328.2c0.1,0,1.6,1.6,3.3,3.7c1.8,2.1,3.2,3.8,3.1,3.8s-1.6-1.6-3.3-3.7S465.1,328.2,465.1,328.2
									z"/>
							</g>
						</g>
					</g>
				</g>
			</g>
		</g>
		<g>
			<g>
				<g>
					<g>
						<g>
							<rect x="485.4" y="346.6" class="st2" width="13.1" height="33.9"/>
						</g>
					</g>
				</g>
			</g>
		</g>
	</g>
	<g>
		<g>
			<g>
				<g>
					
						<rect x="478.4" y="17" transform="matrix(1 -5.422790e-03 5.422790e-03 1 -0.2087 2.6196)" class="st2" width="9.1" height="45.6"/>
				</g>
			</g>
		</g>
		<g>
			<g>
				<g>
					<g>
						
							<rect x="400" y="17.2" transform="matrix(1 -5.419350e-03 5.419350e-03 1 -0.1552 2.2316)" class="st4" width="23.4" height="25.1"/>
					</g>
				</g>
			</g>
			<g>
				<g>
					<g>
						
							<rect x="423.3" y="17" transform="matrix(1 -5.419373e-03 5.419373e-03 1 -0.1538 2.3579)" class="st5" width="23.4" height="25.1"/>
					</g>
				</g>
			</g>
			<g>
				<g>
					<g>
						<g>
							<path class="st2" d="M399.9,24.1c15.6,0.1,31.1,0,46.7-0.2c0.3,0,0.3-0.5,0-0.5c-15.6-0.1-31.1,0-46.7,0.3
								C399.6,23.7,399.6,24.1,399.9,24.1L399.9,24.1z"/>
						</g>
					</g>
				</g>
			</g>
		</g>
		<g>
			<g>
				<g>
					<g>
						
							<rect x="385.3" y="42" transform="matrix(1 -5.424074e-03 5.424074e-03 1 -0.2774 2.206)" class="st4" width="42.5" height="20.5"/>
					</g>
				</g>
			</g>
			<g>
				<g>
					<g>
						
							<rect x="427.7" y="41.7" transform="matrix(1 -5.421492e-03 5.421492e-03 1 -0.2751 2.4348)" class="st5" width="42.5" height="20.5"/>
					</g>
				</g>
			</g>
			<g>
				<g>
					<g>
						<g>
							<path class="st2" d="M385.3,47.8c28.3,0.3,56.6,0,84.9-0.5c0.3,0,0.3-0.5,0-0.5c-28.3-0.1-56.6-0.1-84.9,0.5
								C385,47.3,385,47.8,385.3,47.8L385.3,47.8z"/>
						</g>
					</g>
				</g>
			</g>
		</g>
		<g>
			<g>
				<g>
					<rect x="369.4" y="62.5" class="st2" width="164.8" height="7.3"/>
				</g>
			</g>
			<g>
				<g>
					<rect x="396.3" y="66.1" class="st2" width="6.7" height="25"/>
				</g>
			</g>
			<g>
				<g>
					<rect x="496.2" y="66.1" class="st2" width="6.7" height="25"/>
				</g>
			</g>
		</g>
		<g>
			<g>
				<g>
					
						<rect x="487.2" y="0" transform="matrix(1 -5.422782e-03 5.422782e-03 1 -0.1625 2.6672)" class="st4" width="9.1" height="62.6"/>
				</g>
			</g>
		</g>
		<g>
			<g>
				<g>
					<g>
						
							<rect x="496.3" y="11.7" transform="matrix(1 -5.425402e-03 5.425402e-03 1 -0.1936 2.7315)" class="st5" width="14.1" height="50.7"/>
					</g>
				</g>
			</g>
			<g>
				<g>
					<g>
						<path class="st2" d="M510,21.4c0,0.1-3.2,0.2-7,0.2c-3.9,0-7-0.1-7-0.2s3.2-0.2,7-0.2C507,21.2,510,21.3,510,21.4z"/>
					</g>
				</g>
			</g>
			<g>
				<g>
					<g>
						<path class="st2" d="M510,19.3c0,0.1-3.2,0.2-7,0.2c-3.9,0-7-0.1-7-0.2s3.2-0.2,7-0.2C507,19,510,19.1,510,19.3z"/>
					</g>
				</g>
			</g>
			<g>
				<g>
					<g>
						<path class="st2" d="M510,54.8c0,0.1-3.2,0.2-7,0.2c-3.9,0-7-0.1-7-0.2c0-0.1,3.2-0.2,7-0.2C507,54.5,510,54.6,510,54.8z"/>
					</g>
				</g>
			</g>
			<g>
				<g>
					<g>
						<path class="st2" d="M510,52.6c0,0.1-3.2,0.2-7,0.2c-3.9,0-7-0.1-7-0.2s3.2-0.2,7-0.2C507,52.4,510,52.5,510,52.6z"/>
					</g>
				</g>
			</g>
			<g>
				<g>
					<g>
						<path class="st2" d="M503.2,48c-0.1,0-0.2-5.1-0.2-11.4s0.1-11.4,0.2-11.4s0.2,5.1,0.2,11.4C503.6,42.9,503.5,48,503.2,48z"/>
					</g>
				</g>
			</g>
		</g>
		<g>
			<g>
				<g>
					<rect x="510.3" y="24.1" class="st4" width="15.3" height="38.3"/>
				</g>
			</g>
			<g>
				<g>
					<path class="st3" d="M518.3,52.5c-2,0-3.4-1.5-3.4-3.4c0-1,0.5-2.1,1.2-2.6l0.3,0.5c-0.7,0.5-1,1.3-1,2.1
						c0,1.6,1.1,2.7,2.8,2.7s2.8-1.1,2.8-2.7c0-0.8-0.3-1.6-1-2.1l0.3-0.5c0.8,0.6,1.2,1.5,1.2,2.6C521.7,51,520.3,52.5,518.3,52.5z
						"/>
				</g>
				<g>
					<path class="st3" d="M520.8,45.5l-0.6-0.3c0.5-0.6,0.8-1.5,0.8-2.4c0-1.5-0.5-2.1-1.2-2.1c-1.9,0-0.6,4.6-3.2,4.6
						c-1,0-1.8-0.9-1.8-2.6c0-0.9,0.2-1.8,0.7-2.3l0.6,0.3c-0.5,0.6-0.6,1.4-0.6,2.1c0,1.4,0.6,1.9,1.2,1.9c2,0,0.6-4.6,3.2-4.6
						c1.1,0,1.8,0.9,1.8,2.7C521.7,43.9,521.4,44.9,520.8,45.5z"/>
				</g>
				<g>
					<path class="st3" d="M520.8,39.2l-0.6-0.3c0.5-0.6,0.8-1.5,0.8-2.4c0-1.5-0.5-2.1-1.2-2.1c-1.9,0-0.6,4.6-3.2,4.6
						c-1,0-1.8-0.9-1.8-2.6c0-0.9,0.2-1.8,0.7-2.3l0.6,0.3c-0.5,0.6-0.6,1.4-0.6,2.1c0,1.4,0.6,1.9,1.2,1.9c2,0,0.6-4.6,3.2-4.6
						c1.1,0,1.8,0.9,1.8,2.7C521.7,37.6,521.4,38.8,520.8,39.2z"/>
				</g>
			</g>
		</g>
		<g>
			<g>
				<ellipse class="st2" cx="491.4" cy="10.6" rx="2.6" ry="2.6"/>
			</g>
		</g>
		<g>
			<g>
				<rect x="490.6" y="18" class="st2" width="1.6" height="37.2"/>
			</g>
		</g>
	</g>
	<g class="st8">
		<g>
			<path d="M330.1,417.2c-1.5,2.2-2,5.1-0.7,7.4c1.4,2.3,3.2,4.2,3.9,6.9c0.9,4-1.5,8-3.3,11.7c-3.2,6.6-4.7,14.3-3.5,21.6
				c1,7.3,4.8,14.3,10.6,18.9c2.6,1.9,5.9,3.5,9,2.5c3-0.9,4.8-3.9,5.3-7c0.6-3,0.1-6.2-0.2-9.1c-1.7-14.2-1.4-28.6,1-42.6
				c0.5-2.4,0.8-5-0.7-6.9c-0.9-1.1-2.4-1.7-3.9-2.3C342,416.3,335.9,418.3,330.1,417.2"/>
		</g>
	</g>
	<g>
		<g>
			<path class="st9" d="M233.8,218c0,0-0.2-0.2-0.7-0.7s-1-1.1-1.8-1.9c-0.8-0.9-1.7-1.8-2.7-3.2c-1-1.3-2.2-2.7-3.4-4.3
				c-1.1-1.7-2.5-3.5-3.9-5.5c-0.7-1-1.2-2.1-1.9-3.2c-0.3-0.6-0.7-1.1-1-1.7c-0.3-0.6-0.7-1.1-0.9-1.8c-2.6-4.7-5-10.3-6.7-16.3
				s-2.5-12-2.5-17.5c0-1.4,0.1-2.7,0.1-4c0-0.7,0-1.3,0.1-1.9c0.1-0.6,0.1-1.3,0.2-1.8c0.1-1.3,0.2-2.4,0.3-3.4
				c0.2-1.1,0.3-2.2,0.6-3.2c0.3-2.1,0.8-3.8,1.2-5.4c0.2-0.8,0.3-1.5,0.6-2.2c0.2-0.7,0.5-1.3,0.6-1.8c0.3-1,0.7-1.9,0.8-2.5
				c0.2-0.6,0.3-0.9,0.3-0.9s-0.1,0.3-0.2,0.9c-0.2,0.7-0.5,1.5-0.7,2.5c-0.1,0.6-0.3,1.1-0.6,1.8c-0.2,0.7-0.3,1.4-0.6,2.2
				c-0.3,1.6-0.9,3.4-1.1,5.4c-0.1,1-0.3,2.1-0.6,3.2c-0.1,1.1-0.2,2.3-0.3,3.4c-0.1,0.6-0.1,1.3-0.2,1.8c-0.1,0.6,0,1.3-0.1,1.9
				c0,1.3-0.1,2.6-0.1,4c0.1,5.4,0.9,11.3,2.6,17.4s4,11.5,6.6,16.2c0.3,0.6,0.7,1.1,0.9,1.7c0.3,0.6,0.7,1.1,1,1.7
				c0.7,1.1,1.4,2.2,1.9,3.2c1.4,2.1,2.6,3.8,3.7,5.5c1.2,1.6,2.4,3.1,3.4,4.3c1,1.3,1.9,2.3,2.6,3.2c0.7,0.8,1.2,1.5,1.7,2.1
				C233.6,217.8,233.8,218,233.8,218z"/>
		</g>
	</g>
	<g>
		<g>
			<path class="st9" d="M232.7,399.6c0,0-0.1,0.2-0.2,0.5c-0.2,0.3-0.5,0.8-0.8,1.4s-0.8,1.4-1.1,2.2c-0.5,0.9-0.9,1.8-1.4,3
				c-0.2,0.6-0.5,1.1-0.8,1.8c-0.2,0.6-0.5,1.3-0.7,1.9c-0.6,1.4-0.9,2.9-1.4,4.5c-0.8,3.2-1.5,6.6-1.9,10.4
				c-0.3,3.8-0.2,7.3,0,10.6c0.2,1.6,0.3,3.2,0.6,4.6c0.1,0.7,0.2,1.4,0.3,2.1s0.3,1.3,0.5,1.9c0.2,1.3,0.6,2.3,0.9,3.2
				c0.2,0.9,0.6,1.7,0.8,2.4c0.2,0.6,0.3,1.1,0.5,1.5c0.1,0.3,0.1,0.6,0.1,0.6s-0.1-0.1-0.2-0.5c-0.1-0.3-0.3-0.9-0.6-1.5
				c-0.2-0.7-0.6-1.5-0.9-2.4c-0.3-0.9-0.7-1.9-0.9-3.2c-0.1-0.6-0.3-1.3-0.5-1.9c-0.1-0.7-0.2-1.4-0.3-2.1c-0.3-1.5-0.5-3-0.7-4.6
				c-0.2-3.3-0.3-6.9,0-10.6c0.3-3.8,1-7.3,1.9-10.5c0.5-1.6,0.9-3.1,1.5-4.5c0.2-0.7,0.5-1.4,0.8-1.9c0.2-0.6,0.6-1.3,0.8-1.8
				c0.5-1.1,1-2.1,1.5-3s0.9-1.6,1.2-2.2s0.7-1,0.9-1.4C232.4,399.7,232.5,399.6,232.7,399.6z"/>
		</g>
	</g>
	<g>
		<g>
			<path class="st9" d="M569,499.8c0,0.1-104.2,0.2-232.7,0.2s-232.7-0.1-232.7-0.2s104.2-0.2,232.7-0.2
				C464.8,499.4,569,499.5,569,499.8z"/>
		</g>
	</g>
	<path class="st9" d="M378.5,120.7c-0.1,0-0.2,0.1-0.3,0.1l-181.9-1.1c0,0-0.7-0.5-1.6-1.1c-5.2-4.1-2.3-12.6,4.3-12.5l176.5,1.5
		C382.8,107.4,385.1,117.5,378.5,120.7z"/>
	<g>
		<g>
			<path class="st3" d="M197.2,120c-17.3,27.5-16.1,65.8,2.7,92.2c12.6,17.6,31.6,29.5,46.6,45S273,295.7,265,316
				c-8.1,20.6-31.7,29-49.4,42c-19.3,14.2-32.8,36.2-36.9,60c-4.2,23.8,1.1,49.1,14.4,69.1H377c0,0,32.3-62.3-9.2-109.8
				c-41.6-47.5-63.8-48.2-62.2-79.4c1.6-31.1,23.1-41.2,35.3-52.9c12.3-11.7,72.2-39,36.9-125.1L197.2,120L197.2,120z"/>
		</g>
		<g>
			<g>
				<path class="st9" d="M197.2,120c0,0,1,0,3.2,0s5.2,0,9.3,0c8.2,0,20.3,0,35.9,0c31.2,0,76.3,0,132.1-0.1h0.1v0.1
					c2.5,6.5,5,13.1,6.8,20.1s3.4,14.3,3.9,21.9c0.6,7.5,0.3,15.3-1.1,23.1c-1.6,7.8-4.3,15.4-8.3,22.5c-2,3.5-4.3,7-6.9,10.2
					s-5.5,6.3-8.5,9.1s-6.2,5.6-9.7,8.2c-3.3,2.6-6.8,5.1-10.2,7.7c-1.7,1.3-3.3,2.7-4.9,4.2s-3.3,2.9-5,4.2
					c-3.4,2.7-6.8,5.5-10.1,8.5c-6.6,5.9-12,13.4-15.1,21.9c-1.5,4.3-2.5,8.8-2.8,13.4c-0.1,1.1-0.2,2.3-0.3,3.4
					c0,1.1-0.1,2.3,0,3.4c0,2.3,0.2,4.7,0.7,7c0.9,4.6,2.7,8.9,5.6,12.8c2.7,3.9,6,7.2,9.5,10.4c6.9,6.5,14.4,12.7,21.5,19.3
					c7.2,6.6,14.1,13.6,20.7,20.9c3.3,3.7,6.7,7.4,9.5,11.5c3,4,5.5,8.5,7.7,13c4.3,9.1,7,19.2,8,29.5c0.9,10.3,0.2,20.8-1.8,31.1
					c-1,5.1-2.3,10.2-4,15.2c-1.6,5-3.5,9.9-5.8,14.7v0.1H377c-1.5,0-3.1,0-4.8,0c-62.8,0-123.4,0-179.1,0H193l-0.1-0.1
					c-8.7-13.4-14-28.6-15.4-43.9c-1.5-15.3,0.8-30.7,6.4-44.3c5.5-13.7,14-25.7,24.3-35.2c5.1-4.8,10.9-8.7,16.6-12.2
					c5.8-3.7,11.5-7,17-10.6c5.5-3.7,10.7-7.5,15-12.3c4.3-4.7,7.5-10.3,9.3-16.2c1.7-5.9,1.7-12.2,0.7-18.2
					c-1-5.9-3.1-11.5-5.7-16.7c-2.6-5.1-5.8-9.9-9.2-14.3c-3.5-4.3-7.3-8.2-11.2-11.9c-7.8-7.2-15.8-13.6-22.9-20.1
					c-3.6-3.2-7-6.5-10.1-9.9s-5.9-6.9-8.4-10.5c-4.9-7.2-8.3-14.7-10.6-22.1c-2.3-7.3-3.3-14.4-3.6-20.9c-0.1-1.6-0.1-3.2-0.1-4.8
					s0-3.1,0.1-4.6s0.2-3,0.3-4.3c0.1-1.4,0.3-2.7,0.6-4.1c1.6-10.5,4.8-18.3,7.2-23.2c0.6-1.3,1.1-2.4,1.7-3.2
					c0.6-0.9,0.9-1.7,1.4-2.3C196.9,120.6,197.2,120,197.2,120c-0.1,0.1-0.3,0.7-1,1.8c-0.3,0.6-0.8,1.4-1.2,2.3
					c-0.6,0.9-1,1.9-1.6,3.2c-2.4,4.9-5.6,12.7-7.2,23.2c-0.2,1.4-0.5,2.6-0.6,4.1c-0.1,1.4-0.2,2.9-0.3,4.3s-0.1,3-0.1,4.6
					s0,3.2,0.1,4.8c0.2,6.5,1.4,13.6,3.6,20.8c2.3,7.3,5.6,14.9,10.6,21.9c2.4,3.5,5.2,7.1,8.4,10.4c3.2,3.3,6.5,6.6,10.1,9.8
					c7.2,6.5,15.1,12.8,22.9,20.1c3.9,3.7,7.7,7.5,11.2,11.9c3.5,4.3,6.7,9.1,9.3,14.3c2.6,5.1,4.7,10.9,5.7,16.8s1,12.3-0.7,18.3
					c-1.7,6.1-5,11.7-9.3,16.5c-4.3,4.8-9.5,8.7-15,12.5c-5.5,3.7-11.2,7-17,10.6c-5.7,3.7-11.4,7.4-16.5,12.2
					c-10.2,9.4-18.7,21.4-24.2,35c-5.6,13.6-7.8,28.9-6.4,44.1c1.5,15.2,6.6,30.4,15.3,43.6l-0.2-0.1c55.8,0,116.3,0,179.1,0
					c1.6,0,3.3,0,4.8,0l-0.2,0.1c2.3-4.7,4.2-9.6,5.8-14.6c1.6-5,3-10.1,4-15.2c2-10.2,2.7-20.7,1.8-30.8
					c-0.9-10.2-3.5-20.2-7.8-29.4c-2.2-4.6-4.7-8.9-7.6-12.9c-2.8-4.1-6.2-7.8-9.5-11.4c-6.7-7.3-13.5-14.3-20.7-20.9
					c-7-6.6-14.4-12.8-21.5-19.3c-3.5-3.2-6.8-6.6-9.7-10.5c-2.8-3.9-4.8-8.3-5.6-12.9c-0.5-2.3-0.7-4.7-0.7-7c0-1.1,0-2.3,0-3.5
					c0-1.1,0.2-2.3,0.3-3.4c0.3-4.7,1.4-9.1,3-13.5c3.1-8.7,8.6-16.2,15.2-22.2c3.3-3,6.7-5.8,10.1-8.6c1.7-1.4,3.4-2.7,5-4.2
					s3.2-3,4.9-4.2c3.4-2.6,6.9-5.1,10.2-7.7c3.3-2.6,6.6-5.4,9.5-8.2c3.1-2.9,5.9-5.9,8.4-9.1c2.5-3.2,4.9-6.6,6.9-10.1
					c4-7.1,6.7-14.6,8.3-22.3c1.5-7.7,1.7-15.4,1.1-23s-2-14.9-3.9-21.8c-1.8-7-4.3-13.7-6.8-20.1l0.2,0.1
					c-55.8,0-100.9-0.1-132-0.1c-15.6,0-27.7,0-35.9,0c-4.1,0-7.3,0-9.3,0C198.2,120,197.2,120,197.2,120z"/>
			</g>
		</g>
	</g>
	<g>
		<path class="st10" d="M375.2,170.5c27,4.5-15.6,53-39.8,72.2c-14,11.1-29,23.1-35.7,39.8c-7.5,19-1.9,40.2-5.6,59.3
			c-0.6,3.2-5.2,2.6-5.2-0.6c0.2-12.5-0.1-25-2.2-37.2c-3-17.5-9.5-34.7-21.6-47.5c-9.9-10.4-22.8-17.4-33.3-27.2
			c-15.3-14.3-31.1-32.7-32.7-53.7c0,0,29.5-24,45.9-21c19.1,3.5,37.9,33.5,67.6,30C333.4,182.3,343.9,165.3,375.2,170.5z"/>
	</g>
	<g>
		<path class="st10" d="M377.6,430.3c-0.7-6.9-2.5-14.6-8.5-17.8c-3.6-1.9-8.1-1.7-12-0.7c-4,1-7.7,2.9-11.7,4.1
			c-7.7,2.3-16.2,2.1-24-0.8c-7.4-2.7-13.6-7.7-20.4-11.5c-6.8-3.9-14.8-6.7-22.4-4.9c-13.1,3.3-19.9,19.3-32.8,23.1
			c-5.8,1.7-11.9,0.8-17.8-0.6c-5.9-1.4-11.7-3.1-17.7-2.9c-4.7,0.2-9.5,1.8-12.8,5l0,0l-0.1,0.1c-0.6,0.6-1,1.1-1.5,1.7
			c-4,5.4-4.7,12.7-3.4,19.3c1.4,7.4,4.8,14.3,8.5,20.8c4.3,7.8,9.2,15.4,16.4,20.6c8.9,6.4,19.9,1.9,30.7,2.9
			c25.2,2.1,52.3,3.4,77.5,1.4c13.3-1,25.8,0.5,36.3-7.9c7.4-5.8,12.3-14.5,14.5-23.8C378.6,449.5,378.6,439.8,377.6,430.3z"/>
	</g>
	<g>
		<path class="st9" d="M184.5,495.7c0,0-0.5-8.6,10.5-13.3h193.4c0,0,10.1,5.1,11.4,13.1L184.5,495.7z"/>
	</g>
	<g class="st8">
		<g>
			<path d="M355.1,191.2c0.3,0.7-1,2.3-3.6,4.6c-2.6,2.4-6.5,5.6-11.2,9.5c-4.9,3.9-10.8,8.7-18.3,13c-3.7,2.2-8,4.2-12.6,5.8
				c-2.3,0.8-4.7,1.5-7.3,2.1c-2.5,0.6-5.1,0.9-7.8,1c-5.3,0.3-10.8-0.5-15.7-2.2c-4.9-1.7-9-4.1-12.6-6.5s-6.7-4.8-9.7-7.1
				s-5.6-4.6-8-6.6c-9.5-8.3-14.5-14.5-13.6-15.8c1-1.3,7.7,2.6,18.3,9.3c2.6,1.6,5.6,3.4,8.6,5.4c3.1,1.9,6.4,4,9.8,5.9
				s6.9,3.7,10.7,4.9c3.6,1.1,7.5,1.6,11.7,1.4c8.3-0.5,16.4-3.4,23.3-6.7c7-3.4,13.3-7.4,18.7-10.5c5.5-3.1,10.1-5.5,13.5-6.6
				C352.7,190.7,354.8,190.5,355.1,191.2z"/>
		</g>
	</g>
	<g>
		<path class="st10" d="M289.1,364.6c2-0.7,4.4,1.4,4,3.4c-0.3,2.1-3.3,3.2-4.9,1.9c-1.7-1.4-1.2-4.5,0.7-5.3"/>
	</g>
	<g>
		<g>
			<path class="st9" d="M205.4,383.9c0,0,0.1-0.1,0.2-0.3c0.1-0.2,0.3-0.6,0.7-1s0.7-1,1-1.7c0.2-0.3,0.5-0.7,0.7-1s0.6-0.7,0.9-1.1
				c0.7-0.8,1.4-1.7,2.2-2.6s1.8-1.8,2.7-2.9c2-2.1,4.5-4.1,7.4-6.3c5.7-4.3,13.1-8.8,21.1-13.8c4-2.6,8.2-5.4,12.2-8.7
				s7.7-7.1,10.9-11.7c6.1-9.1,8.5-19.8,8.7-29.2c0.2-9.6-1.8-18.1-4.1-24.9c-2.4-6.9-5.1-12-7.2-15.5c-1-1.7-1.8-3.1-2.4-4
				c-0.2-0.5-0.5-0.8-0.7-1c-0.1-0.2-0.2-0.3-0.2-0.3s0.1,0.1,0.2,0.3c0.1,0.2,0.3,0.6,0.7,1c0.6,0.9,1.5,2.2,2.5,3.9
				c2,3.4,4.9,8.7,7.4,15.5c2.4,6.9,4.5,15.4,4.3,25c0,2.4-0.2,4.9-0.6,7.3c-0.3,2.5-0.9,5-1.6,7.5c-1.4,5-3.6,10.1-6.7,14.7
				c-3.2,4.6-7,8.5-11,11.8s-8.2,6.1-12.2,8.7c-8.1,5-15.4,9.4-21.1,13.7c-2.8,2.2-5.3,4.2-7.4,6.2c-1,1-1.9,1.9-2.8,2.9
				c-0.8,0.9-1.5,1.8-2.2,2.6c-0.3,0.3-0.7,0.8-0.9,1.1c-0.2,0.3-0.5,0.7-0.7,1c-0.5,0.7-0.8,1.1-1.1,1.6s-0.6,0.8-0.7,1
				C205.5,383.8,205.4,383.9,205.4,383.9z"/>
		</g>
	</g>
	<g>
		<path class="st9" d="M337.2,429.4c0,0-0.1,0.1-0.2,0.1c-0.2,0.1-0.5,0.2-0.7,0.5c-0.7,0.3-1.5,0.9-2.6,1.6
			c-0.6,0.3-1.2,0.7-1.9,1.1c-0.7,0.3-1.5,0.8-2.4,1.1c-1.7,0.8-3.6,1.8-5.8,2.7c-1.1,0.5-2.3,0.9-3.4,1.5c-1.2,0.5-2.5,0.9-3.9,1.4
			c-2.6,0.9-5.6,1.7-8.5,2.5c-6.1,1.4-12.9,2.4-20.2,2.6c-7.3,0.1-14.2-0.5-20.3-1.6c-3.1-0.7-6-1.1-8.6-2.1
			c-1.4-0.3-2.6-0.7-3.9-1.1c-1.2-0.5-2.4-0.8-3.5-1.3c-2.3-0.7-4.2-1.7-5.9-2.4c-0.9-0.3-1.7-0.7-2.4-1s-1.4-0.7-1.9-1
			c-1.1-0.6-2-1.1-2.7-1.5c-0.2-0.1-0.5-0.3-0.7-0.3c-0.1-0.1-0.2-0.1-0.2-0.1s0.1,0,0.2,0.1c0.2,0.1,0.5,0.2,0.7,0.3
			c0.7,0.3,1.6,0.8,2.7,1.4c0.6,0.3,1.2,0.7,1.9,1s1.6,0.7,2.4,1c1.7,0.7,3.6,1.6,5.9,2.3c1.1,0.3,2.3,0.8,3.5,1.3
			c1.2,0.5,2.5,0.7,3.9,1.1c2.6,0.8,5.6,1.4,8.6,1.9c6.1,1,13.1,1.6,20.2,1.5c7.2-0.2,14-1.3,20.1-2.5c3.1-0.8,5.9-1.5,8.5-2.4
			c1.4-0.5,2.6-0.8,3.9-1.3c1.2-0.5,2.4-0.9,3.4-1.4c2.3-0.8,4.1-1.8,5.8-2.6c0.8-0.5,1.6-0.8,2.4-1.1c0.7-0.3,1.4-0.8,1.9-1.1
			c1.1-0.7,2-1.1,2.6-1.5c0.2-0.1,0.6-0.2,0.7-0.3C337.2,429.5,337.2,429.4,337.2,429.4z"/>
	</g>
	<g>
		<path class="st9" d="M348.4,198.4c0,0-0.1,0.1-0.2,0.2c-0.2,0.1-0.5,0.3-0.7,0.6c-0.7,0.6-1.6,1.3-2.7,2.2
			c-2.4,1.9-5.9,4.7-10.2,8c-4.4,3.3-9.8,7.2-16,10.7c-3.2,1.7-6.6,3.5-10.3,4.8c-3.7,1.4-7.7,2.4-11.9,2.7
			c-8.4,0.6-16.5-1.6-22.9-4.8c-3.3-1.6-6.1-3.5-8.9-5.4c-2.6-1.8-5-3.7-7.2-5.5c-4.3-3.4-7.6-6.4-10-8.5c-1.1-1-2-1.8-2.6-2.3
			c-0.2-0.2-0.5-0.5-0.7-0.6c-0.1-0.1-0.2-0.2-0.2-0.2s0.1,0,0.2,0.2c0.2,0.1,0.5,0.3,0.7,0.6c0.7,0.6,1.6,1.3,2.7,2.3
			c2.4,1.9,5.8,4.8,10,8.2c2.2,1.7,4.5,3.5,7.2,5.4s5.6,3.7,8.9,5.3c6.5,3.2,14.3,5.3,22.6,4.7c4.1-0.3,8.1-1.4,11.8-2.6
			s7-3.1,10.2-4.8c6.4-3.5,11.7-7.3,16-10.6c4.4-3.3,8-6.1,10.3-7.9c1.2-0.9,2.2-1.6,2.8-2.2c0.3-0.2,0.6-0.5,0.8-0.6
			C348.4,198.4,348.4,198.4,348.4,198.4z"/>
	</g>
	<g>
		<path d="M251.2,438.6c5.1-4,12.3-3,18.6-1.7c6.4,1.4,12.7,3.5,19.1,2.6c4.8-0.7,9.2-3.1,14-4.1s10.6-0.2,13.2,3.9
			C295.1,446.2,272,446,251.2,438.6"/>
	</g>
	<path class="st11" d="M143.5,355.8c-0.1-0.1-0.1-0.3,0-0.3c0.1-0.1,0.3-0.1,0.3,0c0.1,0.1,26,27-3.7,57c-0.1,0.1-0.3,0.1-0.3,0
		s-0.1-0.3,0-0.3C169.2,382.4,143.6,355.9,143.5,355.8z"/>
	<path class="st12" d="M141.1,314.8c-13.9,11.7-7.2,32.9,4.1,44.2c12.9,13,17.7,33.8-5.3,49.7s12.7,29.1,26.6,11.5
		c13.9-17.6,19-60.4,18.1-71.1c-1-10.6-0.6-15.3-8.5-19.9C168,324.6,141.1,314.8,141.1,314.8z"/>
	<path class="st13" d="M106.6,389.9c0,0-2-2.6-2.4-3.1c-0.5-0.5-3.1-0.5-4.7-0.6s-1.9,1.4-1.9,1.9s-0.1,1.4-0.1,1.4
		s-9.2,0.8-9.8,0.9c-0.7,0.1-1.6,2.7-1.7,3.2c-0.2,0.6,0.1,1.7,0.8,1.7s1.6-0.3,1.8-0.8c0.2-0.5,0.6,0.1,0.6,0.1s-0.7,1.1-0.8,2.1
		c0,0.8,0.1,1.3,0.8,1.6c0.7,0.3,1.7,0.5,1.7,0.5s0,1.4,0.2,1.9c0.2,0.6,0.3,0.8,1.4,1c1,0.3,4.8,1.1,4.8,1.1L106.6,389.9z"/>
	<path class="st14" d="M90.9,399.1c-0.1,0-0.2-0.1-0.2-0.2s0.1-0.2,0.2-0.2l1.8,0.3c0.1,0,0.2,0.1,0.2,0.2s-0.1,0.2-0.2,0.2
		L90.9,399.1z"/>
	<path class="st15" d="M187.3,480.2c0,0-2.4,18.5-17.7,18.5s-10.9,0-17.3,0s-21-16.5-32.3-30.7c-11.2-14.3-16.6-24.5-16.6-24.5
		c-2.7,4.7-31.7,28-38.5,34.2c-1.4,1.1-7.2,8-8.2,8c0,0-7.7,0.6-13.4-3.5c0,0,1.8-7.9,2.3-8.3c17.3-21.7,36.6-46.3,46.1-56
		s19.3-4.3,41.5,11.4C155.3,445,187.3,480.2,187.3,480.2z"/>
	<path class="st11" d="M84.1,384.7l0.6-0.6c0.5-0.5,1.1-0.5,1.6-0.1l16.6,15.5c0.5,0.5,0.5,1.1,0.1,1.6l-0.6,0.6
		c-0.5,0.5-1.1,0.5-1.6,0.1l-16.6-15.5C83.7,386,83.6,385.2,84.1,384.7z"/>
	<path class="st16" d="M119.5,398.8c0,0-2-0.9-2.7-1.4s-6.1-7.3-6.8-7.7c-0.7-0.3-5.6-0.8-6.2-0.8s-1.7,0.7-2,1.4
		c-0.3,0.8-0.9,2.9-0.9,2.9s-7,0.2-9.1,0.2l-2-1.9c0,0-0.8,0.2-1,0.7c-0.3,0.5-0.3,1.7-0.2,2.4c0,0.7,1.2,2.3,1.6,2.6
		s1.1,0.6,1.8,0.7c0,0,0,1.6,1.2,2.1c1.2,0.6,2.8,1.3,2.8,1.3s0.1,1.3,1,1.9s3.4,2.5,3.4,2.5s0.9,0.3,1.5,0.3c0,0,0.7,1.5,1.8,1.9
		c1.1,0.5,5.3,2.3,5.9,2.5c0.6,0.1,2.8-0.2,5.1,1s2.5,1.4,2.5,1.4l4.2-11.7L119.5,398.8z"/>
	<path class="st17" d="M45.7,497c0,0-34.2,0.8-35.6-1.6c0,0,0-1.9,0-3.3c0-1.3,1.6-3.2,5.8-4.5s13.3-3.7,16.1-4.5
		c2.8-0.9,10.8-9.6,11.9-10.7c1.1-1,6.5,2.4,7.6,3s0.3,1.9-0.2,3.7C50.8,480.7,45.7,497,45.7,497z"/>
	<path class="st18" d="M10.1,498.7h54.8c0.7,0,1.1-0.3,1.1-0.7v-1.9c0-0.3-0.6-0.7-1.1-0.7H10.1c-0.7,0-1.1,0.3-1.1,0.7v1.9
		C9,498.4,9.6,498.7,10.1,498.7z"/>
	<path class="st19" d="M10.1,498.7h18.6c0.7,0,1.1-0.3,1.1-0.7v-1.9c0-0.3-0.6-0.7-1.1-0.7H10.1c-0.7,0-1.1,0.3-1.1,0.7v1.9
		C9,498.4,9.6,498.7,10.1,498.7z"/>
	<path class="st20" d="M34.3,484.3c0.2,0.6,1.9,3.4,0.7,4.1c-1.1,0.7-5,3.2-7,3.2c-2.2,0-6.6,0-12.3,0c-5.6,0-4.3-1.7-4.3-1.7
		c-0.9,0.8-1.2,1.6-1.2,2.2c0,1.4,0,3.3,0,3.3H65c0,0,2.3-2.4,2.3-7.9s0.3-8.7-0.6-9.6s-1.6-0.5-1.6-0.5c-4.2,3.2-9.4,0.9-12-0.3
		c-0.3-0.1-0.6-0.2-0.8-0.5c-2.2-1.1-3.5-2.2-5.5-1.1c-2.2,1-9.8,5.8-11,6.5C34.3,482.9,34.2,483.8,34.3,484.3z"/>
	<path class="st21" d="M10.1,492.9v2.5h54.8c0,0,2.3-2.4,2.3-7.9s0.3-8.7-0.6-9.6c0.1,1.7-0.9,3.8-2.8,3.8s-6.9,0-10.9,0
		s-4.8,1.8-4.8,1.8s-2,3.4-3.5,5.9s-3.9,4.1-5.7,4.1s-23.4,0-26.4,0C11.4,493.7,10.6,493.4,10.1,492.9z"/>
	<path class="st22" d="M46,476.9c0.2,0.1,0.5,0.1,0.7-0.1c0.1-0.2,0-0.5-0.2-0.6l-3.4-2.3l-0.1-0.5l-0.8,0.8l0.1,0.1l1.4,3.5
		c0.1,0.2,0.3,0.3,0.6,0.3s0.3-0.2,0.2-0.5l-1-2.5L46,476.9L46,476.9z M36.1,480.3c0.2-0.2,0.5-0.5,0.7-0.6l1,2.5
		c0.1,0.2,0,0.5-0.2,0.5s-0.5-0.1-0.6-0.3L36.1,480.3L36.1,480.3z M36.8,479.7l2.4,1.6c0.2,0.1,0.5,0.1,0.7-0.1
		c0.1-0.2,0-0.5-0.2-0.6l-2.3-1.5C37.3,479.3,37.1,479.5,36.8,479.7L36.8,479.7z M39.2,477.4c0.3-0.3,0.6-0.6,0.9-0.9l3,1.9
		c0.2,0.1,0.3,0.5,0.2,0.6c-0.1,0.2-0.5,0.2-0.7,0.1l-2.5-1.6l1,2.5c0.1,0.2,0,0.5-0.2,0.5s-0.5-0.1-0.6-0.3L39.2,477.4z"/>
	<path class="st23" d="M124.5,400.6l-3.5-2.1c0,0-0.8-0.2-1.2,0.1c0,0-0.9,9.1-5.1,12.6c0,0-0.1,0.6,0.2,0.9c0.3,0.3,4.1,3,4.1,3
		s1.6,0.3,3.1-0.7c1.5-0.9,4.8-7.4,4.8-8.2C126.7,405.4,124.5,400.6,124.5,400.6z"/>
	<path class="st24" d="M197,480.2c0,0-2.4,18.5-17.7,18.5s-10.9,0-17.3,0c-6.4,0-21-16.5-32.3-30.7c-11.2-14.3-16.6-24.5-16.6-24.5
		c-2.7,4.7-31.7,28-38.5,34.2c-1.4,1.1-7.2,8-8.2,8c0,0-7.7,0.6-13.4-3.5c0,0,1.8-7.9,2.3-8.3c17.3-21.7,36.6-46.3,46.1-56
		s19.3-4.3,41.5,11.4S197,480.2,197,480.2z"/>
	<path class="st23" d="M163.5,386.7l-1.5-1.3c0,0-8.4,18.3-10.1,28.7c-1.8,10.4,6,9.3,6,9.3s5.6-3.3,5.8-7.4
		C163.8,411.7,163.5,386.7,163.5,386.7z"/>
	<path class="st16" d="M172.1,324.5c0,0,8.2,13,20.6,18.4c0,0,1.4,9-4.8,12.9c-6.1,3.9-15.6,0.7-15.6,0.7l-6.2-9.3L172.1,324.5z"/>
	<path class="st13" d="M167.6,349.4l-1-1.5c0.8-3.4,2.3-9.5,2.3-9.9c0-0.6,3.9-6.3,3.9-6.3l3.2,0.1l-0.1,12.6L167.6,349.4z"/>
	<path class="st25" d="M202.4,365.4c0,0,23.6,42.4,2.4,106c0,0-2.3,5.7-1.9,10.4c0.3,4.8-15.9,7.3-23.2-5.4
		c-7.3-12.7-2.4-12.2-10.3-20.1c-8-7.9-20.6-17.6-20.6-17.6s3.4-6.3,10.2-7.4c0,0,0-4,2.3-4.8c0,0-3.7-13.7-3.5-23.1
		c0.3-9.4,5.6-25.5,14.7-37.4c0,0,1.1-3.5-0.3-6.2c-1.4-2.6-1.6-3.8-0.9-5c0,0,2.6,0,4.9-1.6s7.7-1.8,7.7-1.8L202.4,365.4z"/>
	<path class="st23" d="M194.8,485.7c-5.1-0.1-11.4-2.6-15.1-9.3c-7.3-12.7-2.4-12.2-10.3-20.1c-8-7.9-20.6-17.6-20.6-17.6
		s3.4-6.3,10.2-7.4c0,0,0-4,2.3-4.8v-0.2l17.8,6.3l19-28l3.1,8.6c0,0-12.8,39.6-15.6,48C183.1,468.8,182.7,479.7,194.8,485.7z"/>
	<path class="st25" d="M174,387.9c-4.2,15.3-3.1,31.8-3.1,31.8s-1.5-0.9-1.6,1.4c-6.8-7.7-21.8-6.3-35.9-20.6
		c-2.7-2.7-8.9,0.1-8.9,0.1s1.5,8.2-5.6,14.5c0,0-2.4,8.7,11.4,16.3c13.7,7.8,28.2,9.9,36.2,15.7c8,5.7,14.4,4.6,19.2-0.5
		c4.8-5,20.8-40.7,19-54C201.4,370.4,178.2,372.6,174,387.9z"/>
	<path class="st22" d="M171.8,400c-0.2,1.5-0.3,3.1-0.5,4.5c5.7,0.7,17.7,2.7,29.9,8.3c0.5-1.5,0.9-3,1.2-4.3
		C189.9,402.9,177.6,400.8,171.8,400L171.8,400z M171,408.6c6.1,0.9,17.5,3,29,8.1c-0.5,1.4-1,2.9-1.6,4.2
		c-10.8-4.8-21.5-7-27.5-7.8C170.9,411.8,171,410.3,171,408.6z"/>
	<path class="st16" d="M142.9,314.9c0,0-4.3,3.9-1.4,12c3,8.1,5.2,11.4,2.3,15.1c0,0-0.3,0.7,0.1,1.1c0.6,0.5,2.4,1.1,3.5,1.7
		c1,0.6,4.9,6.4,7.3,8.2s7.5,0.3,11.9-4.7c4.3-5.1,7.7-17.6,6.2-22.6C171.4,320.7,151.6,313,142.9,314.9z"/>
	<path class="st26" d="M161.1,326.6c0,0-8.3,3.1-15.7-1.7c-7.4-4.8-10.1-11.9-3.7-18.2c6.4-6.3,21.6-14.4,34.4-5.1
		c12.9,9.3,6.7,23.3,25.9,31.4c10.1,4.3,18.1,7.3,23.2,12.8c27.6,29.8-26,73.7-44.8,33.8C168.1,353.6,182.2,332,161.1,326.6z"/>
	<path class="st20" d="M55.5,497c0,0-34.2,0.8-35.6-1.6c0,0,0-1.9,0-3.3c0-1.3,1.6-3.2,5.8-4.5s13.3-3.7,16.1-4.5
		c2.8-0.9,10.8-9.6,11.9-10.7c1.1-1,6.5,2.4,7.6,3s0.3,1.9-0.2,3.7C60.6,480.7,55.5,497,55.5,497z"/>
	<path class="st27" d="M19.9,498.7h54.8c0.7,0,1.1-0.3,1.1-0.7v-1.9c0-0.3-0.6-0.7-1.1-0.7H19.9c-0.7,0-1.1,0.3-1.1,0.7v1.9
		C18.8,498.4,19.2,498.7,19.9,498.7z"/>
	<path class="st22" d="M19.9,498.7h18.6c0.7,0,1.1-0.3,1.1-0.7v-1.9c0-0.3-0.6-0.7-1.1-0.7H19.9c-0.7,0-1.1,0.3-1.1,0.7v1.9
		C18.8,498.4,19.2,498.7,19.9,498.7z"/>
	<path class="st17" d="M44.1,484.3c0.2,0.6,1.9,3.4,0.7,4.1c-1.1,0.7-5,3.2-7,3.2c-2.2,0-6.6,0-12.3,0c-5.6,0-4.3-1.7-4.3-1.7
		c-0.9,0.8-1.2,1.6-1.2,2.2c0,1.4,0,3.3,0,3.3h54.8c0,0,2.3-2.4,2.3-7.9s0.3-8.7-0.6-9.6s-1.6-0.5-1.6-0.5c-4.2,3.2-9.4,0.9-12-0.3
		c-0.3-0.1-0.6-0.2-0.8-0.5c-2.2-1.1-3.5-2.2-5.5-1.1c-2.2,1-9.8,5.8-11,6.5C44.1,482.9,43.9,483.8,44.1,484.3z"/>
	<path class="st28" d="M19.9,492.9v2.5h54.8c0,0,2.3-2.4,2.3-7.9s0.3-8.7-0.6-9.6c0.1,1.7-0.9,3.8-2.8,3.8s-6.9,0-10.9,0
		s-4.8,1.8-4.8,1.8s-2,3.4-3.5,5.9s-3.9,4.1-5.7,4.1s-23.4,0-26.4,0C21,493.7,20.4,493.4,19.9,492.9z"/>
	<path class="st22" d="M55.8,476.9c0.2,0.1,0.5,0.1,0.7-0.1c0.1-0.2,0-0.5-0.2-0.6l-3.4-2.3l-0.1-0.5l-0.8,0.8l0.1,0.1l1.4,3.5
		c0.1,0.2,0.3,0.3,0.6,0.3s0.3-0.2,0.2-0.5l-1-2.5L55.8,476.9L55.8,476.9z M45.8,480.3c0.2-0.2,0.5-0.5,0.7-0.6l1,2.5
		c0.1,0.2,0,0.5-0.2,0.5s-0.5-0.1-0.6-0.3L45.8,480.3L45.8,480.3z M46.6,479.7l2.4,1.6c0.2,0.1,0.5,0.1,0.7-0.1
		c0.1-0.2,0-0.5-0.2-0.6l-2.3-1.5C46.9,479.3,46.8,479.5,46.6,479.7L46.6,479.7z M49,477.4c0.3-0.3,0.6-0.6,0.9-0.9l3,1.9
		c0.2,0.1,0.3,0.5,0.2,0.6c-0.1,0.2-0.5,0.2-0.7,0.1l-2.5-1.6l1,2.5c0.1,0.2,0,0.5-0.2,0.5s-0.5-0.1-0.6-0.3L49,477.4z"/>
	<path class="st14" d="M97.3,389.4c0-0.1,0.1-0.2,0.2-0.2s0.2,0.1,0.2,0.2c0,0-0.1,1.1-0.2,1.5c0,0.1,0,0.3,0.1,0.6
		c0.1,0.1,0.2,0.2,0.6,0.3c0.1,0,0.2,0,0.3,0c0.5,0,1-0.2,1.6-0.7s1-1,1.2-1.9c0.1-0.5,0.1-0.9,0.1-1.5c0-0.1,0.1-0.2,0.2-0.2
		s0.2,0.1,0.2,0.2c0,0.6,0,1.1-0.1,1.6c-0.2,1-0.8,1.8-1.4,2.3c-0.7,0.5-1.4,0.7-1.8,0.7c-0.2,0-0.3,0-0.5,0
		c-0.3-0.1-0.6-0.2-0.8-0.5c-0.2-0.3-0.2-0.6-0.2-0.9C97,390.7,97.3,389.4,97.3,389.4z"/>
	<path class="st14" d="M101.5,390c-0.1,0-0.2,0-0.2-0.1s0-0.2,0.1-0.2c0,0,0.8-0.2,1-1.1c0-0.1,0.1-0.2,0.2-0.1
		c0.1,0,0.2,0.1,0.1,0.2C102.5,389.7,101.5,390,101.5,390z"/>
	<path class="st13" d="M100.8,393.4c-0.1,0-0.2-0.1-0.2-0.2s0.1-0.2,0.2-0.2h5c0.1,0,0.2,0.1,0.2,0.2s-0.1,0.2-0.2,0.2H100.8z"/>
	<path class="st13" d="M103.8,392.9c0.1,0,0.2,0.2,0.1,0.3c0,0.1-0.2,0.2-0.3,0.1c0,0-1.1-0.5-1.5-1.6c0-0.1,0-0.2,0.1-0.2
		s0.2,0,0.2,0.1C102.9,392.6,103.8,392.9,103.8,392.9z"/>
	<path class="st13" d="M91.6,398c-0.1,0-0.2-0.1-0.2-0.2s0.1-0.2,0.2-0.2l5.3,0.5c0.1,0,0.2,0.1,0.2,0.2s-0.1,0.2-0.2,0.2L91.6,398z
		"/>
	<path class="st13" d="M95.6,401.3c-0.1,0-0.1-0.2-0.1-0.3c0-0.1,0.2-0.1,0.3-0.1l3,1.3c0.1,0,0.1,0.2,0.1,0.3
		c0,0.1-0.2,0.1-0.3,0.1L95.6,401.3z"/>
	<path class="st13" d="M101.6,406c-0.1,0-0.2-0.1-0.2-0.2s0.1-0.2,0.2-0.2h1.1c0.1,0,0.2,0.1,0.2,0.2s-0.1,0.2-0.2,0.2H101.6z"/>
	<path class="st29" d="M86.5,386.5l0.1-0.1c0.1-0.1,0.2-0.1,0.3,0l3.9,3.7c0.1,0.1,0.1,0.2,0,0.3l-0.1,0.1c-0.1,0.1-0.2,0.1-0.3,0
		l-3.9-3.7C86.4,386.8,86.4,386.7,86.5,386.5z"/>
	<path class="st11" d="M176.3,469c0.1,0,0.2,0.2,0.2,0.3c0,0.1-0.2,0.2-0.3,0.2c-0.8-0.2-1.6-0.6-2.4-1c-0.8-0.5-1.6-0.9-2.4-1.6
		c-9.9-7.5-49.5-39.4-50.1-39.9c-0.3-0.2-5.3-2.9-9.9,0.3c-4.9,3.4-43.8,47.1-44,47.2c-0.1,0.1-0.2,0.1-0.3,0s-0.1-0.2,0-0.3
		c0.1-0.1,39.2-43.9,44.1-47.3s10.1-0.6,10.5-0.3l0,0c0.1,0.1,40.2,32.3,50.1,39.9c0.8,0.6,1.6,1.1,2.3,1.5
		C174.8,468.5,175.5,468.8,176.3,469z"/>
	<path class="st11" d="M59.4,468.8c-0.1-0.1-0.1-0.2-0.1-0.3c0.1-0.1,0.2-0.1,0.3-0.1c0,0,9.5,6.3,12.2,10.6c0.1,0.1,0,0.3-0.1,0.3
		c-0.1,0.1-0.3,0-0.3-0.1C68.9,475,59.4,468.8,59.4,468.8z"/>
	<path class="st11" d="M113.4,444.2c-0.1,0.1-0.2,0.2-0.3,0.1s-0.2-0.2-0.1-0.3c0,0,1.4-3.2,1.4-6.6c0-0.1,0.1-0.2,0.2-0.2
		s0.2,0.1,0.2,0.2C114.8,440.9,113.4,444.2,113.4,444.2z"/>
	<path class="st23" d="M118.7,415.1c0-0.1,0.2-0.2,0.3-0.2c0.1,0,0.2,0.2,0.2,0.3c0,0-2.3,8.5,11.2,16.1c6.9,3.9,14,6.4,20.3,8.6
		c6.4,2.3,11.9,4.2,15.9,7.1c3.7,2.6,7.2,3.9,10.2,3.8c3.3-0.1,6.1-1.6,8.6-4.2s8.3-14.1,12.7-26.2c3.3-8.9,6-18.1,6.2-24.5
		c0-0.1,0.1-0.2,0.3-0.2c0.1,0,0.2,0.1,0.2,0.3c-0.2,6.5-2.8,15.8-6.2,24.7c-4.5,12.1-10.3,23.5-12.8,26.3c-2.5,2.7-5.6,4.2-9,4.3
		c-3.2,0.1-6.7-1.1-10.6-3.9c-4-2.7-9.5-4.8-15.8-7c-6.4-2.3-13.5-4.8-20.4-8.7C116.2,423.9,118.6,415.1,118.7,415.1L118.7,415.1z
		 M171.3,419.5c-0.1-1.4-0.9-16.9,3.1-31.5c0-0.1,0-0.3-0.2-0.3c-0.1,0-0.3,0-0.3,0.2c-3.7,13.9-3.3,28.7-3.2,31.4
		c-0.5-0.1-1.2-0.1-1.5,1.1c-3-3-7.3-4.6-12.3-6.4c-6.9-2.5-15.3-5.6-23.3-13.7c-2.8-3-9.2,0.1-9.2,0.1c-0.1,0.1-0.2,0.2-0.1,0.3
		c0.1,0.1,0.2,0.2,0.3,0.1c0,0,5.9-2.9,8.5-0.2c8.1,8.2,16.5,11.3,23.5,13.8c5.2,1.9,9.5,3.5,12.4,6.7c0.1,0.1,0.6,0.9,0.8,2.1
		c0,0.1,0.2,0.2,0.3,0.2s0.2-0.2,0.2-0.3c-0.2-1-0.7-1.9-0.9-2.2c0.1-1.5,1-1.1,1.1-1.1c0.1,0.2,0.8,0.9,0.9,1.4
		c0,0.1,0.2,0.2,0.3,0.2s0.2-0.2,0.2-0.3C172.1,420.5,171.4,419.7,171.3,419.5z"/>
	<path class="st13" d="M154.6,335.5c-1.8,0.6-2.7,2.5-2.2,4.3c0.6,1.8,2.5,2.7,4.3,2.2c1.8-0.6,2.7-2.5,2.2-4.3
		C158.3,335.8,156.4,334.8,154.6,335.5z"/>
	<path class="st11" d="M149.7,329.2c-1.2-0.1-2.5,0.2-3.3,1.1c-0.2,0.2-0.6,0.2-0.8,0.1c-0.2-0.2-0.2-0.6-0.1-0.8
		c1-1.3,2.7-1.7,4.3-1.6c0.3,0,0.5,0.3,0.5,0.6C150.3,329.1,150.1,329.3,149.7,329.2z"/>
	<path class="st11" d="M148.8,332.2L148.8,332.2c0.3-0.1,0.6-0.1,0.8,0c0.1,0,0.2-0.1,0.2-0.3c0-0.1,0.1-0.2,0.2-0.2
		s0.2,0.1,0.2,0.2c0,0.2-0.1,0.3-0.2,0.5l0,0c0.1-0.1,0.3-0.2,0.3-0.5c0-0.1,0.1-0.1,0.2-0.1c0.1,0,0.1,0.1,0.1,0.2
		c-0.1,0.2-0.2,0.5-0.5,0.6l0,0c0.2-0.1,0.3-0.2,0.5-0.3c0.1-0.1,0.2-0.1,0.2,0c0.1,0.1,0.1,0.2,0,0.2c-0.1,0.2-0.3,0.3-0.5,0.5
		l-0.2,0.1l0.5,1.5c0.2,0.7-0.1,1.4-0.8,1.6l0,0c-0.7,0.2-1.4-0.1-1.6-0.8l-0.6-1.6C147.8,333.2,148.1,332.4,148.8,332.2z"/>
	<path class="st16" d="M160.4,328.2c0.5-9.5,12.9-1.7,5.9,5.8C166.2,334.1,161.2,333.6,160.4,328.2z"/>
	<path class="st13" d="M160.6,328.2c0,0.1-0.1,0.2-0.3,0.2c-0.1,0-0.2-0.1-0.2-0.3c0.1-2.4,1-3.8,2.2-4.3c1-0.5,2.3-0.3,3.4,0.2
		c1.1,0.6,2,1.6,2.6,2.9c0.8,2.1,0.7,4.7-1.8,7.3c-0.1,0.1-0.2,0.1-0.3,0s-0.1-0.2,0-0.3c2.3-2.4,2.5-4.8,1.7-6.6
		c-0.5-1.1-1.4-2.1-2.4-2.6c-0.9-0.6-2-0.7-2.8-0.2C161.6,324.8,160.8,326,160.6,328.2z"/>
	<path class="st29" d="M182.8,310.5c-0.1-0.1,0-0.3,0.1-0.3c0.1-0.1,0.3,0,0.3,0.1c0,0,5.3,12.9,13.5,18.2c2.6,1.7,5.8,3.2,9,4.7
		c6.7,3.2,13.4,6.3,15.2,11.2c0,0.1,0,0.3-0.1,0.3s-0.3,0-0.3-0.1c-1.8-4.7-8.3-7.8-15-10.9c-3.2-1.5-6.4-3-9-4.7
		C188.1,323.6,182.8,310.6,182.8,310.5z"/>
	<path class="st26" d="M139.7,309.1c0.6-0.8,1.1-1.6,1.9-2.3c1.2-1.3,3-2.6,4.8-3.8c11.1,12.7,27.5,11.1,37.6,8.5
		c0.3,0.7,0.6,1.4,0.9,1.9C156.8,324,144.5,315.1,139.7,309.1z"/>
	<g>
		<g>
			<g>
				<g>
					<g>
						<path class="st30" d="M105.2,146.3c0,0-0.3-0.1-1.1-0.1c-0.8-0.1-1.9-0.1-3.4-0.2c-0.8,0-1.6-0.1-2.5-0.1s-1.9,0-3.1,0
							s-2.3,0-3.5,0.1s-2.6,0.2-4,0.3c-5.6,0.7-12.5,1.9-19.8,4.9s-14.9,7.5-21.5,14.1c-0.8,0.8-1.6,1.7-2.4,2.5
							c-0.8,0.9-1.5,1.8-2.2,2.7c-1.6,1.8-2.7,3.9-4,5.9c-2.3,4.2-4.3,8.8-5.2,13.7c-0.7,2.4-0.8,5-1,7.5c-0.1,1.3,0,2.6,0,3.9v1.9
							c0.1,0.7,0.2,1.4,0.2,1.9c0.6,5.4,2.4,10.7,5,15.9c5.2,10.4,15.1,19.9,27.8,26c6.4,3.1,13.6,5.3,21,6.3
							c7.5,1.3,15.3,1.1,22.9,0.1c1-0.1,1.9-0.3,3-0.5l-0.5-0.1c10.2,5.6,20.2,11.2,29.9,16.5l1,0.6l-0.2-1
							c-2.2-8.8-4.1-17.4-6.1-25.5l-0.2,0.5c9.1-5.6,16.1-12.9,20.6-20.8c2.2-3.9,3.7-8,4.8-12.1c0.5-2.1,0.9-4,1-6.1
							c0.1-1,0.2-2.1,0.2-3c0.1-1,0-1.9,0-3c-0.2-7.9-2.4-15.2-5.8-21.4c-3.4-6.3-8-11.4-12.7-15.5c-4.8-4.2-10-7.1-14.5-9.4
							c-4.8-2.2-9-3.7-12.6-4.6c-1.8-0.5-3.4-0.8-4.8-1.1c-1.4-0.2-2.6-0.3-3.5-0.6c-0.9-0.1-1.7-0.2-2.2-0.3
							C105.4,146.3,105.2,146.3,105.2,146.3s0.2,0.1,0.7,0.1c0.6,0.1,1.2,0.2,2.2,0.3c0.9,0.1,2.2,0.3,3.5,0.6
							c1.4,0.3,3,0.7,4.8,1.1c3.5,0.9,7.8,2.4,12.5,4.7c4.5,2.4,9.7,5.3,14.3,9.4c4.7,4.1,9.2,9.3,12.5,15.5s5.5,13.4,5.7,21.1
							c0,0.9,0.1,1.9,0,3c-0.1,1-0.2,1.9-0.3,3c-0.1,1.9-0.5,4-1,5.9c-1,4-2.6,8-4.8,11.9c-4.4,7.8-11.2,15-20.3,20.5l-0.2,0.1
							l0.1,0.2c1.9,8.2,4,16.7,6,25.5l0.8-0.5c-9.7-5.4-19.7-10.9-29.9-16.5l-0.2-0.1h-0.2c-0.9,0.2-1.9,0.3-3,0.5
							c-7.5,1.1-15.2,1.1-22.6-0.1c-7.4-1.1-14.4-3.1-20.8-6.2c-12.6-6.1-22.3-15.3-27.5-25.6c-2.6-5.1-4.4-10.4-5-15.7
							c-0.1-0.7-0.2-1.3-0.2-1.9v-1.9c0-1.3-0.1-2.6,0-3.9c0.2-2.5,0.3-5,1-7.4c0.9-4.9,3-9.4,5.1-13.6c1.2-2.1,2.4-4.1,4-5.8
							c0.7-0.9,1.4-1.8,2.2-2.7c0.8-0.8,1.6-1.7,2.4-2.5c6.4-6.5,14-11.1,21.1-13.9c7.2-3,14-4.3,19.5-5c1.4-0.1,2.7-0.2,4-0.5
							c1.2-0.1,2.4-0.1,3.5-0.1s2,0,3.1-0.1c0.9,0,1.7,0.1,2.5,0.1c1.5,0.1,2.6,0.1,3.4,0.2C104.9,146.3,105.2,146.3,105.2,146.3z"
							/>
					</g>
				</g>
			</g>
		</g>
	</g>
	<g>
		<g>
			<g>
				<g>
					<g>
						<path class="st30" d="M456.5,141.5c0,0,0.5-0.1,1.2-0.1c0.8-0.1,2-0.2,3.5-0.3c0.8,0,1.7-0.2,2.6-0.2c1,0,2,0,3.2,0
							c1.1,0,2.4,0,3.6,0.1c1.4,0.1,2.7,0.2,4.2,0.5c5.9,0.7,13.1,2.1,20.7,5.4c7.6,3.2,15.6,8.2,22.4,15.3c0.8,0.9,1.7,1.8,2.5,2.7
							s1.5,1.9,2.3,3c1.6,1.9,2.8,4.2,4.2,6.5c2.4,4.6,4.5,9.6,5.5,15c0.7,2.6,0.8,5.5,1.1,8.2c0.1,1.4,0,2.9,0,4.2v2.2
							c-0.1,0.7-0.2,1.5-0.2,2.2c-0.6,5.8-2.5,11.7-5.2,17.4c-5.5,11.4-15.7,21.6-29.1,28.3c-6.6,3.4-14.2,5.7-21.9,6.9
							c-7.8,1.4-16,1.3-24,0.1c-1-0.1-2-0.3-3.1-0.6l0.5-0.1c-10.7,6.2-21,12.1-31.1,17.9l-1.1,0.7l0.2-1.1
							c2.2-9.6,4.3-18.9,6.4-27.8l0.2,0.5c-9.5-6.1-16.8-14.1-21.5-22.6c-2.3-4.3-4-8.7-5-13.1c-0.6-2.2-0.9-4.5-1-6.6
							c-0.1-1.1-0.2-2.2-0.3-3.3c-0.1-1,0-2.2,0-3.2c0.2-8.6,2.5-16.6,6-23.3c3.5-6.9,8.3-12.5,13.3-17c4.9-4.6,10.5-7.8,15.2-10.3
							c4.9-2.4,9.4-4,13.2-4.9c1.8-0.5,3.5-0.9,5-1.3c1.5-0.2,2.7-0.5,3.7-0.6s1.7-0.2,2.3-0.3C456.2,141.5,456.5,141.5,456.5,141.5
							s-0.2,0.1-0.8,0.1c-0.6,0.1-1.2,0.2-2.3,0.5c-1,0.2-2.3,0.3-3.6,0.7c-1.5,0.3-3.1,0.8-4.9,1.3c-3.7,1-8.2,2.6-12.9,5
							c-4.8,2.5-10.1,5.7-15,10.3c-4.9,4.5-9.5,10.2-13.1,16.9c-3.5,6.7-5.7,14.6-5.9,23.1c0,1-0.1,2.2,0,3.2s0.2,2.2,0.3,3.2
							c0.1,2.2,0.6,4.3,1,6.5c1,4.3,2.7,8.7,5,12.9c4.5,8.5,11.8,16.3,21.2,22.3l0.2,0.2l-0.1,0.3c-2,8.9-4.1,18.2-6.2,27.8
							l-0.8-0.5c10.1-5.8,20.6-11.9,31.1-17.9l0.2-0.1h0.2c1,0.2,2,0.3,3.1,0.6c7.8,1.3,15.9,1.3,23.6-0.1
							c7.7-1.1,15.1-3.4,21.6-6.7c13.1-6.6,23.3-16.7,28.6-27.9c2.7-5.6,4.7-11.3,5.2-17c0.1-0.7,0.2-1.4,0.2-2.2v-2.2
							c0-1.4,0.1-2.9,0-4.2c-0.2-2.7-0.3-5.5-1-8.1c-0.9-5.4-3.1-10.3-5.3-14.9c-1.4-2.2-2.5-4.5-4.1-6.4c-0.8-1-1.5-2.1-2.3-3
							s-1.7-1.8-2.5-2.7c-6.7-7.1-14.5-12.1-22-15.3c-7.5-3.3-14.7-4.7-20.4-5.5c-1.5-0.1-2.8-0.3-4.2-0.5c-1.2-0.1-2.5-0.1-3.6-0.1
							s-2.2,0-3.2-0.1c-0.9,0-1.8,0.1-2.6,0.1c-1.5,0.1-2.7,0.1-3.5,0.2C456.9,141.5,456.5,141.5,456.5,141.5z"/>
					</g>
				</g>
			</g>
		</g>
	</g>
	<g>
		
			<ellipse transform="matrix(0.9993 -3.701046e-02 3.701046e-02 0.9993 -5.985 17.4818)" class="st31" cx="469.2" cy="170.4" rx="12.5" ry="20.3"/>
		<ellipse transform="matrix(0.159 -0.9873 0.9873 0.159 222.8499 641.5474)" class="st32" cx="488" cy="190" rx="26.3" ry="12.2"/>
		
			<ellipse transform="matrix(0.8712 -0.4909 0.4909 0.8712 -37.7771 249.4244)" class="st10" cx="456.5" cy="196.7" rx="20.1" ry="17.7"/>
		<path class="st33" d="M459.3,214.1c0,5.3,3.7,9.5,3.9,14.7c0.1,5-3.3,9.8-6.7,14.1c-1.6,1.9-3.3,4-3.9,6.4"/>
		<path class="st33" d="M483.6,215.9c-4,9-12,16.8-21.6,20.7c-2,0.9-4.3,1.6-6.2,2.6c-4.3,2.3-7.6,5.9-10.7,9.6
			c-1.8,2.1-3.6,5-2.2,7"/>
		<path class="st33" d="M472,205.9c1.5,4.5,0.9,9.6-0.8,14.3c-1.7,4.7-4.7,9.1-7.8,13.3c-0.8,1-1.6,2.1-2.6,3
			c-1.4,1.3-3.2,2.1-4.9,2.9c-3.6,1.7-7.4,3.5-11,5.3c-4.7,2.3-10,5.1-11.1,9.8"/>
		<path class="st33" d="M460.2,236.5c-1.4-0.3-2.6-0.9-3.6-1.7c0.5-0.2,1-0.5,1.5-0.5c0.5,0.9,0.9,1.7,1.4,2.6"/>
		<path class="st33" d="M459,237.9c-0.2-0.6-0.5-1.1-0.6-1.7c-0.6-1.6-1-3.3-0.3-4.9c0.7-1.6,3.3-2.6,4.3-1.4
			c1.5,0.7,1.1,2.9,0.2,4.3c-1,1.5-2.5,2.6-3.1,4.3"/>
	</g>
	<g>
		<line class="st34" x1="80.1" y1="204.4" x2="128.8" y2="202.6"/>
		<path class="st34" d="M88.7,210c2.6-2.1,11.6-7.3,12.9-5.7c1.4,1.5-5.6,9.3-8.2,11.3c-2.6,2.1-5.7,2.5-7,1S86.1,212.1,88.7,210z"
			/>
		<path class="st34" d="M102.7,217.1c-0.8-3.1-1.6-13.3,0.3-13.7c2-0.5,6.1,8.9,6.9,12s-0.2,6.1-2.2,6.5
			C105.8,222.4,103.5,220.2,102.7,217.1z"/>
		<g>
			<polygon class="st35" points="118,203.6 108.2,224.5 87.4,225.1 76.4,204.8 86.2,183.9 107.1,183.3 			"/>
			
				<ellipse transform="matrix(0.9996 -2.803892e-02 2.803892e-02 0.9996 -5.2921 2.7889)" class="st10" cx="96.8" cy="190.1" rx="19.5" ry="15.2"/>
			
				<ellipse transform="matrix(0.9997 -2.536631e-02 2.536631e-02 0.9997 -4.8782 3.0506)" class="st10" cx="117.8" cy="193.8" rx="12.6" ry="14.4"/>
			
				<ellipse transform="matrix(0.9997 -2.537717e-02 2.537717e-02 0.9997 -4.9212 2.0245)" class="st10" cx="77.3" cy="194.9" rx="13.3" ry="15.2"/>
			<g>
				<g>
					<path class="st31" d="M75.6,195.4c3.6,0,3.6-5.7,0-5.7C71.9,189.7,71.9,195.4,75.6,195.4L75.6,195.4z"/>
				</g>
			</g>
			<g>
				<g>
					<path class="st31" d="M91.5,187.9c3.6,0,3.6-5.7,0-5.7S87.8,187.9,91.5,187.9L91.5,187.9z"/>
				</g>
			</g>
			<g>
				<g>
					<path class="st31" d="M99.2,199.1c3.6,0,3.6-5.7,0-5.7C95.6,193.3,95.6,199.1,99.2,199.1L99.2,199.1z"/>
				</g>
			</g>
			<g>
				<g>
					<path class="st31" d="M118.3,193.6c3.6,0,3.6-5.7,0-5.7C114.5,187.9,114.5,193.6,118.3,193.6L118.3,193.6z"/>
				</g>
			</g>
		</g>
		<line class="st36" x1="87.7" y1="205.1" x2="94.6" y2="227.5"/>
		<line class="st36" x1="108.1" y1="202.6" x2="103.4" y2="226.1"/>
	</g>
	<g>
		<g>
			<g>
				<path class="st37" d="M429.6,408.9l-23.3-26.3l-0.2,32l7,20.6l-69.5,12.2l-3-55.5l-5-42.6c-0.6-5.3,2.4-10.2,7.2-12.1l19.1-7.7
					l26.9,5l10.8,4.1c4.5,1.7,8.6,4.6,11.8,8.3l32.6,37.7"/>
			</g>
		</g>
		<g>
			<g>
				<path class="st37" d="M404.7,376.4c0-0.1,1.5,0.1,4-0.2c2.4-0.3,5.7-1.6,8.4-4.1c2.7-2.5,4.1-5.7,4.7-8.1s0.5-3.9,0.6-3.9
					c0,0,0.1,0.3,0.1,1s0,1.7-0.3,3c-0.5,2.4-1.9,5.8-4.7,8.5c-2.8,2.6-6.2,3.8-8.7,4.1c-1.2,0.1-2.3,0.1-3,0.1
					C405.1,376.5,404.7,376.4,404.7,376.4z"/>
			</g>
		</g>
		<g>
			<g>
				<g>
					<path class="st37" d="M406.8,413.3c0.1,0,0.2-11.1,0.1-24.8c-0.1-13.7-0.3-24.8-0.5-24.8s-0.2,11.1-0.1,24.8
						C406.3,402.2,406.6,413.3,406.8,413.3z"/>
				</g>
			</g>
		</g>
	</g>
	<g>
		<path class="st37" d="M404.2,421.4l-42-17.1c-3.4-1.4-5.7-4.6-6-8.2l-3.1-40.8c0,0,0.3-17.4-10.3-18.2l-6.1,2.4
			c-7.8,4.2-9.8,15.8-8.7,24.8c1.5,12.7,2.2,30.7,3.9,41.7c1.4,9,6.5,16.9,15.2,19.3l51.7,11.3L404.2,421.4z"/>
	</g>
	<g>
		<g>
			<path class="st9" d="M353.7,361.5c0,0,0.1,0.3,0.1,0.9c0.1,0.7,0.1,1.6,0.2,2.7c0.2,2.4,0.6,5.7,0.9,9.8
				c0.3,4.2,0.8,9.1,1.2,14.6c0.1,1.4,0.2,2.7,0.3,4.2c0.1,1.5,0.2,3,0.6,4.3c0.3,1.5,1,2.7,2,3.8c1.1,1,2.5,1.8,3.9,2.4
				c11.6,5,22.3,9.3,30,12.2c3.9,1.5,6.9,2.6,9.2,3.4c1,0.3,1.9,0.7,2.5,0.9c0.6,0.2,0.9,0.3,0.9,0.3s-0.3-0.1-0.9-0.2
				c-0.7-0.2-1.5-0.5-2.5-0.8c-2.2-0.7-5.3-1.8-9.3-3.3c-7.8-2.9-18.5-7-30.1-12.1c-1.5-0.7-2.8-1.5-4-2.5c-1.1-1.1-1.9-2.6-2.3-4.1
				c-0.3-1.5-0.5-3-0.6-4.5s-0.2-2.9-0.3-4.2c-0.5-5.5-0.8-10.5-1.1-14.6s-0.6-7.5-0.7-9.9c-0.1-1.1-0.1-2.1-0.1-2.7
				C353.7,361.9,353.7,361.5,353.7,361.5z"/>
		</g>
	</g>
	<g>
		<g>
			<path class="st9" d="M329.7,383.7c0,0,0,0.2,0.1,0.6c0,0.5,0.1,0.9,0.1,1.6c0.1,1.5,0.3,3.4,0.5,5.8s0.6,5.4,0.9,8.6
				c0.5,3.2,0.9,6.7,1.9,10.3c0.5,1.8,1.1,3.5,2,4.9c0.9,1.5,2,2.7,3.2,3.9c2.3,2.3,4.5,4,6.7,5.1c4.3,2.3,7.4,2.3,7.4,2.4
				c0,0-0.2,0-0.6,0s-0.9-0.1-1.6-0.2c-1.4-0.2-3.3-0.8-5.5-1.8c-2.2-1.1-4.7-2.7-6.9-5.1c-1.1-1.1-2.3-2.5-3.2-4
				c-1-1.5-1.7-3.3-2.2-5c-1-3.7-1.5-7.2-1.8-10.4c-0.3-3.2-0.7-6.2-0.8-8.6c-0.2-2.4-0.2-4.5-0.3-5.8c0-0.7,0-1.1,0-1.6
				S329.7,383.7,329.7,383.7z"/>
		</g>
	</g>
	<g>
		<g>
			<path class="st9" d="M347.6,412.1c-0.1,0,0.1-0.9,0.8-2.3s1.8-3.1,3.5-4.6s3.6-2.4,5-2.9s2.3-0.5,2.4-0.5c0,0.1-0.9,0.2-2.2,0.8
				c-1.4,0.5-3.1,1.5-4.8,2.9c-1.7,1.5-2.8,3.1-3.5,4.3C348.1,411.3,347.7,412.3,347.6,412.1z"/>
		</g>
	</g>
	<g>
		<g>
			<path class="st6" d="M355.9,381.2c0,0,0.1,0,0.2,0.1c0.2,0.1,0.5,0.2,0.8,0.3c0.7,0.3,1.7,0.8,3,1.3c2.6,0.9,6.8,1.8,11.8,1
				c4.9-0.8,10.7-3.8,14.7-9.3c1.9-2.7,3.5-6.1,3.9-9.6c0.2-1.8,0-3.7-0.6-5.5c-0.6-1.7-1.6-3.4-3.1-4.7c-1.4-1.3-3.1-2.2-4.9-2.4
				c-1.8-0.3-3.7,0.2-4.9,1.4c-0.6,0.6-1,1.4-0.9,2.3c0,0.8,0.3,1.7,0.8,2.3c1,1.4,2.7,2.1,4.3,2.3c3.3,0.5,6.5-0.1,9.2-1.4
				c2.7-1.1,4.9-3,6.5-4.9s2.6-4.1,3.2-6.1c0.6-1.9,0.8-3.7,0.8-5.1s-0.1-2.5-0.2-3.3c-0.1-0.3-0.1-0.6-0.1-0.8c0-0.2,0-0.3,0-0.3
				s0.6,1.5,0.7,4.5c0,1.5-0.1,3.2-0.7,5.3c-0.6,1.9-1.6,4.1-3.2,6.2s-3.9,3.9-6.6,5.1c-2.7,1.3-6,1.8-9.4,1.4
				c-1.7-0.2-3.5-0.9-4.7-2.4c-0.6-0.8-0.9-1.7-0.9-2.6c0-1,0.5-1.9,1.1-2.6c1.4-1.4,3.5-1.8,5.5-1.6c1.9,0.2,3.7,1.3,5.2,2.5
				c1.5,1.4,2.6,3.1,3.2,4.9s0.8,3.8,0.6,5.7c-0.3,3.8-1.9,7.2-4,9.9c-4.1,5.6-10,8.5-15,9.3c-5.1,0.8-9.3-0.2-11.9-1.3
				C357.2,382.2,355.9,381.2,355.9,381.2z"/>
		</g>
	</g>
	<g>
		<g>
			<path class="st6" d="M328.4,370.3c0,0,0.2-0.3,0.7-0.9s1.2-1.3,2.3-1.9c2-1.6,5.5-3,9.3-3.3c1.9-0.2,3.9-0.1,5.5,0.2
				c1.7,0.3,3.1,0.9,4.2,1.5s2,1.1,2.6,1.6s0.9,0.7,0.8,0.7c-0.1,0.1-1.4-0.9-3.6-1.9c-2.3-1-5.7-1.9-9.4-1.5
				c-3.7,0.3-7,1.7-9.1,3.1C329.6,369.2,328.4,370.4,328.4,370.3z"/>
		</g>
	</g>
	<g>
		<g>
			<path class="st6" d="M335.1,341.2c0.1-0.1,1,1.3,3.4,2.5c1.1,0.6,2.6,1.1,4.3,1.3c1.7,0.2,3.6,0,5.5-0.8c1.8-0.8,3.3-2.1,4.3-3.3
				c1-1.4,1.8-2.7,2.2-4c0.8-2.5,0.6-4.2,0.7-4.2c0,0,0.1,0.5,0.1,1.1c0,0.8-0.1,1.8-0.5,3.2c-0.3,1.3-1,2.7-2.2,4.2
				c-1.1,1.4-2.6,2.7-4.5,3.5s-4,0.9-5.7,0.8c-1.8-0.2-3.3-0.8-4.4-1.5s-2-1.4-2.5-1.9C335.3,341.5,335.1,341.2,335.1,341.2z"/>
		</g>
	</g>
	<g>
		<g>
			<path class="st6" d="M371.7,408.1c0,0,0-0.2,0.1-0.8c0.1-0.6,0.3-1.3,0.8-2.2c0.8-1.8,3-4.1,6.2-5.5c3.3-1.5,7.8-1.8,12.4-0.5
				c2.3,0.7,4.8,1.5,6.5,3.7c0.8,1,1.1,2.7,0.5,4c-0.6,1.4-1.8,2.2-3,2.9c-1.2,0.6-2.6,0.9-4,1c-1.4,0-2.7-0.3-3.9-1.1
				c-1-0.9-1.6-2.2-1.7-3.5s0.1-2.5,0.6-3.7c1.8-4.6,5.5-7.4,8.6-8.9c3.3-1.5,6.2-1.6,8.3-1.5c2,0.2,3.1,0.7,3.1,0.7
				c0,0.1-1-0.3-3.1-0.5c-1.9-0.1-4.9,0.1-8.1,1.6c-1.6,0.7-3.2,1.8-4.7,3.2c-1.5,1.5-2.8,3.3-3.6,5.5c-0.3,1-0.6,2.3-0.6,3.4
				c0.1,1.1,0.6,2.4,1.5,3.1c0.9,0.8,2.2,1.1,3.4,1c1.2,0,2.6-0.3,3.7-0.9s2.3-1.5,2.7-2.6c0.6-1.1,0.3-2.5-0.5-3.4
				c-0.7-1-1.7-1.7-2.8-2.3c-1-0.6-2.2-0.9-3.3-1.3c-4.4-1.4-8.9-1.1-12,0.3c-3.3,1.4-5.3,3.5-6.2,5.3
				C371.8,407,371.8,408.3,371.7,408.1z"/>
		</g>
	</g>
	<g>
		<g>
			<path class="st6" d="M343.8,423.6c0-0.1,1.6-0.2,4-1.1c2.4-0.8,5.7-2.6,8.3-5.6c2.6-3,4-6.4,4.7-8.9c0.6-2.5,0.6-4.2,0.7-4.1
				c0,0,0.1,0.5,0.1,1.1c0,0.7-0.1,1.8-0.3,3.1c-0.5,2.6-1.9,6.2-4.5,9.1c-2.7,3.1-6,4.8-8.5,5.6c-1.2,0.3-2.3,0.6-3.1,0.7
				C344.2,423.6,343.8,423.6,343.8,423.6z"/>
		</g>
	</g>
	<g>
		<g>
			<path class="st6" d="M330.1,391.9c0,0,0.1-0.1,0.5-0.2s0.8-0.2,1.5-0.5c1.4-0.3,3.3-0.8,5.7-0.6c1.2,0.1,2.6,0.3,3.9,1
				c1.4,0.6,2.6,1.5,3.6,2.9c0.9,1.4,1.6,3.1,1.4,4.9c-0.1,0.9-0.3,1.8-0.8,2.6c-0.5,0.8-1.2,1.6-2.2,1.8c-0.9,0.3-2,0.1-2.8-0.6
				s-0.9-1.7-1-2.6c-0.1-1.8,0.3-3.5,1-5c1.4-3.1,3.9-5,6.1-5.8c2.3-0.9,4.4-0.8,5.7-0.6c0.7,0.1,1.1,0.2,1.5,0.3
				c0.3,0.1,0.5,0.2,0.5,0.2s-0.7-0.2-2-0.3c-1.4-0.1-3.3-0.1-5.6,0.7c-2.2,0.8-4.5,2.7-5.8,5.7c-0.7,1.5-1,3.1-0.9,4.8
				c0,0.8,0.2,1.7,0.8,2.3c0.6,0.6,1.5,0.7,2.3,0.5s1.5-0.9,1.9-1.6c0.5-0.7,0.7-1.6,0.8-2.4c0.1-1.7-0.3-3.3-1.2-4.6
				c-0.9-1.3-2.2-2.2-3.4-2.7c-1.2-0.6-2.5-0.9-3.7-1c-2.4-0.2-4.3,0.1-5.7,0.5C330.9,391.7,330.1,391.9,330.1,391.9z"/>
		</g>
	</g>
	<g class="st38">
		<g>
			<path d="M392.1,416.6c-4.5-2.5-8.9-4.6-13.6-6.7c-4.7-2.2-9.3-4.9-12.4-9.1c-5.8-7.9-5.1-19.3-11-27.1c0.3,5.3,0.8,10.5,1.1,15.8
				c0.3,4.8-0.3,9.6,2.7,12.8c2.6,2.7,7.6,4.9,11.1,6.1C377.3,410.7,385,414.2,392.1,416.6"/>
		</g>
	</g>
	<g>
		<g>
			<path class="st37" d="M465.1,476.5c0,0,35.1,9.8,36.6,10.4c2.2,0.8,1.8,8.6-1.5,8.5c-1.6-0.1-27,0.9-30.2,0.8
				c-3.2-0.2-12.9-4.1-12.9-4.1L465.1,476.5z"/>
		</g>
	</g>
	<g>
		<g>
			<g>
				<path class="st9" d="M440.1,487.7c0.2,0,0.5-1.8,1.6-3.8c1.1-1.9,2.6-3.1,2.5-3.3c-0.1-0.1-1.8,0.9-3,3
					C439.8,485.7,440,487.8,440.1,487.7z"/>
			</g>
		</g>
	</g>
	<g>
		<g>
			<g>
				<path class="st9" d="M436.4,486.1c0.2,0,0.6-1.6,1.5-3.5c0.9-1.8,2-3.2,1.9-3.3c-0.1-0.1-1.5,1-2.4,3
					C436.3,484.2,436.2,486.1,436.4,486.1z"/>
			</g>
		</g>
	</g>
	<g>
		<g>
			<g>
				<path class="st9" d="M472.7,487.4c0.2,0,0-1.8,0.8-3.8c0.8-1.9,2-3.2,1.9-3.3c-0.1-0.1-1.6,0.9-2.5,3.1
					C472.1,485.6,472.4,487.4,472.7,487.4z"/>
			</g>
		</g>
	</g>
	<g>
		<g>
			<g>
				<path class="st9" d="M473.2,482.9c0.1,0,0.3-1,0.3-2.6c0-0.8-0.1-1.8-0.3-2.9c-0.1-0.6-0.3-1.1-0.6-1.6
					c-0.1-0.2-0.2-0.6-0.6-0.9s-0.9-0.2-1.2,0.1c-0.3,0.2-0.5,0.7-0.5,1s0,0.7,0,0.9c0,0.6,0.1,1.1,0.2,1.7c0.2,1.1,0.7,1.9,1.1,2.7
					c0.8,1.5,1.5,2.2,1.6,2.2s-0.5-0.9-1.2-2.3c-0.3-0.7-0.7-1.6-0.9-2.6c-0.1-0.5-0.1-1-0.1-1.6s0-1.3,0.3-1.5
					c0.1-0.1,0.3-0.1,0.5,0c0.1,0.1,0.3,0.3,0.3,0.6c0.2,0.6,0.3,1,0.6,1.6c0.2,1,0.5,1.9,0.5,2.7
					C473.4,481.8,473.1,482.9,473.2,482.9z"/>
			</g>
		</g>
	</g>
	<g>
		<g>
			<g>
				<path class="st9" d="M473.2,482.5c0-0.1-0.8-0.3-2.3-0.3c-0.7,0-1.6,0.1-2.5,0.3c-0.5,0.1-0.9,0.2-1.5,0.6
					c-0.5,0.2-1,0.9-0.8,1.6c0.1,0.7,0.7,1.1,1.2,1.3c0.6,0.1,1.1,0.1,1.6,0c0.9-0.2,1.7-0.7,2.3-1.1c1.1-0.9,1.7-1.6,1.6-1.6
					c-0.1-0.1-0.7,0.5-1.8,1.3c-0.6,0.3-1.2,0.8-2.2,0.9c-0.5,0.1-0.9,0.1-1.2,0c-0.5-0.1-0.8-0.5-0.9-0.8s0.1-0.8,0.6-1
					c0.3-0.2,0.8-0.3,1.2-0.5c0.9-0.2,1.7-0.3,2.4-0.5C472.3,482.4,473.2,482.5,473.2,482.5z"/>
			</g>
		</g>
	</g>
	<g>
		<g>
			<g>
				<path class="st9" d="M445.4,488.1c0.2,0,0-1.5,0.7-3.2s1.8-2.6,1.7-2.7c-0.1-0.1-1.5,0.7-2.3,2.5
					C444.8,486.5,445.3,488.1,445.4,488.1z"/>
			</g>
		</g>
	</g>
	<g>
		<g>
			<g>
				<path class="st9" d="M460.6,492.1c0,0,0.5,0.2,1.4,0.7c0.9,0.3,2.3,0.8,3.9,1.3c3.4,0.9,8.2,1.4,13.4,1.3
					c5.2-0.1,10-0.3,13.4-0.5c1.6-0.1,3-0.1,4.1-0.2c0.9-0.1,1.5-0.1,1.5-0.1s-0.6-0.1-1.5-0.1c-1.1,0-2.5,0-4.1,0
					c-3.5,0.1-8.3,0.1-13.4,0.2c-5.2,0-10-0.3-13.3-1.1C462.6,492.8,460.6,492,460.6,492.1z"/>
			</g>
		</g>
	</g>
	<g>
		<g>
			<g>
				<path class="st9" d="M459.6,492.9c0,0.1,1-0.5,2.6-1.3c1.6-0.7,4-1.5,6.7-1.1c2.6,0.5,4.5,2.2,5.8,3.4c1.2,1.3,1.9,2.2,2,2.1
					c0,0-0.6-1-1.7-2.4c-0.6-0.7-1.4-1.5-2.4-2.2s-2.3-1.4-3.6-1.6c-2.8-0.5-5.3,0.6-6.9,1.4C460.4,492.1,459.5,492.8,459.6,492.9z"
					/>
			</g>
		</g>
	</g>
	<g>
		<g>
			<g>
				<path class="st37" d="M427.8,466.6c0,0-33.3,22.1-34.4,23c-1.8,1.4,0.2,7.9,3.4,6.7c1.5-0.6,29.4-8.3,32.4-9.6
					c3-1.1,11.1-7.9,11.1-7.9L427.8,466.6z"/>
			</g>
		</g>
		<g>
			<g>
				<g>
					<path class="st9" d="M417.9,484.1c0.1,0-0.5-1.9-2.3-3.7c-1.8-1.6-3.7-2.1-3.7-1.9c-0.1,0.1,1.7,0.8,3.3,2.4
						C417,482.4,417.8,484.1,417.9,484.1z"/>
				</g>
			</g>
		</g>
		<g>
			<g>
				<g>
					<path class="st9" d="M420.9,481.4c0.1,0-0.5-1.7-2-3.3c-1.5-1.6-3.2-2.3-3.2-2.2c-0.1,0.1,1.4,1,2.8,2.5
						C420,479.9,420.8,481.4,420.9,481.4z"/>
				</g>
			</g>
		</g>
		<g>
			<g>
				<g>
					<path class="st9" d="M423.9,479.4c0.1,0,0-1.9-1.5-3.7c-1.5-1.8-3.3-2.4-3.3-2.2c-0.1,0.1,1.5,0.9,2.8,2.6
						C423.4,477.7,423.7,479.4,423.9,479.4z"/>
				</g>
			</g>
		</g>
		<g>
			<g>
				<g>
					<path class="st9" d="M421.9,475.2c0.1,0-0.3-0.9-0.8-2.5c-0.2-0.8-0.3-1.7-0.3-2.7c0-0.6,0-1.1,0-1.7c0-0.2,0.1-0.6,0.2-0.7
						s0.2-0.2,0.5-0.1s0.6,0.8,0.8,1.4c0.1,0.6,0.2,1,0.3,1.6c0.1,1,0,2.1-0.1,2.9c-0.2,1.6-0.6,2.5-0.5,2.6c0.1,0,0.6-0.9,0.9-2.5
						c0.1-0.8,0.3-1.8,0.2-3c0-0.6-0.1-1.1-0.3-1.7c-0.1-0.3-0.2-0.6-0.3-0.9c-0.1-0.3-0.3-0.7-0.8-0.8c-0.3-0.2-0.9-0.1-1.1,0.3
						c-0.2,0.3-0.2,0.7-0.2,1c0,0.6,0,1.1,0,1.7c0.1,1.1,0.3,2.1,0.6,2.9C421.3,474.4,421.9,475.2,421.9,475.2z"/>
				</g>
			</g>
		</g>
		<g>
			<g>
				<g>
					<path class="st9" d="M421.9,474.9c0,0.1,0.8-0.3,2.2-0.7c0.7-0.1,1.5-0.3,2.4-0.3c0.5,0,0.9,0,1.4,0.1s0.8,0.3,0.8,0.8
						s-0.2,0.8-0.6,1c-0.3,0.2-0.8,0.3-1.2,0.5c-0.9,0.1-1.7-0.1-2.4-0.2c-1.4-0.3-2.2-0.7-2.2-0.7c0,0.1,0.7,0.6,2,1
						c0.7,0.2,1.5,0.5,2.5,0.3c0.5,0,1-0.1,1.5-0.5c0.5-0.3,0.9-0.9,0.8-1.6c0-0.7-0.7-1.3-1.2-1.3c-0.6-0.1-1-0.1-1.5-0.1
						c-0.9,0.1-1.8,0.2-2.5,0.5C422.6,474.3,421.8,474.7,421.9,474.9z"/>
				</g>
			</g>
		</g>
		<g>
			<g>
				<g>
					<path class="st9" d="M401,495.1c0,0,0.6-0.3,0.8-1.3c0.2-0.9,0.1-2.4-0.6-3.7c-0.3-0.7-0.8-1.1-1.1-1.7
						c-0.3-0.5-0.8-0.9-1.1-1.3c-0.3-0.3-0.8-0.5-1-0.5s-0.5,0-0.5,0.1s0.6,0,1.2,0.7c0.3,0.3,0.6,0.7,0.9,1.3c0.3,0.5,0.7,1,1,1.6
						c0.7,1.1,0.9,2.4,0.7,3.3C401.2,494.6,400.9,495.1,401,495.1z"/>
				</g>
			</g>
		</g>
		<g>
			<g>
				<g>
					<path class="st9" d="M412.9,486.1c0.1,0,0.1-1.7-1.1-3.2c-1.2-1.6-3-1.9-3-1.7c-0.1,0.1,1.4,0.7,2.5,2.2
						C412.5,484.6,412.7,486.2,412.9,486.1z"/>
				</g>
			</g>
		</g>
		<g>
			<g>
				<g>
					<path class="st9" d="M436.8,480.1c0,0-0.6,0.3-1.5,1s-2.3,1.6-4.1,2.5c-1.8,1-4,1.9-6.5,3c-2.5,0.9-5.3,1.8-8.3,2.7
						c-6,1.7-11.4,3.3-15.3,4.6c-1.8,0.6-3.4,1-4.7,1.5c-1.1,0.3-1.7,0.6-1.7,0.6s0.7-0.1,1.7-0.3c1.2-0.3,2.7-0.8,4.7-1.3
						c4-1.1,9.3-2.6,15.3-4.3c3-0.9,5.8-1.8,8.4-2.7c2.5-1,4.8-2.1,6.5-3.1c1.8-1,3.2-2.1,4.1-2.7
						C436.3,480.6,436.8,480.1,436.8,480.1z"/>
				</g>
			</g>
		</g>
		<g>
			<g>
				<g>
					<path class="st9" d="M438,480.6c0-0.1-1-0.5-2.8-0.8c-1.7-0.2-4.4-0.5-7,0.9c-1.2,0.7-2.3,1.6-3,2.6s-1.2,1.9-1.6,2.9
						c-0.7,1.7-1,2.7-0.9,2.7s0.6-1,1.2-2.6c0.8-1.6,2-3.9,4.4-5c2.4-1.3,4.9-1.1,6.7-1C436.9,480.5,437.9,480.7,438,480.6z"/>
				</g>
			</g>
		</g>
	</g>
	<g>
		<g>
			<g>
				<path class="st9" d="M496.9,412.9c0,0,10,3.7,10,15c0.1,21.7-43.3,45.6-43.3,45.6l-57.7-38.7l-3.6-1.5
					C402.2,433.3,480.2,403.6,496.9,412.9z"/>
			</g>
		</g>
		<g>
			<g>
				<g>
					<path class="st39" d="M435.2,454.3c0,0,0.6-0.3,1.5-1s2.3-1.7,4-3c3.3-2.6,7.8-6.3,12.6-10.4c4.9-4.2,9.1-8.1,12.2-11.1
						c1.5-1.5,2.7-2.6,3.5-3.5c0.8-0.8,1.2-1.4,1.2-1.4s-0.6,0.3-1.4,1.1c-0.9,0.9-2.2,1.9-3.6,3.3c-3.1,2.9-7.4,6.7-12.3,11
						c-4.9,4.2-9.3,7.9-12.5,10.6c-1.6,1.3-2.8,2.4-3.9,3.2C435.6,453.8,435.1,454.2,435.2,454.3z"/>
				</g>
			</g>
		</g>
		<g>
			<g>
				<g>
					<path class="st39" d="M480.6,421.1c0-0.1-2.5-0.5-5.6,0.5c-3.1,0.9-5,2.5-5,2.6c0.1,0.1,2.2-1.3,5.1-2.1
						C478.1,421.2,480.6,421.2,480.6,421.1z"/>
				</g>
			</g>
		</g>
		<g>
			<g>
				<g>
					<path class="st39" d="M475.6,417.6c0-0.1-1.9,0.7-3.4,2.6c-1.6,1.9-1.9,3.9-1.8,3.9c0.1,0.1,0.8-1.7,2.3-3.5
						C474.2,418.8,475.7,417.7,475.6,417.6z"/>
				</g>
			</g>
		</g>
		<g>
			<g>
				<g>
					<path class="st9" d="M500.1,486.3c0-0.1-0.7-0.2-1.5,0.5s-1.5,1.9-1.7,3.4s0.1,2.9,0.6,3.8s0.9,1.3,0.9,1.3
						c0.1,0-0.2-0.6-0.6-1.4c-0.3-0.9-0.6-2.2-0.3-3.5c0.2-1.4,0.8-2.5,1.4-3.2C499.5,486.4,500.1,486.4,500.1,486.3z"/>
				</g>
			</g>
		</g>
	</g>
	<g>
		<g>
			<polygon class="st39" points="483.6,377.5 463,430.2 374.5,431.7 372.9,426.9 404,425.7 418.8,378.9 			"/>
		</g>
		<g>
			<path class="st4" d="M442.3,400.4c1.1-0.8,3.2-0.5,4.2,0.5c1,0.9,1.4,2.5,0.8,3.8s-1.8,2.2-3.2,2.3c-1.5,0.1-3-0.8-3.4-2.3
				C440.4,403.2,440.9,401.1,442.3,400.4"/>
		</g>
	</g>
	<g>
		<g>
			<g>
				<path class="st9" d="M467.1,473.7c0,0-81.6-54.2-84.9-55.3c-3.3-1.1-11.4-6.5-19.4-4.2c-8.1,2.3-15.3,9.6-19,20.2
					c-2,6.2-3.1,16.6-3.5,24.3c-0.6,9.4,2.3,18.6,8.4,25.8c2.7,3.2,6.1,6.1,10.2,7.3c0.8,0.2,1.7,0.5,2.6,0.7
					c15.4,3.4,31.2-3.7,39.9-16.9l1.9-3c0,0,53.4,19.9,54.2,19.5L467.1,473.7z"/>
			</g>
		</g>
		<g>
			<g>
				<g>
					<path class="st9" d="M366.2,458.9c0,0,0.1,0.1,0.5,0.2s0.8,0.3,1.4,0.6c1.2,0.5,3,1.1,5.2,2.1c4.5,1.7,11.1,4.2,19.2,7.3
						c8.2,3.1,17.9,6.7,28.9,10.7s23.2,8.5,36.1,12.9l0.2,0.1l0.1-0.2c2-3.9,4.2-8.1,6.4-12.3c1.1-2.2,2.3-4.3,3.3-6.3l0.1-0.2
						l-0.2-0.1c-24.5-15.8-46.3-29.8-62.2-40c-7.8-5-14.3-9.1-18.6-11.9c-2.2-1.4-3.9-2.5-5.1-3.2c-0.6-0.3-1-0.6-1.4-0.8
						c-0.3-0.2-0.5-0.2-0.5-0.2s0.1,0.1,0.5,0.3c0.3,0.2,0.8,0.5,1.2,0.9c1.1,0.8,2.8,1.8,5,3.3c4.4,2.9,10.7,7,18.6,12.1
						c15.8,10.2,37.6,24.3,62.1,40.1l-0.1-0.3c-1,1.9-2.2,4.1-3.3,6.3c-2.2,4.2-4.3,8.3-6.4,12.3l0.3-0.1
						c-12.9-4.5-25.1-8.8-36.1-12.8c-10.9-4-20.8-7.7-29-10.6c-8.2-3.1-14.8-5.5-19.3-7.2c-2.3-0.8-4-1.5-5.2-1.9
						c-0.6-0.2-1-0.3-1.4-0.5C366.4,458.9,366.2,458.9,366.2,458.9z"/>
				</g>
			</g>
		</g>
	</g>
	<g>
		<g>
			<path class="st9" d="M376.7,268.9c1.4-3.8,4.4-5.5,8.4-6.4c3.9-0.9,8.2,0.2,11.1,3c1.9,1.8,3.4,4.3,5.9,5.5
				c4,1.8,9.2-0.8,12.9,1.4c2.3,1.4,3.4,4.3,2.5,6.9c-0.9,2.5-3.6,4.2-6.1,3.8c2.6,1.3,3.1,5.3,1.2,7.5c-1.8,2.3-5.1,3-8,2.2
				c-2.8-0.8-5.1-2.7-7-4.9c-1.9-2.2-3.7-4.6-5.8-6.5c-2.2-1.9-4.8-3.5-7.7-3.7c-3.9-0.1-7.5,2.5-9.5,5.9s-2.8,7.4-3.4,11.3
				s-1,7.9-2.5,11.7c-0.2,0.5-0.5,0.9-0.9,1c-0.7,0.1-1.1-0.6-1.4-1.3c-3-7-4.5-14.6-4.5-22.2c0-4.5,0.5-8.6,3.2-12
				C367.7,268.5,374,266.4,376.7,268.9"/>
		</g>
		<g>
			<g>
				<g>
					<g>
						<g>
							<g>
								<g>
									<g>
										<g>
											<g>
												<g>
													<g>
														<g>
															<g>
																<path class="st40" d="M367.5,286.6l-6,44.1c-1,7.5,4.3,14.3,11.8,15l0,0c6.9,0.6,13.2-4.5,14.1-11.4
																	c0.5-3.3,0.8-6.1,0.9-6.4c0,0,11.2,0.5,13.5-10.5c1.1-5.4,2.5-16.5,3.7-26.5c1.2-10.9-5.9-20.8-16.5-23l-1-0.2
																	C376.6,265.9,368.7,274.9,367.5,286.6z"/>
															</g>
														</g>
													</g>
												</g>
											</g>
										</g>
									</g>
								</g>
								<g>
									<g>
										<g>
											<g>
												<g>
													<g>
														<g>
															<g>
																<path class="st41" d="M388.4,327.6c0,0-7-0.8-13.4-7c0,0,1.8,8.6,12.8,9.8L388.4,327.6z"/>
															</g>
														</g>
													</g>
												</g>
											</g>
										</g>
									</g>
								</g>
							</g>
						</g>
					</g>
					<g>
						<g>
							<g>
								<g>
									<g>
										<g>
											<g>
												<g>
													<g>
														<g>
															<g>
																<g>
																	<g>
																		<g>
																			<path class="st9" d="M400.9,297.4c-0.1,0.8-0.9,1.4-1.8,1.3s-1.5-0.9-1.4-1.7s0.9-1.4,1.8-1.3
																				S401,296.6,400.9,297.4z"/>
																		</g>
																	</g>
																</g>
															</g>
														</g>
													</g>
												</g>
											</g>
											<g>
												<g>
													<g>
														<g>
															<g>
																<g>
																	<g>
																		<g>
																			<g>
																				<path class="st9" d="M402.1,295.7c-0.2,0.1-1.2-0.9-3-1.3c-1.7-0.3-3.1,0.2-3.2,0c-0.1-0.1,0.2-0.5,0.8-0.7
																					c0.6-0.3,1.6-0.5,2.6-0.2c1,0.2,1.8,0.8,2.3,1.3C402.1,295.1,402.2,295.6,402.1,295.7z"/>
																			</g>
																		</g>
																	</g>
																</g>
															</g>
														</g>
													</g>
												</g>
											</g>
										</g>
										<g>
											<g>
												<g>
													<g>
														<g>
															<g>
																<g>
																	<g>
																		<g>
																			<path class="st9" d="M384.4,294.7c-0.1,0.8-0.9,1.4-1.8,1.3s-1.5-0.9-1.4-1.7c0.1-0.8,0.9-1.4,1.8-1.3
																				C384,293.1,384.5,293.9,384.4,294.7z"/>
																		</g>
																	</g>
																</g>
															</g>
														</g>
													</g>
												</g>
											</g>
											<g>
												<g>
													<g>
														<g>
															<g>
																<g>
																	<g>
																		<g>
																			<g>
																				<path class="st9" d="M385.7,292.6c-0.2,0.1-1.2-0.9-3-1.3c-1.7-0.3-3.1,0.2-3.2,0c-0.1-0.1,0.2-0.5,0.8-0.7
																					c0.6-0.3,1.6-0.5,2.6-0.2c1,0.2,1.8,0.8,2.3,1.3C385.7,292.2,385.8,292.6,385.7,292.6z"/>
																			</g>
																		</g>
																	</g>
																</g>
															</g>
														</g>
													</g>
												</g>
											</g>
										</g>
										<g>
											<g>
												<g>
													<g>
														<g>
															<g>
																<g>
																	<g>
																		<g>
																			<path class="st9" d="M389.2,306.5c0-0.1,1.1-0.1,2.8,0c0.5,0,0.9,0,1-0.2c0.1-0.3,0.1-0.8,0-1.4
																				c-0.2-1.1-0.5-2.3-0.6-3.5c-0.8-5-1.4-9.1-1.1-9.1c0.2,0,1,4,1.8,9c0.2,1.3,0.3,2.4,0.6,3.5
																				c0.1,0.6,0.2,1.1-0.1,1.7c-0.2,0.3-0.6,0.5-0.8,0.5c-0.3,0-0.6,0-0.8,0C390.2,306.8,389.2,306.6,389.2,306.5z"/>
																		</g>
																	</g>
																</g>
															</g>
														</g>
													</g>
												</g>
											</g>
										</g>
										<g>
											<g>
												<g>
													<g>
														<g>
															<g>
																<g>
																	<g>
																		<g>
																			<path class="st9" d="M384.1,306.7c0.2,0-0.1,1.8,1.2,3.5c1.2,1.6,3.3,1.8,3.2,2.1c0,0.1-0.5,0.2-1.4,0.1
																				c-0.8-0.1-1.9-0.7-2.7-1.6c-0.8-1-1-2.2-0.9-2.9C383.6,307,384,306.6,384.1,306.7z"/>
																		</g>
																	</g>
																</g>
															</g>
														</g>
													</g>
												</g>
											</g>
										</g>
									</g>
								</g>
							</g>
							<g>
								<g>
									<g>
										<g>
											<g>
												<g>
													<g>
														<g>
															<path class="st9" d="M387.4,286.1c-0.2,0.5-1.9-0.1-3.9-0.3c-2-0.2-3.7,0.1-3.9-0.5c-0.1-0.2,0.3-0.6,1-0.9
																s1.8-0.6,3.1-0.5c1.2,0.1,2.3,0.6,3,0.9C387.1,285.4,387.5,285.9,387.4,286.1z"/>
														</g>
													</g>
												</g>
											</g>
										</g>
									</g>
								</g>
							</g>
							<g>
								<g>
									<g>
										<g>
											<g>
												<g>
													<g>
														<g>
															<path class="st9" d="M402.5,290.7c-0.3,0.3-1.5-0.3-2.8-0.6c-1.4-0.3-2.6-0.2-2.8-0.7c-0.1-0.2,0.2-0.6,0.8-0.8
																c0.6-0.2,1.5-0.3,2.4-0.1c0.9,0.2,1.7,0.7,2.2,1.3C402.6,290,402.7,290.5,402.5,290.7z"/>
														</g>
													</g>
												</g>
											</g>
										</g>
									</g>
								</g>
							</g>
						</g>
					</g>
				</g>
			</g>
		</g>
		<g>
			<g>
				<g>
					<g>
						<g>
							<g>
								<g>
									<g>
										<g>
											<path class="st40" d="M366.8,294.9c-0.1-0.1-7-3.8-8.3,3.9c-1.2,7.5,6.6,7.3,6.6,7.1
												C365.1,305.5,366.8,294.9,366.8,294.9z"/>
										</g>
									</g>
								</g>
							</g>
						</g>
					</g>
				</g>
			</g>
			<g>
				<g>
					<g>
						<g>
							<g>
								<g>
									<g>
										<g>
											<g>
												<path class="st41" d="M363.3,302.6c0,0-0.1,0.1-0.3,0.1c-0.2,0.1-0.6,0.1-1-0.1c-0.8-0.5-1.2-1.8-1-3.2
													c0.1-0.7,0.3-1.4,0.7-1.8c0.3-0.6,0.8-0.8,1.1-0.8c0.5,0,0.7,0.2,0.7,0.5c0.1,0.2,0,0.3,0,0.3s0.2-0.1,0.2-0.5
													c0-0.1-0.1-0.3-0.2-0.6c-0.1-0.2-0.5-0.3-0.7-0.3c-0.6,0-1.2,0.3-1.6,0.9c-0.3,0.6-0.7,1.3-0.8,2.1
													c-0.2,1.5,0.3,3.1,1.4,3.5c0.5,0.2,1,0.1,1.2,0C363.2,302.7,363.3,302.6,363.3,302.6z"/>
											</g>
										</g>
									</g>
								</g>
							</g>
						</g>
					</g>
				</g>
			</g>
		</g>
		<g>
			<path class="st9" d="M408.3,288.9c-5,0.3-10.2-1.9-13.3-6.1c-2.2-2.9-3.6-6.5-6.7-8.2c-2-1.1-4.7-1.1-6.9-0.5
				c-2.3,0.7-4.3,2.2-6,3.8c1,6.1-1.7,12-4.2,17.5c-0.3,0.6-0.6,1.3-1.2,1.6c-1,0.5-2.3-0.3-2.8-1.3c-1-1.6-1.1-3.5-1-5.4
				c0.1-4.2,0.8-8.3,2.5-12.2c1.7-3.8,4.3-7.2,7.8-9.5c4.3-2.9,9.9-3.7,14.9-2.5c5,1.1,9.7,4,13.1,7.9c1.6,1.8,3,3.9,3.5,6.3"/>
		</g>
	</g>
</g>
<g>
	<g>
		<path class="st42" d="M579,160.2h3.6v24.7H579V160.2z M581.1,181.6h6.9c1.8,0,3.1-0.3,4-1c0.9-0.7,1.2-1.6,1.2-2.8v-0.1
			c0-0.9-0.1-1.5-0.4-2.1c-0.3-0.6-0.8-1.1-1.4-1.4s-1.5-0.5-2.5-0.5h-7.8v-3.1h7.8c1.3,0,2.3-0.3,3-0.9c0.7-0.6,1-1.4,1-2.7
			c0-1.3-0.4-2.1-1.1-2.8s-1.9-0.9-3.4-0.9h-7.3v-3.2h8c1.7,0,3,0.3,4.1,0.8c1.1,0.5,1.9,1.4,2.5,2.3c0.6,1,0.8,2.2,0.8,3.6
			c0,0.9-0.2,1.6-0.5,2.4c-0.3,0.8-0.9,1.4-1.6,1.9c-0.7,0.6-1.6,0.9-2.6,1.1c1,0.2,1.9,0.5,2.7,1.1s1.3,1.3,1.7,2.1
			s0.6,1.7,0.6,2.7v0.1c0,1.4-0.3,2.5-0.9,3.6s-1.5,1.8-2.6,2.3s-2.5,0.9-4,0.9H581L581.1,181.6L581.1,181.6z"/>
		<path class="st42" d="M601.9,167.2h3.6v17.6h-3.6V167.2z M603.7,181.5h5.6c0.7,0,1.3-0.2,1.7-0.7c0.4-0.5,0.7-1.1,0.7-1.7
			c0-0.5-0.1-0.9-0.3-1.3s-0.5-0.7-0.8-0.9s-0.8-0.3-1.3-0.3h-5.6v-3.3h5.4c1.3,0,2.4,0.2,3.3,0.7s1.7,1.2,2.2,2s0.8,1.8,0.8,3
			c0,1.2-0.3,2.1-0.8,3c-0.5,0.9-1.3,1.5-2.2,2c-0.9,0.5-2.1,0.7-3.3,0.7h-5.4L603.7,181.5L603.7,181.5z M618.1,167.2h3.6v17.6h-3.6
			V167.2z"/>
		<path class="st42" d="M627.1,167.2h3.6v17.6h-3.6V167.2z M629.4,167.2h11.2v3.3h-11.2V167.2z M638.7,167.2h3.6v17.6h-3.6V167.2z"
			/>
		<path class="st42" d="M650.8,184.1c-1.1-0.6-2-1.4-2.6-2.6c-0.6-1.2-0.9-2.5-0.9-4.1v-2.9c0-1.6,0.3-3,0.9-4.1s1.5-2,2.6-2.6
			s2.5-0.9,4.1-0.9s2.9,0.3,4.1,0.9s2,1.4,2.6,2.6c0.6,1.2,0.9,2.5,0.9,4.1v2.9c0,1.6-0.3,3-0.9,4.1c-0.6,1.2-1.5,2-2.6,2.6
			c-1.1,0.6-2.5,0.9-4.1,0.9S651.9,184.8,650.8,184.1z M657.8,180.6c0.7-0.8,1-1.8,1-3.2v-2.9c0-1.4-0.3-2.4-1-3.2s-1.7-1.2-2.9-1.2
			s-2.2,0.4-2.9,1.2s-1,1.8-1,3.2v2.9c0,1.4,0.3,2.4,1,3.2c0.7,0.8,1.7,1.2,2.9,1.2S657.1,181.4,657.8,180.6z"/>
		<path class="st42" d="M666.3,181.7c0.9,0,1.7-0.4,2.2-1.3c0.5-0.9,0.8-2,0.8-3.5v-9.7h3.6v10.2c0,1.6-0.2,3-0.7,4.1
			s-1.2,2-2.1,2.6c-0.9,0.6-2,0.9-3.4,0.9h-0.4L666.3,181.7L666.3,181.7z M671.5,167.2h8.9v3.3h-8.9V167.2z M678.5,167.2h3.6v17.6
			h-3.6V167.2z"/>
		<path class="st42" d="M687.7,167.2h3.6v17.6h-3.6V167.2z M690,174.6h11.2v3.1H690V174.6z M699.3,167.2h3.6v17.6h-3.6V167.2z"/>
		<path class="st42" d="M707.2,184.8l5.1-7.7l3.6,0.8l-4.4,6.9H707.2z M714,178.6c-1.3,0-2.4-0.2-3.3-0.7c-0.9-0.5-1.7-1.2-2.2-2
			s-0.8-1.8-0.8-3s0.3-2.1,0.8-3s1.3-1.5,2.2-2s2.1-0.7,3.3-0.7h6.5v3.3h-6.6c-0.7,0-1.3,0.2-1.7,0.7s-0.7,1.1-0.7,1.7
			c0,0.5,0.1,0.9,0.3,1.3c0.2,0.4,0.5,0.7,0.8,0.9c0.3,0.2,0.8,0.3,1.3,0.3h6.6v3.3L714,178.6L714,178.6z M718.6,184.8v-17.6h3.6
			v17.6H718.6z"/>
		<path class="st42" d="M726.9,167.2h14.2v3.1h-14.2V167.2z M732.2,169.1h3.6v15.7h-3.6V169.1z"/>
		<path class="st42" d="M745.8,167.2h3.6v17.6h-3.6V167.2z M747.6,181.5h6.4c0.7,0,1.3-0.2,1.7-0.7c0.4-0.5,0.7-1.1,0.7-1.7
			c0-0.5-0.1-0.9-0.3-1.3s-0.5-0.7-0.8-0.9s-0.8-0.3-1.3-0.3h-6.4v-3.3h6.3c1.3,0,2.4,0.2,3.3,0.7s1.7,1.2,2.2,2s0.8,1.8,0.8,3
			c0,1.2-0.3,2.1-0.8,3c-0.5,0.9-1.3,1.5-2.2,2c-0.9,0.5-2.1,0.7-3.3,0.7h-6.3L747.6,181.5L747.6,181.5z"/>
		<path class="st42" d="M776.9,184.4c-1-0.4-1.7-1-2.3-1.8s-1-1.7-1.1-2.8h3.5c0.1,0.7,0.5,1.2,1.1,1.5s1.3,0.6,2.2,0.6
			c1,0,1.8-0.2,2.4-0.7c0.6-0.5,0.8-1.1,0.8-1.8l0,0c0-0.6-0.2-1.1-0.6-1.4c-0.4-0.4-1-0.5-1.7-0.5h-2.9v-3h2.9c0.6,0,1-0.2,1.3-0.5
			c0.3-0.3,0.5-0.9,0.5-1.4l0,0c0-0.8-0.2-1.4-0.7-1.7s-1.2-0.7-2.1-0.7c-0.8,0-1.5,0.2-2.1,0.6s-0.9,0.9-1.1,1.5h-3.5
			c0.3-1.6,1.1-3,2.3-3.9c1.2-0.9,2.7-1.4,4.6-1.4c2,0,3.5,0.4,4.6,1.3s1.6,2,1.6,3.5l0,0c0,1-0.2,1.8-0.7,2.5s-1.2,1.3-2,1.5
			c1.1,0.2,1.9,0.6,2.5,1.3c0.6,0.7,0.9,1.5,0.9,2.6l0,0c0,1.7-0.6,3.1-1.8,4.1c-1.2,1-2.8,1.4-5,1.4
			C779,185.1,777.9,184.9,776.9,184.4z"/>
		<path class="st42" d="M792.5,183.7c-1.1-0.9-1.7-2.2-1.7-4.1c0-1.7,0.5-3.1,1.5-4s2.6-1.4,4.6-1.4h5.2l0.2,2.8H797
			c-0.9,0-1.6,0.2-2.1,0.6s-0.7,1.1-0.7,1.8c0,0.9,0.3,1.5,0.9,2c0.6,0.5,1.5,0.7,2.8,0.7c1.4,0,2.4-0.1,3.1-0.4
			c0.7-0.3,1-0.8,1-1.4l0.4,2.5c-0.3,0.5-0.7,0.9-1.2,1.2c-0.5,0.3-1,0.6-1.6,0.7c-0.6,0.1-1.3,0.2-2.1,0.2
			C795.3,185.1,793.6,184.6,792.5,183.7z M802,173.6c0-1.2-0.3-2-1-2.7c-0.7-0.7-1.5-1-2.7-1c-0.7,0-1.4,0.1-2.1,0.3
			s-1.3,0.5-1.9,0.9l-2.6-1.7c0.7-0.8,1.6-1.4,2.7-1.8c1.1-0.4,2.4-0.7,3.8-0.7c1.5,0,2.8,0.3,3.9,0.8s1.9,1.3,2.5,2.2
			c0.6,1,0.8,2.1,0.8,3.6v11.3H802V173.6z"/>
		<path class="st42" d="M809.6,181.7h17.6v3.1h-17.6V181.7z M809.6,181.7h3.6v7.5h-3.6V181.7z M810.3,181.7h0.4
			c0.7,0,1.3-0.2,1.7-0.6s0.6-1,0.8-1.7c0.2-0.8,0.2-1.8,0.2-3.3v-8.9h3.6v10c0,2-0.4,3.6-1.3,4.6c-0.9,1.1-2.1,1.5-3.7,1.5h-0.4
			L810.3,181.7z M815.5,167.2h8.1v3.1h-8.1V167.2z M822.5,167.2h3.6v17.6h-3.6V167.2z M825.7,181.7h3.6v7.5h-3.6V181.7z"/>
		<path class="st42" d="M834.3,183.7c-1.1-0.9-1.7-2.2-1.7-4.1c0-1.7,0.5-3.1,1.5-4s2.6-1.4,4.6-1.4h5.2l0.2,2.8h-5.4
			c-0.9,0-1.6,0.2-2.1,0.6s-0.7,1.1-0.7,1.8c0,0.9,0.3,1.5,0.9,2c0.6,0.5,1.5,0.7,2.8,0.7c1.4,0,2.4-0.1,3.1-0.4
			c0.7-0.3,1-0.8,1-1.4l0.4,2.5c-0.3,0.5-0.7,0.9-1.2,1.2c-0.5,0.3-1,0.6-1.6,0.7c-0.6,0.1-1.3,0.2-2.1,0.2
			C837.1,185.1,835.4,184.6,834.3,183.7z M843.8,173.6c0-1.2-0.3-2-1-2.7c-0.7-0.7-1.5-1-2.7-1c-0.7,0-1.4,0.1-2.1,0.3
			s-1.3,0.5-1.9,0.9l-2.6-1.7c0.7-0.8,1.6-1.4,2.7-1.8c1.1-0.4,2.4-0.7,3.8-0.7c1.5,0,2.8,0.3,3.9,0.8s1.9,1.3,2.5,2.2
			c0.6,1,0.8,2.1,0.8,3.6v11.3h-3.4V173.6z"/>
		<path class="st42" d="M852.7,167.2h3.6v17.6h-3.6V167.2z M854.9,174.6h11.2v3.1h-11.2V174.6z M864.2,167.2h3.6v17.6h-3.6V167.2z"
			/>
		<path class="st42" d="M884.9,184.8v-12.5l0.4,0.5l-8.8,12.1h-3.1v-17.6h3.6v12.8l-0.4-0.5l8.8-12.3h3.1v17.6H884.9z"/>
		<path class="st42" d="M892.8,184.8l5.1-7.7l3.6,0.8l-4.4,6.9H892.8z M899.6,178.6c-1.3,0-2.4-0.2-3.3-0.7c-0.9-0.5-1.7-1.2-2.2-2
			s-0.8-1.8-0.8-3s0.3-2.1,0.8-3s1.3-1.5,2.2-2s2.1-0.7,3.3-0.7h6.5v3.3h-6.6c-0.7,0-1.3,0.2-1.7,0.7s-0.7,1.1-0.7,1.7
			c0,0.5,0.1,0.9,0.3,1.3c0.2,0.4,0.5,0.7,0.8,0.9c0.3,0.2,0.8,0.3,1.3,0.3h6.6v3.3L899.6,178.6L899.6,178.6z M904.2,184.8v-17.6
			h3.6v17.6H904.2z"/>
		<path class="st42" d="M923.1,167.2h3.6v17.6h-3.6V167.2z M925.3,174.6h11.2v3.1h-11.2V174.6z M934.6,167.2h3.6v17.6h-3.6V167.2z"
			/>
		<path class="st42" d="M941.9,167.2h3.7l5.6,15.3l-2,3.8L941.9,167.2z M958,167.2l-7.8,21.7c-0.3,0.8-0.7,1.4-1.1,1.9s-1,0.8-1.7,1
			c-0.7,0.2-1.4,0.3-2.4,0.3h-0.7v-3.3h0.7c0.7,0,1.2-0.1,1.6-0.4c0.4-0.3,0.7-0.7,1-1.4l6.8-19.9L958,167.2L958,167.2z"/>
		<path class="st42" d="M965.2,175.4l2.6,1.7l-4.9,7.6h-4.6L965.2,175.4z M959.4,167.2h4.1l4.4,7.3l-1.5,3L959.4,167.2z
			 M965.2,174.3h12v3.1h-12V174.3z M969.4,167.2h3.6v17.6h-3.6V167.2z M974.5,174.6l4.4-7.3h4.1l-7.1,10.3L974.5,174.6z
			 M974.6,177.2l2.6-1.7l6.9,9.4h-4.6L974.6,177.2z"/>
		<path class="st42" d="M986.9,167.2h3.6v17.6h-3.6V167.2z M989.1,174.6h11.2v3.1h-11.2V174.6z M998.4,167.2h3.6v17.6h-3.6V167.2z"
			/>
		<path class="st42" d="M1010.6,184.1c-1.1-0.6-2-1.4-2.6-2.6c-0.6-1.2-0.9-2.5-0.9-4.1v-2.9c0-1.6,0.3-3,0.9-4.1s1.5-2,2.6-2.6
			s2.5-0.9,4.1-0.9s2.9,0.3,4.1,0.9s2,1.4,2.6,2.6c0.6,1.2,0.9,2.5,0.9,4.1v2.9c0,1.6-0.3,3-0.9,4.1c-0.6,1.2-1.5,2-2.6,2.6
			c-1.1,0.6-2.5,0.9-4.1,0.9S1011.7,184.8,1010.6,184.1z M1017.6,180.6c0.7-0.8,1-1.8,1-3.2v-2.9c0-1.4-0.3-2.4-1-3.2
			s-1.7-1.2-2.9-1.2s-2.2,0.4-2.9,1.2s-1,1.8-1,3.2v2.9c0,1.4,0.3,2.4,1,3.2c0.7,0.8,1.7,1.2,2.9,1.2S1016.9,181.4,1017.6,180.6z"/>
		<path class="st42" d="M621.7,225.8c-1.2-0.6-2.1-1.4-2.7-2.6c-0.6-1.2-0.9-2.5-0.9-4.1v-2.9c0-1.6,0.3-3,0.9-4.1s1.5-2,2.7-2.6
			c1.2-0.6,2.6-0.9,4.3-0.9c0.9,0,1.8,0.1,2.7,0.3s1.6,0.6,2.3,1c0.7,0.4,1.2,1,1.7,1.5l-2.6,2.2c-0.5-0.6-1.1-1-1.8-1.4
			s-1.4-0.5-2.2-0.5c-1.4,0-2.5,0.4-3.2,1.2c-0.7,0.8-1.1,1.8-1.1,3.2v2.9c0,1.4,0.4,2.5,1.1,3.2s1.8,1.2,3.2,1.2
			c0.8,0,1.5-0.2,2.2-0.5c0.7-0.3,1.3-0.8,1.8-1.4l2.6,2.4c-0.5,0.6-1,1.1-1.7,1.5s-1.4,0.8-2.3,1c-0.9,0.2-1.7,0.3-2.7,0.3
			C624.3,226.8,622.9,226.5,621.7,225.8z"/>
		<path class="st42" d="M639.4,225.8c-1.1-0.6-2-1.4-2.6-2.6c-0.6-1.2-0.9-2.5-0.9-4.1v-2.9c0-1.6,0.3-3,0.9-4.1s1.5-2,2.6-2.6
			c1.1-0.6,2.5-0.9,4.1-0.9s2.9,0.3,4.1,0.9c1.2,0.6,2,1.4,2.6,2.6c0.6,1.2,0.9,2.5,0.9,4.1v2.9c0,1.6-0.3,3-0.9,4.1
			c-0.6,1.2-1.5,2-2.6,2.6s-2.5,0.9-4.1,0.9S640.6,226.5,639.4,225.8z M646.4,222.3c0.7-0.8,1-1.8,1-3.2v-2.9c0-1.4-0.3-2.4-1-3.2
			s-1.7-1.2-2.9-1.2s-2.2,0.4-2.9,1.2s-1,1.8-1,3.2v2.9c0,1.4,0.3,2.4,1,3.2c0.7,0.8,1.7,1.2,2.9,1.2S645.7,223.1,646.4,222.3z"/>
		<path class="st42" d="M665.8,208.9h3.6v17.6h-3.6V208.9z M667.9,223.4h6.8c0.7,0,1.3-0.2,1.7-0.6s0.6-1,0.6-1.6v-0.1
			c0-0.8-0.2-1.4-0.6-1.7s-0.9-0.6-1.7-0.6h-6.8v-3.1h6.8c0.6,0,1.1-0.2,1.4-0.5s0.5-0.7,0.5-1.3s-0.2-1.1-0.5-1.4s-0.8-0.5-1.4-0.5
			h-6.8v-3.1h6.9c1.7,0,3,0.4,4,1.2c1,0.8,1.4,1.8,1.4,3.2c0,1.1-0.3,1.9-1,2.7s-1.7,1.2-2.9,1.4c1.4,0.3,2.4,0.8,3.2,1.6
			s1.1,1.8,1.1,3.1v0.1c0,1.4-0.5,2.5-1.5,3.4s-2.4,1.2-4.2,1.2H668L667.9,223.4L667.9,223.4z"/>
		<path class="st42" d="M684.4,208.9h14.2v3.1h-14.2V208.9z M689.7,210.7h3.6v15.7h-3.6V210.7z"/>
		<path class="st42" d="M706.2,225.8c-1.1-0.6-2-1.4-2.6-2.6c-0.6-1.2-0.9-2.5-0.9-4.1v-2.9c0-1.6,0.3-3,0.9-4.1s1.5-2,2.6-2.6
			c1.1-0.6,2.5-0.9,4.1-0.9s2.9,0.3,4.1,0.9c1.2,0.6,2,1.4,2.6,2.6c0.6,1.2,0.9,2.5,0.9,4.1v2.9c0,1.6-0.3,3-0.9,4.1
			c-0.6,1.2-1.5,2-2.6,2.6s-2.5,0.9-4.1,0.9S707.3,226.5,706.2,225.8z M713.2,222.3c0.7-0.8,1-1.8,1-3.2v-2.9c0-1.4-0.3-2.4-1-3.2
			s-1.7-1.2-2.9-1.2s-2.2,0.4-2.9,1.2s-1,1.8-1,3.2v2.9c0,1.4,0.3,2.4,1,3.2c0.7,0.8,1.7,1.2,2.9,1.2S712.5,223.1,713.2,222.3z"/>
		<path class="st42" d="M722.9,208.9h3.6v24.7h-3.6V208.9z M728.1,226c-0.8-0.5-1.5-1.3-1.9-2.2l0.2-3.7c0,0.8,0.1,1.4,0.4,1.9
			s0.7,1,1.2,1.3c0.5,0.3,1.2,0.4,1.9,0.4c1.2,0,2.1-0.4,2.8-1.1s1-1.6,1-2.9v-3.9c0-1.3-0.3-2.3-1-3s-1.6-1.1-2.8-1.1
			c-0.8,0-1.4,0.1-1.9,0.4c-0.5,0.3-0.9,0.7-1.2,1.2s-0.4,1.2-0.4,1.9l-0.4-3.4c0.6-1.1,1.3-1.8,2.2-2.4c0.9-0.6,1.9-0.9,3-0.9
			c1.3,0,2.4,0.3,3.3,0.9c0.9,0.6,1.6,1.4,2.1,2.4s0.7,2.4,0.7,3.9v3.9c0,1.4-0.2,2.8-0.7,3.9s-1.2,1.8-2.2,2.4
			c-1,0.6-2.1,0.9-3.4,0.9C729.9,226.8,728.9,226.5,728.1,226z"/>
		<path class="st42" d="M742.5,208.9h3.6v17.6h-3.6V208.9z M744.2,223.2h5.6c0.7,0,1.3-0.2,1.7-0.7c0.4-0.5,0.7-1.1,0.7-1.7
			c0-0.5-0.1-0.9-0.3-1.3s-0.5-0.7-0.8-0.9s-0.8-0.3-1.3-0.3h-5.6v-3.3h5.4c1.3,0,2.4,0.2,3.3,0.7s1.7,1.2,2.2,2
			c0.5,0.9,0.8,1.8,0.8,3c0,1.2-0.3,2.1-0.8,3c-0.5,0.9-1.3,1.5-2.2,2c-0.9,0.5-2.1,0.7-3.3,0.7h-5.4L744.2,223.2L744.2,223.2z
			 M758.7,208.9h3.6v17.6h-3.6V208.9z"/>
		<path class="st42" d="M781.7,208.9h3.2v17.6h-3.2V214l0.2,1.1l-4.4,7.9h-2.1l-4.4-7.9l0.2-1.1v12.4H768v-17.6h3.2l5.4,9.7
			L781.7,208.9z"/>
		<path class="st42" d="M803,220.2c-1-0.6-1.8-1.4-2.3-2.4s-0.8-2.3-0.8-3.8v-5.1h3.6v5.2c0,1.1,0.3,1.9,0.9,2.5s1.4,0.9,2.4,0.9
			c1.4,0,2.5-0.3,3.2-1c0.7-0.7,1.1-1.5,1.1-2.8V212h1.1v1.6c0,2.3-0.5,4.1-1.5,5.4s-2.4,1.9-4.2,1.9C805.2,221,804,220.7,803,220.2
			z M811.2,208.9h3.6v17.6h-3.6V208.9z"/>
		<path class="st42" d="M823.5,225.8c-1.2-0.6-2.1-1.5-2.7-2.7c-0.6-1.2-0.9-2.6-0.9-4.2v-2c0-1.7,0.3-3.2,0.9-4.4
			c0.6-1.3,1.5-2.2,2.6-2.8s2.5-1,4.1-1c1.5,0,2.8,0.4,3.9,1.1c1.1,0.7,1.9,1.8,2.5,3.2c0.6,1.4,0.9,3.1,0.9,5v1.2h-12.3v-2.8h8.9
			c-0.1-1.4-0.5-2.5-1.2-3.4s-1.5-1.2-2.7-1.2c-1.4,0-2.4,0.4-3.2,1.3c-0.8,0.9-1.1,2.1-1.1,3.7v2.2c0,1.4,0.4,2.6,1.2,3.4
			s1.9,1.2,3.4,1.2c0.7,0,1.4-0.1,2.2-0.4c0.8-0.3,1.4-0.7,1.9-1.2l2.4,2.3c-0.9,0.9-1.9,1.4-3,1.9c-1.1,0.5-2.3,0.7-3.4,0.7
			C826.2,226.8,824.7,226.5,823.5,225.8z"/>
		<path class="st42" d="M838.5,223.4c0.9,0,1.7-0.4,2.2-1.3c0.5-0.9,0.8-2,0.8-3.5v-9.7h3.6v10.2c0,1.6-0.2,3-0.7,4.1
			s-1.2,2-2.1,2.6s-2,0.9-3.4,0.9h-0.4L838.5,223.4L838.5,223.4z M843.7,208.9h8.9v3.3h-8.9V208.9z M850.7,208.9h3.6v17.6h-3.6
			V208.9z"/>
		<path class="st42" d="M862.9,225.8c-1.1-0.6-2-1.4-2.6-2.6c-0.6-1.2-0.9-2.5-0.9-4.1v-2.9c0-1.6,0.3-3,0.9-4.1s1.5-2,2.6-2.6
			c1.1-0.6,2.5-0.9,4.1-0.9s2.9,0.3,4.1,0.9c1.2,0.6,2,1.4,2.6,2.6c0.6,1.2,0.9,2.5,0.9,4.1v2.9c0,1.6-0.3,3-0.9,4.1
			c-0.6,1.2-1.5,2-2.6,2.6s-2.5,0.9-4.1,0.9S864,226.5,862.9,225.8z M869.8,222.3c0.7-0.8,1-1.8,1-3.2v-2.9c0-1.4-0.3-2.4-1-3.2
			s-1.7-1.2-2.9-1.2s-2.2,0.4-2.9,1.2s-1,1.8-1,3.2v2.9c0,1.4,0.3,2.4,1,3.2c0.7,0.8,1.7,1.2,2.9,1.2S869.1,223.1,869.8,222.3z"/>
		<path class="st42" d="M879.5,208.9h3.6v17.6h-3.6V208.9z M881.6,223.4h6.8c0.7,0,1.3-0.2,1.7-0.6s0.6-1,0.6-1.6v-0.1
			c0-0.8-0.2-1.4-0.6-1.7s-0.9-0.6-1.7-0.6h-6.8v-3.1h6.8c0.6,0,1.1-0.2,1.4-0.5s0.5-0.7,0.5-1.3s-0.2-1.1-0.5-1.4s-0.8-0.5-1.4-0.5
			h-6.8v-3.1h6.9c1.7,0,3,0.4,4,1.2c1,0.8,1.4,1.8,1.4,3.2c0,1.1-0.3,1.9-1,2.7s-1.7,1.2-2.9,1.4c1.4,0.3,2.4,0.8,3.2,1.6
			s1.1,1.8,1.1,3.1v0.1c0,1.4-0.5,2.5-1.5,3.4s-2.4,1.2-4.2,1.2h-6.9L881.6,223.4L881.6,223.4z"/>
		<path class="st42" d="M902.1,225.8c-1.2-0.6-2.1-1.5-2.7-2.7c-0.6-1.2-0.9-2.6-0.9-4.2v-2c0-1.7,0.3-3.2,0.9-4.4
			c0.6-1.3,1.5-2.2,2.6-2.8s2.5-1,4.1-1c1.5,0,2.8,0.4,3.9,1.1c1.1,0.7,1.9,1.8,2.5,3.2c0.6,1.4,0.9,3.1,0.9,5v1.2h-12.3v-2.8h8.9
			c-0.1-1.4-0.5-2.5-1.2-3.4s-1.5-1.2-2.7-1.2c-1.4,0-2.4,0.4-3.2,1.3c-0.8,0.9-1.1,2.1-1.1,3.7v2.2c0,1.4,0.4,2.6,1.2,3.4
			s1.9,1.2,3.4,1.2c0.7,0,1.4-0.1,2.2-0.4c0.8-0.3,1.4-0.7,1.9-1.2l2.4,2.3c-0.9,0.9-1.9,1.4-3,1.9c-1.1,0.5-2.3,0.7-3.4,0.7
			C904.8,226.8,903.3,226.5,902.1,225.8z"/>
		<path class="st42" d="M918.3,208.9h3.6v17.6h-3.6V208.9z M920,216h6.6v3.3H920V216z M923.7,216.3l5-7.5h4.3l-7.6,10.5L923.7,216.3
			z M923.8,219l2.8-1.7l7.4,9.2h-4.8L923.8,219z"/>
		<path class="st42" d="M939.8,225.8c-1.1-0.6-2-1.4-2.6-2.6c-0.6-1.2-0.9-2.5-0.9-4.1v-2.9c0-1.6,0.3-3,0.9-4.1s1.5-2,2.6-2.6
			c1.1-0.6,2.5-0.9,4.1-0.9s2.9,0.3,4.1,0.9c1.2,0.6,2,1.4,2.6,2.6c0.6,1.2,0.9,2.5,0.9,4.1v2.9c0,1.6-0.3,3-0.9,4.1
			c-0.6,1.2-1.5,2-2.6,2.6s-2.5,0.9-4.1,0.9S940.9,226.5,939.8,225.8z M946.7,222.3c0.7-0.8,1-1.8,1-3.2v-2.9c0-1.4-0.3-2.4-1-3.2
			s-1.7-1.2-2.9-1.2s-2.2,0.4-2.9,1.2s-1,1.8-1,3.2v2.9c0,1.4,0.3,2.4,1,3.2c0.7,0.8,1.7,1.2,2.9,1.2S946,223.1,946.7,222.3z"/>
		<path class="st42" d="M970.4,208.9h3.2v17.6h-3.2V214l0.2,1.1l-4.4,7.9H964l-4.4-7.9l0.2-1.1v12.4h-3.2v-17.6h3.2l5.4,9.7
			L970.4,208.9z"/>
		<path class="st42" d="M978.6,222.9h3.8v3.7h-3.8V222.9z"/>
		<path class="st42" d="M629.9,285.2h3.4v24.6h-3.5v-18.4l0.2,1.1l-6.3,14h-2.5l-6.3-13.6l0.2-1.4v18.4h-3.5v-24.7h3.4l7.5,16.3
			L629.9,285.2z"/>
		<path class="st42" d="M642.1,309.1c-1.1-0.6-2-1.4-2.6-2.6s-0.9-2.5-0.9-4.1v-2.9c0-1.6,0.3-3,0.9-4.1c0.6-1.1,1.5-2,2.6-2.6
			c1.1-0.6,2.5-0.9,4.1-0.9s2.9,0.3,4.1,0.9c1.2,0.6,2,1.4,2.6,2.6c0.6,1.2,0.9,2.5,0.9,4.1v2.9c0,1.6-0.3,3-0.9,4.1s-1.5,2-2.6,2.6
			c-1.1,0.6-2.5,0.9-4.1,0.9S643.3,309.8,642.1,309.1z M649.1,305.7c0.7-0.8,1-1.8,1-3.2v-2.9c0-1.4-0.3-2.4-1-3.2s-1.7-1.2-2.9-1.2
			s-2.2,0.4-2.9,1.2s-1,1.8-1,3.2v2.9c0,1.4,0.3,2.4,1,3.2s1.7,1.2,2.9,1.2S648.4,306.4,649.1,305.7z"/>
		<path class="st42" d="M662.9,300.4l2.6,1.7l-4.9,7.6H656L662.9,300.4z M657.1,292.2h4.1l4.4,7.3l-1.5,3L657.1,292.2z M662.9,299.3
			h12v3.1h-12V299.3z M667.1,292.2h3.6v17.6h-3.6V292.2z M672.1,299.6l4.4-7.3h4.1l-7.1,10.3L672.1,299.6z M672.3,302.2l2.6-1.7
			l6.9,9.4h-4.6L672.3,302.2z"/>
		<path class="st42" d="M684.6,292.2h3.6v17.6h-3.6V292.2z M686.8,299.6H698v3.1h-11.2V299.6z M696.1,292.2h3.6v17.6h-3.6V292.2z"/>
		<path class="st42" d="M708.2,309.1c-1.1-0.6-2-1.4-2.6-2.6s-0.9-2.5-0.9-4.1v-2.9c0-1.6,0.3-3,0.9-4.1c0.6-1.1,1.5-2,2.6-2.6
			c1.1-0.6,2.5-0.9,4.1-0.9s2.9,0.3,4.1,0.9c1.2,0.6,2,1.4,2.6,2.6c0.6,1.2,0.9,2.5,0.9,4.1v2.9c0,1.6-0.3,3-0.9,4.1s-1.5,2-2.6,2.6
			c-1.1,0.6-2.5,0.9-4.1,0.9S709.4,309.8,708.2,309.1z M715.2,305.7c0.7-0.8,1-1.8,1-3.2v-2.9c0-1.4-0.3-2.4-1-3.2s-1.7-1.2-2.9-1.2
			s-2.2,0.4-2.9,1.2s-1,1.8-1,3.2v2.9c0,1.4,0.3,2.4,1,3.2s1.7,1.2,2.9,1.2S714.5,306.4,715.2,305.7z"/>
		<path class="st42" d="M734.6,292.2h3.6v17.6h-3.6V292.2z M736.3,299.4h6.6v3.3h-6.6V299.4z M740,299.7l5-7.5h4.3l-7.6,10.5
			L740,299.7z M740.1,302.4l2.8-1.7l7.4,9.2h-4.8L740.1,302.4z"/>
		<path class="st42" d="M753.9,308.7c-1.1-0.9-1.7-2.2-1.7-4.1c0-1.7,0.5-3.1,1.5-4s2.6-1.4,4.6-1.4h5.2l0.2,2.8h-5.4
			c-0.9,0-1.6,0.2-2.1,0.6s-0.7,1.1-0.7,1.8c0,0.9,0.3,1.5,0.9,2c0.6,0.5,1.5,0.7,2.8,0.7c1.4,0,2.4-0.1,3.1-0.4s1-0.8,1-1.4
			l0.4,2.5c-0.3,0.5-0.7,0.9-1.2,1.2c-0.5,0.3-1,0.6-1.6,0.7c-0.6,0.1-1.3,0.2-2.1,0.2C756.7,310.1,755,309.6,753.9,308.7z
			 M763.4,298.6c0-1.2-0.3-2-1-2.7c-0.7-0.7-1.5-1-2.7-1c-0.7,0-1.4,0.1-2.1,0.3s-1.3,0.5-1.9,0.9l-2.6-1.7c0.7-0.8,1.6-1.4,2.7-1.8
			c1.1-0.4,2.4-0.7,3.8-0.7c1.5,0,2.8,0.3,3.9,0.8s1.9,1.3,2.5,2.2s0.8,2.1,0.8,3.6v11.4h-3.4V298.6z"/>
		<path class="st42" d="M772.3,292.2h3.6v17.6h-3.6V292.2z M774,299.4h6.6v3.3H774V299.4z M777.6,299.7l5-7.5h4.3l-7.6,10.5
			L777.6,299.7z M777.8,302.4l2.8-1.7l7.4,9.2h-4.8L777.8,302.4z"/>
		<path class="st42" d="M803.6,309.1c-1.2-0.6-2.1-1.4-2.7-2.6s-0.9-2.5-0.9-4.1v-2.9c0-1.6,0.3-3,0.9-4.1c0.6-1.1,1.5-2,2.7-2.6
			c1.2-0.6,2.6-0.9,4.3-0.9c0.9,0,1.8,0.1,2.7,0.3c0.9,0.2,1.6,0.6,2.3,1s1.2,1,1.7,1.5L812,297c-0.5-0.6-1.1-1-1.8-1.4
			s-1.4-0.5-2.2-0.5c-1.4,0-2.5,0.4-3.2,1.2c-0.7,0.8-1.1,1.8-1.1,3.2v2.9c0,1.4,0.4,2.5,1.1,3.2c0.7,0.7,1.8,1.2,3.2,1.2
			c0.8,0,1.5-0.2,2.2-0.5c0.7-0.3,1.3-0.8,1.8-1.4l2.6,2.4c-0.5,0.6-1,1.1-1.7,1.5s-1.4,0.8-2.3,1c-0.9,0.2-1.7,0.3-2.7,0.3
			C806.2,310.1,804.8,309.8,803.6,309.1z"/>
		<path class="st42" d="M826.8,306.7h17.6v3.1h-17.6V306.7z M826.8,306.7h3.6v7.5h-3.6V306.7z M827.5,306.7h0.4
			c0.7,0,1.3-0.2,1.7-0.6s0.6-1,0.8-1.7s0.2-1.8,0.2-3.3v-8.9h3.6v10c0,2-0.4,3.6-1.3,4.6c-0.9,1.1-2.1,1.5-3.7,1.5h-0.4
			L827.5,306.7z M832.8,292.2h8.1v3.1h-8.1V292.2z M839.7,292.2h3.6v17.6h-3.6V292.2z M842.9,306.7h3.6v7.5h-3.6V306.7z"/>
		<path class="st42" d="M850.7,292.2h3.6V317h-3.6V292.2z M856,309.3c-0.8-0.5-1.5-1.3-1.9-2.2l0.2-3.7c0,0.8,0.1,1.4,0.4,1.9
			c0.3,0.5,0.7,1,1.2,1.3c0.5,0.3,1.2,0.4,1.9,0.4c1.2,0,2.1-0.4,2.8-1.1c0.7-0.7,1-1.6,1-2.9v-3.9c0-1.3-0.3-2.3-1-3
			c-0.7-0.7-1.6-1.1-2.8-1.1c-0.8,0-1.4,0.1-1.9,0.4c-0.5,0.3-0.9,0.7-1.2,1.2c-0.3,0.5-0.4,1.2-0.4,1.9l-0.4-3.4
			c0.6-1.1,1.3-1.8,2.2-2.4c0.9-0.6,1.9-0.9,3-0.9c1.3,0,2.4,0.3,3.3,0.9c0.9,0.6,1.6,1.4,2.1,2.4s0.7,2.4,0.7,3.9v3.9
			c0,1.4-0.2,2.8-0.7,3.9c-0.5,1.1-1.2,1.8-2.2,2.4c-1,0.6-2.1,0.9-3.4,0.9C857.8,310.1,856.8,309.8,856,309.3z"/>
		<path class="st42" d="M868.4,292.2h3.7l5.6,15.3l-2,3.8L868.4,292.2z M884.5,292.2l-7.8,21.7c-0.3,0.8-0.7,1.4-1.1,1.9
			s-1,0.8-1.7,1c-0.7,0.2-1.5,0.3-2.5,0.3h-0.7v-3.3h0.7c0.7,0,1.2-0.1,1.6-0.4s0.7-0.7,1-1.4l6.8-19.9H884.5z"/>
		<path class="st42" d="M890.1,309.4c-1-0.4-1.7-1-2.3-1.8s-1-1.7-1.1-2.8h3.5c0.1,0.7,0.5,1.2,1.1,1.5s1.3,0.6,2.2,0.6
			c1,0,1.8-0.2,2.4-0.7c0.6-0.5,0.8-1.1,0.8-1.8l0,0c0-0.6-0.2-1.1-0.6-1.4s-1-0.5-1.7-0.5h-2.9v-3h2.9c0.6,0,1-0.2,1.3-0.5
			s0.5-0.9,0.5-1.4l0,0c0-0.8-0.2-1.4-0.7-1.7c-0.5-0.4-1.2-0.7-2.1-0.7c-0.8,0-1.5,0.2-2.1,0.6s-0.9,0.9-1.1,1.5h-3.5
			c0.3-1.6,1.1-3,2.3-3.9s2.7-1.4,4.6-1.4c2,0,3.5,0.4,4.6,1.3s1.6,2,1.6,3.5l0,0c0,1-0.2,1.8-0.7,2.5c-0.5,0.7-1.2,1.3-2,1.5
			c1.1,0.2,1.9,0.6,2.5,1.3c0.6,0.7,0.9,1.5,0.9,2.6l0,0c0,1.7-0.6,3.1-1.8,4.1c-1.2,1-2.8,1.4-5,1.4
			C892.1,310.1,891,309.9,890.1,309.4z"/>
		<path class="st42" d="M904.8,292.2h3.6v17.6h-3.6V292.2z M906.6,306.5h6.4c0.7,0,1.3-0.2,1.7-0.7c0.4-0.5,0.7-1.1,0.7-1.7
			c0-0.5-0.1-0.9-0.3-1.3s-0.5-0.7-0.8-0.9c-0.3-0.2-0.8-0.3-1.3-0.3h-6.4v-3.3h6.3c1.3,0,2.4,0.2,3.3,0.7c0.9,0.5,1.7,1.2,2.2,2
			s0.8,1.8,0.8,3c0,1.2-0.3,2.1-0.8,3s-1.3,1.5-2.2,2c-0.9,0.5-2.1,0.7-3.3,0.7h-6.3L906.6,306.5L906.6,306.5z"/>
		<path class="st42" d="M922.7,309.8l5.1-7.7l3.6,0.8l-4.4,6.9H922.7z M929.4,303.6c-1.3,0-2.4-0.2-3.3-0.7c-0.9-0.5-1.7-1.2-2.2-2
			s-0.8-1.8-0.8-3c0-1.2,0.3-2.1,0.8-3s1.3-1.5,2.2-2c0.9-0.5,2.1-0.7,3.3-0.7h6.5v3.3h-6.6c-0.7,0-1.3,0.2-1.7,0.7
			s-0.7,1.1-0.7,1.7c0,0.5,0.1,0.9,0.3,1.3c0.2,0.4,0.5,0.7,0.8,0.9c0.3,0.2,0.8,0.3,1.3,0.3h6.6v3.3L929.4,303.6L929.4,303.6z
			 M934,309.8v-17.6h3.6v17.6H934z"/>
		<path class="st42" d="M957.2,292.2h3.2v17.6h-3.2v-12.4l0.2,1.1l-4.4,7.9h-2.1l-4.4-7.9l0.2-1.1v12.4h-3.2v-17.6h3.2l5.4,9.7
			L957.2,292.2z"/>
		<path class="st42" d="M977.5,309.8v-12.5l0.4,0.5l-8.8,12.1H966v-17.6h3.6V305l-0.4-0.5l8.8-12.3h3.1v17.7H977.5z"/>
		<path class="st42" d="M986,306.2h3.8v5.5l-3.8,3.8V306.2z"/>
		<path class="st42" d="M567.4,333.9h14.2v3.1h-14.2V333.9z M572.7,335.7h3.6v15.7h-3.6V335.7z"/>
		<path class="st42" d="M587.1,350.4c-1.1-0.9-1.7-2.2-1.7-4.1c0-1.7,0.5-3.1,1.5-4s2.6-1.4,4.6-1.4h5.2l0.2,2.8h-5.4
			c-0.9,0-1.6,0.2-2.1,0.6c-0.5,0.4-0.7,1.1-0.7,1.8c0,0.9,0.3,1.5,0.9,2s1.5,0.7,2.8,0.7c1.4,0,2.4-0.1,3.1-0.4
			c0.7-0.3,1-0.8,1-1.4l0.4,2.5c-0.3,0.5-0.7,0.9-1.2,1.2s-1,0.6-1.6,0.7s-1.3,0.2-2.1,0.2C589.9,351.8,588.2,351.3,587.1,350.4z
			 M596.6,340.3c0-1.2-0.3-2-1-2.7s-1.5-1-2.7-1c-0.7,0-1.4,0.1-2.1,0.3c-0.7,0.2-1.3,0.5-1.9,0.9l-2.6-1.7c0.7-0.8,1.6-1.4,2.7-1.8
			s2.4-0.7,3.8-0.7c1.5,0,2.8,0.3,3.9,0.8s1.9,1.3,2.5,2.2c0.6,1,0.8,2.1,0.8,3.6v11.3h-3.4V340.3z"/>
		<path class="st42" d="M605.5,333.9h3.6v17.6h-3.6V333.9z M607.2,341h6.6v3.3h-6.6V341z M610.8,341.3l5-7.5h4.3l-7.6,10.5
			L610.8,341.3z M611,344l2.8-1.7l7.4,9.2h-4.8L611,344z"/>
		<path class="st42" d="M645.1,351.5v-12.5l0.4,0.5l-8.8,12.1h-3.1v-17.6h3.6v12.8l-0.4-0.5l8.8-12.3h3.1v17.6H645.1z"/>
		<path class="st42" d="M667.1,350.8c-1.2-0.6-2.1-1.4-2.7-2.6c-0.6-1.2-0.9-2.5-0.9-4.1v-2.9c0-1.6,0.3-3,0.9-4.1
			c0.6-1.1,1.5-2,2.7-2.6c1.2-0.6,2.6-0.9,4.3-0.9c0.9,0,1.8,0.1,2.7,0.3c0.9,0.2,1.6,0.6,2.3,1c0.7,0.4,1.2,1,1.7,1.5l-2.6,2.2
			c-0.5-0.6-1.1-1-1.8-1.4s-1.4-0.5-2.2-0.5c-1.4,0-2.5,0.4-3.2,1.2s-1.1,1.8-1.1,3.2v2.9c0,1.4,0.4,2.5,1.1,3.2
			c0.7,0.7,1.8,1.2,3.2,1.2c0.8,0,1.5-0.2,2.2-0.5s1.3-0.8,1.8-1.4l2.6,2.4c-0.5,0.6-1,1.1-1.7,1.5s-1.4,0.8-2.3,1
			c-0.9,0.2-1.7,0.3-2.7,0.3C669.7,351.8,668.2,351.5,667.1,350.8z"/>
		<path class="st42" d="M684.8,350.8c-1.1-0.6-2-1.4-2.6-2.6c-0.6-1.2-0.9-2.5-0.9-4.1v-2.9c0-1.6,0.3-3,0.9-4.1
			c0.6-1.1,1.5-2,2.6-2.6c1.1-0.6,2.5-0.9,4.1-0.9s2.9,0.3,4.1,0.9c1.2,0.6,2,1.4,2.6,2.6s0.9,2.5,0.9,4.1v2.9c0,1.6-0.3,3-0.9,4.1
			c-0.6,1.2-1.5,2-2.6,2.6s-2.5,0.9-4.1,0.9S686,351.5,684.8,350.8z M691.8,347.3c0.7-0.8,1-1.8,1-3.2v-2.9c0-1.4-0.3-2.4-1-3.2
			s-1.7-1.2-2.9-1.2s-2.2,0.4-2.9,1.2s-1,1.8-1,3.2v2.9c0,1.4,0.3,2.4,1,3.2c0.7,0.8,1.7,1.2,2.9,1.2S691.1,348.1,691.8,347.3z"/>
		<path class="st42" d="M711.2,333.9h3.6v17.6h-3.6V333.9z M713.3,348.4h6.8c0.7,0,1.3-0.2,1.7-0.6s0.6-1,0.6-1.6v-0.1
			c0-0.8-0.2-1.4-0.6-1.7s-0.9-0.6-1.7-0.6h-6.8v-3.1h6.8c0.6,0,1.1-0.2,1.4-0.5c0.3-0.3,0.5-0.7,0.5-1.3c0-0.6-0.2-1.1-0.5-1.4
			s-0.8-0.5-1.4-0.5h-6.8v-3.1h6.9c1.7,0,3,0.4,4,1.2s1.4,1.8,1.4,3.2c0,1.1-0.3,1.9-1,2.7s-1.7,1.2-2.9,1.4
			c1.4,0.3,2.4,0.8,3.2,1.6c0.8,0.9,1.1,1.8,1.1,3.1v0.1c0,1.4-0.5,2.5-1.5,3.4s-2.4,1.2-4.2,1.2h-6.9L713.3,348.4L713.3,348.4z"/>
		<path class="st42" d="M729.8,333.9H744v3.1h-14.2V333.9z M735,335.7h3.6v15.7H735V335.7z"/>
		<path class="st42" d="M751.6,350.8c-1.1-0.6-2-1.4-2.6-2.6c-0.6-1.2-0.9-2.5-0.9-4.1v-2.9c0-1.6,0.3-3,0.9-4.1
			c0.6-1.1,1.5-2,2.6-2.6c1.1-0.6,2.5-0.9,4.1-0.9s2.9,0.3,4.1,0.9c1.2,0.6,2,1.4,2.6,2.6s0.9,2.5,0.9,4.1v2.9c0,1.6-0.3,3-0.9,4.1
			c-0.6,1.2-1.5,2-2.6,2.6s-2.5,0.9-4.1,0.9S752.7,351.5,751.6,350.8z M758.6,347.3c0.7-0.8,1-1.8,1-3.2v-2.9c0-1.4-0.3-2.4-1-3.2
			s-1.7-1.2-2.9-1.2s-2.2,0.4-2.9,1.2s-1,1.8-1,3.2v2.9c0,1.4,0.3,2.4,1,3.2c0.7,0.8,1.7,1.2,2.9,1.2S757.9,348.1,758.6,347.3z"/>
		<path class="st42" d="M768.3,333.9h3.6v24.8h-3.6V333.9z M773.5,351c-0.8-0.5-1.5-1.3-1.9-2.2l0.2-3.7c0,0.8,0.1,1.4,0.4,1.9
			s0.7,1,1.2,1.3s1.2,0.4,1.9,0.4c1.2,0,2.1-0.4,2.8-1.1c0.7-0.7,1-1.6,1-2.9v-3.9c0-1.3-0.3-2.3-1-3c-0.7-0.7-1.6-1.1-2.8-1.1
			c-0.8,0-1.4,0.1-1.9,0.4s-0.9,0.7-1.2,1.2s-0.4,1.2-0.4,1.9l-0.4-3.4c0.6-1.1,1.3-1.8,2.2-2.4c0.9-0.6,1.9-0.9,3-0.9
			c1.3,0,2.4,0.3,3.3,0.9c0.9,0.6,1.6,1.4,2.1,2.4c0.5,1.1,0.7,2.4,0.7,3.9v3.9c0,1.4-0.2,2.8-0.7,3.9c-0.5,1.1-1.2,1.8-2.2,2.4
			c-1,0.6-2.1,0.9-3.4,0.9C775.3,351.8,774.3,351.5,773.5,351z"/>
		<path class="st42" d="M790.8,350.8c-1.1-0.6-2-1.4-2.6-2.6c-0.6-1.2-0.9-2.5-0.9-4.1v-2.9c0-1.6,0.3-3,0.9-4.1
			c0.6-1.1,1.5-2,2.6-2.6c1.1-0.6,2.5-0.9,4.1-0.9s2.9,0.3,4.1,0.9c1.2,0.6,2,1.4,2.6,2.6s0.9,2.5,0.9,4.1v2.9c0,1.6-0.3,3-0.9,4.1
			c-0.6,1.2-1.5,2-2.6,2.6s-2.5,0.9-4.1,0.9S791.9,351.5,790.8,350.8z M797.8,347.3c0.7-0.8,1-1.8,1-3.2v-2.9c0-1.4-0.3-2.4-1-3.2
			s-1.7-1.2-2.9-1.2s-2.2,0.4-2.9,1.2s-1,1.8-1,3.2v2.9c0,1.4,0.3,2.4,1,3.2c0.7,0.8,1.7,1.2,2.9,1.2S797.1,348.1,797.8,347.3z"/>
		<path class="st42" d="M818.9,351.5v-12.5l0.4,0.5l-8.8,12.1h-3.1v-17.6h3.6v12.8l-0.4-0.5l8.8-12.3h3.1v17.6H818.9z M810.9,329
			c-0.9-1-1.3-2.5-1.3-4.5h2.9c0,1.2,0.2,1.9,0.6,2.5c0.4,0.6,1,0.9,1.8,0.9h0.3c0.8,0,1.4-0.3,1.8-0.9c0.4-0.6,0.6-1.4,0.6-2.5h2.9
			c0,2-0.4,3.6-1.3,4.5c-0.9,1-2.2,1.5-3.9,1.5H815C813.1,330.5,811.8,330.1,810.9,329z"/>
		<path class="st42" d="M837.8,333.9h3.6v17.6h-3.6V333.9z M840,333.9h11.2v3.3H840V333.9z M849.3,333.9h3.6v17.6h-3.6V333.9z"/>
		<path class="st42" d="M861.5,350.8c-1.1-0.6-2-1.4-2.6-2.6c-0.6-1.2-0.9-2.5-0.9-4.1v-2.9c0-1.6,0.3-3,0.9-4.1
			c0.6-1.1,1.5-2,2.6-2.6c1.1-0.6,2.5-0.9,4.1-0.9s2.9,0.3,4.1,0.9c1.2,0.6,2,1.4,2.6,2.6s0.9,2.5,0.9,4.1v2.9c0,1.6-0.3,3-0.9,4.1
			c-0.6,1.2-1.5,2-2.6,2.6s-2.5,0.9-4.1,0.9S862.6,351.5,861.5,350.8z M868.4,347.3c0.7-0.8,1-1.8,1-3.2v-2.9c0-1.4-0.3-2.4-1-3.2
			s-1.7-1.2-2.9-1.2s-2.2,0.4-2.9,1.2s-1,1.8-1,3.2v2.9c0,1.4,0.3,2.4,1,3.2c0.7,0.8,1.7,1.2,2.9,1.2S867.8,348.1,868.4,347.3z"/>
		<path class="st42" d="M876.9,348.4c0.9,0,1.7-0.4,2.2-1.3s0.8-2,0.8-3.5v-9.7h3.6v10.2c0,1.6-0.2,3-0.7,4.1
			c-0.5,1.1-1.2,2-2.1,2.6s-2,0.9-3.4,0.9h-0.4L876.9,348.4L876.9,348.4z M882.1,333.9h8.9v3.3h-8.9V333.9z M889.2,333.9h3.6v17.6
			h-3.6V333.9z"/>
		<path class="st42" d="M901.3,350.8c-1.1-0.6-2-1.4-2.6-2.6c-0.6-1.2-0.9-2.5-0.9-4.1v-2.9c0-1.6,0.3-3,0.9-4.1
			c0.6-1.1,1.5-2,2.6-2.6c1.1-0.6,2.5-0.9,4.1-0.9s2.9,0.3,4.1,0.9c1.2,0.6,2,1.4,2.6,2.6s0.9,2.5,0.9,4.1v2.9c0,1.6-0.3,3-0.9,4.1
			c-0.6,1.2-1.5,2-2.6,2.6s-2.5,0.9-4.1,0.9S902.4,351.5,901.3,350.8z M908.3,347.3c0.7-0.8,1-1.8,1-3.2v-2.9c0-1.4-0.3-2.4-1-3.2
			s-1.7-1.2-2.9-1.2s-2.2,0.4-2.9,1.2s-1,1.8-1,3.2v2.9c0,1.4,0.3,2.4,1,3.2c0.7,0.8,1.7,1.2,2.9,1.2S907.6,348.1,908.3,347.3z"/>
		<path class="st42" d="M918,333.9h3.6v17.6H918V333.9z M920.1,348.4h6.8c0.7,0,1.3-0.2,1.7-0.6s0.6-1,0.6-1.6v-0.1
			c0-0.8-0.2-1.4-0.6-1.7s-0.9-0.6-1.7-0.6h-6.8v-3.1h6.8c0.6,0,1.1-0.2,1.4-0.5c0.3-0.3,0.5-0.7,0.5-1.3c0-0.6-0.2-1.1-0.5-1.4
			s-0.8-0.5-1.4-0.5h-6.8v-3.1h6.9c1.7,0,3,0.4,4,1.2s1.4,1.8,1.4,3.2c0,1.1-0.3,1.9-1,2.7s-1.7,1.2-2.9,1.4
			c1.4,0.3,2.4,0.8,3.2,1.6c0.8,0.9,1.1,1.8,1.1,3.1v0.1c0,1.4-0.5,2.5-1.5,3.4s-2.4,1.2-4.2,1.2h-6.9L920.1,348.4L920.1,348.4z"/>
		<path class="st42" d="M948.9,351.5v-12.5l0.4,0.5l-8.8,12.1h-3.1v-17.6h3.6v12.8l-0.4-0.5l8.8-12.3h3.1v17.6H948.9z"/>
		<path class="st42" d="M958.1,333.9h3.6v17.6h-3.6V333.9z M960.3,341.2h11.2v3.1h-11.2V341.2z M969.6,333.9h3.6v17.6h-3.6V333.9z"
			/>
		<path class="st42" d="M978.8,333.9h3.6v17.6h-3.6V333.9z M980.6,341h6.6v3.3h-6.6V341z M984.2,341.3l5-7.5h4.3l-7.6,10.5
			L984.2,341.3z M984.4,344l2.8-1.7l7.4,9.2h-4.8L984.4,344z"/>
		<path class="st42" d="M1000.3,350.8c-1.1-0.6-2-1.4-2.6-2.6c-0.6-1.2-0.9-2.5-0.9-4.1v-2.9c0-1.6,0.3-3,0.9-4.1
			c0.6-1.1,1.5-2,2.6-2.6c1.1-0.6,2.5-0.9,4.1-0.9s2.9,0.3,4.1,0.9c1.2,0.6,2,1.4,2.6,2.6s0.9,2.5,0.9,4.1v2.9c0,1.6-0.3,3-0.9,4.1
			c-0.6,1.2-1.5,2-2.6,2.6s-2.5,0.9-4.1,0.9S1001.4,351.5,1000.3,350.8z M1007.3,347.3c0.7-0.8,1-1.8,1-3.2v-2.9
			c0-1.4-0.3-2.4-1-3.2s-1.7-1.2-2.9-1.2s-2.2,0.4-2.9,1.2s-1,1.8-1,3.2v2.9c0,1.4,0.3,2.4,1,3.2c0.7,0.8,1.7,1.2,2.9,1.2
			S1006.6,348.1,1007.3,347.3z"/>
		<path class="st42" d="M1028.4,351.5v-12.5l0.4,0.5l-8.8,12.1h-3.1v-17.6h3.6v12.8l-0.4-0.5l8.8-12.3h3.1v17.6H1028.4z M1020.4,329
			c-0.9-1-1.3-2.5-1.3-4.5h2.9c0,1.2,0.2,1.9,0.6,2.5c0.4,0.6,1,0.9,1.8,0.9h0.3c0.8,0,1.4-0.3,1.8-0.9c0.4-0.6,0.6-1.4,0.6-2.5h2.9
			c0,2-0.4,3.6-1.3,4.5c-0.9,1-2.2,1.5-3.9,1.5h-0.3C1022.6,330.5,1021.3,330.1,1020.4,329z"/>
		<path class="st42" d="M1037.8,347.9h3.8v3.7h-3.8V347.9z M1037.9,326.9h3.6v18.3h-3.6V326.9z"/>
	</g>
</g>
</svg>
