<?xml version="1.0" encoding="utf-8"?>
<!-- Generator: Adobe Illustrator 24.1.2, SVG Export Plug-In . SVG Version: 6.00 Build 0)  -->
<svg version="1.1" xmlns="http://www.w3.org/2000/svg" xmlns:xlink="http://www.w3.org/1999/xlink" x="0px" y="0px"
	 viewBox="0 0 500 500" style="enable-background:new 0 0 500 500;" xml:space="preserve">
<style type="text/css">
	.st0{fill:#F5F5F5;}
	.st1{fill:#E0E0E0;}
	.st2{fill:#EBEBEB;}
	.st3{fill:#F3CE63;}
	.st4{fill:#FFFFFF;}
	.st5{fill:#37474F;}
	.st6{fill:#263238;}
	.st7{fill:#455A64;}
	.st8{opacity:0.6;fill:#7877A7;}
	.st9{fill:#F0F0F0;}
	.st10{fill:#525277;}
	.st11{fill:#7877A7;}
	.st12{opacity:0.4;fill:#060628;}
	.st13{opacity:0.4;fill:#0D0D2D;}
	.st14{fill:#060628;}
	.st15{opacity:0.15;fill:#060628;}
	.st16{opacity:0.15;}
	.st17{opacity:0.1;}
	.st18{display:none;fill:#27DEBF;}
	.st19{fill:#351A03;}
	.st20{opacity:0.3;}
	.st21{opacity:0.1;fill:#1E1707;}
	.st22{fill:#FFBE9D;}
	.st23{opacity:0.7;fill:#547FB2;}
	.st24{fill:#547FB2;}
</style>
<g id="Floor">
	<path id="Floor_4_" class="st0" d="M86.4,428.2c90.2,53.2,236.5,53.2,326.7,0c90.2-53.2,90.2-139.6,0-192.8
		c-90.2-53.2-236.5-53.2-326.7,0C-3.8,288.7-3.8,375,86.4,428.2z"/>
</g>
<g id="Shadow">
	<ellipse id="Shadows_1_" class="st1" cx="391.1" cy="405.5" rx="44.2" ry="25.5"/>
</g>
<g id="Clouds">
	<g id="Clouds_7_">
		<path id="XMLID_968_" class="st2" d="M363.4,77.1l7.7,4.4c0-0.3-0.1-0.7-0.1-1v-2.2c0-4,2.8-5.6,6.2-3.6c1.4,0.8,2.7,2.1,3.7,3.6
			c0.6-5,4.5-6.8,9.2-4.1c5.1,3,9.3,10.1,9.3,16.1v3.3c0,1.5-0.3,2.8-0.8,3.9l6.4,3.7c1.9,1.1,3.4,3.8,3.4,6c0,2.2-1.5,3.1-3.4,2
			l-41.6-24c-1.9-1.1-3.4-3.8-3.4-6C360,76.9,361.5,76,363.4,77.1z"/>
		<path id="XMLID_867_" class="st2" d="M330.6,99.5l5.8,3.3c0-0.3,0-0.5,0-0.8v-1.7c0-3,2.1-4.2,4.7-2.7c1,0.6,2,1.6,2.8,2.7
			c0.4-3.8,3.4-5.1,6.9-3.1c3.9,2.2,7,7.7,7,12.1v2.5c0,1.2-0.2,2.1-0.6,2.9l4.8,2.8c1.4,0.8,2.6,2.8,2.6,4.5c0,1.7-1.2,2.3-2.6,1.5
			l-31.4-18.1c-1.4-0.8-2.6-2.8-2.6-4.5C328,99.3,329.2,98.7,330.6,99.5z"/>
	</g>
</g>
<g id="Plant">
	<path id="XMLID_1526_" class="st3" d="M73.9,288.6c-0.6,0.3-11,3.3-14.9-1.8c-3.9-5.1,2.6-13.1-1.1-16c-3.6-2.9-13.8,0-16.3-6.2
		c-2.5-6.2,4.8-8.8,0.7-15.1c-2.6-3.9-8.9-6.1-9.4-9.8c-0.9-6.1,9.1-8.9,17.7-3.1c8.6,5.7,13.8,3.1,16.5,2.7c2.7-0.4,8.6,0.5,8.4,10
		C75.4,259,73.9,288.6,73.9,288.6z"/>
	<g id="XMLID_1524_">
		<path id="XMLID_1525_" class="st4" d="M74.6,275c-0.3,0-0.5-0.2-0.6-0.5c-3-18.2-24.1-33-35.1-36.1c-0.3-0.1-0.5-0.4-0.4-0.7
			c0.1-0.3,0.4-0.5,0.7-0.4c11.2,3.2,32.8,18.4,35.9,37C75.2,274.7,75,275,74.6,275C74.6,275,74.6,275,74.6,275z"/>
	</g>
	<g id="XMLID_1517_">
		<path id="XMLID_1518_" class="st4" d="M49.7,259.8c-0.2,0-0.4-0.1-0.5-0.3c-0.2-0.3-0.1-0.6,0.2-0.8c0.3-0.2,8.5-5,16.5-2.7
			c0.3,0.1,0.5,0.4,0.4,0.7c-0.1,0.3-0.4,0.5-0.7,0.4C58,255,50,259.7,50,259.7C49.9,259.8,49.8,259.8,49.7,259.8z"/>
	</g>
</g>
<g id="Device">
	<path id="XMLID_30734_" class="st5" d="M77.9,295.6c0,2.6,1.9,5.8,4.3,7.2l121.3,70c2.4,1.4,6.3,1.4,8.7,0l166-95.8
		c2.4-1.4,4.3-4.6,4.3-7.2c0-2.6-1.9-5.8-4.3-7.2l-121.3-70c-2.4-1.4-6.3-1.4-8.7,0l-166,95.8C79.9,289.8,77.9,293,77.9,295.6z"/>
	<path id="XMLID_980_" class="st6" d="M207.9,364.5v9.4c-1.6,0-3.1-0.3-4.3-1l-121.3-70c-2.4-1.4-4.3-4.6-4.3-7.2
		c0-2.4,1.7-5.4,3.9-6.9c-1.9,1.4-1.8,3.4,0.4,4.7l121.3,70.1C204.8,364.2,206.3,364.5,207.9,364.5z"/>
	<path id="XMLID_30732_" class="st7" d="M73.9,288.6c-2.2-1.3-4.1-4.6-4.1-7.3l0-144.8c0-2.8,1.9-6.1,4.3-7.5l166-95.8
		c2.4-1.4,6.1-1.4,8.4-0.2c2.2,1.3,4.1,4.6,4.1,7.3v144.8c0,2.8-1.9,6.1-4.3,7.5l-166,95.8C79.9,289.8,76.1,289.9,73.9,288.6z"/>
	<path id="XMLID_979_" class="st6" d="M81.7,288.7c-2.4,1.1-5.8,1.1-7.9-0.1c-2.2-1.3-4.1-4.6-4.1-7.3V136.4c0-1.4,0.5-2.9,1.3-4.3
		l8.1,4.7v0c-0.8,1.4-1.3,2.9-1.3,4.3v144.8C77.9,288.5,79.6,289.6,81.7,288.7z"/>
	<path id="XMLID_30730_" class="st5" d="M77.9,141.1v144.8c0,2.8,1.9,3.9,4.3,2.5l166-95.8c2.4-1.4,4.3-4.7,4.3-7.5V40.3
		c0-2.8-1.9-3.9-4.3-2.5l-166,95.8C79.9,135,77.9,138.4,77.9,141.1z"/>
	<path id="XMLID_30712_" class="st7" d="M82.3,293.4l121.3,70c2.4,1.4,6.3,1.4,8.7,0l166-95.8c2.4-1.4,2.4-3.6,0-5l-121.3-70
		c-2.4-1.4-6.3-1.4-8.7,0l-166,95.8C79.9,289.8,79.9,292,82.3,293.4z"/>
	<path id="XMLID_30711_" class="st4" d="M84.6,141.7l160.1-92.4c1.4-0.8,2.6-0.2,2.6,1.5v125.3c0,1.7-1.2,3.7-2.6,4.5L84.6,273
		c-1.4,0.8-2.6,0.2-2.6-1.5V146.2C82,144.5,83.2,142.5,84.6,141.7z"/>
	<path id="XMLID_1_" class="st8" d="M84.6,141.7l160.1-92.4c1.4-0.8,2.6-0.2,2.6,1.5v125.3c0,1.7-1.2,3.7-2.6,4.5L84.6,273
		c-1.4,0.8-2.6,0.2-2.6-1.5V146.2C82,144.5,83.2,142.5,84.6,141.7z"/>
	<g id="XMLID_1364_">
		<path id="XMLID_1366_" class="st9" d="M164.3,133.7c4.3-2.5,7.7-0.5,7.7,4.5c0,4.9-3.5,10.9-7.7,13.4c-4.3,2.5-7.7,0.5-7.7-4.5
			C156.6,142.2,160,136.2,164.3,133.7z"/>
		<path id="XMLID_1365_" class="st9" d="M179.5,160.1c0-8.1-5.7-11.7-12.7-7.6l-4.4,2.5c-7,4-12.7,13.9-12.7,22v2.2l29.7-17.2V160.1
			z"/>
	</g>
	<path id="XMLID_1396_" class="st9" d="M194.5,164c-0.3-0.7-1-0.8-1.8-0.4l-51.9,30c-0.5,0.3-1,0.8-1.4,1.4
		c-0.4,0.6-0.6,1.3-0.6,1.9v6.1c0,1,0.6,1.5,1.5,1.3c0.1,0,0.1,0,0.1,0c0.1,0,0.2-0.1,0.3-0.2l51.9-30c1.1-0.6,1.9-2.1,1.9-3.3v-6.1
		C194.6,164.6,194.6,164.3,194.5,164z"/>
	<g id="XMLID_1381_">
		<path id="XMLID_1393_" class="st3" d="M145.5,194.4c1-0.6,1.8-0.1,1.8,1.1s-0.8,2.6-1.8,3.2s-1.8,0.1-1.8-1.1
			S144.5,195,145.5,194.4z"/>
		<path id="XMLID_1392_" class="st3" d="M151.5,190.9c1-0.6,1.8-0.1,1.8,1.1c0,1.2-0.8,2.6-1.8,3.2c-1,0.6-1.8,0.1-1.8-1.1
			S150.5,191.5,151.5,190.9z"/>
		<path id="XMLID_1391_" class="st3" d="M157.5,187.4c1-0.6,1.8-0.1,1.8,1.1s-0.8,2.6-1.8,3.2s-1.8,0.1-1.8-1.1
			S156.5,188,157.5,187.4z"/>
		<path id="XMLID_1389_" class="st3" d="M163.6,184c1-0.6,1.8-0.1,1.8,1.1s-0.8,2.6-1.8,3.2s-1.8,0.1-1.8-1.1S162.6,184.5,163.6,184
			z"/>
		<path id="XMLID_1385_" class="st3" d="M169.6,180.5c1-0.6,1.8-0.1,1.8,1.1s-0.8,2.6-1.8,3.2c-1,0.6-1.8,0.1-1.8-1.1
			S168.6,181.1,169.6,180.5z"/>
		<path id="XMLID_1384_" class="st3" d="M175.6,177c1-0.6,1.8-0.1,1.8,1.1s-0.8,2.6-1.8,3.2s-1.8,0.1-1.8-1.1S174.6,177.6,175.6,177
			z"/>
		<path id="XMLID_1383_" class="st3" d="M181.7,173.5c1-0.6,1.8-0.1,1.8,1.1s-0.8,2.6-1.8,3.2c-1,0.6-1.8,0.1-1.8-1.1
			S180.7,174.1,181.7,173.5z"/>
		<path id="XMLID_1382_" class="st3" d="M187.7,170c1-0.6,1.8-0.1,1.8,1.1c0,1.2-0.8,2.6-1.8,3.2c-1,0.6-1.8,0.1-1.8-1.1
			C185.9,172,186.7,170.6,187.7,170z"/>
	</g>
	<path id="XMLID_30710_" class="st5" d="M96.3,289.7l154.1-89c1.2-0.7,3.1-0.7,4.3,0l7.9,4.6c1.2,0.7,1.2,1.8,0,2.5l-154.1,88.9
		c-1.2,0.7-3.1,0.7-4.3,0l-7.9-4.5C95.1,291.5,95.1,290.4,96.3,289.7z"/>
	<path id="XMLID_30704_" class="st6" d="M116.7,301.4l154.1-89c1.2-0.7,3.1-0.7,4.3,0l48.5,28c1.2,0.7,1.2,1.8,0,2.5l-153.9,88.8
		c-1.2,0.7-3.1,0.7-4.3,0l-48.6-27.9C115.5,303.2,115.5,302.1,116.7,301.4z"/>
	<path id="XMLID_172_" class="st7" d="M254.8,252.4l4.8-2.8c0.2-0.1,0.2-0.3,0-0.4L254,246c-0.2-0.1-0.6-0.1-0.8,0l-4.8,2.8
		c-0.2,0.1-0.2,0.3,0,0.4l5.6,3.2C254.2,252.6,254.6,252.6,254.8,252.4z M245.3,241.4l-4.8,2.8c-0.2,0.1-0.2,0.3,0,0.4l5.6,3.2
		c0.2,0.1,0.6,0.1,0.8,0l4.8-2.8c0.2-0.1,0.2-0.3,0-0.4l-5.6-3.2C245.8,241.3,245.5,241.3,245.3,241.4z M229.7,250.4l-8.2,4.7
		c-0.2,0.1-0.2,0.3,0,0.4l5.6,3.2c0.2,0.1,0.6,0.1,0.8,0l8.2-4.7c0.2-0.1,0.2-0.3,0-0.4l-5.6-3.2
		C230.2,250.3,229.9,250.3,229.7,250.4z M238.2,245.5l-4.8,2.8c-0.2,0.1-0.2,0.3,0,0.4l5.6,3.2c0.2,0.1,0.6,0.1,0.8,0l4.8-2.8
		c0.2-0.1,0.2-0.3,0-0.4l-5.6-3.2C238.8,245.3,238.4,245.3,238.2,245.5z M219.3,256.4l-4.8,2.8c-0.2,0.1-0.2,0.3,0,0.4l5.6,3.2
		c0.2,0.1,0.6,0.1,0.8,0l4.8-2.8c0.2-0.1,0.2-0.3,0-0.4l-5.6-3.2C219.8,256.3,219.5,256.3,219.3,256.4z M212.2,260.4l-4.8,2.8
		c-0.2,0.1-0.2,0.3,0,0.4l5.6,3.2c0.2,0.1,0.6,0.1,0.8,0l4.8-2.8c0.2-0.1,0.2-0.3,0-0.4l-5.6-3.2
		C212.8,260.3,212.4,260.3,212.2,260.4z M234.2,273.5l4.8-2.8c0.2-0.1,0.2-0.3,0-0.4l-5.6-3.2c-0.2-0.1-0.6-0.1-0.8,0l-4.8,2.8
		c-0.2,0.1-0.2,0.3,0,0.4l5.6,3.2C233.6,273.7,234,273.7,234.2,273.5z M227.1,277.6l4.8-2.8c0.2-0.1,0.2-0.3,0-0.4l-5.6-3.2
		c-0.2-0.1-0.6-0.1-0.8,0l-4.8,2.8c-0.2,0.1-0.2,0.3,0,0.4l5.6,3.2C226.6,277.7,226.9,277.7,227.1,277.6z M220.1,281.7l4.8-2.8
		c0.2-0.1,0.2-0.3,0-0.4l-5.6-3.2c-0.2-0.1-0.6-0.1-0.8,0l-4.8,2.8c-0.2,0.1-0.2,0.3,0,0.4l5.6,3.2
		C219.5,281.8,219.9,281.8,220.1,281.7z M213,285.8l4.8-2.8c0.2-0.1,0.2-0.3,0-0.4l-5.6-3.2c-0.2-0.1-0.6-0.1-0.8,0l-4.8,2.8
		c-0.2,0.1-0.2,0.3,0,0.4l5.6,3.2C212.5,285.9,212.8,285.9,213,285.8z M247.7,256.5l4.8-2.8c0.2-0.1,0.2-0.3,0-0.4l-5.6-3.2
		c-0.2-0.1-0.6-0.1-0.8,0l-4.8,2.8c-0.2,0.1-0.2,0.3,0,0.4l5.6,3.2C247.2,256.6,247.5,256.6,247.7,256.5z M241.2,269.5l10.8-6.2
		c0.2-0.1,0.2-0.3,0-0.4l-13.5-7.8c-0.2-0.1-0.6-0.1-0.8,0l-5.6,3.2c-0.2,0.1-0.2,0.3,0,0.4l7.2,4.1c0.2,0.1,0.2,0.3,0,0.4l-4.5,2.6
		c-0.2,0.1-0.2,0.3,0,0.4l5.6,3.2C240.7,269.6,241,269.6,241.2,269.5z M205.2,264.5l-4.8,2.8c-0.2,0.1-0.2,0.3,0,0.4l5.6,3.2
		c0.2,0.1,0.6,0.1,0.8,0l4.8-2.8c0.2-0.1,0.2-0.3,0-0.4l-5.6-3.2C205.7,264.4,205.4,264.4,205.2,264.5z M198.1,268.6l-4.8,2.8
		c-0.2,0.1-0.2,0.3,0,0.4l5.6,3.2c0.2,0.1,0.6,0.1,0.8,0l4.8-2.8c0.2-0.1,0.2-0.3,0-0.4l-5.6-3.2
		C198.7,268.5,198.3,268.5,198.1,268.6z M162.9,314.2c0.2,0.1,0.6,0.1,0.8,0l4.8-2.8c0.2-0.1,0.2-0.3,0-0.4l-5.6-3.2
		c-0.2-0.1-0.6-0.1-0.8,0l-4.8,2.8c-0.2,0.1-0.2,0.3,0,0.4L162.9,314.2z M141.7,301.2l-4.8,2.8c-0.2,0.1-0.2,0.3,0,0.4l5.6,3.2
		c0.2,0.1,0.6,0.1,0.8,0l4.8-2.8c0.2-0.1,0.2-0.3,0-0.4l-5.6-3.2C142.3,301,141.9,301,141.7,301.2z M153.1,310.7
		c0.2,0.1,0.6,0.1,0.8,0l4.8-2.8c0.2-0.1,0.2-0.3,0-0.4l-5.6-3.2c-0.2-0.1-0.6-0.1-0.8,0l-4.8,2.8c-0.2,0.1-0.2,0.3,0,0.4
		L153.1,310.7z M175.3,316.7l4.8-2.8c0.2-0.1,0.2-0.3,0-0.4l-5.6-3.2c-0.2-0.1-0.6-0.1-0.8,0L169,313c-0.2,0.1-0.2,0.3,0,0.4
		l5.6,3.2C174.8,316.8,175.1,316.8,175.3,316.7z M167.5,320.8c0.2,0.1,0.6,0.1,0.8,0l4.8-2.8c0.2-0.1,0.2-0.3,0-0.4l-5.6-3.2
		c-0.2-0.1-0.6-0.1-0.8,0l-4.8,2.8c-0.2,0.1-0.2,0.3,0,0.4L167.5,320.8z M148.8,297.1l-4.8,2.8c-0.2,0.1-0.2,0.3,0,0.4l5.6,3.2
		c0.2,0.1,0.6,0.1,0.8,0l4.8-2.8c0.2-0.1,0.2-0.3,0-0.4l-5.6-3.2C149.3,297,149,297,148.8,297.1z M184,276.7l-4.8,2.8
		c-0.2,0.1-0.2,0.3,0,0.4l5.6,3.2c0.2,0.1,0.6,0.1,0.8,0l4.8-2.8c0.2-0.1,0.2-0.3,0-0.4l-5.6-3.2C184.6,276.6,184.2,276.6,184,276.7
		z M155.8,293l-4.8,2.8c-0.2,0.1-0.2,0.3,0,0.4l5.6,3.2c0.2,0.1,0.6,0.1,0.8,0l4.8-2.8c0.2-0.1,0.2-0.3,0-0.4l-5.6-3.2
		C156.4,292.9,156,292.9,155.8,293z M191.1,272.7l-4.8,2.8c-0.2,0.1-0.2,0.3,0,0.4l5.6,3.2c0.2,0.1,0.6,0.1,0.8,0l4.8-2.8
		c0.2-0.1,0.2-0.3,0-0.4l-5.6-3.2C191.6,272.6,191.3,272.5,191.1,272.7z M177,280.8l-4.8,2.8c-0.2,0.1-0.2,0.3,0,0.4l5.6,3.2
		c0.2,0.1,0.6,0.1,0.8,0l4.8-2.8c0.2-0.1,0.2-0.3,0-0.4l-5.6-3.2C177.5,280.7,177.2,280.7,177,280.8z M169.9,284.9l-4.8,2.8
		c-0.2,0.1-0.2,0.3,0,0.4l5.6,3.2c0.2,0.1,0.6,0.1,0.8,0l4.8-2.8c0.2-0.1,0.2-0.3,0-0.4l-5.6-3.2
		C170.5,284.8,170.1,284.8,169.9,284.9z M162.9,288.9l-4.8,2.8c-0.2,0.1-0.2,0.3,0,0.4l5.6,3.2c0.2,0.1,0.6,0.1,0.8,0l4.8-2.8
		c0.2-0.1,0.2-0.3,0-0.4l-5.6-3.2C163.4,288.8,163.1,288.8,162.9,288.9z M198.9,293.9l4.8-2.8c0.2-0.1,0.2-0.3,0-0.4l-5.6-3.2
		c-0.2-0.1-0.6-0.1-0.8,0l-4.8,2.8c-0.2,0.1-0.2,0.3,0,0.4l5.6,3.2C198.4,294,198.7,294,198.9,293.9z M260.8,232.4l-4.8,2.8
		c-0.2,0.1-0.2,0.3,0,0.4l5.6,3.2c0.2,0.1,0.6,0.1,0.8,0l4.8-2.8c0.2-0.1,0.2-0.3,0-0.4l-5.6-3.2
		C261.4,232.3,261.1,232.3,260.8,232.4z M252.3,237.3l-4.8,2.8c-0.2,0.1-0.2,0.3,0,0.4l5.6,3.2c0.2,0.1,0.6,0.1,0.8,0l4.8-2.8
		c0.2-0.1,0.2-0.3,0-0.4l-5.6-3.2C252.9,237.2,252.5,237.2,252.3,237.3z M267.9,228.3l-4.8,2.8c-0.2,0.1-0.2,0.3,0,0.4l5.6,3.2
		c0.2,0.1,0.6,0.1,0.8,0l4.8-2.8c0.2-0.1,0.2-0.3,0-0.4l-5.6-3.2C268.4,228.2,268.1,228.2,267.9,228.3z M231.4,265.9l4.8-2.8
		c0.2-0.1,0.2-0.3,0-0.4l-5.6-3.2c-0.2-0.1-0.6-0.1-0.8,0l-4.8,2.8c-0.2,0.1-0.2,0.3,0,0.4l5.6,3.2
		C230.9,266.1,231.2,266.1,231.4,265.9z M275.7,224.3c-0.2-0.1-0.6-0.1-0.8,0l-4.8,2.8c-0.2,0.1-0.2,0.3,0,0.4l5.6,3.2
		c0.2,0.1,0.6,0.1,0.8,0l4.8-2.8c0.2-0.1,0.2-0.3,0-0.4L275.7,224.3z M206,289.8l4.8-2.8c0.2-0.1,0.2-0.3,0-0.4l-5.6-3.2
		c-0.2-0.1-0.6-0.1-0.8,0l-4.8,2.8c-0.2,0.1-0.2,0.3,0,0.4l5.6,3.2C205.4,289.9,205.8,289.9,206,289.8z M292.4,239.9l4.8-2.8
		c0.2-0.1,0.2-0.3,0-0.4l-5.6-3.2c-0.2-0.1-0.6-0.1-0.8,0l-4.8,2.8c-0.2,0.1-0.2,0.3,0,0.4l5.6,3.2C291.9,240,292.2,240,292.4,239.9
		z M277.4,239.4l4.8-2.8c0.2-0.1,0.2-0.3,0-0.4l-5.6-3.2c-0.2-0.1-0.6-0.1-0.8,0l-4.8,2.8c-0.2,0.1-0.2,0.3,0,0.4l5.6,3.2
		C276.9,239.5,277.2,239.5,277.4,239.4z M283.7,228.9c-0.2-0.1-0.6-0.1-0.8,0l-4.8,2.8c-0.2,0.1-0.2,0.3,0,0.4l5.6,3.2
		c0.2,0.1,0.6,0.1,0.8,0l4.8-2.8c0.2-0.1,0.2-0.3,0-0.4L283.7,228.9z M285.2,228l13.5,7.8c0.2,0.1,0.6,0.1,0.8,0l4.8-2.8
		c0.2-0.1,0.2-0.3,0-0.4l-13.5-7.8c-0.2-0.1-0.6-0.1-0.8,0l-4.8,2.8C284.9,227.7,285,227.9,285.2,228z M268.8,237l-4.8,2.8
		c-0.2,0.1-0.2,0.3,0,0.4l5.6,3.2c0.2,0.1,0.6,0.1,0.8,0l4.8-2.8c0.2-0.1,0.2-0.3,0-0.4l-5.6-3.2C269.4,236.9,269,236.9,268.8,237z
		 M215.7,267.6l-4.8,2.8c-0.2,0.1-0.2,0.3,0,0.4l5.6,3.2c0.2,0.1,0.6,0.1,0.8,0l4.8-2.8c0.2-0.1,0.2-0.3,0-0.4l-5.6-3.2
		C216.3,267.5,216,267.5,215.7,267.6z M284.6,244c0.2,0.1,0.6,0.1,0.8,0l4.8-2.8c0.2-0.1,0.2-0.3,0-0.4l-5.6-3.2
		c-0.2-0.1-0.6-0.1-0.8,0l-4.8,2.8c-0.2,0.1-0.2,0.3,0,0.4L284.6,244z M222.8,263.6l-4.8,2.8c-0.2,0.1-0.2,0.3,0,0.4l5.6,3.2
		c0.2,0.1,0.6,0.1,0.8,0l4.8-2.8c0.2-0.1,0.2-0.3,0-0.4l-5.6-3.2C223.3,263.4,223,263.4,222.8,263.6z M169.9,310.2
		c0.2,0.1,0.6,0.1,0.8,0l4.8-2.8c0.2-0.1,0.2-0.3,0-0.4l-5.6-3.2c-0.2-0.1-0.6-0.1-0.8,0l-4.8,2.8c-0.2,0.1-0.2,0.3,0,0.4
		L169.9,310.2z M159.3,300.2l-4.8,2.8c-0.2,0.1-0.2,0.3,0,0.4l5.6,3.2c0.2,0.1,0.6,0.1,0.8,0l4.8-2.8c0.2-0.1,0.2-0.3,0-0.4
		l-5.6-3.2C159.9,300.1,159.5,300.1,159.3,300.2z M177.8,306.1l4.8-2.8c0.2-0.1,0.2-0.3,0-0.4l-5.6-3.2c-0.2-0.1-0.6-0.1-0.8,0
		l-4.8,2.8c-0.2,0.1-0.2,0.3,0,0.4l5.6,3.2C177.2,306.2,177.6,306.2,177.8,306.1z M184.8,302l4.8-2.8c0.2-0.1,0.2-0.3,0-0.4
		l-5.6-3.2c-0.2-0.1-0.6-0.1-0.8,0l-4.8,2.8c-0.2,0.1-0.2,0.3,0,0.4l5.6,3.2C184.3,302.2,184.6,302.2,184.8,302z M191.9,298l4.8-2.8
		c0.2-0.1,0.2-0.3,0-0.4l-5.6-3.2c-0.2-0.1-0.6-0.1-0.8,0l-4.8,2.8c-0.2,0.1-0.2,0.3,0,0.4l5.6,3.2
		C191.3,298.1,191.7,298.1,191.9,298z M166.4,296.1l-4.8,2.8c-0.2,0.1-0.2,0.3,0,0.4l5.6,3.2c0.2,0.1,0.6,0.1,0.8,0l4.8-2.8
		c0.2-0.1,0.2-0.3,0-0.4l-5.6-3.2C166.9,296,166.6,296,166.4,296.1z M173.4,292l-4.8,2.8c-0.2,0.1-0.2,0.3,0,0.4l5.6,3.2
		c0.2,0.1,0.6,0.1,0.8,0l4.8-2.8c0.2-0.1,0.2-0.3,0-0.4l-5.6-3.2C174,291.9,173.6,291.9,173.4,292z M201.6,275.8l-4.8,2.8
		c-0.2,0.1-0.2,0.3,0,0.4l5.6,3.2c0.2,0.1,0.6,0.1,0.8,0l4.8-2.8c0.2-0.1,0.2-0.3,0-0.4l-5.6-3.2
		C202.2,275.7,201.8,275.6,201.6,275.8z M194.6,279.8l-4.8,2.8c-0.2,0.1-0.2,0.3,0,0.4l5.6,3.2c0.2,0.1,0.6,0.1,0.8,0l4.8-2.8
		c0.2-0.1,0.2-0.3,0-0.4l-5.6-3.2C195.1,279.7,194.8,279.7,194.6,279.8z M208.7,271.7l-4.8,2.8c-0.2,0.1-0.2,0.3,0,0.4l5.6,3.2
		c0.2,0.1,0.6,0.1,0.8,0l4.8-2.8c0.2-0.1,0.2-0.3,0-0.4l-5.6-3.2C209.2,271.6,208.9,271.6,208.7,271.7z M180.5,288l-4.8,2.8
		c-0.2,0.1-0.2,0.3,0,0.4l5.6,3.2c0.2,0.1,0.6,0.1,0.8,0l4.8-2.8c0.2-0.1,0.2-0.3,0-0.4l-5.6-3.2C181,287.9,180.7,287.9,180.5,288z
		 M187.5,283.9l-4.8,2.8c-0.2,0.1-0.2,0.3,0,0.4l5.6,3.2c0.2,0.1,0.6,0.1,0.8,0l4.8-2.8c0.2-0.1,0.2-0.3,0-0.4l-5.6-3.2
		C188.1,283.8,187.7,283.8,187.5,283.9z M182.4,312.6l4.8-2.8c0.2-0.1,0.2-0.3,0-0.4l-5.6-3.2c-0.2-0.1-0.6-0.1-0.8,0L176,309
		c-0.2,0.1-0.2,0.3,0,0.4l5.6,3.2C181.8,312.8,182.2,312.8,182.4,312.6z M141,308.5l-5.6-3.2c-0.2-0.1-0.6-0.1-0.8,0l-4.8,2.8
		c-0.2,0.1-0.2,0.3,0,0.4l5.6,3.2c0.2,0.1,0.6,0.1,0.8,0l4.8-2.8C141.2,308.8,141.2,308.6,141,308.5z M151.6,311.6l-5.6-3.2
		c-0.2-0.1-0.6-0.1-0.8,0l-7.4,4.3c-0.2,0.1-0.2,0.3,0,0.4l5.6,3.2c0.2,0.1,0.6,0.1,0.8,0l7.4-4.3
		C151.8,311.9,151.8,311.7,151.6,311.6z M132.5,302.2l-5.6-3.2c-0.2-0.1-0.6-0.1-0.8,0l-5.9,3.4c-0.2,0.1-0.2,0.3,0,0.4l5.6,3.2
		c0.2,0.1,0.6,0.1,0.8,0l5.9-3.4C132.7,302.6,132.7,302.4,132.5,302.2z M137,299.6c0.2,0.1,0.6,0.1,0.8,0l4.8-2.8
		c0.2-0.1,0.2-0.3,0-0.4l-5.6-3.2c-0.2-0.1-0.6-0.1-0.8,0l-4.8,2.8c-0.2,0.1-0.2,0.3,0,0.4L137,299.6z M161.4,315.1l-5.6-3.2
		c-0.2-0.1-0.6-0.1-0.8,0l-9.3,5.4c-0.2,0.1-0.2,0.3,0,0.4l5.6,3.2c0.2,0.1,0.6,0.1,0.8,0l9.3-5.4
		C161.6,315.4,161.6,315.2,161.4,315.1z M166,321.6l-5.6-3.2c-0.2-0.1-0.6-0.1-0.8,0l-5.9,3.4c-0.2,0.1-0.2,0.3,0,0.4l5.6,3.2
		c0.2,0.1,0.6,0.1,0.8,0l5.9-3.4C166.3,322,166.3,321.8,166,321.6z M189.4,269.3c0.2,0.1,0.6,0.1,0.8,0l4.8-2.8
		c0.2-0.1,0.2-0.3,0-0.4l-5.6-3.2c-0.2-0.1-0.6-0.1-0.8,0l-4.8,2.8c-0.2,0.1-0.2,0.3,0,0.4L189.4,269.3z M175.3,277.5
		c0.2,0.1,0.6,0.1,0.8,0l4.8-2.8c0.2-0.1,0.2-0.3,0-0.4l-5.6-3.2c-0.2-0.1-0.6-0.1-0.8,0l-4.8,2.8c-0.2,0.1-0.2,0.3,0,0.4
		L175.3,277.5z M144.1,295.5c0.2,0.1,0.6,0.1,0.8,0l4.8-2.8c0.2-0.1,0.2-0.3,0-0.4l-5.6-3.2c-0.2-0.1-0.6-0.1-0.8,0l-4.8,2.8
		c-0.2,0.1-0.2,0.3,0,0.4L144.1,295.5z M182.4,273.4c0.2,0.1,0.6,0.1,0.8,0l4.8-2.8c0.2-0.1,0.2-0.3,0-0.4l-5.6-3.2
		c-0.2-0.1-0.6-0.1-0.8,0l-4.8,2.8c-0.2,0.1-0.2,0.3,0,0.4L182.4,273.4z M168.3,281.6c0.2,0.1,0.6,0.1,0.8,0l4.8-2.8
		c0.2-0.1,0.2-0.3,0-0.4l-5.6-3.2c-0.2-0.1-0.6-0.1-0.8,0l-4.8,2.8c-0.2,0.1-0.2,0.3,0,0.4L168.3,281.6z M169.9,322.2
		c-0.2-0.1-0.6-0.1-0.8,0l-7.4,4.3c-0.2,0.1-0.2,0.3,0,0.4l5.6,3.2c0.2,0.1,0.6,0.1,0.8,0l7.4-4.3c0.2-0.1,0.2-0.3,0-0.4
		L169.9,322.2z M158.2,287.4c0.2,0.1,0.6,0.1,0.8,0l4.8-2.8c0.2-0.1,0.2-0.3,0-0.4l-5.6-3.2c-0.2-0.1-0.6-0.1-0.8,0l-4.8,2.8
		c-0.2,0.1-0.2,0.3,0,0.4L158.2,287.4z M151.1,291.5c0.2,0.1,0.6,0.1,0.8,0l4.8-2.8c0.2-0.1,0.2-0.3,0-0.4l-5.6-3.2
		c-0.2-0.1-0.6-0.1-0.8,0l-4.8,2.8c-0.2,0.1-0.2,0.3,0,0.4L151.1,291.5z M300.5,246.7c-0.2-0.1-0.6-0.1-0.8,0l-11.9,6.9
		c-0.2,0.1-0.2,0.3,0,0.4l5.6,3.2c0.2,0.1,0.6,0.1,0.8,0l11.9-6.9c0.2-0.1,0.2-0.3,0-0.4L300.5,246.7z M285,255.7
		c-0.2-0.1-0.6-0.1-0.8,0l-4.8,2.8c-0.2,0.1-0.2,0.3,0,0.4l5.6,3.2c0.2,0.1,0.6,0.1,0.8,0l4.8-2.8c0.2-0.1,0.2-0.3,0-0.4L285,255.7z
		 M189.4,308.6l4.8-2.8c0.2-0.1,0.2-0.3,0-0.4l-5.6-3.2c-0.2-0.1-0.6-0.1-0.8,0l-4.8,2.8c-0.2,0.1-0.2,0.3,0,0.4l5.6,3.2
		C188.9,308.7,189.2,308.7,189.4,308.6z M270.9,263.9c-0.2-0.1-0.6-0.1-0.8,0l-4.8,2.8c-0.2,0.1-0.2,0.3,0,0.4l5.6,3.2
		c0.2,0.1,0.6,0.1,0.8,0l4.8-2.8c0.2-0.1,0.2-0.3,0-0.4L270.9,263.9z M307.6,242.7c-0.2-0.1-0.6-0.1-0.8,0l-4.8,2.8
		c-0.2,0.1-0.2,0.3,0,0.4l5.6,3.2c0.2,0.1,0.6,0.1,0.8,0l4.8-2.8c0.2-0.1,0.2-0.3,0-0.4L307.6,242.7z M320.2,241.8l-13.5-7.8
		c-0.2-0.1-0.6-0.1-0.8,0l-4.8,2.8c-0.2,0.1-0.2,0.3,0,0.4l13.5,7.8c0.2,0.1,0.6,0.1,0.8,0l4.8-2.8
		C320.5,242.1,320.4,241.9,320.2,241.8z M244.5,279.1c-0.2-0.1-0.6-0.1-0.8,0l-5.9,3.4c-0.2,0.1-0.2,0.3,0,0.4l5.6,3.2
		c0.2,0.1,0.6,0.1,0.8,0l5.9-3.4c0.2-0.1,0.2-0.3,0-0.4L244.5,279.1z M262.3,268.8c-0.2-0.1-0.6-0.1-0.8,0l-7.4,4.3
		c-0.2,0.1-0.2,0.3,0,0.4l5.6,3.2c0.2,0.1,0.6,0.1,0.8,0l7.4-4.3c0.2-0.1,0.2-0.3,0-0.4L262.3,268.8z M228.2,288.5
		c-0.2-0.1-0.6-0.1-0.8,0l-39.7,22.9c-0.2,0.1-0.2,0.3,0,0.4l5.6,3.2c0.2,0.1,0.6,0.1,0.8,0l39.7-22.9c0.2-0.1,0.2-0.3,0-0.4
		L228.2,288.5z M186.2,312.7c-0.2-0.1-0.6-0.1-0.8,0l-5.9,3.4c-0.2,0.1-0.2,0.3,0,0.4l5.6,3.2c0.2,0.1,0.6,0.1,0.8,0l5.9-3.4
		c0.2-0.1,0.2-0.3,0-0.4L186.2,312.7z M236.3,283.8c-0.2-0.1-0.6-0.1-0.8,0l-5.9,3.4c-0.2,0.1-0.2,0.3,0,0.4l5.6,3.2
		c0.2,0.1,0.6,0.1,0.8,0l5.9-3.4c0.2-0.1,0.2-0.3,0-0.4L236.3,283.8z M178.1,317.4c-0.2-0.1-0.6-0.1-0.8,0l-5.9,3.4
		c-0.2,0.1-0.2,0.3,0,0.4l5.6,3.2c0.2,0.1,0.6,0.1,0.8,0l5.9-3.4c0.2-0.1,0.2-0.3,0-0.4L178.1,317.4z M252.7,274.4
		c-0.2-0.1-0.6-0.1-0.8,0l-5.9,3.4c-0.2,0.1-0.2,0.3,0,0.4l5.6,3.2c0.2,0.1,0.6,0.1,0.8,0l5.9-3.4c0.2-0.1,0.2-0.3,0-0.4
		L252.7,274.4z M277.9,259.8c-0.2-0.1-0.6-0.1-0.8,0l-4.8,2.8c-0.2,0.1-0.2,0.3,0,0.4l5.6,3.2c0.2,0.1,0.6,0.1,0.8,0l4.8-2.8
		c0.2-0.1,0.2-0.3,0-0.4L277.9,259.8z M293.4,248.6l4.8-2.8c0.2-0.1,0.2-0.3,0-0.4l-5.6-3.2c-0.2-0.1-0.6-0.1-0.8,0l-4.8,2.8
		c-0.2,0.1-0.2,0.3,0,0.4l5.6,3.2C292.8,248.7,293.2,248.7,293.4,248.6z M261.8,248.4l4.8-2.8c0.2-0.1,0.2-0.3,0-0.4l-5.6-3.2
		c-0.2-0.1-0.6-0.1-0.8,0l-4.8,2.8c-0.2,0.1-0.2,0.3,0,0.4l5.6,3.2C261.3,248.5,261.6,248.5,261.8,248.4z M245.9,276l14.1-8.1
		c0.2-0.1,0.2-0.3,0-0.4l-5.6-3.2c-0.2-0.1-0.6-0.1-0.8,0l-14.1,8.1c-0.2,0.1-0.2,0.3,0,0.4l5.6,3.2
		C245.3,276.1,245.6,276.1,245.9,276z M285.5,252.6c0.2,0.1,0.6,0.1,0.8,0l4.8-2.8c0.2-0.1,0.2-0.3,0-0.4l-5.6-3.2
		c-0.2-0.1-0.6-0.1-0.8,0l-4.8,2.8c-0.2,0.1-0.2,0.3,0,0.4L285.5,252.6z M278.3,248l4.8-2.8c0.2-0.1,0.2-0.3,0-0.4l-5.6-3.2
		c-0.2-0.1-0.6-0.1-0.8,0l-4.8,2.8c-0.2,0.1-0.2,0.3,0,0.4l5.6,3.2C277.8,248.2,278.1,248.2,278.3,248z M238.8,280.1l4.8-2.8
		c0.2-0.1,0.2-0.3,0-0.4l-5.6-3.2c-0.2-0.1-0.6-0.1-0.8,0l-4.8,2.8c-0.2,0.1-0.2,0.3,0,0.4l5.6,3.2
		C238.3,280.2,238.6,280.2,238.8,280.1z M270,261.6c0.2,0.1,0.6,0.1,0.8,0l4.8-2.8c0.2-0.1,0.2-0.3,0-0.4l-5.6-3.2
		c-0.2-0.1-0.6-0.1-0.8,0l-4.8,2.8c-0.2,0.1-0.2,0.3,0,0.4L270,261.6z M203.5,300.4l4.8-2.8c0.2-0.1,0.2-0.3,0-0.4l-5.6-3.2
		c-0.2-0.1-0.6-0.1-0.8,0l-4.8,2.8c-0.2,0.1-0.2,0.3,0,0.4l5.6,3.2C203,300.5,203.3,300.6,203.5,300.4z M210.6,296.4l4.8-2.8
		c0.2-0.1,0.2-0.3,0-0.4l-5.6-3.2c-0.2-0.1-0.6-0.1-0.8,0l-4.8,2.8c-0.2,0.1-0.2,0.3,0,0.4l5.6,3.2
		C210,296.5,210.4,296.5,210.6,296.4z M196.5,304.5l4.8-2.8c0.2-0.1,0.2-0.3,0-0.4l-5.6-3.2c-0.2-0.1-0.6-0.1-0.8,0l-4.8,2.8
		c-0.2,0.1-0.2,0.3,0,0.4l5.6,3.2C195.9,304.6,196.3,304.6,196.5,304.5z M224.7,288.2l4.8-2.8c0.2-0.1,0.2-0.3,0-0.4l-5.6-3.2
		c-0.2-0.1-0.6-0.1-0.8,0l-4.8,2.8c-0.2,0.1-0.2,0.3,0,0.4l5.6,3.2C224.2,288.3,224.5,288.3,224.7,288.2z M217.6,292.3l4.8-2.8
		c0.2-0.1,0.2-0.3,0-0.4l-5.6-3.2c-0.2-0.1-0.6-0.1-0.8,0l-4.8,2.8c-0.2,0.1-0.2,0.3,0,0.4l5.6,3.2
		C217.1,292.4,217.4,292.4,217.6,292.3z M231.8,284.1l4.8-2.8c0.2-0.1,0.2-0.3,0-0.4l-5.6-3.2c-0.2-0.1-0.6-0.1-0.8,0l-4.8,2.8
		c-0.2,0.1-0.2,0.3,0,0.4l5.6,3.2C231.2,284.3,231.5,284.3,231.8,284.1z M264,223.9c0.2,0.1,0.6,0.1,0.8,0l4.8-2.8
		c0.2-0.1,0.2-0.3,0-0.4l-1.5-0.9c-0.2-0.1-0.6-0.1-0.8,0l-4.8,2.8c-0.2,0.1-0.2,0.3,0,0.4L264,223.9z M229.3,246.3
		c0.2,0.1,0.6,0.1,0.8,0l4.8-2.8c0.2-0.1,0.2-0.3,0-0.4l-5.6-3.2c-0.2-0.1-0.6-0.1-0.8,0l-4.8,2.8c-0.2,0.1-0.2,0.3,0,0.4
		L229.3,246.3z M243.4,238.2c0.2,0.1,0.6,0.1,0.8,0l4.8-2.8c0.2-0.1,0.2-0.3,0-0.4l-5.6-3.2c-0.2-0.1-0.6-0.1-0.8,0l-4.8,2.8
		c-0.2,0.1-0.2,0.3,0,0.4L243.4,238.2z M220.7,251.3c0.2,0.1,0.6,0.1,0.8,0l4.8-2.8c0.2-0.1,0.2-0.3,0-0.4l-5.6-3.2
		c-0.2-0.1-0.6-0.1-0.8,0l-4.8,2.8c-0.2,0.1-0.2,0.3,0,0.4L220.7,251.3z M236.4,242.2c0.2,0.1,0.6,0.1,0.8,0l4.8-2.8
		c0.2-0.1,0.2-0.3,0-0.4l-5.6-3.2c-0.2-0.1-0.6-0.1-0.8,0l-4.8,2.8c-0.2,0.1-0.2,0.3,0,0.4L236.4,242.2z M206.6,259.4
		c0.2,0.1,0.6,0.1,0.8,0l4.8-2.8c0.2-0.1,0.2-0.3,0-0.4l-5.6-3.2c-0.2-0.1-0.6-0.1-0.8,0l-4.8,2.8c-0.2,0.1-0.2,0.3,0,0.4
		L206.6,259.4z M213.7,255.4c0.2,0.1,0.6,0.1,0.8,0l4.8-2.8c0.2-0.1,0.2-0.3,0-0.4l-5.6-3.2c-0.2-0.1-0.6-0.1-0.8,0l-4.8,2.8
		c-0.2,0.1-0.2,0.3,0,0.4L213.7,255.4z M249.9,232.1c0.2,0.1,0.6,0.1,0.8,0l4.8-2.8c0.2-0.1,0.2-0.3,0-0.4L254,228
		c-0.2-0.1-0.6-0.1-0.8,0l-4.8,2.8c-0.2,0.1-0.2,0.3,0,0.4L249.9,232.1z M271.1,219.9c0.2,0.1,0.6,0.1,0.8,0l4.8-2.8
		c0.2-0.1,0.2-0.3,0-0.4l-1.5-0.9c-0.2-0.1-0.6-0.1-0.8,0l-4.8,2.8c-0.2,0.1-0.2,0.3,0,0.4L271.1,219.9z M282.8,226.6
		c0.2,0.1,0.6,0.1,0.8,0l4.8-2.8c0.2-0.1,0.2-0.3,0-0.4l-5.6-3.2c-0.2-0.1-0.6-0.1-0.8,0l-4.8,2.8c-0.2,0.1-0.2,0.3,0,0.4
		L282.8,226.6z M300.4,244.5l4.8-2.8c0.2-0.1,0.2-0.3,0-0.4l-5.6-3.2c-0.2-0.1-0.6-0.1-0.8,0l-4.8,2.8c-0.2,0.1-0.2,0.3,0,0.4
		l5.6,3.2C299.9,244.6,300.2,244.6,300.4,244.5z M257,228c0.2,0.1,0.6,0.1,0.8,0l4.8-2.8c0.2-0.1,0.2-0.3,0-0.4l-1.5-0.9
		c-0.2-0.1-0.6-0.1-0.8,0l-4.8,2.8c-0.2,0.1-0.2,0.3,0,0.4L257,228z M199.6,263.5c0.2,0.1,0.6,0.1,0.8,0l4.8-2.8
		c0.2-0.1,0.2-0.3,0-0.4l-5.6-3.2c-0.2-0.1-0.6-0.1-0.8,0l-4.8,2.8c-0.2,0.1-0.2,0.3,0,0.4L199.6,263.5z"/>
	<path id="XMLID_168_" class="st6" d="M230.8,305.8l47.6-27.5c1.4-0.8,3.8-0.8,5.2,0l27.3,15.8c1.4,0.8,1.4,2.2,0,3l-47.6,27.5
		c-1.4,0.8-3.8,0.8-5.2,0l-27.3-15.8C229.4,308,229.4,306.7,230.8,305.8z"/>
</g>
<g id="Shield">
	<path id="XMLID_1436_" class="st10" d="M318.4,173.6C318.4,173.6,318.4,173.6,318.4,173.6L318.4,173.6l-8.2-4.7
		c-0.5-0.2-1.2,0-2,0.6c-7.6,5.8-17.7,7.6-26,4.9c-0.5-0.5-1-1-1.5-1.6c0-0.1-0.1-0.1-0.1-0.2h0c-0.3-0.3-0.6-0.5-0.8-0.7l-0.1-0.1
		l-8.1-4.7c-0.9-0.4-1.8,0-2.3,1.4c-7.9,19.5-24.6,39.3-35.8,44.3c-0.8,0.4-1.6,0.9-2.2,1.6c-0.8,0.9-1.3,2-1.2,3.2l1.6,43.9
		c0,12.7,5.4,26.1,16.3,32.6l8.4,4.9l0.2,0.1c4.2,2.4,9.1,3.8,14.9,3.8c1.2,0,2.4-0.1,3.6-0.2c2.1-0.2,4.9-1.7,6.4-3.2
		c24.4-25.2,36.3-59.3,36.3-78.2l1.6-45.9C319.1,174.5,318.8,173.9,318.4,173.6z"/>
	<path id="XMLID_1457_" class="st11" d="M319,175.5l-1.6,45.9c0,18.9-11.9,53-36.3,78.2c-1.4,1.5-4.3,3-6.4,3.2
		c-1.2,0.1-2.4,0.2-3.6,0.2c-5.8,0-10.7-1.4-14.9-3.8l-0.2-0.1l-0.3-0.2c-10.9-6.5-16.3-19.9-16.3-32.6l-1.6-43.8
		c0-1.2,0.5-2.3,1.2-3.2c0.6-0.7,1.4-1.3,2.2-1.6c11.2-4.9,27.9-24.7,35.8-44.3c0.6-1.4,1.4-1.8,2.3-1.4l0,0l0.1,0.1
		c0.3,0.1,0.6,0.4,0.8,0.7h0c0,0.1,0.1,0.1,0.2,0.2c8.3,9.7,24.7,9.7,35.7,1.3c0.8-0.6,1.5-0.8,2-0.6l0.1,0c0,0,0,0,0,0
		C318.8,173.9,319.1,174.5,319,175.5z"/>
	<path id="XMLID_1454_" class="st12" d="M318.3,173.6c-0.5-0.2-1.2,0-2,0.6c-10.3,7.9-25.5,8.4-34.1,0.3c8.3,2.7,18.5,0.9,26-4.9
		c0.8-0.6,1.5-0.8,2-0.6L318.3,173.6z"/>
	<path id="XMLID_1458_" class="st13" d="M279.5,171.9c-0.9-0.4-1.8,0-2.3,1.4c-7.9,19.5-24.6,39.3-35.8,44.3
		c-0.8,0.4-1.6,0.9-2.2,1.6c-0.2,0.2-0.4,0.5-0.6,0.8l-8.1-4.7c0.2-0.3,0.3-0.5,0.5-0.8c0.1-0.1,0.2-0.3,0.4-0.4l0,0
		c0.1,0,0.1-0.1,0.1-0.1c0.1,0,0.1-0.1,0.1-0.1c0.5-0.4,1-0.8,1.6-1c11.2-4.9,27.9-24.7,35.8-44.3c0.6-1.4,1.4-1.8,2.3-1.4
		L279.5,171.9z"/>
	<path id="XMLID_1463_" class="st14" d="M231.4,214.2c0-0.1,0.1-0.1,0.1-0.1C231.5,214.1,231.5,214.1,231.4,214.2
		C231.4,214.2,231.4,214.2,231.4,214.2z"/>
	<path id="XMLID_1455_" class="st15" d="M231.6,214c-0.1,0.1-0.1,0.1-0.1,0.1c0,0,0,0,0,0C231.5,214.1,231.5,214.1,231.6,214z"/>
	<path id="XMLID_1453_" class="st16" d="M256.3,299.1l-0.1-0.1l-8.4-4.9c-10.9-6.5-16.3-19.9-16.3-32.6l-1.6-43.9
		c0-0.9,0.2-1.7,0.7-2.4l8.1,4.7c-0.4,0.7-0.7,1.6-0.7,2.4l1.6,43.9c0,12.7,5.4,26,16.3,32.6l0.3,0.2L256.3,299.1z"/>
	<g id="XMLID_308_">
		<path id="XMLID_332_" class="st7" d="M285,258.8l-13,7.5l2-23.5c-1.6-0.8-2.5-2.8-2.5-5.7c0-5.2,3.1-11.2,7-13.4
			c3.9-2.2,7,0.1,7,5.3c0,2.9-1,6.1-2.5,8.7L285,258.8z"/>
		<polygon id="XMLID_327_" class="st5" points="285,258.8 273.2,252 272,266.3 		"/>
		<path id="XMLID_313_" class="st5" d="M278.5,223.6c-2.5,1.5-4.8,4.6-6,8l10.5,6.1l0,0c1.6-2.6,2.5-5.8,2.5-8.7
			C285.5,223.7,282.4,221.3,278.5,223.6z"/>
	</g>
</g>
<g id="Key">
	<polygon id="XMLID_384_" class="st17" points="182.7,419.2 182.7,423.2 183,429.8 183,425.9 	"/>
	<polygon id="XMLID_385_" class="st17" points="186,427.6 186,431.5 193.4,432.2 193.4,428.2 	"/>
	<rect id="XMLID_992_" x="205.4" y="438.8" class="st17" width="17" height="3.9"/>
	<polygon id="XMLID_1064_" class="st16" points="228.5,435.3 228.5,439.2 222.4,442.7 222.4,438.8 225.1,437.2 225.1,438.9 
		226.5,438.1 226.5,436.4 	"/>
	<polygon id="XMLID_1062_" class="st18" points="226.5,436.4 225.1,437.2 225.1,438.9 226.5,438.1 	"/>
	<g>
		<path id="XMLID_382_" class="st17" d="M115.9,395.3l0,3.9c0,4.6,3,9.2,9.1,12.7c9.1,5.3,22.6,6.6,33.8,3.9l10.4,6l8-1.8l5.5,3.2
			l0.3,6.6l2.9,1.7l7.4,0.7l5.3,3v3.7l6.7,3.9h17l6.1-3.5v-3.9l-54.3-27.4c2.5-2.7,3.8-5.6,3.8-8.5l0-4c-0.8-3.8-4-5.8-9.1-8.7
			c-12.1-7-31.7-7-43.8,0C119.6,389.8,116.5,391.2,115.9,395.3z"/>
		<path id="XMLID_369_" class="st19" d="M115.9,395.3l0,3.9c0,4.6,3,9.2,9.1,12.7c9.1,5.3,22.6,6.6,33.8,3.9l10.4,6l8-1.8l5.5,3.2
			l0.3,6.6l2.9,1.7l7.4,0.7l5.3,3v3.7l6.7,3.9h17l6.1-3.5v-3.9l-54.3-27.4c2.5-2.7,3.8-5.6,3.8-8.5l0-4c-0.8-3.8-4-5.8-9.1-8.7
			c-12.1-7-31.7-7-43.8,0C119.6,389.8,116.5,391.2,115.9,395.3z M132.6,390.8c3.4-2,9-2,12.4,0c3.4,2,3.4,5.2,0,7.2
			c-3.4,2-9,2-12.4,0C129.1,396,129.1,392.7,132.6,390.8z"/>
		<path id="XMLID_381_" class="st17" d="M132.6,390.8c3.4-2,9-2,12.4,0c3.4,2,3.4,5.2,0,7.2c-3.4,2-9,2-12.4,0
			C129.1,396,129.1,392.7,132.6,390.8z"/>
		<path id="XMLID_377_" class="st3" d="M125,409.7c9.1,5.3,22.6,6.6,33.8,3.9l10.4,6l8-1.8l5.5,3.2l0.3,6.6l2.9,1.7l7.4,0.7l5.8,3.2
			l-0.5,3.5l6.7,3.9h17l6.1-3.5l-54.3-31.4c6.4-6.8,4.6-15.5-5.3-21.2c-12.1-7-31.7-7-43.8,0C112.9,391.4,112.9,402.7,125,409.7z
			 M132.6,388.6c3.4-2,9-2,12.4,0c3.4,2,3.4,5.2,0,7.2c-3.4,2-9,2-12.4,0C129.1,393.7,129.1,390.5,132.6,388.6z"/>
		<path class="st20" d="M146.9,411.8c-36.1-0.5-36.1-28.4,0-28.9C183,383.4,183,411.3,146.9,411.8z M146.9,384.2
			c-34.2,0.6-34.2,25.6,0,26.2C181.1,409.9,181.1,384.8,146.9,384.2z"/>
		<path id="XMLID_1237_" class="st21" d="M135.8,412v3.9c7.4,1.6,15.7,1.6,23-0.2v-3.9C151.5,413.6,143.2,413.7,135.8,412z"/>
		<polygon id="XMLID_383_" class="st17" points="169.2,417.9 169.2,421.8 177.3,420 177.3,416.1 		"/>
		<polygon id="XMLID_367_" class="st16" points="229,436.4 229,438.1 173.3,405.9 174.7,405 		"/>
		<polygon id="XMLID_350_" class="st16" points="172.3,405 172.3,406.8 170.8,405.9 		"/>
	</g>
</g>
<g id="Character">
	<g id="XMLID_1498_">
		<path id="XMLID_1499_" class="st22" d="M414.5,288.6c0.7-26-1.4-32.3-8.3-37.1l-2.7,15.1c0,0,3.2,17.8,2.8,23.7
			c-0.3,5.2-0.8,11.7-2,15.9c-0.2,0.7-0.7,1.4-1.4,1.8c-1.8,1.1-2.5,2.2-3.8,3.6c-1,1.1-1.9,1.4-1.8,1.7c0.2,0.4,0.9,1.2,2.2,0.8
			c0.6-0.2,1.5-0.7,2.5-1.4c0,0-0.7,2.2-2.6,4.4c-2.5,3-2.6,4.9,2.4,4.9c3.1,0,5.6-1.9,8-8.8c0.7-2,1.7-5.1,2.2-7.8
			C413.3,298.7,414.4,292.8,414.5,288.6z"/>
	</g>
	<path id="XMLID_8_" class="st23" d="M401.4,252.5c3.3-0.5,7.8,0.2,10.7,5.4c2.9,5.2,3.6,14.1,3.9,23c0,0-5.8,4.8-12.7,2.5
		L401.4,252.5z"/>
	<g id="XMLID_1493_">
		<path id="XMLID_1494_" class="st6" d="M410.1,392.8c0.5,0.2,0.7,1.2,0.7,3.2c0.1,1.5,0.4,4.1-1.4,4.7c-1.8,0.5-4.3,0.3-5.5-1.2
			c-1.4-1.8-2.4-3.3-4.4-5.5c-1.7-1.9-3.6-3.6-4.3-6.3c-0.6-2.4-0.1-3.4,1.5-4.1c2.2-1,5.7,2.2,7.5,2.6
			C405.8,386.7,409.6,392.6,410.1,392.8z"/>
	</g>
	<g id="XMLID_1491_">
		<path id="XMLID_1492_" class="st22" d="M410.1,390.9v2.4c0,0-2.5,2-6.2,0.2c-0.1-0.2-0.6-3.5-0.6-3.5L410.1,390.9z"/>
	</g>
	<g id="XMLID_1489_">
		<path id="XMLID_1490_" class="st6" d="M390.3,406.9c0,0,0.7,2.1,1.1,4c0.3,1.5,0.7,3.9,0.2,5.1c-0.5,1.1-2.5,1.8-5.7,1.8
			c-2,0-5.2,1.4-7.3,2.6c-2.2,1.2-6.9,1.7-9.2,1.5c-2.8-0.3-5.7-1.9-6.1-3.1c-0.5-1.2,0.1-2.4,6.7-5.1c0.1,0,9.1-3,12.3-6.5
			L390.3,406.9z"/>
	</g>
	<g id="XMLID_1487_">
		<path id="XMLID_1488_" class="st22" d="M390.3,404.2c0,0,0,1.8,0,2.9c0,1-1.2,2.6-4.4,2.5c-2.2-0.1-3.8-0.7-3.7-2.5v-2.6
			L390.3,404.2z"/>
	</g>
	<g id="XMLID_1485_">
		<path id="XMLID_1486_" class="st5" d="M411.7,358.5c-1.1-8-2.9-12.7-2.9-12.7s0.9-11,1.3-21.4c0.5-11.2,0-25.4,0.2-28.2
			c0,0-36.3-7.3-36.9,5.7c-0.6,13,1.4,46.1,1.9,51.8c0.4,5.7,1.4,10.8,2.6,20c1.2,9.1,4.4,30.7,4.4,30.7c4.1,2.2,8.1-0.2,8.1-0.2
			s2.6-26,2.3-32.6c-0.3-8-2.5-14.4-2.5-14.4s0.7-10.7,1.3-20c0.6-9.3,1.3-13.8,1.4-17.9l0.8-0.4c0,0,0.8,16.1,1.2,21.8
			c0.4,5.7,1.3,11.2,3,21.8c1.4,9.2,5.7,28.7,5.7,28.7c4.1,2.2,6.6-0.3,6.6-0.3S412.8,366.5,411.7,358.5z"/>
	</g>
	<g id="XMLID_1483_">
		<path id="XMLID_1484_" class="st6" d="M392.8,319.3c0,0,8.8-4.3,13.2-8.3c0,0-4.1,5.8-9.5,8.3c0,0-1.9,20-1.9,19.6l-1.1-19.7
			L392.8,319.3z"/>
	</g>
	<g id="XMLID_1479_">
		<g id="XMLID_1480_">
			<polygon id="XMLID_1481_" class="st22" points="385,245.4 387.1,257.2 397.8,256.4 395.5,243 			"/>
		</g>
	</g>
	<g id="XMLID_5_">
		<path id="XMLID_6_" class="st24" d="M409.1,255.6c-1.1-3.2-5.1-6.7-9.2-6c-7.5,1.4-13.4,2.9-17.9,4.5c-3.7,1.3-7.1,4.6-7.4,16.8
			c0,0-1.3,28.6-1.3,34.2c9.4,3.7,19.1,3.6,24.5,2.4c11.2-2.5,12.6-7.1,12.6-7.1s0.1-20.6-0.2-29.5
			C409.9,263.4,409.8,257.8,409.1,255.6z"/>
	</g>
	<g id="XMLID_1474_">
		<path id="XMLID_1475_" class="st22" d="M376.7,231c0,0-2.7,4.3-2.4,4.7c0.3,0.4,2.4,0.7,2.4,0.7L376.7,231z"/>
	</g>
	<g id="XMLID_1472_">
		<path id="XMLID_1473_" class="st22" d="M384.2,219.1c-5.6,1.3-7.2,3.9-7.6,12.9c-0.3,9.4,0.7,12.4,1.9,13.6
			c0.9,0.8,5.5,0.9,7.8,0.2c2.9-0.9,9.5-3.4,12.5-8.2c3.5-5.7,4.3-13.2,0.3-16.2C393.7,217.1,386.5,218.5,384.2,219.1z"/>
	</g>
	<g id="XMLID_1263_">
		<g id="XMLID_1468_">
			<g id="XMLID_1469_">
				<path id="XMLID_1470_" class="st6" d="M376.7,221.4c1.7,2.8,5.3,4.2,5.3,4.2c1.1,1.2,0.5,6,2.4,6.8c0,0,0.8-3.5,3.8-3.1
					c3,0.4,3.4,4.1,1.6,6.5c-1.8,2.3-3.6,1.5-3.6,1.5s0.2,5,2.5,7.7c0,0,2.5,0.8,7.1-0.3c2.8-0.7,6.8-4.3,8.4-8.1
					c3.4-8,3.5-15.2-1.6-17.2c-0.6-3.6-3.5-5.2-6.8-5.9c-7.1-1.5-11.7,3-17.2,2.6C375.4,215.8,374.8,218.1,376.7,221.4z"/>
			</g>
		</g>
		<g id="XMLID_1264_">
			<g id="XMLID_1265_">
				<path id="XMLID_1467_" class="st6" d="M402.6,220.6l3.3-2.1c-0.6-0.9-1.8-1.2-2.7-0.6C402.4,218.5,402.1,219.7,402.6,220.6z"/>
			</g>
		</g>
	</g>
	<path id="XMLID_1259_" class="st22" d="M336.8,275.4c1.8,0.8,22.4,16.1,25.7,14.3c3.2-1.8,19.8-21.1,19.8-21.1c4.8-8,0-14.5,0-14.5
		s-5.3,1-8.1,5.2c-2.8,4.2-14.8,19.2-14.8,19.2c-3-1.5-5.9-3-8.9-4.5c-2.4-1.3-4.9-2.5-7.2-3.9c-0.6-0.3-1.4-0.7-1.9-1.1
		c-1.2-1.2-1-4-0.9-5.5c0-0.7,0-1.4,0.1-2.1c0.1-0.9,0.3-3-1.3-2.3c-0.3,0.1-0.5,0.4-0.7,0.6c-0.2,0.3-0.4,0.7-0.6,1.1
		c-0.3,0.9-0.2,1.9-0.5,2.9c0,0.1-0.1,0.3-0.2,0.4c-0.1,0.1-0.3,0.2-0.5,0.2c-2.3-0.1-4.4-3.3-5.5-5c-0.5-0.8-0.9-1.6-1.7-2
		c-1.2-0.6-2.7,0.3-3.5,1.4c-1,1.4-1.3,3.3-1.1,5c0.3,2.4,1.2,4.7,3,6.3C330.6,272.3,333.5,273.9,336.8,275.4z"/>
	<path id="XMLID_7_" class="st23" d="M383,254.4c-2.3,0.3-6.1,0.4-9.8,4.6c-4.3,4.9-10.1,12.9-10.1,12.9s1.6,7.8,10,9.4
		c0,0,7.8-8,10-12.4C385.3,264.6,385.6,257.4,383,254.4z"/>
</g>
</svg>
