<?xml version="1.0" encoding="utf-8"?>
<!-- Generator: Adobe Illustrator 24.1.3, SVG Export Plug-In . SVG Version: 6.00 Build 0)  -->
<svg version="1.1" id="Слой_1" xmlns="http://www.w3.org/2000/svg" xmlns:xlink="http://www.w3.org/1999/xlink" x="0px" y="0px"
	 viewBox="0 0 500 500" style="enable-background:new 0 0 500 500;" xml:space="preserve">
<style type="text/css">
	.st0{fill:#E0E0E0;}
	.st1{fill:#FAFAFA;}
	.st2{fill:#EBEBEB;}
	.st3{fill:#F5F5F5;}
	.st4{fill:#FFFFFF;}
	.st5{display:none;}
	.st6{display:inline;fill:#EBEBEB;}
	.st7{fill:#E8CEBC;}
	.st8{fill:#AA6550;}
	.st9{fill:#EDF7FE;}
	.st10{fill:#263238;}
	.st11{opacity:0.3;}
	.st12{fill:#B78876;}
	.st13{fill:#351A03;}
	.st14{fill:#455A64;}
	.st15{enable-background:new    ;}
	.st16{fill:#F3CE63;}
	.st17{fill:#054FB2;}
</style>
<g id="Background_Complete">
	<g>
		<g>
			<g>
				<g>
					<g>
						<g>
							<g>
								<rect x="282.8" y="48" class="st0" width="61.7" height="64.3"/>
							</g>
						</g>
					</g>
				</g>
			</g>
		</g>
		<g>
			<g>
				<g>
					<g>
						<g>
							<g>
								<rect x="278.6" y="48" class="st1" width="61.7" height="64.3"/>
							</g>
						</g>
					</g>
				</g>
			</g>
			<g>
				<g>
					<g>
						<g>
							<g>
								<path class="st0" d="M340.4,112.4h-61.8V48h61.8V112.4z M278.7,112.4h61.7V48.1h-61.7V112.4z"/>
							</g>
						</g>
					</g>
				</g>
			</g>
		</g>
		<g>
			<g>
				<g>
					<g>
						<g>
							<g>
								<rect x="286.9" y="56.7" class="st1" width="45.1" height="47"/>
							</g>
						</g>
					</g>
				</g>
			</g>
		</g>
		<g>
			<g>
				<g>
					<g>
						<g>
							<g>
								<g>
									<path class="st0" d="M286.9,104.1c0,0-0.4,0.5-1.1,1.3s-1.7,1.8-2.9,2.9c-1.1,1.1-2.2,2.1-2.9,2.8
										c-0.8,0.7-1.3,1.1-1.3,1.1s0.4-0.5,1.1-1.3s1.7-1.8,2.9-2.9c1.1-1.1,2.2-2.1,3-2.8C286.4,104.4,286.9,104,286.9,104.1z"/>
								</g>
							</g>
						</g>
					</g>
				</g>
			</g>
		</g>
		<g>
			<g>
				<g>
					<g>
						<g>
							<g>
								<g>
									<path class="st0" d="M332.1,103.9c0,0,0.5,0.4,1.3,1.1s1.8,1.7,2.9,2.9c1.1,1.1,2.1,2.2,2.8,2.9c0.7,0.8,1.1,1.3,1.1,1.3
										s-0.5-0.4-1.3-1.1s-1.8-1.7-2.9-2.9c-1.1-1.1-2.1-2.2-2.8-3C332.4,104.5,332,104,332.1,103.9z"/>
								</g>
							</g>
						</g>
					</g>
				</g>
			</g>
		</g>
		<g>
			<g>
				<g>
					<g>
						<g>
							<g>
								<g>
									<path class="st0" d="M331.9,56.8c0,0,0.4-0.5,1.1-1.3s1.7-1.8,2.9-2.9c1.1-1.1,2.2-2.1,2.9-2.8c0.8-0.7,1.3-1.1,1.3-1.1
										s-0.4,0.5-1.1,1.3s-1.7,1.8-2.9,2.9c-1.1,1.1-2.2,2.1-3,2.8C332.5,56.4,332,56.9,331.9,56.8z"/>
								</g>
							</g>
						</g>
					</g>
				</g>
			</g>
		</g>
		<g>
			<g>
				<g>
					<g>
						<g>
							<g>
								<g>
									<path class="st0" d="M286.8,56.9c0,0-0.5-0.4-1.3-1.1c-0.8-0.7-1.8-1.7-2.9-2.9c-1.1-1.1-2.1-2.2-2.8-2.9
										c-0.7-0.8-1.1-1.3-1.1-1.3s0.5,0.4,1.3,1.1c0.8,0.7,1.8,1.7,2.9,2.9c1.1,1.1,2.1,2.2,2.8,3
										C286.4,56.4,286.9,56.9,286.8,56.9z"/>
								</g>
							</g>
						</g>
					</g>
				</g>
			</g>
		</g>
		<g>
			<g>
				<g>
					<g>
						<g>
							<g>
								<g>
									<path class="st0" d="M331.9,103.7c0,0,0-0.1,0-0.2c0-0.2,0-0.4,0-0.7c0-0.6,0-1.4,0-2.5c0-2.2,0-5.5,0-9.6
										c0-8.2-0.1-20-0.1-34l0.2,0.2c-13.1,0-28.6,0-45,0l0,0l0.2-0.2c0,17.3,0,33.4,0,47l-0.2-0.2c13.5,0,24.7,0.1,32.6,0.1
										c3.9,0,7,0,9.2,0c1.1,0,1.9,0,2.4,0C331.5,103.6,331.7,103.6,331.9,103.7C331.9,103.7,331.9,103.7,331.9,103.7
										s-0.1,0-0.2,0s-0.3,0-0.6,0c-0.6,0-1.4,0-2.4,0c-2.1,0-5.2,0-9.1,0c-7.9,0-19.2,0.1-32.7,0.1h-0.2v-0.2c0-13.6,0-29.8,0-47
										v-0.2h0.2l0,0c16.4,0,31.9,0,45,0h0.2v0.2c0,14.1-0.1,25.9-0.1,34.1c0,4.1,0,7.3,0,9.5c0,1.1,0,1.9,0,2.5
										c0,0.3,0,0.5,0,0.6C332,103.7,331.9,103.7,331.9,103.7z"/>
								</g>
							</g>
						</g>
					</g>
				</g>
			</g>
		</g>
		<g>
			<g>
				<g>
					<g>
						<g>
							<g>
								<rect x="302" y="72.7" class="st2" width="15.1" height="15.1"/>
							</g>
						</g>
					</g>
				</g>
			</g>
		</g>
	</g>
	<g>
		<g>
			<g>
				<g>
					<g>
						<g>
							<g>
								<rect x="45.5" y="74.6" class="st0" width="86.8" height="90.5"/>
							</g>
						</g>
					</g>
				</g>
			</g>
		</g>
		<g>
			<g>
				<g>
					<g>
						<g>
							<g>
								<rect x="39.6" y="74.6" class="st1" width="86.8" height="90.5"/>
							</g>
						</g>
					</g>
				</g>
			</g>
			<g>
				<g>
					<g>
						<g>
							<g>
								<path class="st0" d="M126.4,165.1H39.6V74.6h86.8V165.1z M39.6,165.1h86.7V74.7H39.6V165.1z"/>
							</g>
						</g>
					</g>
				</g>
			</g>
		</g>
		<g>
			<g>
				<g>
					<g>
						<g>
							<g>
								<rect x="51.3" y="86.8" class="st1" width="63.4" height="66.1"/>
							</g>
						</g>
					</g>
				</g>
			</g>
		</g>
		<g>
			<g>
				<g>
					<g>
						<g>
							<g>
								<g>
									<path class="st0" d="M51.3,153.4c0,0.1-0.6,0.8-1.6,1.8c-1,1.1-2.4,2.5-4,4.1s-3.1,3-4.1,4c-1.1,1-1.8,1.6-1.8,1.5
										c-0.1-0.1,0.5-0.7,1.6-1.8c1-1.1,2.4-2.5,4-4.1s3.1-3,4.2-4C50.5,153.9,51.2,153.3,51.3,153.4z"/>
								</g>
							</g>
						</g>
					</g>
				</g>
			</g>
		</g>
		<g>
			<g>
				<g>
					<g>
						<g>
							<g>
								<g>
									<path class="st0" d="M114.7,153.2c0.1-0.1,0.8,0.6,1.8,1.6c1.1,1,2.5,2.4,4.1,4s3,3.1,4,4.1c1,1.1,1.6,1.8,1.5,1.8
										c-0.1,0.1-0.7-0.5-1.8-1.6c-1.1-1-2.5-2.4-4.1-4s-3-3.1-4-4.2C115.2,153.9,114.7,153.3,114.7,153.2z"/>
								</g>
							</g>
						</g>
					</g>
				</g>
			</g>
		</g>
		<g>
			<g>
				<g>
					<g>
						<g>
							<g>
								<g>
									<path class="st0" d="M114.5,87c-0.1-0.1,0.6-0.8,1.6-1.8c1-1.1,2.4-2.5,4-4.1s3.1-3,4.1-4c1.1-1,1.8-1.6,1.8-1.5
										c0.1,0.1-0.5,0.7-1.6,1.8c-1,1.1-2.4,2.5-4,4.1s-3.1,3-4.2,4C115.3,86.4,114.6,87,114.5,87z"/>
								</g>
							</g>
						</g>
					</g>
				</g>
			</g>
		</g>
		<g>
			<g>
				<g>
					<g>
						<g>
							<g>
								<g>
									<path class="st0" d="M51.1,87.1c-0.1,0.1-0.8-0.6-1.8-1.6c-1.1-1-2.5-2.4-4.1-4s-3-3.1-4-4.1c-1-1.1-1.6-1.8-1.5-1.8
										c0.1-0.1,0.7,0.5,1.8,1.6c1.1,1,2.5,2.4,4.1,4s3,3.1,4,4.2C50.6,86.4,51.2,87.1,51.1,87.1z"/>
								</g>
							</g>
						</g>
					</g>
				</g>
			</g>
		</g>
		<g>
			<g>
				<g>
					<g>
						<g>
							<g>
								<g>
									<path class="st0" d="M114.5,152.9c0,0,0-0.1,0-0.3s0-0.5,0-0.9c0-0.8,0-2,0-3.6c0-3.1,0-7.7-0.1-13.5
										c0-11.6-0.1-28.1-0.1-47.8l0.2,0.2c-18.5,0-40.2,0-63.3,0l0,0l0.3-0.3c0,24.3,0,47,0,66.1l-0.2-0.2
										c19,0.1,34.7,0.1,45.8,0.1c5.5,0,9.9,0,12.9,0.1c1.5,0,2.6,0,3.4,0c0.4,0,0.7,0,0.9,0C114.4,152.9,114.5,152.9,114.5,152.9
										s-0.1,0-0.3,0c-0.2,0-0.5,0-0.9,0c-0.8,0-1.9,0-3.4,0c-3,0-7.3,0-12.8,0.1c-11.1,0-26.9,0.1-46,0.1h-0.2v-0.2
										c0-19.2,0-41.9,0-66.1v-0.3h0.3l0,0c23.1,0,44.8,0,63.3,0h0.2v0.2c-0.1,19.8-0.1,36.4-0.1,48c0,5.8,0,10.3-0.1,13.4
										c0,1.5,0,2.7,0,3.5c0,0.4,0,0.7,0,0.9C114.6,152.8,114.5,152.9,114.5,152.9z"/>
								</g>
							</g>
						</g>
					</g>
				</g>
			</g>
		</g>
		<g>
			<g>
				<g>
					<g>
						<g>
							<g>
								<rect x="72.4" y="109.3" class="st2" width="21.2" height="21.2"/>
							</g>
						</g>
					</g>
				</g>
			</g>
		</g>
	</g>
	<g>
		<g>
			<g>
				<g>
					<g>
						<g>
							<g>
								<rect x="366.3" y="100.6" class="st0" width="90.7" height="94.6"/>
							</g>
						</g>
					</g>
				</g>
			</g>
		</g>
		<g>
			<g>
				<g>
					<g>
						<g>
							<g>
								<rect x="360.2" y="100.6" class="st1" width="90.7" height="94.6"/>
							</g>
						</g>
					</g>
				</g>
			</g>
			<g>
				<g>
					<g>
						<g>
							<g>
								<path class="st0" d="M450.9,195.2h-90.8v-94.6h90.8L450.9,195.2L450.9,195.2z M360.2,195.1h90.7v-94.5h-90.7V195.1z"/>
							</g>
						</g>
					</g>
				</g>
			</g>
		</g>
		<g>
			<g>
				<g>
					<g>
						<g>
							<g>
								<rect x="372.4" y="113.3" class="st1" width="66.3" height="69.2"/>
							</g>
						</g>
					</g>
				</g>
			</g>
		</g>
		<g>
			<g>
				<g>
					<g>
						<g>
							<g>
								<g>
									<path class="st0" d="M372.4,182.9c0.1,0.1-0.6,0.8-1.6,1.9c-1.1,1.1-2.5,2.6-4.2,4.3c-1.7,1.6-3.2,3.1-4.3,4.1
										c-1.1,1-1.9,1.7-1.9,1.6c-0.1-0.1,0.6-0.8,1.6-1.9c1.1-1.1,2.6-2.6,4.2-4.3c1.7-1.6,3.2-3.1,4.3-4.2
										C371.6,183.4,372.3,182.8,372.4,182.9z"/>
								</g>
							</g>
						</g>
					</g>
				</g>
			</g>
		</g>
		<g>
			<g>
				<g>
					<g>
						<g>
							<g>
								<g>
									<path class="st0" d="M438.7,182.7c0.1-0.1,0.8,0.6,1.9,1.6c1.1,1.1,2.6,2.5,4.3,4.2c1.6,1.7,3.1,3.2,4.1,4.3
										s1.7,1.9,1.6,1.9c-0.1,0.1-0.8-0.6-1.9-1.6c-1.1-1.1-2.6-2.6-4.3-4.2c-1.6-1.7-3.1-3.2-4.2-4.3
										C439.3,183.5,438.6,182.8,438.7,182.7z"/>
								</g>
							</g>
						</g>
					</g>
				</g>
			</g>
		</g>
		<g>
			<g>
				<g>
					<g>
						<g>
							<g>
								<g>
									<path class="st0" d="M438.5,113.5c-0.1-0.1,0.6-0.8,1.6-1.9c1.1-1.1,2.5-2.6,4.2-4.3c1.7-1.6,3.2-3.1,4.3-4.1
										c1.1-1,1.9-1.7,1.9-1.6c0.1,0.1-0.6,0.8-1.6,1.9c-1.1,1.1-2.6,2.6-4.2,4.3c-1.7,1.6-3.2,3.1-4.3,4.2
										C439.3,112.9,438.6,113.5,438.5,113.5z"/>
								</g>
							</g>
						</g>
					</g>
				</g>
			</g>
		</g>
		<g>
			<g>
				<g>
					<g>
						<g>
							<g>
								<g>
									<path class="st0" d="M372.2,113.6c-0.1,0.1-0.8-0.6-1.9-1.6c-1.1-1.1-2.6-2.5-4.3-4.2c-1.6-1.7-3.1-3.2-4.1-4.3
										c-1-1.1-1.7-1.9-1.6-1.9c0.1-0.1,0.8,0.6,1.9,1.6c1.1,1.1,2.6,2.6,4.3,4.2c1.6,1.7,3.1,3.2,4.2,4.3
										C371.6,112.9,372.3,113.6,372.2,113.6z"/>
								</g>
							</g>
						</g>
					</g>
				</g>
			</g>
		</g>
		<g>
			<g>
				<g>
					<g>
						<g>
							<g>
								<g>
									<path class="st0" d="M438.5,182.4c0,0,0-0.1,0-0.3s0-0.6,0-1c0-0.9,0-2.1,0-3.7c0-3.3,0-8-0.1-14.1c0-12.1-0.1-29.4-0.1-50
										l0.3,0.3c-19.3,0-42,0-66.2,0l0,0l0.3-0.3c0,25.4,0,49.1,0,69.2l-0.3-0.3c19.8,0.1,36.3,0.1,47.9,0.1
										c5.8,0,10.3,0.1,13.5,0.1c1.5,0,2.7,0,3.6,0c0.4,0,0.7,0,0.9,0C438.4,182.4,438.5,182.4,438.5,182.4s-0.1,0-0.3,0
										c-0.2,0-0.5,0-0.9,0c-0.8,0-2,0-3.5,0c-3.1,0-7.6,0-13.4,0.1c-11.6,0-28.2,0.1-48.1,0.1H372v-0.3c0-20,0-43.8,0-69.2v-0.3
										h0.3l0,0c24.2,0,46.8,0,66.2,0h0.3v0.3c-0.1,20.7-0.1,38-0.1,50.2c0,6-0.1,10.8-0.1,14c0,1.6,0,2.8,0,3.7
										c0,0.4,0,0.7,0,0.9C438.5,182.3,438.5,182.4,438.5,182.4z"/>
								</g>
							</g>
						</g>
					</g>
				</g>
			</g>
		</g>
		<g>
			<g>
				<g>
					<g>
						<g>
							<g>
								<rect x="394.5" y="136.8" class="st2" width="22.1" height="22.1"/>
							</g>
						</g>
					</g>
				</g>
			</g>
		</g>
	</g>
	<g>
		<g>
			<g>
				<g>
					<g>
						<g>
							<g>
								<polygon class="st3" points="44.2,417 44.2,463.3 111.9,463.3 186.6,463.3 186.6,417 								"/>
							</g>
						</g>
					</g>
				</g>
			</g>
			<g>
				<g>
					<g>
						<g>
							<g>
								<polygon class="st0" points="38.2,404.1 38.2,417 191.6,417 191.6,404.1 111.9,404.1 								"/>
							</g>
						</g>
					</g>
				</g>
			</g>
			<g>
				<g>
					<g>
						<g>
							<g>
								<polygon class="st0" points="114.9,463.3 186.6,463.3 186.6,417 191.6,417 191.6,404.1 111.9,404.1 111.9,415.8 								"/>
							</g>
						</g>
					</g>
				</g>
			</g>
			<g>
				<g>
					<g>
						<g>
							<g>
								<rect x="64.1" y="424.5" class="st0" width="28.9" height="7"/>
							</g>
						</g>
					</g>
				</g>
			</g>
			<g>
				<g>
					<g>
						<g>
							<g>
								<rect x="60.4" y="440.2" class="st4" width="37.1" height="14.7"/>
							</g>
						</g>
					</g>
				</g>
			</g>
		</g>
	</g>
</g>
<g id="Background_Simple" class="st5">
	<path class="st6" d="M469.6,201.9c-5.5-40.6-9.3-70.7-27-91.3C425,90,399.4,76.1,362.2,75.4c-40.6-0.7-63.1,27.1-77.2,50.3
		c-17.8,29.1-11.6,70.3-35.3,94.8c-13.8,14.2-34.5,19-54.2,21.5s-40.1,3.6-57.7,12.7c-33,17-47.1,60.4-36.3,95.8
		c10.9,35.4,42.6,62,77.9,73.3s101,25,137.1,16.6l0,0c54.8-4.8,104-36.7,129.4-85.5c1.7-3.3,3.3-6.6,4.8-9.9
		C470.8,301.1,476,249.8,469.6,201.9z"/>
	<path class="st6" d="M204.3,114.6c-8.5-26.3-27.3-46.5-58.5-53.8c-31.5-9.3-67.4,9.1-82.9,35.9c-15.6,27-10.8,63.5,9.7,87
		c22.8,26.1,63.8,34.7,94.6,18.9S215,147.6,204.3,114.6z"/>
</g>
<path class="st7" d="M244.3,328.6c0,0-2.3-10.2-11.8-9.7c-9.4,0.5-11.7,0.5-15.8,0s-10.4-5.4-12.2-3.9s-0.8,4.8,2.5,7.8
	c3.3,2.9,9,5,9,5l-12.1,2.1c0,0-10.9-5.8-13.4-4.8s-2.3,3.8-2.3,3.8s-4.5-2-5.8-0.2s-1.6,3-0.3,4c0,0-0.8-0.8-3.2-0.1
	c-2,0.6-1.8,4.3,0,5.3l0.6,0.4c0,0,17.1,9.8,17.6,9.9c3,0.4,21.4-0.4,30.9-0.8c3.5-0.2,6.8,1.6,8.6,4.5l15.3,24.2l17.2-19.8
	L244.3,328.6z"/>
<g>
	<path class="st8" d="M213.4,334.1c0,0.1-1,0.3-2.8,0.6c-1.8,0.3-4.3,0.8-7.1,1.3h-0.1h-0.1c-1.2-0.6-2.5-1.1-3.9-1.8
		c-3.5-1.6-6.7-3.1-9.2-4.3c-1.1-0.5-2-1-2.8-1.3c-0.7-0.3-1-0.5-1-0.6c0,0,0.4,0.1,1.1,0.4c0.8,0.3,1.7,0.7,2.8,1.2
		c1.2,0.5,2.6,1.1,4.2,1.8c1.6,0.7,3.3,1.5,5.1,2.3c1.3,0.6,2.6,1.2,3.9,1.8h-0.1c2.9-0.5,5.4-0.8,7.2-1.1
		C212.3,334.2,213.3,334.1,213.4,334.1z"/>
</g>
<g>
	<path class="st8" d="M209.1,338.7c0,0.2-1.9,0.7-3.9,2.2c-1.9,1.5-2.9,3.3-3,3.3s0.6-2.1,2.7-3.7
		C207,338.8,209.1,338.5,209.1,338.7z"/>
</g>
<g>
	<path class="st8" d="M228.7,324.4c0.1,0,0.1,0.6,0.4,1.6c0.3,1,1,2.4,2.3,3.6l0.3,0.3l-0.5,0.1c-1.4,0.3-3,0.7-4.7,1.4
		c-2.8,1.2-5.1,2.7-6.6,4s-2.3,2.2-2.4,2.2c0,0,0.2-0.3,0.5-0.7c0.4-0.4,0.9-1,1.6-1.7c1.5-1.4,3.8-3.1,6.6-4.2
		c1.7-0.7,3.3-1.1,4.8-1.4l-0.1,0.4c-1.4-1.3-2-2.8-2.3-3.8C228.6,325.1,228.6,324.4,228.7,324.4z"/>
</g>
<g>
	<path class="st8" d="M217.4,327.3c0,0.1-2.9,1.1-6.6,1.8c-1.8,0.3-3.5,0.6-4.8,0.7c-1.2,0.1-2,0.1-2,0.1c0-0.2,3-0.6,6.7-1.3
		c1.7-0.3,3.3-0.6,4.7-0.9C216.6,327.4,217.4,327.2,217.4,327.3z"/>
</g>
<g>
	<path class="st8" d="M201.4,340.6c0,0.1-1.1-0.4-2.9-1.1c-1.7-0.7-4.2-1.7-6.9-2.6c-2.7-1-5.2-1.9-6.9-2.6
		c-1.8-0.7-2.8-1.3-2.8-1.4s1.1,0.4,2.9,1c1.9,0.7,4.3,1.5,7,2.5s5.2,2,6.9,2.8C200.4,340,201.4,340.6,201.4,340.6z"/>
</g>
<g>
	<path class="st8" d="M205.7,340.2c0,0.1-1.5,0.8-3.6,1s-3.8-0.1-3.7-0.2c0-0.2,1.7-0.1,3.7-0.3C204,340.5,205.6,340.1,205.7,340.2z
		"/>
</g>
<path class="st9" d="M300.7,281.8c0,0-15.2,8.8-18.4,35.6c-1.7,14-7.7,40-7.7,40L262,343.3L243.1,365c0,0,20.4,43.6,32,55.5
	s34.5,15.6,34.5,15.6l4.6-72.9L300.7,281.8z"/>
<path class="st9" d="M416.3,269.8l-35.2-6.2l-44.9,2.2c0,0-37.4,15.4-35.5,16l-7.3,72.2l18.1,34.9l-4.5,74.3h124l-6.5-51.7
	l-8.1-62.3l15.4,48.2l2.3,65.7h34.5c3.6-28.6,4.8-68.4,4.8-68.4l-28.2-92c-3.9-12.8-12.3-23.8-23.9-30.6
	C419.4,271.1,417.7,270.2,416.3,269.8z"/>
<g>
	<path class="st10" d="M300.3,318.2c0,0,0,0.1,0.1,0.4s0.1,0.6,0.2,1.1c0.2,1,0.4,2.4,0.7,4.2c0.6,3.6,1.5,8.9,2.5,15.4
		s2.1,14.3,3.2,22.9s2.1,18.2,2.7,28.2c0.1,0.9,0.1,1.9,0.2,2.7l0,0l0,0c-0.5,19.5-1.1,37-1.7,49.6c-0.3,6.3-0.5,11.4-0.7,14.9
		c-0.1,1.7-0.2,3.1-0.3,4c0,0.4-0.1,0.8-0.1,1.1c0,0.2,0,0.4,0,0.4s0-0.1,0-0.4s0-0.6,0-1.1c0-1,0.1-2.3,0.2-4.1
		c0.1-3.6,0.3-8.6,0.6-14.9c0.5-12.6,1-30.1,1.5-49.6l0,0c0-0.9-0.1-1.8-0.2-2.7c-0.6-10-1.6-19.6-2.6-28.2
		c-1.1-8.6-2.1-16.4-3.1-22.9s-1.8-11.8-2.3-15.4c-0.3-1.8-0.5-3.2-0.6-4.2c-0.1-0.5-0.1-0.8-0.2-1.1
		C300.3,318.4,300.3,318.2,300.3,318.2z"/>
</g>
<g>
	<path class="st10" d="M408.4,322.1c0,0-0.1-0.2-0.1-0.5c-0.1-0.4-0.1-0.8-0.2-1.3c0-0.3-0.1-0.6-0.1-1s-0.1-0.7-0.1-1.2
		c0-0.8-0.1-1.8-0.1-2.8c0-0.5,0-1.1,0-1.7s0.1-1.2,0.2-1.8c0.1-1.2,0.4-2.5,0.6-3.9c0.6-2.7,1.5-5.7,2.9-8.6s3-5.5,4.7-7.7
		c0.9-1.1,1.7-2.1,2.6-3c0.4-0.4,0.8-0.9,1.3-1.3c0.4-0.4,0.8-0.7,1.2-1.1c0.8-0.7,1.6-1.2,2.2-1.8c0.3-0.2,0.6-0.5,0.9-0.7
		s0.6-0.4,0.8-0.5c0.5-0.3,0.8-0.5,1.2-0.7c0.3-0.2,0.4-0.2,0.4-0.2s-0.1,0.1-0.4,0.3c-0.3,0.2-0.7,0.5-1.1,0.8
		c-0.2,0.2-0.5,0.3-0.8,0.5s-0.6,0.5-0.9,0.7c-0.6,0.5-1.4,1.1-2.2,1.8c-0.4,0.4-0.8,0.7-1.2,1.1c-0.4,0.4-0.8,0.8-1.2,1.3
		c-0.9,0.9-1.7,1.9-2.5,3c-1.7,2.2-3.3,4.8-4.7,7.6c-1.3,2.9-2.2,5.8-2.9,8.5c-0.3,1.4-0.5,2.6-0.6,3.9c-0.1,0.6-0.2,1.2-0.2,1.8
		c0,0.6,0,1.1-0.1,1.6c-0.1,1,0,2,0,2.8c0,0.4,0,0.8,0,1.2c0,0.3,0.1,0.7,0.1,1c0,0.5,0.1,1,0.1,1.3
		C408.4,322,408.4,322.1,408.4,322.1z"/>
</g>
<g>
	<path class="st10" d="M431.8,397.5c0,0-0.1-0.2-0.2-0.6s-0.3-1-0.6-1.7c-0.5-1.6-1.2-3.7-2-6.4c-1.7-5.4-4-12.9-6.7-21.1
		s-5.2-15.7-7.2-20.9c-1-2.6-2.1-4.7-2.7-6.2c-0.3-0.7-0.5-1.3-0.7-1.7c-0.1-0.4-0.2-0.6-0.2-0.6s0.1,0.2,0.3,0.6
		c0.2,0.4,0.5,1,0.8,1.6c0.7,1.4,1.7,3.5,2.8,6.1c2.1,5.3,4.6,12.7,7.3,20.9c2.7,8.2,5,15.7,6.6,21.2c0.8,2.7,1.4,4.9,1.9,6.5
		c0.2,0.7,0.3,1.3,0.5,1.8C431.7,397.2,431.8,397.5,431.8,397.5z"/>
</g>
<g>
	<path class="st10" d="M457.8,395.2c0,0.1-1.3-0.3-3.5-0.6c-2.2-0.3-5.2-0.6-8.5-0.2s-6.2,1.2-8.3,2c-2,0.8-3.2,1.5-3.3,1.4
		c0,0,0.3-0.2,0.8-0.5s1.3-0.7,2.3-1.2c2-0.9,5-1.8,8.4-2.2c3.4-0.4,6.5-0.1,8.7,0.4c1.1,0.2,2,0.4,2.5,0.6
		C457.4,395,457.8,395.1,457.8,395.2z"/>
</g>
<g>
	<path class="st10" d="M301.8,390.1c0,0-0.3-0.5-0.9-1.4s-1.5-2.2-2.7-3.6c-2.4-3-5.9-7-9.8-11.4s-7.4-8.4-9.9-11.3
		c-1.2-1.5-2.2-2.7-2.9-3.5c-0.7-0.8-1-1.3-1-1.3s0.4,0.4,1.2,1.2c0.8,0.9,1.8,2,3,3.4c2.6,2.9,6.1,6.9,10,11.2
		c3.9,4.4,7.4,8.5,9.7,11.5c1.2,1.5,2,2.8,2.6,3.8c0.3,0.5,0.5,0.8,0.6,1.1C301.7,389.9,301.8,390.1,301.8,390.1z"/>
</g>
<g class="st11">
	<path d="M308.7,436c0.6-20.2,1.6-38.8-0.2-58.8c-0.8,17.7-7.3,38.4-13.8,54.9L308.7,436z"/>
</g>
<g class="st11">
	<path d="M416.4,349.3c0,0-5.8-12.9-5.4-12.9c-0.6,24.1,4.3,51.7,13.3,74L416.4,349.3z"/>
</g>
<g>
	<path class="st10" d="M400.6,417.5c0,0-0.2,0.2-0.7,0.4c-0.5,0.3-1.2,0.7-2,1.2c-1.7,1-4.3,2.5-7.4,4.4s-6.8,4.2-11,6.5
		s-8.9,4.8-14.1,6.7c-5.2,1.8-10.5,3.1-15.3,3.1c-2.4,0-4.7-0.3-6.8-1c-2.1-0.6-3.9-1.6-5.3-2.8c-2.9-2.3-4.3-5.1-4.8-7.1
		c-0.2-1-0.3-1.8-0.3-2.3s0-0.8,0-0.8c0.1,0-0.1,1.1,0.5,3.1c0.5,1.9,2,4.6,4.8,6.9c1.4,1.1,3.2,2,5.2,2.7c2,0.6,4.3,0.9,6.7,0.9
		c4.8,0,10-1.3,15.1-3.1c5.2-1.9,9.9-4.3,14.1-6.6c4.2-2.3,7.9-4.6,11-6.4c3.1-1.9,5.7-3.3,7.5-4.3c0.9-0.5,1.6-0.8,2.1-1.1
		C400.3,417.6,400.6,417.5,400.6,417.5z"/>
</g>
<g>
	<path class="st10" d="M400.4,388.2c0,0-0.1,0.6-0.4,1.7c-0.1,0.6-0.3,1.2-0.6,2c-0.3,0.8-0.5,1.7-0.9,2.6c-0.4,1-0.8,2-1.3,3.1
		s-1.1,2.2-1.8,3.4c-1.4,2.4-3,4.9-5,7.3s-4.1,4.5-6.2,6.3c-1.1,0.9-2,1.7-3,2.4c-1,0.7-1.9,1.3-2.8,1.9s-1.7,1-2.4,1.4
		c-0.7,0.4-1.3,0.7-1.9,1c-1,0.5-1.6,0.8-1.6,0.7c0,0,0.5-0.4,1.5-0.9c0.5-0.3,1.1-0.6,1.8-1c0.7-0.4,1.5-0.9,2.3-1.5
		s1.8-1.2,2.7-1.9c1-0.7,1.9-1.5,3-2.4c2-1.8,4.1-3.9,6.1-6.3s3.6-4.9,5-7.2c0.6-1.2,1.3-2.3,1.8-3.4s1-2.1,1.4-3s0.7-1.8,1-2.6
		c0.3-0.8,0.5-1.4,0.7-2C400.2,388.8,400.4,388.2,400.4,388.2z"/>
</g>
<g>
	<path class="st1" d="M302.1,342.1c0,0.1-5.2-0.9-11.6-2.3s-11.6-2.7-11.5-2.8c0-0.1,5.2,0.9,11.6,2.3S302.1,341.9,302.1,342.1z"/>
</g>
<g>
	<path class="st1" d="M302.1,336.2c0,0.1-1.3-0.1-3.3-0.4s-4.8-0.8-7.9-1.4c-3-0.6-5.7-1.1-7.8-1.5c-2-0.4-3.2-0.7-3.2-0.7
		c0-0.1,1.3,0.1,3.3,0.4s4.8,0.8,7.9,1.4c3,0.6,5.7,1.1,7.8,1.5C300.9,335.9,302.1,336.1,302.1,336.2z"/>
</g>
<g>
	<path class="st1" d="M408.6,337c0,0.1-22.5,0.1-50.3-0.1s-50.3-0.5-50.3-0.6s22.5-0.1,50.3,0.1C386.1,336.5,408.6,336.8,408.6,337z
		"/>
</g>
<g>
	<path class="st1" d="M410.3,342.1c0,0.1-23.2,0.3-51.7,0.3c-28.6,0-51.7-0.1-51.7-0.3c0-0.1,23.2-0.3,51.7-0.3
		C387.1,341.8,410.3,341.9,410.3,342.1z"/>
</g>
<g>
	<path class="st1" d="M452.4,330.2c0,0,0,0,0.1,0C452.5,330.3,452.4,330.2,452.4,330.2L452.4,330.2h-0.1l0,0l0,0l0,0v-0.1l0,0l0,0
		l0,0l0,0L452.4,330.2l0.3-0.1L452.4,330.2c-1.8,0.7-9.6,3.4-18.7,6.8c-5.2,2-9.9,3.8-13.5,5.2c-1.7,0.6-3,1.2-4.1,1.6
		c-1,0.4-1.5,0.5-1.5,0.5s0.5-0.3,1.4-0.7c0.9-0.4,2.3-1,4-1.7c3.4-1.4,8.1-3.3,13.4-5.3C442.7,333,450.5,330.6,452.4,330.2
		L452.4,330.2h-0.1l0,0l0,0l0,0l0,0v-0.1l0,0l0,0L452.4,330.2L452.4,330.2L452.4,330.2c0,0,0.1-0.1,0.1,0H452.4z"/>
</g>
<g>
	<path class="st1" d="M451.6,323.7c0,0.1-8.7,3.2-19.6,6.9c-10.9,3.7-19.7,6.5-19.8,6.4c0-0.1,8.7-3.2,19.6-6.9
		C442.7,326.4,451.6,323.6,451.6,323.7z"/>
</g>
<g>
	<path class="st1" d="M384.7,264.3c0,0,0,0.3,0.1,0.8s0.1,1.3,0.1,2.3c-0.1,2-0.5,5-1.8,8.4s-3.7,7.2-7.4,10.2
		c-3.7,3.1-8.8,5.2-14.4,5.6c-5.6,0.3-10.9-1.1-15-3.8c-4.1-2.6-6.9-6.1-8.6-9.3c-1.7-3.2-2.5-6.1-2.8-8.1c-0.1-1-0.2-1.8-0.2-2.3
		s0-0.8,0-0.8s0.1,0.3,0.1,0.8s0.1,1.3,0.3,2.3c0.4,2,1.2,4.8,2.9,7.9c1.8,3.1,4.5,6.5,8.5,9c4,2.6,9.2,4,14.7,3.7
		c5.4-0.4,10.5-2.4,14.1-5.4c3.7-3,6-6.7,7.4-10c1.3-3.3,1.8-6.2,1.9-8.2c0-1,0.1-1.8,0-2.3C384.7,264.6,384.7,264.3,384.7,264.3z"
		/>
</g>
<g>
	<path class="st1" d="M262.9,345.3c0,0-0.2,0.4-0.5,1c-0.4,0.6-0.9,1.5-1.6,2.5c-1.4,2.1-3.5,4.9-6,7.8s-4.9,5.5-6.8,7.2
		c-0.9,0.9-1.7,1.6-2.2,2c-0.5,0.5-0.8,0.7-0.9,0.7c0,0,0.2-0.3,0.7-0.8c0.6-0.6,1.3-1.3,2.1-2.1c1.8-1.8,4.1-4.3,6.6-7.3
		c2.5-2.9,4.6-5.7,6.1-7.7c0.7-0.9,1.3-1.7,1.8-2.4C262.6,345.6,262.8,345.3,262.9,345.3z"/>
</g>
<g class="st11">
	<path d="M375.9,420.3c-5.1,2.9-11.9,3.3-17.9,3.5c-1.1,0-2.3,0-3.4-0.4c-1-0.5-1.9-1.5-1.8-2.7c0.1-1.4,1.5-2.3,2.8-2.8
		c4.9-2,10.4-1.9,15.6-3.2c8.8-2.2,17.8-8.5,24.6-14.4C390.4,409.1,384.7,415,375.9,420.3"/>
</g>
<g>
	<g>
		<g>
			<path class="st7" d="M356.9,288L356.9,288c-11.8-0.9-20.9-10.9-20.8-22.7c0-5.6,0.1-10.1,0.1-10.1s-18.1-2.8-18.3-20.9
				c-0.2-18.1,2.9-59.7,2.9-59.7l0,0c21-9,45.1-6,63.2,7.9l2.7,2.1l-5.5,82.4C380.4,279.5,369.5,289,356.9,288z"/>
		</g>
	</g>
</g>
<g>
	<g>
		<g>
			<path class="st8" d="M336.3,254.9c0,0,11.4,0.9,23.6-6.7c0,0-5.6,13-23.6,11.4V254.9z"/>
		</g>
	</g>
</g>
<g>
	<g>
		<g>
			<path class="st12" d="M384.5,203.4c0.3-0.1,12.4-3.7,12,8.7s-12.7,9.4-12.7,9.1C383.8,220.8,384.5,203.4,384.5,203.4z"/>
		</g>
	</g>
</g>
<g>
	<g>
		<g>
			<g>
				<path class="st7" d="M387.8,216.6c0.1,0,0.2,0.2,0.6,0.3c0.3,0.2,1,0.3,1.6,0.1c1.3-0.4,2.5-2.5,2.6-4.7
					c0.1-1.1-0.1-2.2-0.5-3.1c-0.3-0.9-0.9-1.6-1.6-1.7c-0.6-0.2-1.1,0.2-1.3,0.6c-0.2,0.3-0.1,0.6-0.2,0.6c0,0-0.3-0.2-0.1-0.7
					c0.1-0.2,0.2-0.5,0.5-0.8c0.3-0.2,0.7-0.3,1.2-0.3c1,0.1,1.8,1,2.2,2c0.5,1,0.7,2.2,0.6,3.5c-0.2,2.5-1.5,4.8-3.3,5.2
					c-0.9,0.2-1.6-0.1-2-0.4C387.8,216.9,387.7,216.6,387.8,216.6z"/>
			</g>
		</g>
	</g>
</g>
<g>
	<g>
		<g>
			<g>
				<g>
					<g>
						<g>
							<g>
								<g>
									<path class="st10" d="M327.4,203.6c0,1.4,1.1,2.5,2.5,2.6s2.6-1,2.7-2.3c0-1.4-1.1-2.5-2.5-2.6S327.5,202.2,327.4,203.6z"
										/>
								</g>
							</g>
						</g>
						<g>
							<g>
								<g>
									<g>
										<path class="st10" d="M324.3,200.1c0.3,0.3,2.3-1.1,5.1-1.1c2.8,0,4.8,1.4,5.1,1.1c0.1-0.2-0.2-0.8-1.1-1.4
											c-0.9-0.6-2.4-1.3-4.1-1.3s-3.2,0.6-4,1.3C324.4,199.3,324.1,199.9,324.3,200.1z"/>
									</g>
								</g>
							</g>
						</g>
					</g>
					<g>
						<g>
							<g>
								<g>
									<path class="st10" d="M354.1,204.2c0,1.4,1.1,2.5,2.5,2.6s2.6-1,2.7-2.3c0-1.4-1.1-2.5-2.5-2.6
										C355.4,201.8,354.2,202.9,354.1,204.2z"/>
								</g>
							</g>
						</g>
						<g>
							<g>
								<g>
									<g>
										<path class="st10" d="M351.6,200.6c0.3,0.3,2.3-1.1,5.1-1.1c2.8,0,4.8,1.4,5.1,1.1c0.1-0.2-0.2-0.8-1.1-1.4
											c-0.9-0.6-2.4-1.3-4.1-1.3s-3.2,0.6-4,1.3C351.8,199.8,351.5,200.4,351.6,200.6z"/>
									</g>
								</g>
							</g>
						</g>
					</g>
					<g>
						<g>
							<g>
								<g>
									<path class="st10" d="M341.5,221.2c0-0.2-1.7-0.5-4.5-0.8c-0.7-0.1-1.4-0.2-1.5-0.7c-0.2-0.5,0.1-1.3,0.5-2.1
										c0.7-1.7,1.4-3.5,2.1-5.4c2.9-7.7,5-14,4.7-14.1s-2.9,6-5.8,13.7c-0.7,1.9-1.4,3.7-2,5.4c-0.3,0.8-0.7,1.7-0.4,2.8
										c0.2,0.5,0.7,0.9,1.2,1s0.9,0.1,1.2,0.2C339.8,221.3,341.5,221.4,341.5,221.2z"/>
								</g>
							</g>
						</g>
					</g>
				</g>
			</g>
		</g>
		<g>
			<g>
				<g>
					<path class="st10" d="M350.9,189.7c0.3,0.8,3.1,0.4,6.3,0.8c3.3,0.3,5.9,1.3,6.3,0.6c0.2-0.3-0.3-1-1.3-1.8
						c-1.1-0.7-2.7-1.4-4.7-1.6c-2-0.2-3.8,0.1-4.9,0.6C351.4,188.7,350.8,189.3,350.9,189.7z"/>
				</g>
			</g>
		</g>
		<g>
			<g>
				<g>
					<path class="st10" d="M325.3,192c0.5,0.6,2.4,0,4.7-0.1c2.3-0.1,4.3,0.4,4.7-0.2c0.2-0.3-0.1-1-1-1.6c-0.8-0.6-2.2-1.1-3.8-1
						c-1.6,0.1-3,0.6-3.8,1.3C325.4,191,325.1,191.7,325.3,192z"/>
				</g>
			</g>
		</g>
	</g>
</g>
<g>
	<path class="st13" d="M312.1,163.2c-0.2-2.2,0.6-4.7,2.5-6c1.8-1.3,4.7-1.2,6.1,0.5c-0.9-3,1.6-6.5,4.8-6.7c3-0.2,5.5,2,8.3,2.8
		s5.8,0.1,8.5-1s5.2-2.6,7.9-3.6c5.7-2.1,12.1-1.8,17.6,0.7s9.9,7.2,12,12.9c4-1.2,8.5,0.8,10.9,4.1c2.4,3.4,3.1,7.8,2.6,11.9
		c-0.3,2.8-1.1,5.5-2.1,8.1c0,0.2,0,0.5,0,0.7c-0.2,10-1.3,21.6-5.6,21.7c-7.4,0.1-5.6-13.8-5.6-13.8c-9.1-3.5-5.7-17.1-8-19.2
		c-2.3-2.1-7-6.9-26,2.9c-7.4,3.8-17.2,3.7-22.6,2.4c-0.2,0-0.3-0.1-0.5-0.1h-0.1c-0.1,0-0.1,0-0.2-0.1c-1.7-0.4-3.4-1.1-4.9-2.1
		c-1.7-1.1-3.3-2.6-4-4.5s-0.5-4.3,1-5.7C313.3,167.5,312.2,165.4,312.1,163.2z"/>
</g>
<path class="st8" d="M339.2,229.8c0.4,1.1,0.9,2.2,1.6,3.2c0.7,0.9,1.8,1.7,3,1.7c1.3,0.1,2.5-0.7,3.2-1.7c0.7-1.1,0.9-2.4,0.9-3.6
	c-0.1-1.1-0.6-2.5-1.7-2.6c-0.5-0.1-0.9,0.1-1.4,0.3c-2,0.8-4,1.6-6,2.4"/>
<g>
	<path class="st10" d="M341.6,234.7c0-0.2,1.3,0.3,3.2-0.4c0.9-0.4,1.9-1.1,2.4-2.2c0.5-1.1,0.6-2.6,0.1-3.9
		c-0.1-0.3-0.3-0.6-0.5-0.9c-0.2-0.2-0.2-0.2-0.5-0.2c-0.2,0.1-0.6,0.3-1,0.4c-0.3,0.1-0.7,0.3-1,0.4c-1.3,0.5-2.4,1-3.4,1.3
		c-2,0.7-3.2,1.1-3.3,1c-0.1-0.1,1.1-0.8,3-1.7c0.9-0.5,2.1-1,3.3-1.5c0.3-0.1,0.6-0.3,1-0.4c0.3-0.1,0.6-0.3,1.1-0.4
		c0.2-0.1,0.6-0.1,0.9,0s0.5,0.3,0.7,0.5c0.3,0.4,0.5,0.7,0.7,1.1c0.7,1.6,0.5,3.4-0.2,4.8c-0.7,1.4-2,2.1-3,2.5
		c-1.1,0.3-2,0.3-2.6,0.1C341.8,234.9,341.5,234.7,341.6,234.7z"/>
</g>
<g>
	<path class="st14" d="M372.6,174.7c-0.1,0,0.2-0.8,0-2.2s-1-3.4-2.8-5.1c-1.8-1.7-4.8-2.8-8.1-2.7c-3.3,0-6.9,1.1-10.6,2.4
		c-1.8,0.6-3.7,1.2-5.5,1.6c-1.8,0.4-3.6,0.6-5.3,0.6c-3.4,0.1-6.5-0.5-8.9-1.2c-2.5-0.7-4.3-1.7-5.6-2.4c-0.6-0.3-1.1-0.7-1.4-0.9
		s-0.5-0.3-0.5-0.3s0.7,0.4,2,1s3.1,1.5,5.6,2.2c2.4,0.7,5.4,1.2,8.8,1c1.7-0.1,3.4-0.3,5.2-0.7c1.8-0.4,3.6-1,5.4-1.6
		c3.7-1.2,7.3-2.4,10.7-2.4c3.4-0.1,6.5,1.1,8.4,2.9c1.9,1.8,2.7,3.9,2.8,5.3C372.9,173.9,372.6,174.7,372.6,174.7z"/>
</g>
<g>
	<path class="st14" d="M386.6,205.2c0,0-0.1-0.1-0.2-0.4c-0.1-0.3-0.3-0.6-0.6-1.2c-0.5-1-1-2.5-1.4-4.5s-0.7-4.4-0.5-7
		c0.2-2.7,1-5.5,1.6-8.4s0.8-5.9,0-8.3c-0.4-1.2-1-2.3-1.7-3.2c-0.8-0.8-1.7-1.4-2.6-1.7c-1.8-0.6-3.5-0.4-4.5,0.1s-1.3,1-1.4,1
		c0,0,0.3-0.6,1.3-1.2c1-0.6,2.7-0.9,4.7-0.3c1,0.3,2,0.9,2.8,1.8c0.8,0.9,1.5,2,1.9,3.3c0.8,2.6,0.7,5.6,0,8.6
		c-0.6,3-1.5,5.7-1.6,8.3c-0.2,2.6,0,4.9,0.3,6.9c0.4,1.9,0.9,3.5,1.3,4.5C386.4,204.7,386.7,205.2,386.6,205.2z"/>
</g>
<g>
	<path class="st14" d="M374.3,173.2c0,0,0-0.3,0-0.7c0-0.5,0-1.2,0.1-2.1c0-1.8,0.1-4.4-0.8-7.5c-0.5-1.5-1.2-3.1-2.4-4.6
		c-1.2-1.4-2.8-2.7-4.9-3.2c-2-0.5-4.3-0.4-6.5,0.3c-2.2,0.6-4.3,1.7-6.5,2.9c-2.1,1.2-4.2,2.4-6.4,3.3c-2.2,0.8-4.5,1.3-6.6,1.3
		c-2.2,0-4.2-0.2-6.1-0.7c-1.8-0.5-3.5-1.2-4.9-2c-2.8-1.6-4.7-3.5-5.8-5c-0.6-0.7-0.9-1.3-1.2-1.7c-0.2-0.4-0.4-0.6-0.4-0.6
		s0.2,0.2,0.4,0.6c0.3,0.4,0.7,1,1.3,1.6c1.1,1.4,3,3.2,5.8,4.8c1.4,0.8,3,1.4,4.9,1.9c1.8,0.5,3.8,0.7,5.9,0.7
		c2.1-0.1,4.3-0.5,6.4-1.3c2.1-0.9,4.2-2.1,6.4-3.3c2.1-1.2,4.3-2.3,6.6-3c2.3-0.6,4.6-0.8,6.7-0.2s3.9,1.9,5.1,3.4s2,3.2,2.4,4.7
		c0.9,3.2,0.8,5.8,0.7,7.6c-0.1,0.9-0.1,1.6-0.2,2.1C374.3,172.9,374.3,173.2,374.3,173.2z"/>
</g>
<g>
	<g class="st15">
		<path class="st16" d="M183.1,211.4c1.8-4.1,3.9-7.6,6.4-10.5s5.8-6.3,9.9-10.1c3.3-3,5.8-5.5,7.7-7.6s3.4-4.4,4.6-6.9
			c1.3-2.5,1.9-5.2,1.9-8.2v-0.1c0-4.1-1.3-7.3-3.8-9.5c-2.6-2.3-6.2-3.4-10.8-3.4c-4.6,0-8.1,1.2-10.7,3.7c-2.6,2.5-3.9,6-3.9,10.5
			v0.1h-32.4v-0.1c0.4-7.9,2.5-14.7,6.3-20.3c3.8-5.6,9.2-9.9,16.1-12.9c6.9-2.9,15.1-4.4,24.6-4.4c9.9,0,18.4,1.3,25.5,4
			c7.1,2.6,12.5,6.5,16.2,11.5c3.7,5,5.5,11.1,5.5,18.2v0.1c0,4.6-0.8,8.8-2.5,12.5c-1.6,3.7-3.7,7-6.1,9.8s-5.6,6-9.5,9.7
			c-3.7,3.5-6.6,6.5-8.7,8.9c-2.1,2.4-3.9,5.2-5.3,8.3c-1.4,3.2-2.2,6.6-2.2,10.4h-31.3C180.5,220.1,181.3,215.5,183.1,211.4z
			 M180.6,239.6h31.3v24.7h-31.3V239.6z"/>
	</g>
</g>
<g>
	<g class="st15">
		<path class="st17" d="M95.9,277.2c0.9-2.2,2.1-4.1,3.4-5.6c1.3-1.6,3.1-3.4,5.3-5.4c1.7-1.6,3.1-3,4.1-4.1c1-1.1,1.8-2.3,2.4-3.7
			c0.7-1.3,1-2.8,1-4.4v0c0-2.2-0.7-3.9-2-5.1c-1.4-1.2-3.3-1.8-5.7-1.8c-2.4,0-4.3,0.7-5.7,2c-1.4,1.3-2,3.2-2.1,5.7v0H79.4v0
			c0.2-4.3,1.3-7.9,3.3-11c2-3,4.8-5.3,8.5-6.9c3.6-1.6,8-2.4,13-2.4c5.2,0,9.7,0.7,13.5,2.1c3.7,1.4,6.6,3.5,8.6,6.2
			c2,2.7,2.9,6,2.9,9.8v0c0,2.5-0.4,4.7-1.3,6.8c-0.9,2-1.9,3.8-3.2,5.3c-1.3,1.5-3,3.2-5,5.2c-2,1.9-3.5,3.5-4.6,4.8
			c-1.1,1.3-2,2.8-2.8,4.5c-0.8,1.7-1.1,3.6-1.1,5.6H94.5C94.5,281.9,94.9,279.4,95.9,277.2z M94.5,292.4h16.6v13.3H94.5V292.4z"/>
	</g>
</g>
<g>
	<g class="st15">
		<path class="st17" d="M272.6,131.4c0.6-1.2,1.2-2.3,2-3.2c0.8-0.9,1.9-1.9,3.2-3.1c1-0.9,1.9-1.7,2.4-2.3c0.6-0.6,1.1-1.3,1.5-2.1
			c0.4-0.8,0.6-1.6,0.6-2.5v0c0-1.2-0.4-2.2-1.2-2.9s-2-1-3.4-1c-1.5,0-2.6,0.4-3.4,1.1c-0.8,0.8-1.2,1.8-1.3,3.2v0h-10.4v0
			c0.1-2.4,0.8-4.5,2-6.2c1.2-1.7,2.9-3,5.1-3.9c2.2-0.9,4.8-1.3,7.9-1.3c3.2,0,5.9,0.4,8.1,1.2c2.3,0.8,4,2,5.2,3.5
			c1.2,1.5,1.8,3.4,1.8,5.5v0c0,1.4-0.3,2.7-0.8,3.8c-0.5,1.1-1.2,2.1-1.9,3c-0.8,0.9-1.8,1.8-3,3c-1.2,1.1-2.1,2-2.8,2.7
			c-0.7,0.7-1.2,1.6-1.7,2.5s-0.7,2-0.7,3.2h-10C271.8,134,272,132.6,272.6,131.4z M271.8,140h10v7.5h-10V140z"/>
	</g>
</g>
<g>
	<g class="st15">
		<path class="st17" d="M257,255c0.6-1.3,1.3-2.3,2.1-3.2c0.8-0.9,1.9-1.9,3.2-3.1c1.1-0.9,1.9-1.7,2.5-2.3c0.6-0.6,1.1-1.3,1.5-2.1
			s0.6-1.6,0.6-2.5v0c0-1.3-0.4-2.2-1.2-2.9c-0.8-0.7-2-1-3.5-1c-1.5,0-2.6,0.4-3.4,1.2c-0.8,0.8-1.2,1.8-1.3,3.2v0h-10.4v0
			c0.1-2.4,0.8-4.5,2-6.3c1.2-1.7,2.9-3,5.2-4c2.2-0.9,4.9-1.4,7.9-1.4c3.2,0,5.9,0.4,8.2,1.2c2.3,0.8,4,2,5.2,3.5
			c1.2,1.5,1.8,3.4,1.8,5.6v0c0,1.4-0.3,2.7-0.8,3.9s-1.2,2.1-1.9,3c-0.8,0.9-1.8,1.9-3.1,3c-1.2,1.1-2.1,2-2.8,2.7
			c-0.7,0.7-1.2,1.6-1.7,2.6c-0.5,1-0.7,2-0.7,3.2h-10.1C256.1,257.7,256.4,256.3,257,255z M256.2,263.7h10.1v7.6h-10.1V263.7z"/>
	</g>
</g>
<g>
	<g class="st15">
		<path class="st17" d="M149.5,123.6c0.5-1,1-1.9,1.7-2.6s1.5-1.6,2.6-2.5c0.9-0.8,1.5-1.4,2-1.9c0.5-0.5,0.9-1.1,1.2-1.7
			c0.3-0.6,0.5-1.3,0.5-2v0c0-1-0.3-1.8-1-2.4c-0.7-0.6-1.6-0.8-2.8-0.8c-1.2,0-2.1,0.3-2.8,0.9c-0.7,0.6-1,1.5-1,2.6v0h-8.5v0
			c0.1-2,0.6-3.7,1.6-5.1c1-1.4,2.4-2.5,4.2-3.2c1.8-0.7,4-1.1,6.4-1.1c2.6,0,4.8,0.3,6.7,1c1.9,0.7,3.3,1.6,4.2,2.9
			c1,1.3,1.5,2.8,1.5,4.5v0c0,1.2-0.2,2.2-0.6,3.1c-0.4,0.9-1,1.7-1.6,2.4s-1.5,1.5-2.5,2.4c-1,0.9-1.7,1.6-2.3,2.2
			c-0.5,0.6-1,1.3-1.4,2.1c-0.4,0.8-0.6,1.7-0.6,2.6h-8.2C148.8,125.7,149.1,124.6,149.5,123.6z M148.9,130.6h8.2v6.2h-8.2V130.6z"
			/>
	</g>
</g>
<g>
	<g class="st15">
		<path class="st17" d="M226.4,98.8c0.3-0.8,0.7-1.5,1.1-2.1c0.4-0.6,1-1.2,1.8-2c0.6-0.6,1-1.1,1.4-1.5c0.3-0.4,0.6-0.9,0.8-1.4
			c0.2-0.5,0.3-1,0.3-1.6v0c0-0.8-0.2-1.4-0.7-1.9c-0.5-0.4-1.1-0.7-1.9-0.7c-0.8,0-1.4,0.2-1.9,0.7c-0.5,0.5-0.7,1.2-0.7,2.1v0
			h-5.7v0c0.1-1.6,0.4-2.9,1.1-4c0.7-1.1,1.6-2,2.8-2.5c1.2-0.6,2.7-0.9,4.3-0.9c1.7,0,3.2,0.3,4.5,0.8c1.2,0.5,2.2,1.3,2.9,2.3
			s1,2.2,1,3.6v0c0,0.9-0.1,1.7-0.4,2.5c-0.3,0.7-0.6,1.4-1.1,1.9s-1,1.2-1.7,1.9c-0.7,0.7-1.2,1.3-1.5,1.8s-0.7,1-0.9,1.6
			c-0.3,0.6-0.4,1.3-0.4,2.1H226C226,100.6,226.1,99.6,226.4,98.8z M226,104.4h5.5v4.9H226V104.4z"/>
	</g>
</g>
<g>
	<g class="st15">
		<path class="st17" d="M88.4,72.1c1-2.2,2.2-4.1,3.6-5.6c1.4-1.6,3.3-3.4,5.6-5.4c1.9-1.6,3.3-3,4.3-4.1c1-1.1,1.9-2.3,2.6-3.7
			c0.7-1.3,1.1-2.8,1.1-4.4v0c0-2.2-0.7-3.9-2.2-5.1c-1.4-1.2-3.5-1.8-6.1-1.8c-2.6,0-4.6,0.7-6.1,2c-1.4,1.3-2.2,3.2-2.2,5.7v0
			H70.7v0c0.2-4.3,1.4-7.9,3.6-11c2.2-3,5.2-5.3,9.1-6.9c3.9-1.6,8.6-2.4,13.9-2.4c5.6,0,10.4,0.7,14.4,2.1c4,1.4,7.1,3.5,9.2,6.2
			c2.1,2.7,3.1,6,3.1,9.8v0c0,2.5-0.5,4.7-1.4,6.8c-0.9,2-2.1,3.8-3.4,5.3c-1.4,1.5-3.2,3.2-5.4,5.2c-2.1,1.9-3.8,3.5-5,4.8
			c-1.2,1.3-2.2,2.8-3,4.5c-0.8,1.7-1.2,3.6-1.2,5.6H86.9C86.9,76.7,87.4,74.3,88.4,72.1z M86.9,87.3h17.7v13.3H86.9V87.3z"/>
	</g>
</g>
<g>
	<g class="st15">
		<path class="st17" d="M192.5,77.6c0.7-1.8,1.5-3.3,2.4-4.5s2.2-2.7,3.8-4.4c1.3-1.3,2.2-2.4,2.9-3.3c0.7-0.9,1.3-1.9,1.8-3
			c0.5-1.1,0.7-2.3,0.7-3.5v0c0-1.8-0.5-3.1-1.5-4.1c-1-1-2.4-1.5-4.1-1.5c-1.7,0-3.1,0.5-4.1,1.6c-1,1.1-1.5,2.6-1.5,4.5v0h-12.4v0
			c0.1-3.4,0.9-6.4,2.4-8.8c1.5-2.4,3.5-4.3,6.1-5.6c2.6-1.3,5.8-1.9,9.4-1.9c3.8,0,7,0.6,9.8,1.7c2.7,1.1,4.8,2.8,6.2,5
			c1.4,2.2,2.1,4.8,2.1,7.9v0c0,2-0.3,3.8-0.9,5.4c-0.6,1.6-1.4,3-2.3,4.2c-0.9,1.2-2.1,2.6-3.7,4.2c-1.4,1.5-2.5,2.8-3.3,3.9
			c-0.8,1-1.5,2.2-2,3.6c-0.6,1.4-0.8,2.9-0.8,4.5h-12C191.5,81.4,191.9,79.4,192.5,77.6z M191.6,89.8h12v10.7h-12V89.8z"/>
	</g>
</g>
<g>
	<g class="st15">
		<path class="st17" d="M271.4,68.5c0.4-0.9,1-1.7,1.6-2.3c0.6-0.6,1.5-1.4,2.5-2.2c0.8-0.7,1.5-1.2,1.9-1.7c0.5-0.5,0.8-1,1.2-1.5
			c0.3-0.5,0.5-1.1,0.5-1.8v0c0-0.9-0.3-1.6-1-2.1c-0.6-0.5-1.5-0.7-2.7-0.7c-1.1,0-2,0.3-2.7,0.8s-1,1.3-1,2.3v0h-8.1v0
			c0.1-1.7,0.6-3.2,1.6-4.5c1-1.2,2.3-2.2,4-2.8c1.7-0.6,3.8-1,6.2-1c2.5,0,4.6,0.3,6.4,0.9c1.8,0.6,3.1,1.4,4.1,2.5
			c0.9,1.1,1.4,2.4,1.4,4v0c0,1-0.2,1.9-0.6,2.8c-0.4,0.8-0.9,1.5-1.5,2.2c-0.6,0.6-1.4,1.3-2.4,2.1c-0.9,0.8-1.7,1.4-2.2,2
			c-0.5,0.5-1,1.1-1.3,1.8s-0.5,1.5-0.5,2.3h-7.8C270.7,70.5,270.9,69.4,271.4,68.5z M270.7,74.8h7.8v5.4h-7.8V74.8z"/>
	</g>
</g>
<g>
	<g class="st15">
		<path class="st17" d="M165.2,289.1c0.4-1,1-1.9,1.6-2.6s1.4-1.6,2.4-2.5c0.8-0.8,1.4-1.4,1.9-1.9c0.4-0.5,0.8-1.1,1.1-1.7
			c0.3-0.6,0.5-1.3,0.5-2v0c0-1-0.3-1.8-0.9-2.4s-1.5-0.8-2.6-0.8c-1.1,0-2,0.3-2.6,0.9s-0.9,1.5-1,2.6v0h-7.9v0
			c0.1-2,0.6-3.7,1.5-5.1c0.9-1.4,2.2-2.5,3.9-3.2c1.7-0.7,3.7-1.1,6-1.1c2.4,0,4.5,0.3,6.2,1c1.7,0.7,3.1,1.6,4,2.9
			s1.4,2.8,1.4,4.5v0c0,1.2-0.2,2.2-0.6,3.1c-0.4,0.9-0.9,1.7-1.5,2.4c-0.6,0.7-1.4,1.5-2.3,2.4c-0.9,0.9-1.6,1.6-2.1,2.2
			c-0.5,0.6-0.9,1.3-1.3,2.1c-0.4,0.8-0.5,1.7-0.5,2.6h-7.7C164.5,291.3,164.8,290.1,165.2,289.1z M164.6,296.2h7.7v6.2h-7.7V296.2z
			"/>
	</g>
</g>
<g>
	<g class="st15">
		<path class="st16" d="M142.9,46.1c0.5-1.3,1.1-2.3,1.9-3.2c0.7-0.9,1.7-1.9,2.9-3.1c1-0.9,1.7-1.7,2.2-2.4c0.5-0.6,1-1.3,1.3-2.1
			c0.4-0.8,0.5-1.6,0.5-2.5v0c0-1.3-0.4-2.2-1.1-2.9c-0.7-0.7-1.8-1-3.1-1c-1.3,0-2.4,0.4-3.1,1.2c-0.7,0.8-1.1,1.9-1.1,3.2v0h-9.4
			v0c0.1-2.4,0.7-4.5,1.8-6.3c1.1-1.7,2.7-3.1,4.7-4c2-0.9,4.4-1.4,7.2-1.4c2.9,0,5.4,0.4,7.4,1.2c2.1,0.8,3.6,2,4.7,3.5
			c1.1,1.5,1.6,3.4,1.6,5.6v0c0,1.4-0.2,2.7-0.7,3.9c-0.5,1.2-1.1,2.2-1.8,3c-0.7,0.9-1.6,1.9-2.8,3c-1.1,1.1-1.9,2-2.5,2.8
			c-0.6,0.7-1.1,1.6-1.5,2.6c-0.4,1-0.6,2-0.6,3.2h-9.1C142.2,48.8,142.4,47.3,142.9,46.1z M142.2,54.8h9.1v7.6h-9.1V54.8z"/>
	</g>
</g>
<g>
	<g class="st15">
		<path class="st16" d="M237.5,46.1c0.5-1.3,1.2-2.3,2-3.2c0.8-0.9,1.8-1.9,3.1-3.1c1-0.9,1.8-1.7,2.4-2.4c0.6-0.6,1.1-1.3,1.4-2.1
			c0.4-0.8,0.6-1.6,0.6-2.5v0c0-1.3-0.4-2.2-1.2-2.9c-0.8-0.7-1.9-1-3.4-1c-1.4,0-2.5,0.4-3.3,1.2c-0.8,0.8-1.2,1.9-1.2,3.2v0h-10.1
			v0c0.1-2.4,0.8-4.5,2-6.3c1.2-1.7,2.9-3.1,5-4c2.1-0.9,4.7-1.4,7.7-1.4c3.1,0,5.7,0.4,7.9,1.2c2.2,0.8,3.9,2,5,3.5
			c1.2,1.5,1.7,3.4,1.7,5.6v0c0,1.4-0.3,2.7-0.8,3.9c-0.5,1.2-1.1,2.2-1.9,3s-1.7,1.9-3,3c-1.2,1.1-2.1,2-2.7,2.8
			c-0.7,0.7-1.2,1.6-1.7,2.6c-0.5,1-0.7,2-0.7,3.2h-9.8C236.7,48.8,237,47.3,237.5,46.1z M236.8,54.8h9.8v7.6h-9.8V54.8z"/>
	</g>
</g>
<g>
	<g class="st15">
		<path class="st16" d="M138,323.9c0.5-1.3,1.2-2.3,2-3.2c0.8-0.9,1.8-1.9,3.1-3.1c1-0.9,1.8-1.7,2.4-2.4c0.6-0.6,1.1-1.3,1.4-2.1
			c0.4-0.8,0.6-1.6,0.6-2.5v0c0-1.3-0.4-2.2-1.2-2.9c-0.8-0.7-1.9-1-3.4-1c-1.4,0-2.5,0.4-3.3,1.2c-0.8,0.8-1.2,1.8-1.2,3.2v0h-10.1
			v0c0.1-2.4,0.8-4.5,2-6.3c1.2-1.7,2.9-3.1,5-4c2.1-0.9,4.7-1.4,7.7-1.4c3.1,0,5.7,0.4,7.9,1.2c2.2,0.8,3.9,2,5,3.5
			c1.2,1.5,1.7,3.4,1.7,5.6v0c0,1.4-0.3,2.7-0.8,3.9c-0.5,1.2-1.1,2.2-1.9,3s-1.7,1.9-3,3c-1.2,1.1-2.1,2-2.7,2.8
			c-0.7,0.7-1.2,1.6-1.7,2.6c-0.5,1-0.7,2-0.7,3.2h-9.8C137.2,326.6,137.4,325.1,138,323.9z M137.2,332.6h9.8v7.6h-9.8V332.6z"/>
	</g>
</g>
<g>
	<g class="st15">
		<path class="st17" d="M128.6,199c0.5-1,1-1.9,1.7-2.6s1.5-1.6,2.6-2.5c0.9-0.8,1.5-1.4,2-1.9c0.5-0.5,0.9-1.1,1.2-1.7
			c0.3-0.6,0.5-1.3,0.5-2v0c0-1-0.3-1.8-1-2.4c-0.7-0.6-1.6-0.8-2.8-0.8c-1.2,0-2.1,0.3-2.8,0.9c-0.7,0.6-1,1.5-1,2.6v0h-8.5v0
			c0.1-2,0.6-3.7,1.6-5.1c1-1.4,2.4-2.5,4.2-3.2c1.8-0.7,4-1.1,6.4-1.1c2.6,0,4.8,0.3,6.7,1c1.9,0.7,3.3,1.6,4.2,2.9
			c1,1.3,1.5,2.8,1.5,4.5v0c0,1.2-0.2,2.2-0.6,3.1c-0.4,0.9-1,1.7-1.6,2.4s-1.5,1.5-2.5,2.4c-1,0.9-1.7,1.6-2.3,2.2
			c-0.5,0.6-1,1.3-1.4,2.1c-0.4,0.8-0.6,1.7-0.6,2.6H128C128,201.2,128.2,200,128.6,199z M128,206.1h8.2v6.2H128V206.1z"/>
	</g>
</g>
<g id="Desk">
	<g>
		<path class="st10" d="M481.1,463.2c0,0.1-101.6,0.3-227,0.3s-227-0.1-227-0.3c0-0.1,101.6-0.3,227-0.3
			C379.5,462.9,481.1,463,481.1,463.2z"/>
	</g>
</g>
<g id="Plant">
</g>
<g id="Features">
</g>
</svg>
